<mxfile host="Electron" modified="2024-06-07T16:02:54.638Z" agent="Mozilla/5.0 (X11; Linux x86_64) AppleWebKit/537.36 (KHTML, like Gecko) draw.io/24.4.8 Chrome/124.0.6367.207 Electron/30.0.6 Safari/537.36" etag="HMm4DDzIcI07LvKiZ8-Q" version="24.3.1" type="device">
  <diagram name="Page-1" id="BHnorUVM6ejZE8omf8U0">
    <mxGraphModel dx="957" dy="681" grid="1" gridSize="10" guides="1" tooltips="1" connect="1" arrows="1" fold="1" page="1" pageScale="1" pageWidth="850" pageHeight="1100" math="0" shadow="0">
      <root>
        <mxCell id="0" />
        <mxCell id="1" parent="0" />
        <mxCell id="TsEhPajcDDmh2en5Xbsn-7" style="edgeStyle=orthogonalEdgeStyle;rounded=0;orthogonalLoop=1;jettySize=auto;html=1;exitX=1;exitY=0.5;exitDx=0;exitDy=0;entryX=0;entryY=0.5;entryDx=0;entryDy=0;" edge="1" parent="1" source="-BB69u0BcrIW1WyyOu73-1" target="-BB69u0BcrIW1WyyOu73-2">
          <mxGeometry relative="1" as="geometry" />
        </mxCell>
        <mxCell id="-BB69u0BcrIW1WyyOu73-1" value="" style="rounded=0;whiteSpace=wrap;html=1;" parent="1" vertex="1">
          <mxGeometry x="230" y="120" width="120" height="60" as="geometry" />
        </mxCell>
        <mxCell id="-BB69u0BcrIW1WyyOu73-2" value="" style="rounded=0;whiteSpace=wrap;html=1;" parent="1" vertex="1">
          <mxGeometry x="380" y="120" width="120" height="60" as="geometry" />
        </mxCell>
        <mxCell id="TsEhPajcDDmh2en5Xbsn-9" style="edgeStyle=orthogonalEdgeStyle;rounded=0;orthogonalLoop=1;jettySize=auto;html=1;exitX=1;exitY=0.5;exitDx=0;exitDy=0;entryX=0;entryY=0.5;entryDx=0;entryDy=0;" edge="1" parent="1" source="-BB69u0BcrIW1WyyOu73-4" target="-BB69u0BcrIW1WyyOu73-6">
          <mxGeometry relative="1" as="geometry" />
        </mxCell>
        <mxCell id="-BB69u0BcrIW1WyyOu73-4" value="" style="rounded=0;whiteSpace=wrap;html=1;" parent="1" vertex="1">
          <mxGeometry x="530" y="118.75" width="120" height="60" as="geometry" />
        </mxCell>
        <mxCell id="TsEhPajcDDmh2en5Xbsn-10" style="edgeStyle=orthogonalEdgeStyle;rounded=0;orthogonalLoop=1;jettySize=auto;html=1;exitX=1;exitY=0.5;exitDx=0;exitDy=0;entryX=0;entryY=0.5;entryDx=0;entryDy=0;" edge="1" parent="1" source="-BB69u0BcrIW1WyyOu73-6" target="TsEhPajcDDmh2en5Xbsn-1">
          <mxGeometry relative="1" as="geometry" />
        </mxCell>
        <mxCell id="-BB69u0BcrIW1WyyOu73-6" value="&lt;div&gt;&lt;br&gt;&lt;/div&gt;&lt;div&gt;&lt;br&gt;&lt;/div&gt;" style="rounded=0;whiteSpace=wrap;html=1;" parent="1" vertex="1">
          <mxGeometry x="680" y="118.75" width="120" height="60" as="geometry" />
        </mxCell>
        <mxCell id="TsEhPajcDDmh2en5Xbsn-5" style="edgeStyle=orthogonalEdgeStyle;rounded=0;orthogonalLoop=1;jettySize=auto;html=1;exitX=0.875;exitY=0.5;exitDx=0;exitDy=0;exitPerimeter=0;entryX=0;entryY=0.5;entryDx=0;entryDy=0;" edge="1" parent="1" source="-BB69u0BcrIW1WyyOu73-15" target="-BB69u0BcrIW1WyyOu73-1">
          <mxGeometry relative="1" as="geometry" />
        </mxCell>
        <mxCell id="-BB69u0BcrIW1WyyOu73-15" value="Source" style="ellipse;shape=cloud;whiteSpace=wrap;html=1;" parent="1" vertex="1">
          <mxGeometry x="110" y="117.5" width="90" height="65" as="geometry" />
        </mxCell>
        <mxCell id="-BB69u0BcrIW1WyyOu73-16" value="" style="shape=image;verticalLabelPosition=bottom;labelBackgroundColor=default;verticalAlign=top;aspect=fixed;imageAspect=0;image=data:image/webp,UklGRroYAABXRUJQVlA4WAoAAAAQAAAAOwEAXwAAQUxQSP0BAAABT0AkQEIlGq3+n+mIiEjsLpBiW5skKY+Zz7ENXNlybXsJLAGHxSHB/cx86+3KiMg/In4mE9H/CWBohADbfkJBw4bwTZXkJeFDFUSEGysSblU5jNtVjZfR4WrgXhXj0uVahAdWIjxSwKsieCxglyAGibBVAQ+z7e2Fx0cFfLq2Fk6sPD7WfK5NLCnWEa6KCIFzs48PVljE8pjVfmcLl0W2FavyApjhupN44OTaTfoZNJXSnStwRhHOCFy8Wnmh74HlrFX1icq4PkRxiP+trlMAKX4uQesSdAnoEhA99xAz0BYZyPOtRxPwsEHTPB3l83y2Zoku8rgRIHLEGu66SOHTL1NoUGSgK04TPS/BK4nTfCq26CLNj55rnmjQeY2ewL0aoem0kteAE7zpiwnuMixyCkFshRyxJyoUxaFJv84DvBlacCV0QALvLQ50iUowgPPeQuxCA4C2KwO0EU6h89KwUbXQEjfUEzuiORq4wcogMojeB3oQtjVKkE3k/NnAmSFu2mYZJHWO4zD9PooCDD1gefoDE9NdGpxcm4hb6nlDtAHEAblbXsxlf2rTOR/nYLZO4ZOV5uumnGZ+z6K9UZ1LceKPSAy6L46G6GdtIPYl6HGzaN6MjyIbe6Gn94Z7/5wARK20iWhwZVQ5DaEa7tQufBTJ2OXPW8CQGMcaAQBWUDgglhYAALBXAJ0BKjwBYAA+mT6XSCWjoiExVyzIsBMJZgDRumLdXnVmr9buQHyX419ivdl1d5UnSnnC/1XrY/QXo3dNnzKfup+xXZx9AD9t+u39F3pmP3X9HTNP/61+Lvuu79fwXiX+O/Ov3b+0fuJ62Wa/qmzW/bD9J/Vf8F73v4b/feDvxh1BfyL+jeCXs27Vf8D1Au63/H9N75fzL/OP71/yvcA/kH9Q/2/lG+C19v/0fsA/yr+0/93/I/5D9pvp//qP/j/qvQf9Lf+3/UfAl/Pv7D/3f8T7cPsQ/eD2M/2a/+aw3omCTy90KP2tuYk2kYA5oKld8CuiSdlqEoeE9qV+jmps9MZjqQRqJ6i+fgmJGL5NerqvHFHINMpLQBOIUN+0bsG37EBrOeqTtltuOWOgVOpwSwpatO6ZFH9t/flGFhNcaA6NMxRlpm2R+0B3V2dEUsx3NP7b+W0oOnnRggzJzuuBaIu4ehPvydp/1RaeNYOKqkO/LHzV9UQ8haJl+tky1d+MZlJRPh6hJ9k0A4VFtgK+SvoxE67D5zI/5ySJYLb7FAJ9IjN68ESHT7sIdUoqhUKTMWp/aJlb6xCdZ3c+JHhYnB5AkwnKICd3HwLcQ0WicpwF07aVtAILXLpHKR6SIDv1ogj+rjWosaWXgxCrWWn74eBROkX3uhqZJCVOA0D8pIha6goxJH2SmEsqzh0847k/97hLWMix51GtFfJxEAG/4pIKsCDXuY4NStYz8ZWiBV+5rAvGFLn90ib4hcYxXfEqTKvnVPDWwwHaA0lA4MwRbDOIvsQnEqDMJ81Gvn0EyV+evITgg604XKyuFrgDU+VO/X7ar6pRHFlnzbbg/mf3Tb6Ipfz8yv7GvRNG+MxhXP5Xd2nD3c+JzAcjBpd4AQtYq75TEEfvtYI5yLbu6g+K5iiTDTitt47JIKf/lwJY+e7UhHAAAP78rRnPVDFxmZQpKfegzrCWdAHHKCr9cavk1bbvYrzgbbC2Z2eFgn2kuptz9Uhr7QSe36x1KAUwOyMsiRAEhOf4+M9VJ/oFz6ZnbTLVnvkYIBHMlIn4EpIVlgxLagzrtAAtk0JqEcGBraEE77VTMMuOcpLj+icLzCwmjh9FbhiV378BF4GMy1FWZzY3PtiKqWvq9OwRdge4NkgDvIE9E5PPR8er7UTnCclrbUc5wiQycVi4L7QQ1RgDWr6s+Chv7FB8/fPTH+Vt+nVzoucHBCgtAKH558yl6Gad8aEf6Kp1OKwpITcOF0+2decP7ZRMMGNXSMZnMfrWFzKv1dvf37TzQ9Bwplv4p3kihEiiP/Rd16Qvbch+ccC1FCEZWuQpd5V1JSTeEGV/tlksgAAAAP7y8L43yxWTqcZVX4cuenBBtO2vK+PCRqOJ2KTbtI27Lisy5ugQPuExisPmhUtMh8lUNT0WUBzEcckhC+GkiYzQEH5K5U1BmFGG82wZzV9/jrABAWomCVdajcSvjmAWyWYxJ85WF11QuUkxjHUdJ4WzBtuqB/wnAowQ1+6nDEPcqGL+x8vLO6oSO9pZ62spvlcLsirSB3D4Wi1S2Cx1KGoXWATqGmn+yXqEtU3jb+LPgarWuAcCFLcZ6PeArNrZBnHAliADvrkM9CKyUASILyHXj2tA7I556ujjjgAzeu7+Pxf4SCsp5T2qDlw8myhDcMcMrizsjw9J62/V7cbKY6IiYxM2fBNi4H5L9XbAARS4hO/QdhlmfvKlfSh1JXfZ2K5K0S6BkVUdfcYJKZYhaznX91+8ZNbTGTYAJaZjio4pDlIGaKaGTSTXPdD97NpnFNDrR9P2l42PS84eq/flfcaqSwdHuvI0hrZYvUc8kgZOKfmzgtzIZry6TkkrkcqEWAUhcZbY078LyVQWL2+BMv0MPSddrLWuaAILZVATHC6O/dpn/lyMI1e6pst4K02aa1uuVlapTrwPhnGJAchBRcE7STZpz9u8dERs9i78/AXkmxAzC4lrwwrpBgHkRNLRC5EEJoAytOefOe6aNl2jbc1xz5Q4vALBqxt8rL//lCqNQhHNBe6qODw2ok0/ukwcG9cmAUHmOC4sUJ5CFdkV9JVaO5Ae6dxCIi9dnWkjDO1O5WvO0vmF7v5dQqimkf4CZqC8SUeqroh2sEbSRpw8LJMA/8j57oL3XDxwDm7Bz6c6We2RvHRKwvbB53Oz6Sce1ueWHJEO9oLya50yQOtD5MfM5sKvsN/b5YwVLLeS/x2I+dgMC81fgK0udLsVYPc1UheCHA6sf/d+G7Kwc+A9HKBUeeoX2P5q8zew258hhBe3cWm5WriMUtelAHiQJbXa/IOBAoc1A9S7gmmCt+BfGhX2dXiz3ozVsPgrjUQrkPeGu0AOK3tsmQW4Mz2GsH+VTRNil+oIB6Kql3kz/sHcRyFD1mb2FcnZDrIVQJeAx89LUIhorWQI2UHK7IJpKs/T1XkfpitN9f8WU9J1KyjyuIihJLoWPEwy0AeDhwyiGXdJ6OyWoOZTY0OYwKI25e/YHQv9YYjQvfuqNfPW5+hRNxNFaAvU7xe4MJSfhdEJmNYvUxr7+HIeD9XYQxEI/JJDChIFhNa6LQhnwBIOw2h8teQrh2sNmfmOyB0lYNJ2XIohYZuLFkvY20KumuMOspQShDGh1xgFUQBNBdyjWBXEmUeKMuoKyAQo6VmaumuZptIMVe5U8dfuf/OUl3yLc8Ytjrf6FaoEiBpza1Rzzty9hu5O2c0PFXyZFLj+p8le+VbWe2d6czOJHn00aVXasb9erWrdCkYuFieguBqu9oKpgEsnXL1Dh8VH8Whc8qQf8fdpyzWxfcvcoU9XOlBu/Le2oUGYInSirON5NXGfqEm3anSLWm3RrdvxG9GWCLkokF6fH4l5WmV2UiwOIbk6wVBBnpfwB5vKlhWTc/WXuBhCs6sARkh+ypDiiBDTHtmtNQWpPHPUAGUC9uD86gCCVH+ZFtzU05NkCz/RxqkwSsm6k1+NRgJ+ONw52JJ/8osJve7j8EaWQebvbEPOnz87fv8C93HrGX5xBD8OjiP7af61DpmfUfmUBUKFaeprLRmLeIR2MObrOqinL379KpstUSNswllB9KI/ux7OvpAb01Qpb7ONuMkLPntWJ6SVWRFKldjOawSO3qkr1QAusRAYL/JovytbWgg4f3TyQs/TCuvZ8RMh+IEapaTJwkDNhk6ZXZEPKXIi51ZOIymkbuOdJrmgw9uyD4V0AeoU42ILr5Ou7xU9Z70uGUks49Z4Ho0X+FZGZEd0OWER0uOFSjPyjeIjFNOZ6Qgpqe1MJPDLovDj+GF6Sh0qAL+RsgmkCMGzJngaOn+qhd/9H25Kgl3eMqq0QdpfIsFbj5/4BH/5+LrdM8qA3bA/F2Gz+P3RXSP7VNOohE2NzKjIHXryG1FYfsh9LyyNcelJBs7RpkzV2j0c5smuXy5uR39AluRP9QS0m/tAgKYfwTEbhUirQlzIx2hwC7pwJb9a6JGqmZeQE63Sh9ROUlXgwSiIjHG0a57+Gdsf4wPVQ9Gmfy7hj4UrXctzTCdxbfBY8J1Lm9onis1HWz/Gt5y0HhVj20CcXYzxQlQ597IKUk2PTO/+Ay72ve+ATCO6sTrniYuVmaDQGCCkopeO8JlA+ODc8z9EW1yot8PTykmA7neK8w2yOIaC7Nmll6EOnJSCiUvoJK/w2T05GSHWHiwdpqwPpswIEzTZ2XFs+jTem/gQQ0S2VBF6wgoZVeIgYzsLA49gaGe2MNyB+NxQ8jF62lZ34aEMtw0Qogi1nBlnbxer208NVOsK1XmeKp4ZviT6KLIeaZI1LH84RJmqQwUf+JFX/rrE0qUT9kApQIovdq4hfzr5HHqMSy97/IH5syHPqOItwQ0xOqweF8Sbp95sjeeCDMmOv3HfFCga8qV/zxtLumKGjU3gpwp/cQrJhVxDripiK6elxT7FpcpPOAFhKwPVZRPvfSwuEPDfa0BkRGTVP7VDLeEOj6IFl08HMa66lBqNoBCmpuv0J3ksm4DHdkDpqCyehtHibG980DRoRNxJr3QHIC5aEFBHUv0l6m5luL90BQ4VRSlNy8A97XwRptpR0Hp6yO2FGJ+4g+H9IcxzJwStMdthgrpAApNps3mnfkKS2pOM93MQjqNhpT8AERqi461q2Kav+gEQF8XV1ZvZMzqPK9GVqSM+GaNZ7acz3bnU6Bb6ub5sFAuIl1Vo595nmQcsSww5NCLbNMiLdsSXB2q0Gh521TzqZq+w1pL2MkCtV5weS2LY0eX0xuqfJxZWFtjxUegBZjvQ/ayUwJgjV9paGpQxPQ+GQ/bG+YYqED5wmu8ZSkSAAb700jR3YCNDc2M9GZIWY6JqCJLAht780XhbHb1AMvZMHHVhc4MNTyRdVL4FxT/q8i3S7ofP3T72khGhTx2EGfQs389B57iA8ebV4HAu2x4uNZ0OEE5zqvkrqRLxSBMfN2eR4kJbeze47REgFPWCr2n+FiEpzyyCWxts4ac7dGPjxjNkfGnX26ELWtlHmv+r6UWf+68n2jh1jsP6gs+4fnOW6zDeabPlX9+QJWEWMF5uZg7lRdN7nR+uEe97kkEetDEYUA7PYVQD7KV4f0c/bPSfDNeZO9OcQ6Gbt/y2NxcDiQ3Z30e3VjodmthSFUpiLdt3XrFIb+3+QOjpX6MRLCFzPQj+EaBuOunuvvgXuSqamNFN7DDwkKRxVXOnY/afrcy3yfLOpBqlQ5/xmm/cguTcYP+GnQCmii5+H2YSWS8Muh8EPeIR4+OuFZW8RzXtSYy1hpybeS3zuAci3B+0yKF6QG5Vgv7tQivjYmPXqauBk5QKiGKvnXVW1MhK5TFicj9tTM1mHPA5MgUOi3YFzP+XqkGbhsqFfTPXF2B6UOPSLdDk2M82BGw4lIODy4XuiIOGbqhzGZXNSR6Ki8252Q3zGMt0gsDx42/nhvfrppsnsLLuY/XzrZHOpXo05q8O3dLSDgzDaYlBc2CWotZ7yA24Pe+czz5GXq3lHuzQ2Yi+PB6e8VTQPj1WIc5CKQSUraSZyyawKZU7PMmv4IDRZe3fMv+C5ATUp/9AJ3MTvjBp1QGvcC+pVeiDA+uW3qMZd+YrbL+1Di2RaUdFrW+NxdJsNKJZmIbf9UxTJhvcZpEVMjeFhKaPFVQBSWir7/fyU8vT9Zfb1z1Xqp6TNPIwnS9+wfm2nCnqe3C1gdsxH4/oP3qGhpZMLRkw17GPkKMG01jLcqjN55vE7+iIe+xQPaXIQorPEOar4gYivvrz0CIJs1oT4UMLOtBP0rlbeZSGwaGYrCpSCZsbyxtNSGWJ4NSDwSjEsjMd/HLgo+yabjKWKWfrzCPSwbOeHyVUDWPeNqQBGMXXc42jrLcwcD2AL5FqHTKa9+vMZFb1vIMcN9dDQsEAADtZlia5KkggiJu+AO4TXmewQnWGYv11JzIq3WYF3XWsW7jYLZxhP2pTn77Ff1OX1qpa0U+uunoeH83azNwu7PREX/eQ+vm9ZmvCJUG/0KT97ZLNVsjNSKA7/7FcuJf0g1gwWgMAetOMBTPZ0qt86J8fKMtcsWrK4XerFrluJs0r9ODVltzXyaG0KJVlPnvXm3BmpVZA1TONuoGU2Thrtv9vA/XG30PS+kp2tb4yfbPz5/CbCn8DvRPdZe37dkC0s7Z9dkcjzwZtYynAxehv+avjp/i5185xpYJjRRAwRIYgwZ1vZJ8qofKBq304EgvVsyEg43c6u2RL0kaXvnJTQB22ffiiX6ZyCVv8rOzise/H7AOS5lubQODpzfD16o5JuAGArAjTEtGT60Pq9G7zfRjjik7Ip0fq3hbPTsjVjVMz/196uMjLhvudIJlaShH/5J/q5eGziz9IsHuB6HvWCrzk8pQ3fuex+eSouGiVfKEgRRA6673tB2XYX1llaJSw9Am/aGgqtdx0PjZDztFK4p8z1E5wDRvaCwQAUxj6zv/nfutHaohgBJu7I2YKBvtwvU8EnGKHq1SlOEe0kjqGXjYRynemdFMDB3fvSStamSalpMkbVavj/JWyy4Pf8G9/W8oBmA10EU8tam+DUxXuROGNnzz1U5tR9NtKUYDwT+wupmZAJ43wLcr3VwYePoOkyBsPRehp1l23yEfPpyQ91KUxXeQsUev0NGoomSzWZQ8Oz5TTvs8s92hVcGCmgq5Bh4aGPbk5SLHyFNCmByhnyD02IMOGpwhjD8Ul7AK66Qe43IVUhe0d4iaqECYAejXgh8HgOv+hnH75sP36TQ/9TnlL3sITqzfU2dyy9Gp4RqJ7uzz3oqNXTme5uqRdoaIrXJf//4NNhlXIyI/7ywlzygZM2nzreSeNXeeFH8zh2jvYDO/JEMel2E7FBK1Cr+TZS7l4msjAASH6AyTsvl+LvNHMjjfSmWSOnihDBkhjthAz7dlWkAzaNXPDF/5BP3yzpm1f9jjVvQcCcUsmKD07yVoGefmGWU7oALFUwIm7bKvw0mNU3e3q5rj/hZxaWt40QpZ7Z1BAkHIjaDM/yYtFB+cjNpQI6J+4MimOU0SPjaNL3tVNFj9q7mtllw/6gDZp8qxvaZEhB2fk8SWIf2quCpSEgyl9dC4dRNAr9g4bE7pBmqY/2wf//zLZs8hQO2D+s3+TeNv/+W0u/t5/nWK4jf9Dz1V2wyPYX4th4iwAAKdMpHrWeqCyO6w2GD1Di1S1ivcF5MB/4wKMTR7VEhp8nREmmXP88JWNp/MO3khPAuiqGzeqhi6yvZeSxfG0Ohkblad51zZMTHrgIWUhWzEHnbpZ9PDUy08mnLRLeAVVs5F1KxzHhSdQXtJVgBzs/5Hlg7x7CL/wQQ2jAj5/92odtaSF0DN4AMFHWBxOTr4gowXGTixdxTGs/V0Ev3OyFgaI5UmziFMtUbX2hrSur7W1Be26lWx3X1jTr2mh02Dj8c3RtSsfsoTcUVDhdNb8B2cui1OI3hOKFVrEQKHl3b+1AOIYj2+uY4/DNGQsd+4f7oVkEDxN31eY9FwqUmEel661hvkyyn43YN/ZJs4k/Ry/IsLt4gU9M1VJt1a7zH/WLnianvarSbPwK/rFvPkfjndk0Epcvup8PG/3XTnyD9E27XeDfu4Zo2ATTddkGByfoWsIcgzFytexlLKF4sAUwQnBEbvwXlAOoCtycfeGqXVsDpE1qHlQlS84XtRsEm2Pnr2j70Bz8gGGSKIG4eZtD8iNXgVyi2KPEncLhyujbYj043o6aDTjaKkVtnm/y9UkCDAMcjgbNiIH/tccPDQNIMb0Pjh1Ot/Ic+9wLz6qNPNro0DIiUbIAzLGNIGequZvpxzrK8FG8W6jC6g4gNUwgD4EdMfAsA3ITxYhgeau8j4ZYfNxuG0mFJPrLY/Oik1AVMZ4b53Dtmlfh1r0UJoUXi91jvr73BWzR4Tg5c89vpjt8JWS+CLGfZRqN0y/LANWGNT9tjAE24OlHCZIOSh4XApkR4qqwb0yLNtT6fl/ESSsXuekIfpCD08Q/D8h3XzSZ+9u+++8OSUdBuTvs4UkrTD8Ybzf2uc3Ui1ZFLuzY2GIogqWckpedmLylo/224yykNUIHVixI8SIitEITC1wTeFPKjVx5ci0Ko/l62rqmlFgHWuGBKYKQWDzIYeEvv+YT5T749nzpXC3CFiKJKBP5KvRkNYb6NZ2WbAJKVyF1SvqADe6cQ62kZ8MtObMPzug2PGA/4lSUbgufLItGetrj6Rd9X+ZyCOeU9uAAAAAAAA=;" parent="1" vertex="1">
          <mxGeometry x="390.63" y="135" width="98.75" height="30" as="geometry" />
        </mxCell>
        <mxCell id="-BB69u0BcrIW1WyyOu73-17" value="" style="shape=image;verticalLabelPosition=bottom;labelBackgroundColor=default;verticalAlign=top;aspect=fixed;imageAspect=0;image=data:image/png,iVBORw0KGgoAAAANSUhEUgAABLAAAAH7CAYAAADchmbHAAAABGdBTUEAALGPC/xhBQAAACBjSFJNAAB6JgAAgIQAAPoAAACA6AAAdTAAAOpgAAA6mAAAF3CculE8AAAABmJLR0QA/wD/AP+gvaeTAAB3mElEQVR42u3dd3hc1Z3/8c/3zoy65N57I/RmQ8BAEofi9LIJzm6WTQK4JFRLMiWbNrvZLM2SjGmRZEMgZROz2ZJCMJCfdzcgMLENJJDQsXHvVrOs0cw9vz+AhOIydzQzmhm9X8/Ds1nrnjvnfs7M1dyvzj3XBAAAAAAA8lZNXdMtMrtMTs9Joc/V116ykVRQaDwiAAAAAAAgPy1qWPZxmS2SVCbTafL820kFhYgCFgAAAAAAeSgajXrOuX95xz8696mauqaZpINCQwELAAAAAIA81FY55otOOvk9PzC7kXRQaIwIAAAAAADIL/MbGyMV+70/y2nKwX7uZB9tqJn7IEmhUDADCwAAAACAPFPeGVpwqOLVG9xN0WiUa34UDN7MAAAAAADkkUW33Fduct843DYmndhWOeZC0kKhoIAFAAAAAEAe8b3uhZJGHmk7Z/bd+Y2NERJDIaCABQAAAABAnrj+hjsHyVNtMtua3LTK/d7FpIZCQAELAAAAAIA80VMc+bqcBiW7vZO+M7+xsYzkkO8oYAEAAAAAkAeuvWn5aCddHqiR0+jyTu9y0kO+o4AFAAAAAEAe6In435EUeDaVmb5+/Q13DiJB5DMKWAAAAAAA5Lhrbv3+NJNSW8/KaVBPcVENKSKfUcACAAAAACDH+YnQv0hK+YmCTq76mpvvGUmSyFcUsAAAAAAAyGE1dctOcdLne7mb8kQk/m3SRL6igAUAAAAAQC4zd2tart+d5lfXNx1HoMhHFLAAAAAAAMhRtQ3NfyPpnDTtLmSyG0kV+ciIAAAAAACA3DO/sTFS3hl6zuSmpbUQ4OuCukXzHiZh5BNmYAEAAAAAkIMqOrzL0128kiTnuVui0Sj1AOQV3rAAAAAAAOSY62+4c5CZvpmZvdtJbZWjv0TKyCfcQggAAPqtBx54qThc1T4kEXZDvYSGSjbczA1xpqHmNNSXG2Lywm9s7Qbor3/8K5JUnsRLxCR1vvefXafkxWSuW0775Sxhnt8mSb7v7X3jS5rfLrO4c9Ylab88tcol2uRHOhPmdzg/3Lbm7BNao2Y+IwkAhae6vqneZNUZrAZs8eLFRy2+5kudpI18QAELAAAUrAceeKk4Mqhtsu80xUlTPWmKk6ZImixptKTKAjjMLkkdktqd1GpSh+T2mNkeyfZIbo8v2+M5f7fk7ZGz3eYSe8I9pXtmzTqug3cJAOSeRbc0T/JD+rOk4ky+jpN9p6Fm7j+TOPIBBSwAAJD3frlmTVlRLHSyzE13vk40z02R0xRJY8WSCYcTc86b85GzTvlvogCA3FFd33y/SZ/Pwkt1+OYftaR6wVZSR64LEwEAHIJzFv2nf6LQnyHR73zHycyRBIJa8dxzRVV7e6bJ86ebabqcpivmTpP8IjnJTBLvrGQVeZYoKrjzi3MULTPkO5Izzt1ARtXUNZ8h6XNZerkKz3nflTSX5JHruDADgEOorm++waTrSSJTv4HsB/XVcy8mCBzJrx9bNyFk+qBn7kPOudMlO1pSiGTS9WXQzblg5oz7C+V4HmpZd66Te4SRzZjXZ8+cPoEYgAxxzmoalv1O0llZfFXfN/+0JdUL1jEAyGXMwAIAADnljYXV953rQt5n5Nx5kpv0xnd6ib+9AQAKWXVD8xckOyvLL+uZ826RdC4jgFxGAQsAAPS5Bx54qdgb0P4JM31BavuIk1cpClYAgH4kGr2npE3xf+2L1zbpw7UNTR+tq57/G0YCuYr1AQAAQJ/5zWNPnfZgy9rbQwPbt5i5f5fchSqMJwMCABBIW2W8VtKkvnp933m3Xrl0aTEjgVzFDCwAAJBVK1asCA0YN+Vjcrpe8me+8a+sCQ0A6L+uXdo8Nh7X1/uyDyY3LRwvvUJSHSOCXMQMLAAAkBWrVj1X8dDja68dMHbKBjn9QtJMUgEAQErEVSepvK/7YdJ3rr1p+WhGBLmIGVgAACCjVj7zTLl19syN6cD1chpJIgAA/FXt4saznXRhjnSnMhHx/1XSVxgZ5BoKWMiKVatWhWNFA2aa6Vxn7jg5TZM0Tm+szjvwzc32S+qWtF3Sy5I960y/LT7Q+uisWbMOkCIA5N+5v7u46qvqjH/LyYaTCAAA73ThihUht2nf7cqhp5Y46UvV9c3LG2rm/Y4RQi7pVQHrwd+tO8lCbnmKzTsuOPPUWWaW9kUvHmpZ90Enl5H7dp1Tl5ltlfSymZ6wiP+/58+Y0ZrpgVr5+NofyumY1PrsffcjZ53y333xBlv5xNrp8u3KmNxnJVfl3jwjHkLZm/8NknS05D5hTtfHiqu6Vj6+9ue+b3d+9KxTH09Hv3792LoJIXP/mez2JnXMnjn9Ayll0LL2f5xUlfSHMuF//rxzTns1uX2vu8HJze7Lk4hJm2bPnP4pTqcA3vEd4dE1s2KeLTHpRNIAAODgxm/ed5mTnZRj3TKTlly4YsXp98+Zk2CUkCt6VcCykP9Ryaan2n7lo0+dKOmZdB+U72ygmZueqU/yWxUY5yQXs/jKlrW/kdR0wZmn/joTBbn/fvTRSjl9QVIkxUQ+IymrBawHf7fuJHnudvk6Ow0L85bK6SLP3EUrW9b+Ts6/bPZZpz3bmx16LlFi5p0SoEl7L17uJPvrLLMjilukNOn3o9xkSaf07WnEDRQAvOmhR9eNluduc9LfkAYAAId2+e33DlEs9p0c7d6p4zbuu0RSMyOFXNHLRdzt3F69eFjnFkCGYUmflPTLh55Y1/Jwy+/TXkwoCZV+SCkXryQznZ+tMJxz9lDLmm9ZyP3eTGdn4CXOkXnrHmpZezkfXwDILQ+1rLnQee4PFK8AADiy4u7YjU4akrMdNLvx8tvvHcJIIVekXMBatWpViaSzevPiTgVRwHr7AZ3hy3viwZa1V6R1t67XOY35zaO/f1+mD3/NmjWRhx5f+wMn+2f1ouCWhIiTbn/o8XWL+QgDQN/7bcvTYx5sWfugk61QLn8RBwAgRyxsaDxVpktyvJuDi7tzdoYY+qGUC1g9xQPOklTaq1d37oMPPPBScYFlWmTSbStb1v1runZocuf1dh8hzzsvkwftnLPdPXa3ZF/KVtDOudqVj637Jh9jAOg7Dz6+7ry4EmtMmk0aAAAkdSFjnvOWqNd3RGWB6bKauuUnMWjIBSl/YNI0e6o8NKD9/QV6Vvr6gy1rF/Z2L79+8smRkh3b695keLbbQ4+vvU5OF2X/hOr++aGWdefyUQaA7Fq1alV45WNro+bcSkkjSQQAgORUNyz/kqRz8qS7IXnudjlnjBz6WsoFrHTMCpIkMxVs8cGkWx5s+f3pvdlHpCd0ntLzSNVZK1asCGXiOB989Onj9MZtg30Ss5O7u6WlpZSPMwBkx6pVTw2MlVQ9JNN3lA9/PQYAIEdce9PySpO7Ia867dzZ1Q3NFzJ66GspfelcteqpgU46NS2fBamQZ8+EzbymqHMpf7n305fPwKqxkzLyZEbP829X6mtexSTtVe8eVTi+3Yq/yscZADLvoUfXjY4VJ1bJaRZpAAAQTE8k8U+SRuVfz63usjvuqGAE0ZdSKqwcKPE/LClNs3nc+x944omqgk3Y6aSZLeu+mPJpIo0FPs/Svw7Wg4+uPcfJfShgM1+mZnPeKY+feWrp7JnTB8+eOd1zfuh4SYsl9QTP2dVkaoYZAOCtc/7TxznPXy3ZyaQBAEAw1fWNJ5jsinzsu0ljS7uLoowi+pKXYqN0zpoKh/zIB/r4w/inUMKfcrD/zPOOMrk5krtPqRRWJDnTwlTa/ebR379PpnHpOs40PM3wve8FL/CxxU36/Owzp8+/4KxTno6a+W/94CNnn/zc7JnTr/F8fUCyPQFHcezA0ZNYQBgAMuQ3j/7+feYlHpFsLGkAABBMNBr1PHmNyuzT2jPKSVfX1C07hdFEXwmn+M5NthCyVUlMj3TSeZJ+1Vch+FL3Beec9uphNnlJ0v0rVz8TVSLxQ8mdFfAlpq987PfHzz7rtGeDNPLM0pqzpJktLS2lM2fO7EpHbo888cSIhK9PB2pkil5w5vT/PNwm5589/YmVLWu/LOkXCrD+lwt5n5H0AB/rw33W7LsJp+Xp3GfEWQ/JAoXtkdVPH5VIJFaJxdoBAEhJW+WYBZLOzP/6gWu8cMWKM++fMyfBqKIP3oDB/Lbl6TFxJd6X5OVyvWS3HGkry5N1sGa//6TXVjz33IcHth74Dyd9PFBjs09IejZgmyRv+bN7nXNzzTT0CBuWtHuRsyU9nI484q7osyaX9G17Jm3YV1VyS1JZz5z+q5Uta58IdJJ3Op+P9JHeUm7vx2dO30ASAJL1wGNrpiQSif9RXq7XAQBA37t6SfMIOX2vV6v+5swFhU4bt7F1vqS7GFlkW+BbCBOWSLZIsD4UCv8iyW2Pe/D/1uTFF+M5xx0Xi3vhr0rqDPhJD/Q0wjfXc/pQMts6Z0+YZ08m1QtnaSsWmq+/CbK9L3f3nOOOiyV/bnQ/C9ilib/63R8G8bEGgPR4ZPXqISGzX4viFQAAKQv5qpdT4VynmLvx2puWj2ZkkW2BC1hJPzXQafW5p5/0kqTdyXwELGIfzpfQPnbGSZsk/Shgs0D3Cr/5xMCkTnKec793zl+d1LCkqYC1Zs2aiCzYrZRmWhnozZlwvwzar0gocQwfawDovVWrVpXE4+H/kvQ+0gAAIDXV9U0flPR3hXVUVhWP+Lcwusi2QAUs55wlvf6Vp9Vm5py0JqmPQJ7cRvi2A7wvYIMJQWYHBXhi4OsXnH3qlpBsdZLbn7pqzZqhvT363T06VVJZgCYHWqtKnwryGue9sS7ZNgV7k/KXAABIg1hJ1T1mOpskAABIzZVLlxab7PsKsK5vHvliTV3zxxhlZFOgAtZDLWuOU7K3EThv9RsvYEnODNIF+RRcUfe+JyUdCNDEikOxpJ/clPwTA9/IN9ztrZaSuqvai3V7H+rt8ZsL+gh1Wxvk9sG35fBkoO3NscAwAPTSysfWXCWnvyUJAABSF+kp/bqkowv2AE23RqP3lDDSyJZABSxL/ql4PZXqemO2jZ9IdmbQmEdWP31UvgQ3a9asuEwvBGmT8G1gMtutWrWqRNLMZLZ969bBWbNO2eeceym5cfR7PdvNd5ocZPtkb3F8T189Wx+ogWOdFgDojd889tRpMruZJAAASN01t35/mkzXFfhhTm2v6vk6o41sCXYLoZIuYP1h5syZXZLkRfxkZwYpEY+fl1fpOe0PFHbIkrqFMFZacY6kpCrZoZD+UhjyLMnZbur9OlhmNilgg9dSy9htCvQyngbysQaA1Kxa9dRAz/wVkopJAwCA1PmJ0J3JXtPlMye7fmFDM+sQIyuSLmCtWrUqLOmDSW1sfy2qnPf+9++W9GpSzczyah0s55QIdBKTS+oEFuBJgXG/NPL2daWSneU07TePPzWxl0c/Itjm3saUXsWsPcj2JpXysQaA1MSK3RJJE0kCAIDU1TY0/b2Tzusnh1vkOd0l54yRR6YlXcCKFQ88XVJVMts69+6ZQMnODNKHV6xYEcqX8MwUCRa2HUgyv/OSzOuPs086qfMv/+AnvZC7POd69dRHkwItBG8hf1Nqr+MHOhE6ClgAkJIHH1vzccl9mSQAAEjd9TfcOcg5q+tnh/3B2iXLL2L0kWnh5AsDifMsyYcnuHeve+X81TL7YhJNB1aOmXaqpN/nSX6BijgJJdqOeAHR0jJY0inJ7M+Te0fOg0v8Z3bHrEvJFXHOlXR3qgfuZEOSvDP0zWMPb0/ldTznnkg47/qkt5d7kY81AASzatVTA2PmN5IEAAC901McqZM0ot8duHMNVy9pfujWhfO28y5ApiRdwLLk103at/qsGe9cTNzT6mRrHZ4lzlMeFLAe+L91wyQ3JUgbzyvacMScXcmHZS65mXHvWvNqxowZPStb1j4t6cwkzjDnOefMzFzQY3fO2UOPrxsS6EQeb29NJefzZ572lKSn+KgCQCa/bPvflTSGJAAASN2ihuYP+05f6Y/H7qQhIadbJZ5ijMxJqlCy8plnyiW9P8l9Phk189/+D4m9A56W1J3cGz8/1sEKhfwLAzY5MCTUc8Tb6II8IdAOvuZVsrcRDn9w9boTUjn2Xz/6x4EKUPyU5J4666xOPm4AkHsefnztMU5aQBIAAKRu0S33lftOzW9cpvVTTl+orm/6LO8GZEpyRYj9iQ8oyScSuYOsd/Wxj03rXtmy7hnJnX6k9iad1dLSUvrWUwxz0Zo1ayK7Y7YwWCtbO2PG9J4k8kt2sb+2x8449YX37sBWK8lJVZ7TuZL+EPhNE+oZErBJx7uLmnmo/MHH1ryQYtsqTjUAclXCqcEUbE1HAADwTr7XfYOkyf09B5Pdcf0Nd/7PjV+/bC/vCqRbOLk3oc5N+j4z568+5L+bnZ7EHkrarOQsSY/kami7ui1qpmlB2jjn/vdI2zz86JrxvjQ1yV0+edCiUDi0Wol4cieXNwpYDUGP33NehQtWj2ovgM+KZ2ZH5f1ROF2+smXtp9O4w1/NnjljMadSID892LL2IybNJgkAAFJXU9d8hkyXkYQkaVSsOHKLpLlEgXRLqoDl5JJ+BKgp8vtDXP6vltOVSe3jjcJKzhWwnHP20BPrFsrpuuB1A++/jrSN73nnJ70wujv4rYKz33/Saytb1m2X3Igj70IfWvHcc0VzjjsuFuRYElLEC3b4+/mo5Ywpb/6Xps+E9xKRAvnLZN8M8kAOAADwTlcuXVqsuFsuWYg0/uKS6vrlKxpqLn2IKJBOR6xDrFqzZqickl0r6dXZZ5204+AXukmvzSQFKJhlQ9Q57zeP//5DDz2x7rdyqpcU9OT0wkdmnrzmiEetAOtfefbkYfaU7CL45YPau04PmkfIixcFbBLnowYAueXhlrWzJXcWSQAAkLpwvDQq2bEk8c7LVZNrvOyOOyqIAmn9vB1pg1i3d16yT8VzcocsUs0+89RXVras22WmoUns6pQHW1oGf2TmzD1Z+XRJk1a2rFtxiKMaosefOlnyBqe6f+dUd6Sn/b35ZL9Zye6zJxQ/dAHrjXWwPpHMfvyEnSfp0SDH4yesyAJNwXIJPmoAkFt82beYfQUAQOpq6pafJPm1JHHQa8CJxd3F/yJpIVkgXY5YhnDSuQF2dsgClpk5MyU7MygkVzIrizkMlNyFB/9PH5bc4F58cJ8bWux+cKSt3nwi4Mhk9mjSho+ffvq2Q6eXSHq2W5Dx/cvuPQs2A8uMGVgAkEMefnTtGcy+AgAgddFoNCzz7xYPQjnMdau7snZx49kkgXQ5YgHLLMBtbb6tPsI7eHXyb/bghZUc1OP5NnfGjBlHfPpgyFmQ2yYPm6MXticlJbXKupnOeOCJJwI9Jc8PepJ2YgYWAOQQ33NfIwUAAFLXVjnmOkmnksRhefK8ZdHoPSVEgfS8oQ7jgcfWTJFsUpL76in3up853AZB1sEKsh5UznJu4flnT38iueMNULCzwxcKz58xo1XSi0nuLewlwucEOSyzYDcQmihgAUCueGT16iGSzSEJAABSc/WS5e+T6ZskkdR17vvaqxLfIAmkw2ELEWGzAE8f1NMzZ87sOvxW3U8qyQU3zOyo3zz+1MS8Tdb0zdlnzbgzmU1XrVoVlnMBikjJ3CJoyc92MwtULHRSDx8dAMhP8XjoK5L4SygAACmIRqNeyLll/C4Ncv3orl/Y0MhsNfSad/g3WqDCxhELJm8uyv5y0p1z7sN5mGmnTBfNPnP695Jt0B2pOlNSZZKb93RH7KkjbmV+gKc+KtBTH4MWsFzwpzYCADLETBeRAgAAqWkbMLZGzrGuUzBhz9nd0eiKIqJAr95Ih/pB1DnPtaybZZbknpK9PdC0Wk7TktzruZLuzpuLAunXLhS+cvb7T3ot4MVEkELhHz85Y8b+Iw+HVlvy+zz+108+OfKwC8O/vb++YrL0vM/ySMw5d3tqF4t2uaRiTjcA+tojq58+KpFInEwSAAAEt7Ch+Rg5988kkdJV0UltA1q/LXHrJVJ3yMLCGU+sPdnMhia9p5CXVAHLOa02Jf3X33Odc2Zmufyc7wOS+5XvvPqPnnXq46l9lu28pB9l7pK7NXBoRH/cHdN+SWXJ9CAU9z4s6SfJ7NtzLuYHKGBZYRSwuj9y1oyUHpG7smXtJcqRApZzutnk/zBd+/NcaA+nUSB/xBPxv7WAf4EAAABvPHWwzde9MpWSRqoXI7pu0ZLGXy5euGA1YSAVhywseLLzkq8a2Z7z339yUrcGOuetNvOTfYePeOTxtcdL+mMOZdYh6TmTfu+c/W9RzB6ZNeuUfanu7L8ffbRScqcnXzFI7tbAGTNm9KxsWfdUso9JtzduF02qgOWH1SM/+WP0nQvzUcsN5mnb7DNPe5YkgH56DpBYvB0AgBS0VY75pkynkUTv6g++83582R13nHzn5Zd3EAcCv4EO9QPngtzW5p5MdpbUsOLE07tj1iUlV7lOvFFYyXQB6yVndtmhfugp0ZUwrz2inu3nnXHG9nS+cIlX+kFJkeSjDvAkR+evNrOzktw86XWwXDx0wLzkHyxoFuD4AAAZsbJlzdGSHUcSAAAEU1O37BSZ+0eSSAOnKSXdRd+TdDVhIKiDFrAeeOClYqkt+YXpnIVWtqydn8ymu2OSpD2SxiSzvfdGYWVJhnNo+8iZpz7SR2MQZP2rhDPvQytb1n4guc1tSNK3JkrjH1n99FHnvf/kF488Jv7eYPd0egN6E9BDLWt/7qSqZLf3zZv30TNPWc/HGwDe9qva6ePG3YMAAARy5dKlxepx90n8UT6dsdYuaXqgbuH8lUSBIA5awPKqWmdKVpb0XsydL+n8jHzhlj6wZs2ayIwZM3oKdAyCPAEwZM7dFSi9ABJ+/FxJRyxg7RtUvGtA6wEnJbuQihsYdc6LJn/v6LuP4gJJFUlv7yd46iEAvOd3tX2UEAAACCaSKPtXmTueJNL7rcT5tvz6G+484cavX7aXOJAs7+Dfce3cHOpj5d643l+I4T/yxBMjJOXQ7RzJjfuc446LSWoP8j6b8egfezMLqyTIxi7id/LRBoC/WrXquQqTeOQ3AAABLGxYdpac41a3zBgTKymqJwYEcdAClizQrKCM811OFdTSJuEi50k59Dgop3NXrFiR7OylXYHeaF5scCpderM/gRaBN9/fz0cbAP6qp/jA+cqRp6ECAJAPFt1yX7nn3A8kcXdHxq4/3Vdq6po+RxBI1nsKWA+vWTNA0vTcemOrIAtYppw7roEDR089Jcm+7w52rKGUClhlo46uCtqmtKuLAhYAvI2vwvw9CgBAxn53hmINkqaSRKYviu2uq5c0jyAIJOM9BSw/plkKOOMlC8584IknqgoufacP51yXPD+p2XfObGeg85I0OpX+hBUfH/AMuGfWrFlxPtoA8I5z8AdIAQCA5NQubj5fcnNJIiuGhXw1EgOS4b33S25O3q4XDsdDBbV2xyOrnz7KSRNy8DInufF3bmOgvVpiWmrvUJsYrIF7jY81APzVr373h0HKqfUWAQDIXQsb7hnoe7pbubTUS+H7dG1D098TA45YHnjP5X+O3mbgW2Gtg5WIx8/L0a6d3dLSUnqkjcz0arDdWkoFLFNiQsAG6/lYA8BfRUI9Z+lQa14CAIB3XSDHm0waSxLZ5ZzdXrt42QSSwOE/n2/z0KPrRks6Jhc7ambnFVLwlrsFuZIOlcxM4gieD3bAOjHFoALNGnC+28DHGgDefhp1PH0QAIAkVNc3XyqnC0miTwx0If3owuQfKoZ+6B0FLN9TLheJTvj1k0+OLITQV6xYEXKyD+Vq/5KZhRfv0eNvbJr0Tk97ZPXqIYH74lygnDyzV/lYA8DbT792OikAAHB419zcOMWkBpLoyy8t7uyxm9q+QRA4lHcs1m7yzw12q6/7dzO9kvr70z4qJT0zxyLx8CxJ/5bvoVeOmXaq5Ad4Kp97zUwrUn0937cRZvpKstub3HmS/vFw23zsA6fuXNmy9gVJRye521A8EZot6SfJ9mPl6mcmKRE/Ksixmq+1fKwB4O2/QuykIH9vAACgv5nf2BiJd4Z+bHKVpNG3TO5bNXVNj9TXzm8hDbzbu582GOypeKHItRe8/6SUF81e2bJml2S3JP0dXP65KoAClmeJ84IUCp3Tf86eOeP6VF/vl2vWlBXF7CIl+XRJJ536YEvL4I/MnLnnsCcXs18755ItYMnMPqkABSwl4pcFPNQD4Z62p/lYA8Abfv3YugmSG0wSAAAcWkWH/YvMvZ8kckJYZj+9/oY7T7rx65ftJQ683V9uIXzgiXXHShZksbods3tRvJIkz9MTwVrY+YUQugv6pEfPVvfm9T45Y8Z+J/0xQJOQs+IPHfk4/PsDHvhnH350zfhkNn14zZoBkoI+uvaRWbNmHeBjDQBvnsxlJ5MCAACHVl3f9EGZ1ab0ezbkaezwoZo2drRKiosIM33GxUoijcSAd/vLjJyQC/r0Qfd4b1+83I+tbVdxTFKyn/bxD7asnfqRmdNfztfAV61aVRKTZgZpE0q4J3r7uubsCZk7JdntvTfWwfqPw21zwRnTn3zo8XUvSUr2CYPFvmf3PfDAS7M/9rFp3Yd8ZzlnDz2+7h5JAwMdo+nnfKSP9LHVxStb1n4g7fs1rZl95vTvETCQWzxLnOh4CjgAAAd1/Q13DorJ7pMUeOHwwVUVOnHaZBVH3rik9uX0yqathJq+65YLa+qaL6qvnfcjwsBb/npLmQu6/pVW9/bFZ86c2bWyZe0fJM1I/kLZzpOUtwWs7pIBZ5tzpQGabD3/7Bmv9/4qxl8tZ18LcMI498hDYe7BlrVLTbotQE8+GB7Y/uBvHv39Vz969mkvvPuHv215esxDj6/7vqRPBDtA21PhDvyMj/QRnfDmf2lm/MkJyMnvft7RrH9VEOKS2t/6v86pykwVkkqIBgBSFyuO3CNpfNB2A8rLdOrRUxXy/vpMtN372gg07ZcYuuuaW7+/+parv/oSYUB6s4C1YsWKkGQfDPSl2NcT6XlP6gkXoIBlzj9X0vfz9jMYcKabSY+n43X9hHvC8wIVKN+38sknx80+/fSNh9uouLvkB7Hi7n8KssaKk/uQ53nPr2xZu1qmP8jZbidXKaeT4kqcoSTX6nrnTt1dM8+a2cVHGgDeYSoR5A1f0gsyrXVOa0162ZPb0J0o2vSJc0486Bogq1atCneGhyS14HCxxSrNuXCPKRLyQiN9aYKZm2TSBMltIX4A/U1NXfPXJH06aLtQyNMJUye+o3i1a1+r9nV0Emr6VSTioR/Pb2w8q2nBgh7iQFiSBo2ecpof7HathB+Op+dpb06rZboi+Qbeh6POeVEzPz8jd+cF2tx6P9NNkj5y1owXH3p83W5JQ5J+6UToXEk/ONw2s2Yd1/Hg4+u+YU53pdCt98vp/dKbN7ikfpfL3h4/UsfHGQDegwJWbtssuQed834TKvYfOX/GjNYgjWfNmhWXlOwCt2/f7gWiB9CfLWxoPkZOi1Npe8yEcSovLXnb5az04uv8HSBjTKdVdoa+LelbhAFPkvw3bssL8iZ69mNnnJGWOZK+BZ3J5QafuXrdKfkY9qpVTw2UFKjvzrf0zHQzc5KeDPTaSm622BNnnNIk2WN9dk4z1Rzqr9MA0F/96nd/GMQTCHPSAcnud2bnX3DmqeNmz5wx9yNnnfrzoMUrAEBqrly6tDjk9BNJZUHbjhg8SGOGv3M+wOYdu9S+nxtBMsnJ/WNN3fJZJAHvzQLAuQHfQU+kqwOzzzz1FUk7A718ImDBLUd0F7lzFWyBwLgqQmvT1oGgs7mcne+cO+K8qKiZHw/HPy/p9eynavdecOb0H/BRBoB3CnkJZl/l1tfvTSa38IDfNXz2zFPnfOTMUx95849LAIAsiiRKb3TSyUHbFRcV6bjJ71wuK+4n9PJGFm7PAk/m33v9DXcOIop+/kb45Zo1ZU7uzEBfwVx6bmuT/jIzKND+TEGfmJgbUuj3H2afdFLabqb2Ahce3YiHWtYcl8yWHz/99G0Jzz4quU1ZuxRw+kXrgOL5fIwB4CDnfEuMIYWc+N2/wczNax1QOuWCmTNu/fTZZ7eTCgD0jUUNyz4up6tTuGjViVMnKBJ+51yE9Vu2q7uHpZmyZFysOHKfkphggQL+flsSs3MkFQdpFPLSNwNLkuQsWEHM3DktLS2l+Ra2kx+sgGXpzTnc7a3WG4vEBjhXW9J9/tgZp/4p4UXOdNJTWYiz0W+tmjPnuONifIwB4GC/Wr2RpNCnuszcTZHukuMvOHPGMn5fAUDfqqm7e5xz7l6lsPLu5NEjNLjqnc/M6I71aP3WHQSbXZ+obVi+kBj6L88PPito32NnnJrWxT9d8IJYSbsrPjOfgn740TXjzeyoQLkELewdwaxZp+xTwIVbnSzQ++NjZ5y0aWiRe79M35R0IP1XZNpocnNmz5z+1Y99bFo3H2EAONT50h9OCH1mjW/esRecOeP6WbOO6yAOAOhb0Wg0LEv8mwvwQKu3VFWUaeqYUe/595c2blEi4RNutr/eyN1UU9c0kyT6J89J5wV7w2h1up8A2J3Yv1pSImA/8uo2Qt/zAq/bFQ55T6S7HxZ8VteH1qxZEwnSYMaMGT2zz5z+vZDXM1FyX5f0ahq6vk5mV8WK3dEXzJxxPx9dADjC+d4xA6uPvBzyej7x0TNPWU8UAJAb2gaMvUnSWUHbhUKeTpw6Sea9c9JWx/4ubdm5m2D7RkRmP7389nuHEEX/EzanRc4zL/kvxH7a1zj69Nlnt698bN2HnaeipBslDr3wu59wLV7Ezk96Xy7RlumgzbPf+U7nB2lz7uknvZTufjgv/F3nJ34SpE0s1h2WFPjm7vPOOGO7pBudczc93PL0Sc4S58m8WXLuaEnjJYUP0bRHbywI/wc59z+eZw+ff+b0P6czhwFez+udXtE5STeIWzzV1/J8fVRhF052+wNF8deS/hj4/rfDYbutr08kPbI9nE6BHOO54WKJ8Cyz7XGn82a/8fsPAJADFjUs+7jvXHUqbY+ZOE7lJe9dbeeFDZv4Fdu3xhXFuu+Vc58UD0TpX9+0iAB9Yc2aNZG9BzTK3DsLO4li11PU2bl11qxZcVJCX6uub77BpOtJIlO/gewH9dVzLyaIzFj52LqHZO58ksga55z75EfOmvFrouhbD7WsO9fJPUISGfP67JnTJxAD8kFN3d3jzBJPpXLr4PDBA3XKUZPf8++79rVq7fOvEG5u/Oatra+dX08Q/UeYCNAXZsyY8dYsKwBAJpgrJ4Qsxm1WP3vmdIpXAJAj5jc2RtSZ+GkqxauSoiIdN/m9dVon6cXXtxBu7vzyvWlhw7LVS6rnPkYY/YNHBAAAFKQKIsgSp43dEf/bBAEAOfRLcH/oRknBF/s20wlTJ6goHHrPjzbv2KX2/V2EmzvCnnP/Vru4cShR9A8UsAAAKNDv7kSQtW9T13xyxoz9BAEAuaGmrukTSnHdq0mjhmtwVeV7/j2R8PXyxq2Em3vGOc+7V86xPFK/+MoFAAAKURkRZMWaC844dQUxAEBueGPdK/uBUljvuaq8XNPGjj7oz17ZvFXdPT0EnJs+VrNkeS0xFD4KWAAA8DseKXJyDcYTkAAgJ8xvbIzIUlv3KhIK6eRpE2Xee+te+7tj2rBtBwHn9C9kd8PChmVnEURhYxF3ADgk+08nfwM5ZEZIep4UMvr+deIh35m2w9834OfEkGvnFu/5HvO/RhIZOrPItZMCclXFfu9mpbLulaRjJo9TaUnxQX/24oZN8n1+p+a4t9bDOrVu0YJdxFGov4MAAEDBWdmydoukUSSRUQ2zZ06vIQYA6HvV9c2fNuk/U7nGHTdyqI6dOP6gP9vT1qHf/+lFAs4fv904dsDs++fMSRBF4eH2AgAAgBSY7L9JAQD63jW3fn+aSfcqheJVRWmJ3jd+7EF/5iQ9v34jAeeXc8duavsGMRQmClgAABQmnwgyam+ku/UxYgCAvlVdX1+aSIR+JmlA0LahkKeTjpqskHfwy+JN23epfX8XIecZk/tOdf2yj5BE4aGABQAAENzqWbNmxYkBAPqWWdWdkk5Jpe0xE8erorTkoD+LJ3y9vHkLAecnz+R+vLDhrolEUWADSwQAAABBL5jcM6QAAH2rtqF5vpz7SiptRw4dpDHDBh/y5y9v2qJYjL9T5LHB5iI/jUZXFBFF4aCABQAAEJCT/ZEUAKDv1NQtP8k5LUmlbVlJsY6bNOGQP99/oFsbt/Egu3xncu9vrWq7mSQKBwUsAACAgFzCcV8JAPSR62+4c5DM/w9JpYEvgM3TSdMmKxw69KXwn9dvlO9YSrIQmNzVNXXNF5FEYaCABQAAEJTz9hACAPTF+ddZrCh8t6TJqTR/38Qxqio/dN1r17427drXRs6FxHTXwobmYwgi/1HAAgAACHr9FLZWUgCA7KupX369zD6TStuRQwZp/Ihhhz63+07Pr99IyIWnwvO1YtEt95UTRX6jgAUAABBQyBQhBQDIrkUNzR+SuX9OpW1ZSbGOmzzhsNus37ZDnQe6CboQmY73ve5mgshvFLAAAACCSoi/4gJAFl29pHmE7/QTSeHAF72eHXHdq1gsrlc3byXoQmb6u5q6ZQsIIn9RwAIAAAjImcpIAQCyIxqNhkMJrZA0KpX2x0wcd9h1ryTp+dc3KZ5g4faCZ+7W6vrlMwgiP1HAAgAACPoFykvwHQoAsqS9asyNMn0glbajhgzW2OFDD7vNvvYObdvFszn6iWKT//PLb793CFHk4fcvIgAAAAAA5KLq+mWfdFJNKm3LS4p13OTxh9/IOT2/fpMcUfcn44ti3fdGo1HqIXmGAQMAAAAA5Jzq+mVTTe6Hkixo21DI0ylHTVEodPhL3td37FJr537C7mdM9vH2qjHXk0R+oYAFAAAAAMgp0eg9JSb3M0kDUml/7MRxKi8rOew2PfGEXtnEwu39lZO+W7u4+XySyB8UsAAAAAAAOaW9Kn6npFNTaTt2+FCNHnbkJY5e2rhZsZ44YfdfnvP0o+r6u8YQRZ4MGBEAAAAAAHJFdX3zpU66OJW2lWWlOmbiuCNu19bZpU3bdxE2hnsK3x+NrigiitxHAQsAAAAAkBMWLWk+0aSlqbQNh0M6+ajJ8rzDL5nlJP15/UYWbsdb74cz2yr3fY8kch8FLAAAAABAn1vYcM9A3+k/JJUFbWuSjp88XmUlxUfcdsuO3drX3kHgeNsbyGpr6po+RxC5jQIWAAAAAKBvOWfm4svlNCWV5hNGDdeIwYOOuF084euljVvIG+9mMrundnHj0USRuyhgAQAAAAD6VO2S5deY9DeptB1YUa6jxiW3DvdLG7eou6eHwHEwlc7zVsxvbCwjitxEAQsAAAAA0Geq65vPcc6ltAZRUSSik46aJDvCuleS1LH/gDZu30ngOJwTKjq9pcSQmyhgAQAAAAD6xKJb7hpu0r9JCgdubKYTpk5USdGRHyD3l4XbHUu344guralr+gox5B4KWAAAAACArItGo54fCv1Q0phU2k8dM0pDB1Qmte3Wnbu1p62d0JEcs7tq6pafRBC5hQIWAAAAACDr2irHfFuyC1JpO2RApSaPHZnUtvGErxdfZ+F2BFIi81dcufRHVUSROyhgAQAAAACyqqZu+SyZvplK25LiiE6cOkmW5PYvs3A7UnNUJNHVRAy5gwIWAAAAACBrrl7SPELm/1hSKPAFrJlOnDpZRZHklszq6Opi4XakzukLNXXLFhBEbqCABQAAAADIigtXrAiFfP1Y0qhU2h81YYwGVZYnta2T9KfXNspn4Xb0hrlbFzY0nkoQfY8CFgAAAAAgK8Zuav0XSeem0nb4oIEaP3J40ttv3bVHe9s6CB29VezJW3HdjY0DiKJvUcACAAAAAGRcTV3zx0y6NpW2ZSUlOmHKhKTXvUokfL34+mZCR3o4TekpDt0n54ww+g4FLAAAAABARtXU3T1OpntTuQb1PNNJ0yYpHE5+yayXNm1Rd4yF25FGzn2qtqH5KoLoO2EiQL64cMWK0IQNu4fEw+Ehkg02+aVewsyZDTzCmabTeS4mpx5nrt0U2ecletpiRd3tt111VTfJAgAAAJkzv7Exos7ETyUNTaX9sZPGq6q8NOntO7q6tHEbC7cj/Zzslpq6pt/X185vIY3so4CFnHHtTctH90T8KebcFDNvinNuipkmOmmYpKHa1DrQD4XluTdOHZLJeW/978OzN2d6vvF/E3Kep0i8VDX1zftl2iqn7XJuhzzbKt82Su5VC7lXD4SLX73jii/vZnQAAACA1JR3hm6R3MxU2o4dPkRjhg0J1ObPLNyOzInI7Ke1ixtPrVu0YBdxZBcFLGRdNLqiqL2i9QSFNN13mm6m6XI6Ni6/1CTJTE5OsmRKU71WJqcpkqbI3nxBe+NVnW8qjsVUU9+8T9JzJv3Rl/uj53nPxrySp2+76qI2RhMAAAA4tJq6pk9ILqXbrirKSnX0xHGB2mzdtVd7WLgdmTXOed69cu4TMqNSmkUsQIaMq13cONRZaJY8N0tOp0k6UVJRnh+WL6c/yexxOb8lEQo9fuvCS19gtAHkipUtazdJGkMSmeF57pzzz5jxKEkAwKHV1N09zizxlJOGBG0bCnk684RjVF5SnHSbRMLXo8/8SQdiMcJH5jlV19fOW0IQ2UMBC2lXXV9fKqs4y+SdJ7nz5HSK+scDA7bL9H8mPRKKeb+6+bpLt/BuANBXKGBlFgUsADi8aDQabqsa8z+SzkrlIvWkoyZpxOBBgdq98Ppmrd+ynfCRLT1y+kB97bwniCI7uIUQaXH9DXcO6i6OfEayC03uw3IqzsoNgLllhJwudNKF8Yjv19Q3Py6nf5dCP6+vvWQj7xIAAAD0F20Dxv6LnDsrlbYTRg0PXLzq3H9Ar2/dQfDIpohMP77uxsZTb7p+QStxZB4FLKSsun7ZYDN9Rs5dGJPONSnSD4tWh+JJOkums6REfU1982oz9xPfeT9uqJm7h3gAAABQqGqXNM12vrsm1fatnfv1p9deV1lxsSrKSlReUqKSkuLD3j70p/Wvs3A7+sLknmKvWdIcosg8biFEIBeuWBEat3HfR81svpM+IilCKoF0y/RfZu6eyn1bHo5Goz6RAMgEbiHMLG4hBICDu3pJ84iQr6cljUzreddMJUURlZaUqKK0RBVlJSotLlJlaZl2t7fpDy+tJ3z0HWdfra+d20gQmUUBC0lZ2NA4yvPtSzLvq5KbSCJp+fS9Ys7dZomSZYuv+VIngQBIJwpYmUUBCwDeKxqNeu1VY1Y66bxsX9Qy9wp97IBv7swl1fOfJorMftYP65qbG6f4Ee9cokoPJ4vXV8+9O1/6W12//AKTf5mkT0gKMYIZ+RDu9qVGz/cb6hYt2EUiufT+X3a65J9KEpkRMnt+cfW8/8mHvj746NpzzNMxeRbxTZIG8k7L1Lnbfd933vqCOBbz/3v2zBnPF8rY/Lbl6TFxF/8079JMfZf12j9y1qk/JAkc4rvTt03un0gC/fRa/6VIj02/+bpL20kjM464BlYi5M2QE1Ph0ve27pKU0wWsaDTqtVaN/bjJfVPyT2fMMn2i0xCT/tF53tU1DctuLzoQu+nGr1+2l2RyYnQ+a7LrySEzfNkPJP1PXlzge7pI0nxGDW/7kvpVs8L4e79Jr0oqmAJWQv7RMruDd2mm3i/udUkUsPAetUuWfcD57tskgX58fpwWL9JSSReTRmZ4RIC3zG9sjNTUNX2lrWrMcyb3C0kUr7KrXM5dFyuOvFpb3/yP0eg9JUQCAACAXFddv2yw890PxR0b6O+c+0pNXfOXCCIzKGBB0WjUq21onl/R6b0ks3skHU0qfWqgk77XVhV/rrZh2WeIAwAAADl8wW5mukfSeMIAJJnuXNjQfAxBpB8FrH5u0ZLG97cNGPOke+M20QkkklMmO+f+s6a+aWV1/bKpxAEAAIBcU7Nkea2c+xRJAH9R7vlaUV1fX0oU6RUmgv6pun7ZYJP7ju/rClHIzHF2gcn9oaau6Z82jhu4+P45cxJkAgAAgL5Wu6TpNOe7fyUJ4N2XcDreU9ViSZcTRvpQuOhnLlyxIlTT0Hy5mXtZ0lW8B/JGqcxuHLepddU1NzdOIQ4AAAD0pUW33FfufPuRpAhpAO/l5C6rqWtidmIaUbzoR2oXL5swbmPr/5PT7XIaRCJ56ZxE2Huqur7pb4kCAAAAfcUPx26XdBRJAIdhtnxhQ+MogkgPClj9RE3dsgtdyD0l0wdII+9Vmuzfquub7uO+agAAAGT/2qLpc3LuKyQBHNFQT9690WiU2ksaEGKBu/6GOwfVNDT/VOZWMOuqsJjsH0yV/0NFHwAAANly7dLmsTJrIgkgSU7nt1WOXkgQvUcBq4BV1zd9MFYceUZOXyCNgnW657zVi5Y0n0gUAAAAyKRoNOrF4+4+SYODtg2Hwzph6kRNGTtKwwcPVGlJsWRGqOgfzP61pm7ZKQTROxSwClR1/bIrTPaIpHGkUfDG+b4eralr/hhRAAAAIFPaBoz5hmSzUml77KSxGj10sKaOHaVTjpqsD5x8nC447WSdfeKxOnHqRE0aPVLDBw1QcSRM0ChExc70s8vuuKOCKFLH2aHARKPRcFvV6AbJXUEa/UqlTL+orl92aUPN3HuJAwAAAOlUu6TpNOfrW6m0HTt8qEYNee+kLfNM5WUlKi8r0dvXxOiOxdS+v+vN/w5ox959SiR8BgF5zeSmlcQiiyV9lTRSwwysAnL57fcOaasa/ZBkFK/6p5DJ3V1d33wpUQAAACBdLrvjjgrf934sKRK0bVlJid43cUygNsVFRRo6cIAmjR6pyWNGyPcdg4DC4GxBTd2yCwkiNRSwCkRN3fKTimOxtalO6UXhfKZNaq6ub7qMKAAAAJAOJd1Fd5nctOBfTD2dNG2Swl4o5dd+fsMmOUcBC4V0xeYar761cTxBpBAdEeS/2sWNZ8sS/ydpAmlAkpns9ur65ouJAgAAAL3x5myRi1Jpe9SE0aoqL035tbfv2avd+9oZBBQWp0GhhHffhStWhAgjGApYeW5RQ/OHnOf9RrIq0sDb2JszsT5LFAAAAEhFTd3d4+S5xlTaDh1YpfEjh6f82r7v9MLrWxgEFKoPjt3UWkMMwVDAyutfKE2f8p0elMSTDHAwIZP9aGHD8jOJAgAAAEFEo9GwLPFTOQ0K2rYoEtEJkyfKevH6r23drq4D3QwECpZJ36uuX3Y6SSSPAlaeqqlr/oLM/l1SMWngMMo85//ntUubxxIFAAAAktU2YMzXJc1M4aJcJ0yZoKKi1B94fyAW02tbtjEIKHQRk7u3ur6+lCiSQwErD9U2LPsHmVJ6Cgj6pRHxuO6/culSip0AAAA4opq6ZafI6ZuptJ0wariGDuzd6iYvvr5ZiYTPQKA/OFqquoEYkkMBK+9+mTR/zDm3XBILviGIMyI9pbcTAwAAAA7nyqVLi2XuXklFQdtWVZTpqHFjevX6+9o7tG3XXgYC/YbJXVW7pGk2SRwZBaw8Ul2/7HSZVoiZV0jtzDi3ur7pbwkCAAAAh1IUL/2epBOCtguFPJ04dZLMS33lKyfp+Q2b5BgG9LMrNd+3ZdffcOcgojg8Clh54ppbvz/N5H4pqZw0kPKZUXZXTd3d40gCAAAA77awYdlZTlqYSttjJoxTeUnvVqzYsnOPWjv2MxDoh9dpGttTHKkjicOjgJUHquvvGpNIhB6WNJw00EsD5SWWyzkjCgAAALxl0S33lXvO/UApLFUyYvAgjRk+pFevn/B9vbxpMwOBfstJF9fUNX2OJA6NAlaOu+yOOyrMhR+UNIE0kKYz4/m1S5bNIwgAAAC8xQ/FGiRNDdqupDii4yf3foL/a1u26UB3DwOB/s3srquXNI8giIOjgJXjirsjd8p0PEkgnZzTDVcuvXsYSQAAAKB2cfP5kpsb+Fpb0olTJyscDvfq9Q9092j9lh0MBCANC/lqJIaDo4CVw2rqmhea7B9IAhkwOBJP8LhWAACAfm5hwz0DfU936416VCATR4/QoMreL9H74sZNSvg+gwG84dM1dc0XEcN7UcDKUbWLG8+W6WaSQAZdsrBh+ZnEAAAA0H+FXOIuk8YGbVdeWqIpY0f1+vVbOzq1bddeBgJ4O9PtV9/aOJ4g3okCVg66eknzCOd5P5UUIQ1k8rToOX8JC7oDAAD0T9X1TZ91cn8b+EukmU6YMlEhr3eXk07SC69vlmMogHcbEEp4d3Ot9k4UsHJMNBr1Qr5+JmkMaSALTq9uWP4JYgAAAOhfFjY0jvJkzam0nTR6hAZUlPW6D9t279Hetg4GAzi4c6sbmr9GDH9FASvHtFWOXijpgySBbDG570WjUc4FAAAA/ek7oLNmJw0J2q68rERTxvT+1kHnO720cSsDARz2Ws1uqalrOook3sBFaw6pqWs6Smb/QhLIshNaq0bPIQYAAID+obq++WKTfTzwxfSbtw56Xu/vanp9+051HehmMIDDK5PZ3Uw4eAMh5IhoNOrJbJmkUtJAtpmzb3B/NQAAQOG75uZ7RpqpLpW2U8aM1IDy3t862JNI6NXNzL4CknRWa9XYy4iBAlbOaK0aUy3pHJJAnzAdX91w9/kEAQAAUNji4fgdchoUtF1VWZkmjRmZlj68tnmbYvEEgwEkfbnmbqxuuHtyf8+BAlYOqKlrOsqk75IE+vakmKglBQAAgMJV29D8eZP+JvD3RM90/NQJ8qz3E/YPxGJ6fdtOBgMIptxcoqm/3zVDASsHmNkd4tZB9P078fxFS5pPJAcAAIDCc92NjQOc05JU2k4dM1qVZem5XHnx9S1K+D4DAgR3bk39sn/ozwFQwOpj1fXLPumk80gCOcCcLx7TCgAAUIDiRV6DpDFB21WVl2ni6OFp6UP7/i5t3b2XwQBSvmJTw9VLmkf018OngNWHotFo2ORuIAnkCif93fzGxjKSAAAAKByLGpo/7KSvBL5Y9EwnTJ2YllsHJenFDZsk5xgQIHWDw76W9teDp4DVh9oqx1wm6TiSQA4ZUNHhfZ4YAAAACsP8xsYyX2qSFLgKNW3cGFWUlqSlH3vbOrSrtZ0BAXrJSXOq65s+2x+PnQJWH1nYcM9Amb5FEshBlxIBAABAYSjvDP2rnKYEbTewolwTRg1PWz9e3rSVwQDSxGR3XH/DnYP623FTwOqD91p1w92TPT/+L5KGEgdy8Gx4zjU3N04hCAAAgPy2aEnj+03uiqDtQp6n46dMULoed7ZrX5v2tDH7CkijUbGiyM397aApYGVfibnEKzJdThTIUZYIGbcRAgAA5LFodEWR73vLJYWCtp0ydpTK03TroCS9vGkLAwKk/apNl9Yubj6/Px0yBSwABzkz2IWEAAAAkL/aKlu/qRTW260oLUnrrYPb9+xTa8d+BgRIP3OeNV12xx0V/eYylTEH8B5O07mNEAAAID9V1zeeINN1wS+HTcdNHp+2pw7KOb3C2ldAJi/cJpZ2F0X7y9FSwAJwUPGw9zekAAAAkF8uXLEiZPKWSSoK2nb88KEaWJm+yRxbd+9T+/4uBgXIICctrF3SdFp/OFYKWAAOyqSPkwIAAEB+Gbtp3wJJpwdtV1QU1tTxo9N5Ua1XWPsKyIaQ8+37F65YESr0A6WABeBQZl659EdVxAAAAJAfLr/93iGe7J9TaXvsxHGKhNJ3/bt5xy51HuhmUIDsOHXcxtb5hX6QFLAAHEok0rP/Q8QAAACQH4p7ehY7aUjQdkMHDtCIwYPS1g/nO726ZTsDAmSTp+8tuuWu4YV9iABwSHYBGQAAAOS+mrqmmXLuy0HbhTxPx04cm9a+bNyxS13MvgKyy2mQH47cVMiHSAELwKHPgUYBCwAAINdduGJFyMzukBT48YHTxo1WaUlx2vri+06vMfsK6KMLOPfl6vqmDxbq4VHAAnBIJjdtYUPjKJIAAADIXeM37bvCSScHbVdZVqrxI4eltS8btu3QgViMQQH66BLOnN0+v7ExUogHRwELwOFPEr7NJAUAAIDcdPWS5hFOFg18lSvp+MkTZGZp60vcT2j91h0MCtCXTMdXdHiXF+S1KaML4HCc6SxSAAAAyE2hhOokDQzabsLoEaqqKEtrXzZs2alYTw+DAvQ10z9fe9Py0YV2WBSwABzh3GcUsAAAAHJQ7eLGs2X6YtB2pUVFmjJ2ZFr70pNIaP02Zl8BOaIyHvFvKbSDooAF4EhOrq6vLyUGAACA3BGNRsO+56W0cPsxk8Yp7IXS2p/1W7YrHo8zMEDu+OKihuYPF9IBUcACcCRFnldxPDEAAADkjrYBYxeadGLQdiMGD9KwQQPS2pd4PKGN23YyKECO8Z27rZAWdKeABeDInHcSIQAAAOSGa26+Z6Sc/62g7UIhT8dMHJv2/mzYvkM9iQQDA+QcO7Zyf6i6UI6GAhaAI3LOp4AFAACQI/xw/FbJqoK2mzJmlIqL0jsZI5Hw9fpWZl8BuXst575Tu3jZhEI4FgpYAI7MvJMJAQAAoO8tamj+sJPmBG1XWlKsCaOGpb0/G7fvVIy1r4BcVuZCriAWdA8zljiMHZLWm7Tel/ZJ1mWmA/Jdu+Ti5tle3ylhztqcuZhnLuZ8G2LmhjhnQySNkulkScdLKiHOPOb8E+WcycwRBgAAQN+4cMWKUGJTa4Ol0PbYiePkWXrnL/jO1wbWvgLy4HpOF9YuWfaBuoVz/y+fD4MCFiSpQ3K/N3mP+XJrJPdyKFGyfvE1X+pMx86j0Wi4o3zs0b7nnymzT0k6VxJPtcsrVlVTf8/YemkjWaCfWivZ/Xn2TeUTnGszmK7TL8y0rSCOxbNXGVEgP4zdtG+eyQIv3D5kYKWGDqxKe38279ijA7EYAwPkw+973y2JRqMzotGon6/HQAGrf/Jl1mLO/3fnvP+rat/0x2g0mrF5v2/u+9k3/2tedMt95YnQgQtM9mVJnxS3suYFz0tMEwUs9FOzZ05vktSUT31e2bJ2syhgZUwo5G45/4wZj5IEgGy59qbllXH53wnazjzTMRPHp/9iWNL6rdsZGCB/nNJWOfpLkn6QrwdAAatfcX+Ss/udF7qvofqSPvtr65szu/5T0n9ee9Py0fGwP99MVzhpCGOUu3zfpkn6fyQBAACQffFw4tuSjQzabuLI4SovKU57f7bu2qP9B7oZGCCfmN147U3Lf37zdZe252P3KWAVPl/SA0723YaaeU/mWuduvu7SLZKii2657xbndV8j03VivawcPde5aaQAAACQfdUNd0+WS1wZtF1xJKzJo0emvT9O0mubtzEwQP4ZEQ/710j6dj52nlu3ClePzH5gvn9cfc28TzbUzH0ylzu7+JovddbXzos6Cx0n2c8Zvpx0FBEAAABkn7nEYkmBp1FNGz9W4XAo7f3ZsWefOroOMDBAXp5QtKh28bIJ+dh1ZmAVpie8hM1bfM3cZ/Ot42/e2vj5mrqmz8mzZjkNYjhzg5ObQgoAAADZVV3f9EFJnw3arqqiTGOGZuar9KubWfsKyGOlztz3JF2Ubx1nBlZh2S/nrt84dsDZ+Vi8erv62vk/lx86SU7/x7DmChtHBgAAAFnknHmyG4J/bTMdO3GcZJb2Lu1qbVdbZydjA+T1pZ2+WLu4eXq+dZsCVuFoSYT8Y+pr5990/5w5iUI4oPraSzZuHDfgw052K8ObEyqvXPqjKmIAAADIjuqG5guddGbQdmOGDtaAivKM9OnVTVsZGCD/me9pcb51mgJWIbzzZD91aj/v1qsXvF5ox3b/nDmJhpq5C01uod5YLxJ9qCgWG0sKAAAAmTe/sTEief8StF0o5Gna+NEZ6dO+jk7tbe9gcIACYNKHquuXX5BPfaaAld98OXd9Xc3cv2uoqekq5AOtq5l/q8zmSooz7H34hvMcBSwAAIAsqNjvzTcFfwr01LGjVRyJZKRPr2ziyYNAITElbo5Go3lTF6KAlb8Scvpife38m/rLAddXz73bpG8x9H3JH0MGAAAAmXXZHXdUyOmbQduVlRRr/MihGelT+/4u7d7XyuAABcVOah8w+u/ypbcUsPKTk3Nfq6+d97P+duCVbZtvNukR3gJ9dHpzNpIUAAAAMqu0O3KNpMDfu46ZOFaeZeYS79XNW1nPAyhAznn/cuXSpcX50FcKWPn5Dvt6fe385v546NFo1E+Y/yVJO3kjZJ+ZG0IKAAAAmbPolruGO1lN0HbDBlZp6MABGenT/u6Ytu/ex+AABclNjPSUfi0fekoBK9+Y1fen2wYPZkn1gq1OLsqboQ9ObWYUsAAAADLID4e/Lqki4DWCpmZo4XZJen3rdmZfAYXM9I1rb1pemevdpICVX57sKEtcTwxSZ7lrlvQySWT5vOaYgQUAAJAp1960fLScFgRtN2boIFWVlWWkT/GEr807dzM4QGEbmoj4l+d6Jylg5Y99vsW/0LRgQQ9RSE0LFvQ4ORZ0zzInUcACAADIkETE/5ak0iBtzDNNHpu52VebduxSPOEzOEDhX+tdt7DhnoG53EcKWHnzZnILllR/bT1J/FVD9byfmfQCSWSPUcACAADIiNrFyyY46ZKg7SaMHK6y4qJMXdBq47YdDA7QPwz0/PjCXO4gBaz88KOGmvkriOFdzJwzW0YQ2eOkKlIAAADIwPeskKKSAlWiQiFPk0YNz1ifduzZq/3dMQYH6DfX2Kq9cundw3K1exSwcl+XXOgfieEQn69E4geSukkia1+tyskAAAAgva659fvT5NxFQdtNHjVSRZFIxvq1YSuzr4B+piIcT9TkaucoYOU6p5vray/ZSBAHV7dowS4n/ZIkssUoYAEAAKRZIh76J0nhIG2KisKakMHZV22dndrb3sngAP3tik+68uolzSNysW8UsHLb1gMlscXEcIQ3sdmPSSFrQtX19aXEAAAAkB7V9cumyjQnaLvJo0cpFMrc5dz6LTsZHKB/Kg8lXE7OwqKAlcuc+86dl1/eQRCHF4rZbyVxc362Thp+ObOwAAAA0sTMfUtSKEib4khEY4dn7tk6B2Ixbd+zl8EB+u+J6fLaxY1Dc+5alJHJWTuq2iM/JIYju/m6S9sl9xhJZEc8ojJSAAAA6L3qhrsny+mLQdtNHjNSIS9zl3Kvb9sp3zkGCOi/yp15V+Vapyhg5Sqnxmj04gMEkWxc9htSyI5Q3EpIAQAAIB1fYhPXKeDaV8VFEY3J4OyrhO9r845djA3Q35muWthwz8Bc6hIFrNwU8z3/LmII8Nly3kOkkK2sw2FSAAAA6J1rlzaPNenLQdtNGT0qo7OvtuzYo1g8wQABGOD58ctzqUMUsHKR0/1LqhdsJYjkbRxX+awkHpOSBRZOUMACAADopXiPrpVUHKRNaVGRxowYnMHLEOn17TsYHABvXPuZqq+9aXllrvSHAlYuvklC1kQKwdw/Z05C0jMkkYUvW86ngAUAANALVy9pHiHT3KDtJo8dKc8ydwm3a1+bOrpYxQTAG5w0pCfifzVX+kMBK/dsf310FQuSp/bxWkcGmRcyC5ECAABAL75POXe1pNIgbUqLijRm6JCM9mvDtu0MDoB3MKk2Gr0nJ9ZBpoCVc+8O919vziZCQE5GASsLEi7EDCwAAIAULbrlvnJzNj9ou4mjh8s8y1i/Orq6tGdfOwME4N1GtFbF/y4XOkIBK8c45/0XKaSYnbmnSCHzQok4M7AAAABS5Hvd85wUaCpVUTisMcOHZrRfG7bulGN4AByESddGo9E+rx9RwMotrQPaqv4fMaSmKBZ6hRSy8aUrg3/6AwAAKGDRaDQs08Kg7SaMHJ7RJw/G/YS27t7DAAE4lKPbKsd8pK87QQErl5gejEbnxAgiNTdfd2m7SbtJAgAAALmotWrsHEkTgrQJhTyNH5nZ2Vdbd+5RIuEzQAAOyZmu6es+UMDKLb8jgl5/qNaTAgAAAHKRydUGbTN+xDCFw5ldgnTTDv4GDOBI5y99aNGSxvf3ZR8oYOUQX46nD/aSc3qNFAAAAJBrahc3ny/p1EAXa+ZpwsjhGe1XW2en2jr3M0AAjsh3XnVfvj4FrNzRvnnMwD8SQ++Yc6+SAgAAAHLuws9zVwdtM2b4EBUXRTLar43bmX0FIElOn7v61sbxffXyFLByhemJ++fMSRBEL2M0bxspAAAAIJdcc3PjFJN9NNjlgTRhVGZnX7F4O4CAwiHfvtpXL04BK3dw+2Aa+BK/gQEAAJBTEhHviqDXXkMHDVB5SXFG+7V1514WbwcQjLN50eg9JX3x0hSwcoTJniGFtKCABQAAgJwxv7GxTNKXg7abMHJYxvu2aecuBghAUEPbKnv+ti9emAJWjkjIvUAKveeMAhYAAAByR3mnfUlOg4K0qSgt1eABVRntV8f+A2rrYPF2ACkwu6ovXpYCVm5IJEJdLD6eFo4CFgAAAHLnOk92WdA2E0YNl2W4X5t3sXg7gJSdUlPXNDPbL0oBKzd+q62/7aqrugmi95iBBQAAgFxRU7d8lqQTgrQpioQ1auigjPbLOactFLAA9Ipdke1XpICVC5y4fTBNirs95kEDAAAgN77mmx949tW44cMU8jJ7mba7tV2xWJwBApA60+evXtI8IpsvSQErF36xsf5V2nSVdsZIAQAAAH2tdnHjUJM+GejizExjRwzJeN8272T2FYBei4SdfTmbL0gBKweYs9dJIT2G7NnTQwoAAADoa77nXSypOEibYYMGqqSoKKP9iscT2rm3lQEC0GvOuUvlnGXr9Shg5QDz3E5SSI9oNOpLYj40AAAA+vY7vnRx0Dbjhg/NeL+27t6rhO8zQADS4ajaW5efk60Xo4CVCxK2gxDSillYAAAA6DPV9c3nSDomSJvSkmINGVCR8b5t4fZBAGnk+/7cbL0WBawc4MyjgJVerIMFAACAPuNJlwZtM274UMkyeyfO/gPdau3oZIAApI3JPn/9DXcOysZrUcDKAeG4uIUwvZiBBQAAgD5x3Y2NA5x0YaCLMjONHjY4433bunuPHEMEIL1KYyWRL2bjhShg9T23b2CcAhYAAABQAGJF9neSyoK0GT54gIojkYz3bduuvQwQgPRzwWedpoICVt+PdHvTggXMGAIAAAAKgCf7UtA2Y4cPy3i/OrsOqKPrAAMEIBNOqa5vPCHz51f0MeO3CAAAAFAAahcvm+CkM4K0KS0p1uABlRnv29bdzL4CkElexm8jpIDV97qJAAAAAMh/vuf/g6RAK7GPHjpYloW+baeABSCDTPpiNBrNaI2JAlbfjzJPzAMAAAAK4qu9/W3QNqOGZP7hXW3793P7IIBMG98+cOzZmXwBClh9zTlmYAEAAAB5rqZu2SmSjgvSZmBFucpLSzLeNxZvB5ANvu/+PpP7p4DVx0zGDCwAAAAg37/XW/ALt9FDh2Slb9v37GOAAGThPKgLr1y6tDhT+6eA1cd8GTOwAAAAgDwWjUY9X/pCoAs9zzRiaHZuH9x/gEsOAFngNKgoUfbRTO2eAlYfM7k4KQAAAAD5q33g2LNNGhukzbABVSoKhzLetx17WhkgANnjghXzg6CA1dfMHCEAAAAAeXy95rvPBW0zetjgrPRtJwUsANk8H8p9Ihq9JyOL+1HAAgAAAICUr9acSfpMkCbhcEjDBg3IeNe6YjG179/PGAHIpoq2yp7zMrFjClgAAAAAkKJFtzadLml8kDbDBg6QZ5m/FNu5Z5+43QNAH/hsJnZKAQsAAAAAUuS7UOALtRGDB2albzv2tjFAALLOzD4djUbD6d4vBSwAAAAASPVCzbnPBNk+5HkaOqAq4/2KxxPa097OAAHIOicNaascd06690sBCwAAAABSUF3feIKT3hekzdCBAxQKZeH2wdZWOZ8bCAH0FT/ttxFSwAIAAACAFJh5nwnaJlu3D+7cw+2DAPqOM332zYdcpA0FLAAAAABI5QLN2ccDXXyZp2EDM3/7oJO0u7WVAQLQZ0waW93QdHw690kBCwAAAAACqq5fNtjkZgRpM3hAhcLhUMb71tbRqVg8wSAB6FOehT6a1v0RKQAAAAAEvTBzsyUFqkZl6/bBXa3cPgig7znnfySt510iBQAAAICAF2ZS4AuzIVm4fVCSdrfy9EEAucDOvnLpj9J24qOABQAAAABBOGdyOj9Ik4rSEpUWFWW8a/GEr9b2TsYIQC6IhONds9K1MwpYAAAAABDAwiVNp0gaFaTN0KzNvmqT7xyDBCAneCnMVj3MvgAAAAAAyQo5L/AF2VBuHwTQDzkZBSwAAAAA6Au+dG6Q7UMhT4OqKrLSt937WhkgADnETayuXzY1HXuigAUAAAAASYpGVxSZdEaQNoMqK+RZ5i+9ug50a393jEECkFPM9IF07IcCFgAAAAAkad+AttMklQVpM2zggKz0bU97BwMEIOeYcxSwAAAAACCbPD/4TIIhWVr/am8bBSwAuceJGVgAAAAAkF0WbCZBcSSs8pLirHRtLzOwAOSmSVff2ji+tzuhgAUAAAAASbhwxYqQ5GYGaTOwsjIrfYvF4tp/oJtBApCTQnGv17OwKGABAAAAQBLGbmo/RbJA9wNm6+mDe9rbGSAAOcuZzuntPihgAQAAAEBSF08u8AXYoMrsFLC4fRBALrM0rINFAQsAAAAAknN6kI3DIU+V5aVZ6RgLuAPIce9b2HDPwN7sgAIWAAAAACTByc0Isv3AygpZFvoVjyfUsb+LAQKQyyys+Km92QEFLAAAAAA4gutvuHOQpClB2gyqyM7tg/s6OuUYIgA5zslm9KY9BSwAAAAAOILukvB0KdiEqmwt4N7a2ckAAch5QWexvhsFLAAAAAA40oWTCzZzwCRVlpdlpW9tHdw+CCAPOFHAAgAAAIBM8qXpQbYvLSlROJSdy622zv0MEIB8MOnKpXcPS7UxBSwAAAAAOAILuHZLVZaePtjdE9eBWIwBApAXivzUF3KngAUAAAAAh3HdjY0DJDchSJuqrN0+yPpXAPKHS+jkVNtSwAIAAACAw+guDh+rgAu4V2ZpBha3DwLIK553dMpNSQ8AAAAADnfR5I4J2qayLEszsChgAcgnzh2b+rkYAAAAAHBovh+ogFVSVKTiSDgrXWvtoIAFIJ+4o+WcpdKSAhYAAAAAHO5yyxSogFVRVpKVfsXicXX39DBAAPKIVVU3fH90Ki0pYAEAAADA4S63ZIFueakozU4Bq2N/F4MDIA9PqqFjUmlGAQsAAAAADqG6vr5UUqAnEJZnqYDV2XWAAQKQdzyJAhYAAAAApJOzivcFvW4qK6GABQCHPK/KKGABAAAAQDqFZJODtikvKcpK3zq6uhkgAPnHaVIqzShgAQAAAMChrrN8jQ+yfcjzVByJZKVvzMACkKdn1vGptKKABQAAAACHvGKycUE2Lysplswy3q14wld3LMb4AMhDRgELAAAAANLJuWAzBUpLirPSr86uLjmGB0B+qqiuXzY4aCMKWAAAAABwSMFmYJVnaQH3Dm4fBJDHnPmBZ2FRwAIAAACAQ7CAa7WUFmVnAff9B1jAHUD+8gKuLyhRwAIAAACAg4pGVxRJGhGkTVFROCt96+pm/SsA+cuZRwELAAAAANJh34Ddo4NeMxUXZecJhAdYwB1AXnNjgraggAUAAAAAB2GuaGjQNsWRbM3A4hZCAHl8fpUNCdqGAhYAAAAAHFzgp2QVRTI/A8s5p+5YnNEB0K/OrxSwAAAAAOCgEoEusCKhkEJe5i+xDsRics4xPADylpNjBhYAAAAApINZsFtcirK0/hULuAMoAMzAAgAAAIC+uMDK1vpXByhgAehn51eJAhYAAAAAHJRzblCQ7YuytYB7rIfBAZDXjAIWAAAAAKTpAivgLYQhL5SVfnX3MAMLQN4rq66vLw3SgAIWAAAAAByEc6oIsn0olJ0CVk9PgsEBkPdCidLKINtTwAIAAACAgzCpKNDFmGdZ6VesJ87gAMh7iZACPfmCAhYAAAAAHJQLVsAKZefyqidOAQtAAbDi4iCbU8ACAAAAgENcXQXZOpylNbB64txCCCD/eYmeQH8koIAFAAAAAAcR+BbCLM3AisV5CiGAAjjHhj0KWAAAAADQW86CroGV+RlYcT8h33cMDoD8P8fKcQshAAAAAKTh6irnZmBx+yCAQpFwwWZghYkMAAAAAA4qEmzzzM+M6uEJhMARPyZO+rOZuNc2x5mz7iDbU8ACAAAAgINyvmTJb52FO/sSvs+wAIf6DMr9MB4O19521SU7SaPwUMACAAAAgIMKNjsgGzOwEqx/BRzq8/rzhuq5X5YZH5ICxRpYAAAAAHAQThYLtH0WLpv9BGtgAQdjfuKbFK8KGwUsAAAAADjYBbFcsAJWFmZg+Y7rc+Agn762ukULnieHwkYBCwAAAAAOLlABS9mYgcUaWMBB2AEyKHwUsAAAAADg4LpzrUPMwALQX1HAAgAAAICDccFuIfSzsMA6M7AA9FcUsAAAAADgIMyCLeLuu8wXl3gIIYD+igIWAAAAAByEMwVaV6cnnvkCVsLnKYQA+icKWAAAAABwME77gmweT8TJDAAyJEwEAAAAAPBeTrbbAjxasCee+dlRnhkDA6TRlUvvHhZOqLKQjikUD29ffM2XOnuzj9rFjUP9UKQql46LAhYAAAAAHJS/S0q+YJSNGVgmClhAOlTXN5/jSUtdPHFywZ25PH+OpPt7sw9n3rfNJa7MpeOigAUAAAAAB2HOdgepF2VjDSzPo4AF9FZ1/bLTTe5hJxWTRv5gDSwAAAAAOCjbFWTrnmzMwOIWQqDXPLnvieJVHo4bAAAAAOA9fM/fHWT7bKyBRQEL6D0nnU0K+YcCFgAAAAAc7GLJD+dcAYtF3IHeuXDFipCkEpLIw3MyEQAAAADAeznbF+gWwng8rkQis+tgmXEJB6B/4uwHAAAAAAfRUFPTJakjSJuuWHdmL+C4ggPQT3H6AwAAAIBD2xBk4wPdPRntTCgUYkQA9EsUsAAAAADgEJzc+iDb7+/O7AysojAFLAD9EwUsAAAAADgEk14Lsv2B7lhG+xMJhRkUAP0SBSwAAAAAOAQnWx9k+64MF7DCYQpYAPonClgAAAAAcAjmgt1C2JXxGVieZMbAAOh3KGABAAAAwCH4ngt4C2Fm18CSmcIs5A6gH6KABQAAAACHYC60Psj2sZ644vFERvsUYSF3AP0QBSwAAAAAOISGmrl7JLUmu72T1L6/K6N9YiF3AP0RBSwAAAAAOLwXgmzcsf9ARjtTxAwsAP0QBSwAAAAAOLw/Btm4vSuzM7CKiyKMCIB+hwIWAAAAAByGyQUqYHXs35/R/pQWFzMoAPodClgAAAAAcBjOhf4QZPu2/V1yGexPSXERgwKg36GABQAAAACH4cw9E2T7RMLXge7ujPWntJhbCAH0PxSwAAAAAOAwGmrm7pFpS5A27Z2ZWwerjFsIAfRDFLAAAAAA4EicAt1GuLe9I2NdKS6KyMwYEwD9CgUsAAAAADgS5wIVsPZ1ZG4hdzNTSRHrYAHoXyhgAQAAAMARmBdsBlZbx375zs9Yf0pYBwtAP0MBCwAAAACOwFf48UDbO19tmVwHq4R1sAD0LxSwAAAAAOAIGqoveVXS1iBtWts7M9af8pISBgVAv0IBCwAAAACSYi1Btt7XkbmF3CvLShkOAP3JfgpYAAAAAJAEkx4Lsv3etg65DPWFAhaAfuZPFLAAAAAAIAl+wAJWd09cnfszsw5WcVFEReEwgwKgfzB7lgIWAAAAACShszzxlKT9Qdrsam3PWH8qmIUFoJ9wzl9NAQsAAAAAktC0YEGPpN8HabN7X2vG+lNZTgELQP9gzqOABQAAAADJcgFvI9zT3qGE72ekL6yDBaCf6OqoSHALIQAAAAAky5z9vyDb+77TvvbMPI2QWwgB9I8Tr61tWrCghwIWAAAAACSpqr3qd5ICLWy1O0PrYFWUlsjMGBQABc2cWy1JFLAAAAAAIEnR6JyYzFYFabNzb2bWwQp5HutgASh4zhkFLAAAAAAIzHcPBtm8o+uAOrsOZKQrgyorGA8ABc2cnpQoYAEAAABAIL4X/03QNtv37MtIXyhgAShwr9YtmrtBooAFAAAAAIEsqf7aeknPB2mzI4MFLFbBAlC47Ldv/S8KWAAAAAAQkJMLNAurrXO/umKxtPejKBJWWVkJAwKgQM+1/l+e/EoBCwAAAAACCwVaB8spc7OwBldWMhwACpELxyP/89b/QwELAAAAAAKKhzv/V1Kgxwtu370vI31hHSwABcnpuVuuvXjbW/8vBSwAAAAACOi2q67qNum/grTZ196hrgPdae/L4KpyBgRAwXH21/WvJApYAAAAAJDaxZXTikDbS9q6a2/a+1FcVKSy4iIGBEChoYAFAAAAAL3VUeE/LGlPkDabd+2Ry0BfhgwcwIAAKCRdneUJClgAAAAA0FtNCxb0yLn/CtJm/4EDauvoTHtfhg2sYkAAFA6zh5sWLNj/9n+igAUAAAAAqV5jhYLdRihJW3buSXs/Bg+oVMjj8g5AYXDO/eLd/8YZDgAAAABSVLlvy28l7QjSZuvuPfKdn9Z+hDxPg6p4GiGAguCH4+Ffv/sfKWABAAAAQIqi0WjcBXwaYU88oZ17W9Pel2GsgwWgAJi0+pZrL9727n+ngAUAAAAAveB59uOgbTZs25n2fgwbVCVjOADkv18c9FxLLgAAAACQurqFc/9P0p+DtNnb1qH2/V1p7UdpcbGqyssYEAB5LWH674P9OwUsAAAAAOgts7uDNtm0fVfauzFiyEDGAkA+e2pJ9byD/kGAAhYAAAAA9JIlEj+Q1B2kzZadexSPJ9Laj5GDBzEYAPL4ZGo/OdSPwqQDAAAAAL1Tt2jBrpqG5l/I6cJk28T9hLbs2qPxI4elrR+lJcWqKi9VW2cXg9JPOen/hUzf64oUPVPZ3un3h2M+UFLqGPmC4IdD7qeH+iEFLAAAAABIA0uo2XnJF7AkaeP2nRo3clhaF18fMXgQBax++ybUzwa0bv5iNBr1CQP5xkn/d/NV8zYd6ufcQggAAAAAaVDZsfm3kl4L0qaj64B27W1Naz9GDx3M0wj7pwOW8K+geIV8Zc795HA/p4AFAAAAAGkQjUZ9OS0P2u7VzdvS2o+S4iINrKxgQPrd1b+tqVu0YBdBIE/FuouL/+NwG3ALIQAAAACkSSKkZSFf35RUkmybfR2d2tveoUFpLDqNHjZEe9s7GJB+xJzbSwpHdv+FF/rVS5rPL+Rj9D39sffnMu8OzyV+kbX3r28dd1zx5d2H24YCFgAAAACkya0L522vqV/2Q8nNC9Lu1c3bNP3oqWnrx8ghg/T8+o1K+NxNBryDmWuQHiGII53LLn1B0gu51CduIQQAAACANEp4VicpUOVo1762tC68Hg55GjZ4AIMBoGBQwAIAAACANHpz5sIDQdut37I9rf0YM3QIgwGgYFDAAgAAAIB0X2iZ6oK22bZ7jzoPdKetD0MHVKq0pJjBAFAY51UiAAAAAID0Wlw9738kPRmkjZP08sYt6euEmcYOG8pgACgIFLAAAAAAIAPMtCRom+2796qtc3/a+jB2xBB5xmUfgPzHUwgBAAAAIAMqWzff31Y15gZJE5Jt4yS9tHGrph89JS19KAqHNXzwAG3bvZcBwXtcvWT5+0LOXS/nny5ZSUEdnAt9qL72ko2McuGggAUAAAAAGRCNRuM1dU3fk1lTkHa79rVqb3uHBlVWpKUf40YMo4CF91jYsPxMz/cfklQhWcEdn/MUYZQLC3NJAQAAACBDOircD2R6JWi7l17fnLY+DK6qUFVZGYOBdxYDXGKZpAqSQN68Z4kAAAAAADKjacGCHufsu0Hb7W3v1I69rWnrx/hRwxkM/EVNXdNRkh1LEsgnFLAAAAAAIIM2ja36kaTng7Z7fsMm+c5PSx9GDR2kkqIiBgOSJN8LDSEF5BsKWAAAAACQQffPmZMw0z8Hbdd1oFsbtu5Mz4WfmcaOoGaBN98PfsJIAXn3viUCAAAAAMisytbNP3PSH4K2e2XzVnX39KSlD+NGDFfI4xIQQH7i7AUAAAAAGRaNRn1zLvAsrETCT9uC7kXhkMYOZxYWgPxEAQsAAAAAsqC+Zt5/SHoiaLstO/eotaMzLX2YNHqEPOMyEED+4cwFAAAAANlg5szXFZICrczuJP15/SbJuV53obioSKOHDWYsAOSdMBEAAAAAQHbULZq3tqa++SeSLgrSrrWjU69v36nxI4f3ug+TxozU5p275dJQEAMKWXV98w1mmlKox+ec/bqhZu69+dJfClgAAAAAkM2LRsWvN4U/K6k8SLsXN27RsIEDVFpS3KvXLysu0uihg7R55x4GAzgMczpX0mmFe4T+pnzqLbcQAgAAAEAWNdR8bbNMNwVtl0j4+tP69FxvTh4zUp4ZgwEgb1DAAgAAAIAsc659sWTrg7bbta9VW3ft7fXrl5WUaPQwnkgIIH9wCyEAAAAAZFlDTU1XTV3z9TL9NGjb59e/riEDKlQUifSqD1PHjtLWXXuU8H0GBEBaVC9uftg8fTAT+2YGFgAAAAD0gfqauSsktypou1g8oec39P5WwuKiiMaNGMpAAEgfzw2WFMnEfxSwAAAAAKAvmLlQyF8gqSto06279mrr7t4vwj5pzCiFQ1wWAsh9nKkAAAAAoI/ccvVXX5Kz76bS9s+vblRXLNar1y8KhzRp9EgGAkDOo4AFAAAAAH2oqn3TLZLWBW3Xk0jojy+tl+vl608cNUKlxcUMBICcRgELAAAAAPpQNBqN++YuldQTtO3e9g6t37K9dxeFnumo8aMZCAA5jQIWAAAAAPSxJdXzn5Zzt6bS9uWNW9TW2dmr1x85ZJAGVVYwEAByFgUsAAAAAMgBHRXuOzK9ErSd75z+8NJ6JRJ+r17/fRPHSmYMBICc45ytp4AFAAAAADmgacGC/fK9eZICV6I6D3Tr2Vd7tx7WgPIyjR02hIEAkHNM8cspYAEAAABAjqivvXSVSXWptN22e5829HI9rKPGj1FROMxAAMgdThvqa7/6AAUsAAAAAMgh7eX+N+T0+1Tavrhxi/a2d6T82pFwSEdNGMMgAMgZYWcLJdbAAgAAAICc0rRgQY8z+6KkwJUo55yeefFVdcd6Un790cOGaHAVC7oDyAFOG25eNPe/JApYAAAAAJBzGmrmviyna1Np290T1zMvvybnUlsRyyQdM2mcPBZ0B9DHwnH/4rf+NwUsAAAAAMhB9bXz7pLZL1Jpu7etQ3/esDHl164oLdXEMSMYBAB9xklP33zdglVv/f8UsAAAAAAgR1kicamkram03bhtlzZs25Hya08dPUqVZaUMAoA+OPnJeX7i79/+TxSwAAAAACBH1S1asEvO+3tJ8VTaP79hs3bs2Zfa9aNnOn7KRG4lBJB1LqHf1i366p/e/m8UsAAAAAAgh9XXXrrKSf+Y2lWg0x9eWa/2/V0pNa8qL9WEUcMZBABZ40yJkCv++3f/OwUsAAAAAMhxDdVzF5u0IpW2iYSvp55/RbFYSpO4NHXsaFWUljAIALLDqXnxNV96z/3PFLAAAAAAINeZua7i2KWSnkuleVcspnUvvKxEwg/c1vNMJ0yZKPO4lRBAhk91UntD9dzLD3ouIh4AAAAAyH13Xn55h5z7G0mtqbRv7dyvdS+8LN93gdtWVZRp2tjRDAKAzAr5V8rsoJV2ClgAAAAAkCfqa+e/6KQvS3KptN/T1qFnXnpNzgVvPmnUcA2uqmQQAGSI+1Pd1QvuPdRPKWABAAAAQB5pqJn33zJ3Y6rtd+zdp2dffT14BcxMJ0ydoEg4xCAASCtn5uT02cNtQwELAAAAAPJM/cJ535D0k1Tbb9m5Wy+9vjlwu5KiIh07aQIDACC9nP+j+tr5Lx5uEwpYAAAAAJBvzFxVW/hSSS2p7uK1Ldv16ubtgduNHDJQ40cMYwwApOuEtq+het5XjrQVBSwAAAAAyEPR6MUHuouKPuVkL6W6j5c2btYrm7cFbve+iWM1sLKCQQDQa77pokMt3P52FLAAAAAAIE/dccWXd4fjiY9K2pnqPl7euEWvbNoaqI1nppOmTlJRJMwgAEiZc/bQkuq5v07qvENcAAAAAJC/brl2wStO+pyk7lT38fKmrXrx9S2B2pQUR3T8lImSGYMAIDinA50Vic8muzkFLAAAAADIcw01835npoul4A8XfMtrW7bp5Y3BiljDBlZpyuiRDACAwFzYv7RpwYL9yW5PAQsAAAAACkBd9bx/k+nK3uzjlc3b9OLrmwNVwaaOHanhgwYyAACSZk4PN1y9INCTVClgAQAAAECBqK+ed4fJanqzj9e2bNezr2yQc0mWscx0wrQJqiwrZQAAHPmUIbW/Pm7AJ4K2o4AFAAAAAAWkrmZug0zf680+tuzcradffFUJ309q+7AX0invm6yiMIu6AzgcJ1/e5++fMycWtCUFLAAAAAAoMPXV874p5xb3Zh879rZq7fMvKx6PJ7V9aXGxTjpqkjwWdQdwKC7044aaSx9KpSkFLAAAAAAoQPU1866Vucbe7GNvW4ee+NOLOtDdk9T2g6sqdezk8YQP4CBsW33NJV9KtTUFLAAAAAAoyGtFc1WtWy6T9JPe7KZz/wE9+dwL6tjfldT2Y4YN0ZQxPJkQwF85KdEZCn1AZn6q+6CABQAAAAAFKhqN+hvHDviSSff0Zj9dsZhWP/uiduxtTWr7KeNGa8ywwQwAgDd5VzReffFLvdoDIQIAAABA4bp/zpxEXfXcS53s1t7sJ+4n9PQLr+iVTVt1pOcTmqRjJ0/QkIGVDADQzznplw01l36/t/uhgAUAAAAAhc7MNdTMXSin7/byQlQvb9qqP768Xr5/+DKWZ6aTp05WVXkZ+QP9186G6rmfSceOKGABAAAAQD9RXzvv23Lu+t7uZ+uuPXryTy+oKxY77HbhcEjTj5mq8tISwgf6GWfq6Yn7Z/Zm3au3o4AFAAAAAP1Ife38m2S6QjrinYCH1dqxX0/84c/ata/tsNsVhcOaccxUlRYXEz7Qb5hzSvztbdcueCVde6SABQAAAAD9TH31vDvk7GuSEr3ZTyye0LrnX9aLr285bDWspKhIM46ZquJIhPCBfsC3xK1Lqr/6H+ncJwUsAAAAAOiH6mvnNprnPi65tt7sx0l6bcs2rfvzy4r1xA+5XVlJsWYcM1VF4RDhAwXMmR5bUr2gOt37pYAFAAAAAP1U3cL5Kz3PznHSpt7ua1drm1r+8CftPMwthRVlpZpx7FEqioQJH+hjZtaa7n16nv18QOvmD2Wiv5w1AAAAAKAfW7xw3h+q6+86wxT+lZNO7s2+unvieur5lzVm+FAdPXGsQt5750xUlpVqxjHTtObPLx12xhYyx5y32Xm6qaAP0vn7GOkj8G1bundZt3Dev2aquxSwAAAAAKCfa6j52uZrb1r+gZ6I+5nJfbQ3+3KSNu3YpX3tnTpx2kRVlpW+ZxuKWH2rbtHcDZKuJ4n+zZn/fD71l1sIAQAAAAC6+bpL2we0bfqUSd9Px/46urq0+tkXtGHrjoMu8F5ZVqrpx0w96CwtABnX2lnuWvKpw5wpAAAAAACSpGg0Gq+rmfc1My2Q1NPb/SV8X89v2KQnn31BHV0H3vPzqrIyjRwyiOCBLDPpP5oWLOjJpz5TwAIAAAAAvENd9bwm8/0PS9qajv3t6+jU43/8s17dvF3OvXM+VsL5BA5kV48X97+Xb52mgAUAAAAAeI+6RQseDfd4MySl5TYj33d6aeNmPfHsC9rb3innnLbs3K0du/cRNpBNzt16y7ULXsm3blPAAgAAAAAc1M3XXbqlqm3zB2WWtifWtXXu15PPvaCHVj+lP76yQb5zBA1kz2NV7QO/kY8dp4AFAAAAADikaDQar6+ee72Zu0jSfhIB8lZLTzj02Wh0TiwfO08BCwAAAABwRHXV838s582U9BxpAHnFmfT9qrYBs2676pKd+XoQFLAAAAAAAEmpr730maq28AxJSyVx7x+Q2xKSHvDNn1FXM+9r+Trz6i1hxhMAAAAAkKxo9OIDkq6url/+a5P/A0mjSAUF6kmTWvOls07Ol2yHzHaY9LQSid/ULVqwq1AGgwIWAAAAACCwhppLH7py6d0nFcUTy530SRJBoamvnXcFKeQObiEEAAAAAKTktqsu2VlXPffTTnalpC4SAZApFLAAAAAAAKkzcw01c28Pxf0TJP2WQABkAgUsAAAAAECv3XLtglfqq+eeL6cvS9pDIgDSiQIWAAAAACA9zFx97bz7QvHwcU76dwIBkC4UsAAAAAAAaXXLtRdva6iZd6GTfcpJm0gEQG/xFEIAAAAAQEY01Mz95cKGe35niv+rnOZLCpFKbqldfPexvuef5pkrLqTjioVKf3rbVRe1McKFgwIWAAAAACBjllRfvE/SZbWLG5f6Xqje5D5KKn0vGr2npK0yvsxZ4u9NknOFdXzhROwRSRSwCgi3EAIAAAAAMq5u0YLnG2rmfszJPiXTKyTSt9qrEnUy/T1JIF9QwAIAAAAAZE1DzdxfdpT5x5jcQskxQ6YPLGy4Z6CTm0cSyCcUsAAAAAAAWdW0YEFPXc38W0PxyPvktExSnFSyJ2Q90yRFSAL5hAIWAAAAAKBP3HLtxdvqa+fN8y0+zUlNkhKkknkuQfEK+YcCFgAAAACgTy2p/tr6hpp5C3zTCU7uh6KQBeBdKGABAAAAAHLCkup5f26omf8lJ3eSTPdLcqQCQKKABQAAAADIMQ0185+rr543x8k73Un/IcknFaB/o4AFAAAAAMhJDTWXrmmomfc5Z6FpkpZK6iQVoH+igAUAAAAAyGkN1Ze8Wl8z7+pIzB9jcgslbSYVoH+hgAUAAAAAyAs3Xb+gta5m/q1VbeGpcm6+pD+TCtA/hIkAAAAAAJBPotGLD0hqltRcu7h5uu9pvkl/L6mcdIDCxAwsAAAAAEDeqls0b21DzbwFkZg/xkwLJD1FKkDhYQYWAAAAACDv3XT9glZJTZKaFi1pfL+f8ObK9LeSKkgH6VDb0Pw3zrdQLvfR99yzS6rnFeSttRSwAAAAAAAFZfHCBaslrY5G77mytSpxvuRfaLLPimIWesE5/UjmSnO3g/qxufZfFWr+FLAAAAAAAAXpzbWyfinpl9X19aVS1XlvFrP+RqyXhcIRl3PfrK+df1MhHyQFLAAAAABAwWuoqenSm8WsK5f+6IqixIFPO+c+J+k8UcxCnjJpt3P2hfraeb8t9GOlgAUAAAAA6Fduu+qiNkk/lPTDaDQabq8YdYYLhT4hufPkdOobdQEg562Rb5+vXzR3Q384WApYAAAAAIB+KxqNxiU9+uZ/unpJ84hQQrPl6RNyOl/SQFJCrnFSUzzcddVtV13V3V+O+YgFLHP+M052PW+PzDBzm0gh7Z/k70o5vLBenotE7LX+cqye7//ame1k1DP1UfWeJYUM/n6R/tV3xkK1GdKj8HpSyNFzSzj+ohKhGpLIVMDWRggodLcunLdd0n2S7rtwxYrQ2E37jvbMzvKdO9vknSO5iaSEPjwRtzlpXkPN/BX98PstAAAAAABIxqJbmif5ns6Sp5lyOlvSsZJCOXBx/8u6mnmfSmbbmrqmmTJ7rJDHyVloSkP1Ja+mc5819c37JZX24SCvDfX4X7jl2gWv9MfPHrcQAgAAAACQpMXXzHtN0muSfiRJ8xsbI+WddpQ5my7PjpVzx0maLmlUrh6D74Wc53wGM38kZLa4qrXq29HonFh/DYECFgAAAAAAKWpasKBH0nNv/vcX19x8z0jfi58gz453zk2SaZKkSZImiqceImm23sn/SkP1vP/t70lQwAIAAAAAIM1uufbibZK2SXr43T+7cundw8Jxf5LkTzSnSTIbLachMg2RNFSyoZIbIqmSJPsvJ/fDSI93+c3XzW8nDQpYAAAAAABk1W1XXbJT0k5JTx5uuyuXLi0u7Sof0hOJD/F8r8hCGpCQ8zwp4nzvjYe1eKo0ubDMbSDZgrHNyeY31Mz7JVH8FQUsAAAAAABy0G1XXdUtacub/6E/MN3fHSn62h1XfHk3YbwTBSwAAAAAAIC+9aozt6Chev4jRHFwHhEAAAAAAAD0ibikpV6i+ESKV4fHDCwAAAAAAJD3TNrtSz/3fP+H9bVzX1P1Jbne5f/1PF21eOG8PzB6R0YBCwAAAAAA5KsumX7lnP2wozzxYNOCBT2SpEULcrfHpi3y9fX6mrk/lJljCJNDAQsAAAAAgH7E830ny+MDMO2V02/M9J++a/91Q3VNV570vEfSXeGY982br7u0XbXzeDMGQAELAAAAAIB+xPc885yfb93e4KSVkv1qQGvVymh0TiyP+u7k9FPnhb7ZUH3Jq7wDU0MBCwAAAACAfiRPZmB1O+lxc3rEC+mXebxO1G/N13V1i+at5Z3XOxSwAAAAAADoR3J0BlZCpqcle8Q5PRYPl/zvbVdd1Ja/Kbs/yXnR+tq59/OOSw8KWAAAAAAA9CM5MgOr3Um/N3Or5esJ34v835Lqi/cVQLzPyenmjeMG/vj+OXMSvNvShwIWAAAAAADIpJhJf/KlJ81stXP+6gFtW/4cjUb9gjlCp2cl3bJx3AAKVxlCAQsAAAAAgH4kg7cQxiW9LulPMntOvvuTOT0XK+p69rarruou0DifcnLfbaiZ918yc7y7MocCFgAAAAAA/UgvbiH0JW2X9Jqk9U5ab86tN2frfc9eG9BW9XqePR2wNx5zspsaqi/9lcycaubzxsowClgAAAAAAPQjzvxOM2+tnPab1O1Me+Ur5kydZtYhuTbn3E7PbIfMdiju7TLXvWvxoq/u7OezjGJO7t9DCe/mxdfMfVaSVDOXNxQAAAAAAAByw9VLmkeQAgAAAAAAAICD+v/w4M0wASjeGQAAACV0RVh0ZGF0ZTpjcmVhdGUAMjAxOS0wNy0wNFQxMDozNzoyNSswMDowMLwxbhcAAAAldEVYdGRhdGU6bW9kaWZ5ADIwMTktMDctMDRUMTA6Mzc6MjUrMDA6MDDNbNarAAAAAElFTkSuQmCC;" parent="1" vertex="1">
          <mxGeometry x="244.71" y="130" width="94.67" height="40" as="geometry" />
        </mxCell>
        <mxCell id="-BB69u0BcrIW1WyyOu73-18" value="" style="shape=image;verticalLabelPosition=bottom;labelBackgroundColor=default;verticalAlign=top;aspect=fixed;imageAspect=0;image=data:image/png,iVBORw0KGgoAAAANSUhEUgAAATgAAACiCAMAAADiKyHJAAAAxlBMVEX///88Oj7iWhw5Nzs1MzcuKzAlIijhTwDm5uYzMTUoJSsrKC0wLTLgTADiWBg1Mjf39/dAPkIgHSP5+fmDgoThVQ6JiIp8e33s7OzV1dViYGNMSk6Qj5G0s7RGREi9vL1vbnCbmpze3t5ZWFvJycryu6jGxcb20cT99PCjoqRUU1a3treYl5ntoYbwsp11dHb42s/0xrbkaTX65d7rlHX87+nqi2kTDhfnek7og17mdknvqI/mcUP2zsHsmHvjYCYAAArzwbAHQYfrAAAXFUlEQVR4nO1dZ2OrOhI1EWCaDe7gEuOSglOcfvvN5v//qRV9RhLFuclz2vmy9ymApWE0c6aIbTQ+IXpPDzff/57sexrvDk+PzUG7PWjdfIluJ1y02gcR2q3Lfc/lPeGydZChdbTv2bwfXAG5Ucl97da6uGlDwbXbp/ue0DvBZfMAYfCw7xm9EwzaWHBfm7UerhmFo5v1Zt9zehf4MWAFd9D8te9JvQP0OIULJXe/72m9fWAukvqHH/ue1tsH61MT//Bn3/N683jgTVzoHx73Pa83jxuWjCRW7mLfE3vjOD0QC+6gdbvvqb1t3ApNXOgfvu97am8bf4DgcAjRvN733N40fuWCGzwge9ce7HtubxrAqTb/nCBOV8M/nF5dfr95vPnx6/MZxMdcyag7+I64SbNcHLdHD81WmHFvD5qtu/9ovm8FpzD322jcN+FmHfwsvO/++m7QbAKj2PxkiQEQcEU5kV/IybaE/uH0z9/fSGix5D5XYuAJ+Ia/4cAj8g+PPeb606tfv1uc0OJr9zD9/eEv8A1RfavMP1BPcNBqFhDmT5ZR+Ql8Q5z3xbFrFj9QTzAQq9qnFNwp2JnJwhn/EMYPp9d3j7xRY7fqwWeq8dznJi6zUTjP1Ly7KDBqDD5XiAYCrnzhOF8yqCG0EGIP/FEBtGuQ+QFhTrgK7YN9ruM/Bwy4co25E+Y2KxTuc6WMQTKudZWNnu6ucs1PFnLBgAtwXXEdAqDN2L3B7/2tYR+4ZQKuDL/LHEK72Tpg2k0+FRVpoCI+bhgp9A9hIuTm4gpGHKEkP1tW6QL4BhyjC/0DFdrjw1PIky9xY9jncgwN1P3QxIu/Z9lbe9Bqfb+8jQ3hH5xD+XxNnDDgYnbbUQsKrdn8eZF73dsWlOqnKySeXgOFa7fZPyf+IRTa499raPzvD7ho9vPg9ugHjUCBUnF8gvqH0BM83j2xlv8G2r/BDZuy+8C4vQwzuNju/+Wuums9/jgSuEvUFtYefJpk0tWvG0EysinoNRdzjL/QMbRBvPGR0Tv5e9AUpnBrC4AhIk+vOt83gpO7x1ZRjqhVk/r/2bXy+t5x+uehLB1Zt+v3Cqlr86O3p1Pi0W6WpopqdmBiWlxSdv0IuI+IR2kWl0YFtYqiPURE2gcfmYicfB+U61pI1g7u6gWbDBH5wJH9yU2hN0hWTxnuRV2H+hdHqB/3FMnpj1aF1Jq/f9XnYQwR+biHDG8fS/ZolFe73GWzMSV+PtL4KLgv7FUIE2vNH0e7xUq3mIh84HMQvwv0LUx3/HjaNdV9ippxBh+4p+uPMPlNiQd1oc+gEQwR+cCRveDcRzvMrF09i3w94Mj+AxMRwbmP9s0OLhTjoka74QdBjxfc4NkE4gk71P+qxOA4DjfgOPyO4a4Lx5ZLV3wNeoSrJcivFFRGm+2/z9tjP5GB+68cw6Jrdqdo5FA1TdOQp1h2Y9X8NkcjvdmhQS/srLOR9TfDiiXn2Ma3fJzQ68JnfstvFtX3wg+y7OxPG0xhn69OvA5cmUj2GI3YRKIgygZKzutKkrWA13kTM7rQPMuGAoskj9IMycr0y9GlCPIqv/tEXFJuN9t3u1s6zOH+m5hhaFEZdeCIZ0hEVQ0imQEYXVEh2VswMOsSSTcsw1S9bKwv2/34X8dUqNnw0pSILdu2CTW74FRgpHZHO6rdE1I5rqP6NaDRNUlAOShmCpk4jicRAhRxTqUpkcN8gGogUYZLxzk+zK3ciiiz+F9U93L1mitkwxnOq+LGmXZzsKPaobfwn3iHkU0mE8lcg6GpLvvR/5BJPnhIxUikbu4eJoQQr4HRsyQjGdvaeq5e5zrS1QSXJc1aodpd7sBir+Gz2s3XV7mlKhlrn1h4U0b/OSbA9M1MSdFysUQD5rHgaWoyZynTPQpfxtYxwUVpmxulww/1M0PISf/DWRBtPZ8Fi2B2rJVf58t0+/VluQ/GqFmfuVpAJZMtvdcher+xAcLYoI2cYG5K9mgbYmQDIYfquhmPx6s5c/1leVrpgKpd3dNrJ1jlnhVyLWdjnfp+xbIsxTTJkN1QAGsj1JuZRTb5mKZKEr3foi4j0/hAkbou3daZgB2qgWcNFgvqPW05hE2dbbatHfpEurGJys3k9qYkRRKi9bMus0PH4wTl60rMVoZCpBxENzbsm86wivRmbUpqPkb/K7yNWOYyHXJkIg+p+PTM4FM/iexiDF+WbCUCdSS5gQzddEjj/scT6MaRuIyaalz9sijumNtV5XoBlloiO3Us3rGhq1yNtj6B+yqguibbZDPNlzmlQ/52OyakkwxqimTyr+OQ2MNZiLMxkXN3ELppb00hnPLlY8GGbbceIlbi+IUvHgIVHHb8btW6o3BSi5mnxe+rRugZqVTtkO8q+dxGtt3voejKNaT0OjN5A44i6UP2ca4sGcnffVk/z8aHOrKhHK5/i+o1g3Ycq8+l7rLs7hT48P5OCZKhymtbCnXKX089I0k2FuAO1KnO8HUjXZKT6zI129B/x1qar8qjpDfmdL1DAnwu/0QWVw9s0abduovUzfVVYrvldydAiaodPoXjrgrULYbBS84mZHUWbiwfuEiHEBMbcWrP9FF03SHRU1pxRne5FWja3B9lF9ItmdhAqqO5hQxd8nQ+n59x9AXg/mIAjV3zMWYigW5T2l2Plt3jo0p1GbTbkcvkRiV3ztwRuspYRJTmZ5OjXMzCb5hSFjveudRy+enomIZqlqqaRk4BKXNOpEgdjJkNU/4n6VRf1VzEIpxeHrQGqbrFXnE5jozEqvS+HKhhum4/oSYVb9N0t+L9QmN53Y//OTeJkroP+m+CrvO6REn0bGoROx12VnGID546lpVEioECnOqxQSIokGULcf0zEl3zJtaWhRrpgiyIOoQ4fUZd1TmslBv1AMjIntsdO9mTS6tjpS5vYUs+evRY6qS+9MzuGLnXCCTVMKDDlrKn9AnJ3UEgdyJYQq+KQY1dM2l3WG7MeNo6u1UKgRLBfA+nCCu7Wm5UJwVE6l/gaBWByTNwHzdZ9qbdVBWUWmwkxCk6UFMngz4t9QsZ9HIr84awPrSyWQuYNlVj4W04o1l9CP9YrSU3SfompHNvDyNIrFSBWo/CGPH2O1fqH+yW0SSMgSO6QkNVzuoRY/g+Gp/WXThtlb9gapJeeIgwrCf+gUnPo50ymoHCyGcynR/Pz1ddTFBkq7ax2DNmcEEwe5ogUGM1PGhHPSY/L04y4T3ukNF0scLJk5Roar4JxpVNPQL+BjDV4Xp89s9n1DJFgUkSK4RNE+muZTKapSl4rHD6CujneWb8SFcQc71VjOBW4WLidciKo1wrPHjebN3chedrdshodlAWCdPswEheGymLd94aVnBFFuNAvchxRKwYn3WLO8Mu8GerStJLngEVzmCShaPIrZvjd7NNG1FwC1bEpK+02DBFkcktl3tne7DLMpqBBX6Ft6R0EkQVZfzfLlzErkwU77ipUIlT8v1MoIXFVm4LDQJfCFirulSSPEfohdhtkfBubT0/m83O5t4/Bih4D+mQxvU26Wqj+PFnleDKvgeJDAKs6CUY+TXW4a4X201HNlQanfvT4503tjbrb0zVNMOsnWl0D/tn/2Ab5pAMgMoHxTjzt9EOFn8juOZenSAywtPsahVaBivLtOSE1RBZN63xbAet0YKJosjo/cmKsq0R09Nw1zsLzocJ+vEt2PiAOlJjm/8lCv0rvwZRkl3q4bwIz3qqZh6sDEGQYcrDmjqz9k3+/nAm6rjKRNDfVgzF0lN0Yz/QhxkLuKAhUMXIrZ5UCq64d4kRnGTuxNfcqSpcdfhKu4sa9m59aBQmZuTuqExvnfMu89tG7AfGiI3kSaUFtH2RG7yv/HJLu/hY0opZuLpDYBXIllQMZVKlMsuxUZoHtDrFT5h3uN9OigtIFfIa+Az5DCXK9JQVF+OtWvyFmxGbMjfrOtH1oaCWCEG65UnboFuRrqdPKCrT5Pm2/OJJpOIO+kOWVMIpIMuPBu9/fa/42l6xVw3YF1e3KjQtKYpl0y5JW7tjs/J+Qakjhi/IICZcaokWlHo7D/2YldOu+6fw6GFRz1jJN7w8bvrypA4B2dRKfirjIkPnSVXqlkhOxL59kYlISj2Yxpm9RJrwLes4sDw9uXgUfxuztBWAzcbR5/L9MNyySb1lFz5rXkNfY6j8fp8KdTWpPeKkUkxMcQZIXvFvU/ABhKqDSSgJE8OqypGvzbrLLnhWYFTfmcJgGd1anLFOigvniMZF783ZwNdsFxRa74+wwWtXfG5aE+w5s7TnoHHc5W8pXrfAQwR1k/XR4hVsdJ2CUmYi4D4UUtw8sYGUxy6xRKfXD4/xV7rDMzpV1Zo+r3LldG4t3ClR8VP0B5OLRuYifSOybeu26Am2j+6eFnCgxA9gGhduX2QRCSn3fadXlz8eBwc/L6pPNjmiZajF1cilgAnopjFZjTeSKmAoNmvmPP4HbXr/dtQfjla6oXOPMCC3dIqsa1Jc4JJKI2T05BcsSZ6JJGcWcTC3wy5MNyc0sA9fUE+bjRVOgVWcBXXYBxDL2s6zkyHekKPVoAOdMf5S1AcVQY973x2cVPIaCxTzK3VZai30RdSiiHuyxWtZHaKU17LPaiQKtNPkaA6LBIwRW7ABBcxG+kjjiDEZ9WPETnWJtMByZyq6+kXlRoUhUn9VKLkFNnDEGHG6700YpUM1YcbAEaXPG+vlIZ4QzBMisdsbVhLHaH4dlGMSF6f/BeLeEVHYusRy0yVRMcJhCKoOnLSDI3NZFuqAOxHG7424xzgXKJ8/ZHYyegHdl6+caEKHqPI/tEHXWX6B6xljnVPyvwyRTK1VATdw8frzkgty6YK4eijgCOnVr9GI4ImYFW9KseYrhaFoD2tMblqwxpbEKDN0YW4mzxTRaA6/MKQRhCAvgWMht7IYA4a2dNofJ8ISvYisE7OxRVnGTQlXwvkuM/UfMNCRBVHJpiimEQa9L4GZUOcO0VZCapCkcQowglsmM+7YQsllXJQx66nOQo3SeVlwXCeFVbtNbmcsRDono0QC2oBmaTe3hmPtRMaI9fOHkhBQZJWdJ4EaJWh90wrCCtGufjFMRZJTQPCFDHPVK0TGJsnxoTCzqscUZR/S01xIowSsTBCVJOt4zV6EkSgIBbNDHsuqiOUQL0gOMCBDKmpcg0CvKT0QgBRZ8IR5UZqwKkb9N2wFig64EjTsbE8GB0ThE+nD6ndlU7OLHFHSO4M0qsvfxCW0M3Ah84tiLPjd7BQgoixW5QuEuaeEskO2WM3ioQtPj05DPcYns2OU0DhRfuvlsOJ/OGsogW9TdPSWwYSTEkzTM139IsAEUapxCzA/Jt3E3cOi3Jv9I5wJTyDTFCw094JTkywgZYsFB9WlhuRhZTllHiM4JkgaMklO9F+C5swXhCC/mvJMqEJq9dsbc/4P7qNKG4ndano5ZCOiR6DctDXHMbjFHbx7SSy5LGySDnOhbxC0JLNAxCHyf1CUFSQuBKwepIkl6DQFj8ABi+oyDfXGq/ZHrrmKQnymBrpJlFoUowcfE3MBqLJGtcpCjUsiBwc+VPAInNWnXneLbDaRX/iMC8aMpXOxhaoKrxlA4hBTmh5U5SoW18D2LDHsiOMIIjacVLL51nB/J0nsij5DSuIGjAUYFXyKgAX0wfF8e7vQ3wbe2UmlC2qU6DzllIuQz5jNWnH09R/BpBFjKwy9ZA2NW3FmHG3eGklsOAs9HprBlyc4T4mSLzGF2eJU/6tyEib/nHAB6KGqWRhKvMVSQhpXfTatB/x7+qKgXxYRGkHDuYu3z6tG+6zKxTNAPqNbZWVRtdaKhnpwCdVpHk2QeYNUUvAEXAJI3g1TxFNe6MSGK4zVcV9EZOOYZu6KgAldncZLkKAIygUMoM6myRGoUQIOjrUr9bpMUvhFKjbOoisMAbB3irgATtjY5U0S2LKkWUi0kZQq7wDtRdIfiJJKAgGwtcF4FL/yl+AkvcCyxHv+DAkuSqDjhE3FqV+UP8p+YsSb7hJAt5wIya3wy3N8/C2dIsOv9LqHzYswOwx/R8imcctPlIVYMIWrspDJRdFHll7BOR++pwQDmotESEjrBcELbjjPve4Ye9Z/4yTHnbhXS6hyyMjG23LEVPDV4rySg3xLHlvjJsYSMuqGexvRn1h5EAcXhOzDgnODLpMXrkEii+CtsjYDgcrhbRlnR9iEjVzIgV3UVgXKmT0se6Wo7uRKoVkH8Xxas4AaRXz+RjRHmDxhNmvtT2qw8HzQ38FUshrsTosPpzCV0nDdBf7Bs3F3B5jkFvu3guZqz46+IioQEkoqCWwkiq8UuCGZzfo8TqKNTPQYizGWLmpgTPiSoLtKLLlzplsThuJs8dYULL5HHxB+nsQFvDH9uFJVUqmYMWlM/M21edYBlx/HEvA6+O3ExkwTlF0truWlsWa/NGSi/ciqrbVhFzCnHitSUugIUiGh4qKgNojeC04ZBsxmfc63QI65Ypa1yqylO2I0Jsn+CdswiTFCs1tzJz4YS8g2t9EnjIHolsFh+OuRN4IF6URIDuob4YNO7Hy6zIeI8ZZ5Difp8UleW+mvXcfRjkcWU3RIy+3ckhPBqKvAC69wl/Mpf76IsDUdvrnHNib9s7XnrYP+JDngFCkYdARJRgDFvzrvGRH7ZMNpjTETz+Ekoi5a2TQoTM6Spc9fFNXdiGUaqqoahsL3oPI5EFGLCpGV8IuEVnaCMAoyYRO0KkgqdfhYUdBwDsBsVqm7Oydx63eNZy0Q3NGlOhB02G2L63cZInFDapEUUFFtUBDrIqrJf62P6cd5DifZ1pVCXv8u7AIqgain0xG3piNEId4EEqb4XtSp5PPP5hvOEZaMtXkGJ2EfUbz0bKs9Q+HEFWCv8rejT2m6YCAVEnzfgtogPkIq+uwr89P8d14rMSzsFMBLz1TGqSvqfPlqQel1XmUooiAQEq9USCipxGsznqMoxcywoexjp/XBnu8VA6jMUsRGymDbha9TeD4EIFIw6AgSGoe+i1FZG2R7IqMrmNefcRJtEVA01mH/ey8oK7YLW1cx0HFT8WmaYpirkt6SihNwkYJBR5AICR1hEFTEET8Va9M5IzkjkZEbnNuzWWP6jS7Z+1ZaiRKeCoGQCST1iMYVffY2g10Yv8fQDstMRbQLIbUwBEklg5fLDLERcYaZDV2y3JYWOqDplN61nZaX8Gb8ySL0RKwyuDgcFJ+kl6JooKqU5AxLfj1K10D6k7j2eUVt8BwyHVFHToNvPMzo1jIS3Mz3nMm6ovZ5bBeunlg64xGhQ6MvW9uqRW5WVjd1Gg3Wq4L9Sozoa8AoqRTfElQUdlFtoSjBzG7WlJMkgluPZoFXVTR2ffG3BIhin7MWagVZVfiyPd8URAo0jPDr5h3WY0VhpS+b1nge6VLXyNBNtGJoyhlMQcM52oaFH11mN2vCSWLBBY1Jx6nSOIrjlcqunljqhv/cCqpxJs/1pkS17JTPEiJbJg1cd4lj3MA3aaQmhwc2ZZveLo/m6RvzAJKNv+jnGAk8X1cF+F+R2nvoMlXtxmZuGaay+kHj3G8c1ym9etOJYlrR3GXdUgyyWojsEywU2fnL9oLtpKObYZzamfjnu38bqNHzZkN/vNqM/VFQ9f8eUQUNobBF2dUYRLPuhT/uOo2e03BqLkM7Dqbb8WrsDxdny4J7UHIMF4IdTVsuNe1V24DeL2ARokYz5hdSoBrnC5/5/NCAybHKEvwXcsCETdXJkC8AgJxAjS7WL6SAh1xqNGN+IQVMx1Q2y3whx1pQ4/xCDaDk2Hv55PlbAEwq1Tig8IUU6MTBe/oK9b4Bk0q7Fzg+MSAbeW5r2WcEPEH1yod6Pha8b1YK3fiicfWhBdH/CeUsrD0K85yfA/8HyvayNS4AWw4AAAAASUVORK5CYII=;" parent="1" vertex="1">
          <mxGeometry x="543.09" y="120.75" width="96.29" height="50" as="geometry" />
        </mxCell>
        <mxCell id="-BB69u0BcrIW1WyyOu73-19" value="" style="shape=image;verticalLabelPosition=bottom;labelBackgroundColor=default;verticalAlign=top;aspect=fixed;imageAspect=0;image=data:image/png,iVBORw0KGgoAAAANSUhEUgAADwAAAAlgCAMAAAACwTJvAAAAP1BMVEVHcEzBvrvCwLxFpjtBTkNBQETBvruDioBBQERBUEI5ODxBQETAvbpHrT1AnjlPsj9CpDo+mDlXt0Lp6deNv37u+uEyAAAAC3RSTlMA1ZiubKJVHdY8/gwaQYEAASUuSURBVHja7MEBAQAAAICQ/q/uCAoAAAAAAAAAAAAAAAAAAAAAAAAAAAAAAAAAAAAAAAAAAAAAAAAAAAAAAAAAAAAAAAAAAAAAAAAAAAAAAAAAAAAAAAAAAAAAAAAAAAAAAAAAAAAAAAAAAAAAAAAAAAAAAAAAAAAAAAAAAAAAAAAAAAAAAAAAAAAAAAAAAAAAAAAAAAAAAAAAAAAAAAAAAAAAAAAAAAAAAAAAAAAAAAAAAAAAAAAAAAAAAAAAAAAAAAAAAAAAAAAAAAAAAAAAAAAAAAAAAAAAAAAAAAAAAAAAAAAAAAAAAAAAAAAAAAAAAAAAAAAAAAAAAAAAAAAAAAAAAAAAAAAAAAAAAAAAAAAAAAAAAAAAAAAAAAAAAAAAAAAAAAAAAAAAAAAAAAAAAAAAAAAAAAAAAAAAAAAAAAAAAAAAAAAAAAAAAAAAAAAAAAAAAAAAAAAAAAAAAAAAAAAAAAAAAAAAAAAAAAAAAAAAAAAAAAAAAAAAAAAAAAAAAAAAAAAAAAAAAAAAAAAAAAAAAAAAAAAAAAAAAAAAAAAAAAAAAAAAAAAAAAAAAAAAAAAAAAAAAAAAAAAAAAAAAAAAAAAAAAAAAAAAAAAAAAAAAAAAAAAAAAAAAAAAAAAAAAAAAAAAAAAAAAAAAAAAAAAAAAAAAAAAAAAAAAAAAAAAAAAAAAAAAAAAAAAAAAAAAACA2YMDAQAAAAAg/9dGUFVVVVVVVVVVVVVVVVVVVVVVVVVVVVVVVVVVVVVVVVVVVVVVVVVVVVVVVVVVVVVVVVVVVVVVVVVVVVVVVVVVVVVVVVVVVVVVVVVVVVVVVVVVVVVVVVVVVVVVVVVVVVVVVVVVVVVVVVVVVVVVVVVVVVVVVVVVVVVVVVVVVVVVVVVVVVVVVVVVVVVVVVVVVVVVVVVVVVVVVVVVVVVVVVVVVVVVVVVVVVVVVVVVVVVVVVVVVVVVVVVVVVVVVVVVVVVVVVVVVVVVVVVVVVVVVVVVVVVVVVVVVVVVVVVVVVVVVVVVVVVVVVVVVVVVVVVVVVVVVVVVVVVVVVVVVVVVVVVVVVVVVVVVVVVVVVVVVVVVVVVVVVVVVVVVVVVVVVVVVVVVVVVVVVVVVVVVVVVVVVVVVVVVVVVVVVVVVVVVVVVVVVVVVVVVVVVVVVVVVVVVVVVVVVVVVVVVVVVVVVVVVVVVVVVVVVVVVVVVVVVVVVVVVVVVVVVVVVVVVVVVVVVVVVVVVVVVVVVVVVVVVVVVVVVVVVVVVVVVVVVVVVVVVVVVVVVVVVVVVVVVVVVVVVVVVVVVVVVVVVVVVVVVVVVVVVVVVVVVVVVVVVVVVVVVVVVVVVVVVVVVVVVVVVVVVVVVVVVVVVVVVVVVVVVVVVVVVVVVVVVVVVVVVVVVVVVVVVVVVVVhDw4EAAAAAID8XxtBVVVVVVVVVVVVVVVVVVVVVVVVVVVVVVVVVVVVVVVVVVVVVVVVVVVVVVVVVVVVVVVVVVVVVVVVVVVVVVVVVVVVVVVVVVVVVVVVVVVVVVVVVVVVVVVVVVVVVVVVVVVVVVVVVVVVVVVVVVVVVVVVVVVVVVVVVVVVVVVVVVVVVVVVVVVVVVVVVVVVVVVVVVVVVVVVVVVVVVVVVVVVVVVVVVVVVVVVVVVVVVVVVVVVVVVVVVVVVVVVVVVVVVVVVVVVVVVVVVVVVVVVVVVVVVVVVVVVVVVVVVVVVVVVVVVVVVVVVVVVVVVVVVVVVVVVVVVVVVVVVVVVVVVVVVVVVVVVVVVVVVVVVVVVVVVVVVVVVVVVVVVVVVVVVVVVVVVVVVVVVVVVVVVVVVVVVVVVVVVVVVVVVVVVVVVVVVVVVVVVVVVVVVVVVVVVVVVVVVVVVVVVVVVVVVVVVVVVVVVVVVVVVVVVVVVVVVVVVVVVVVVVVVVVVVVVVVVVVVVVVVVVVVVVVVVVVVVVVVVVVVVVVVVVVVVVVVVVVVVVVVVVVVVVVVVVVVVVVVVVVVVVVVVVVVVVVVVVVVVVVVVVVVVVVVVVVVVVVVVVVVVVVVVVVVVVVVVVVVVVVVVVVVVVVVVVVVVVVVVVVVVVVVVVVVVVVVVVVVVVVVVVVVVVVVVVVVVVVVVVVYU9OBAAAAAAAPJ/bQRVVVVVVVVVVVVVVVVVVVVVVVVVVVVVVVVVVVVVVVVVVVVVVVVVVVVVVVVVVVVVVVVVVVVVVVVVVVVVVVVVVVVVVVVVVVVVVVVVVVVVVVVVVVVVVVVVVVVVVVVVVVVVVVVVVVVVVVVVVVVVVVVVVVVVVVVVVVVVVVVVVVVVVVVVVVVVVVVVVVVVVVVVVVVVVVVVVVVVVVVVVVVVVVVVVVVVVVVVVVVVVVVVVVVVVVVVVVVVVVVVVVVVVVVVVVVVVVVVVVVVVVVVVVVVVVVVVVVVVVVVVVVVVVVVVVVVVVVVVVVVVVVVVVVVVVVVVVVVVVVVVVVVVVVVVVVVVVVVVVVVVVVVVVVVVVVVVVVVVVVVVVVVVVVVVVVVVVVVVVVVVVVVVVVVVVVVVVVVVVVVVVVVVVVVVVVVVVVVVVVVVVVVVVVVVVVVVVVVVVVVVVVVVVVVVVVVVVVVVVVVVVVVVVVVVVVVVVVVVVVVVVVVVVVVVVVVVVVVVVVVVVVVVVVVVVVVVVVVVVVVVVVVVVVVVVVVVVVVVVVVVVVVVVVVVVVVVVVVVVVVVVVVVVVVVVVVVVVVVVVVVVVVVVVVVVVVVVVVVVVVVVVVVVVVVVVVVVVVVVVVVVVVVVVVVVVVVVVVVVVVVVVVVVVVVVVVVVVVVVVVVVVVVVVVVVVVVVVVVVVVFfbgQAAAAAAAyP+1EVRVVVVVVVVVVVVVVVVVVVVVVVVVVVVVVVVVVVVVVVVVVVVVVVVVVVVVVVVVVVVVVVVVVVVVVVVVVVVVVVVVVVVVVVVVVVVVVVVVVVVVVVVVVVVVVVVVVVVVVVVVVVVVVVVVVVVVVVVVVVVVVVVVVVVVVVVVVVVVVVVVVVVVVVVVVVVVVVVVVVVVVVVVVVVVVVVVVVVVVVVVVVVVVVVVVVVVVVVVVVVVVVVVVVVVVVVVVVVVVVVVVVVVVVVVVVVVVVVVVVVVVVVVVVVVVVVVVVVVVVVVVVVVVVVVVVVVVVVVVVVVVVVVVVVVVVVVVVVVVVVVVVVVVVVVVVVVVVVVVVVVVVVVVVVVVVVVVVVVVVVVVVVVVVVVVVVVVVVVVVVVVVVVVVVVVVVVVVVVVVVVVVVVVVVVVVVVVVVVVVVVVVVVVVVVVVVVVVVVVVVVVVVVVVVVVVVVVVVVVVVVVVVVVVVVVVVVVVVVVVVVVVVVVVVVVVVVVVVVVVVVVVVVVVVVVVVVVVVVVVVVVVVVVVVVVVVVVVVVVVVVVVVVVVVVVVVVVVVVVVVVVVVVVVVVVVVVVVVVVVVVVVVVVVVVVVVVVVVVVVVVVVVVVVVVVVVVVVVVVVVVVVVVVVVVVVVVVVVVVVVVVVVVVVVVVVVVVVVVVVVVVVVVVVVVVVVVVVVVVVVV2LuD3cZBKAqgC1tjeYFAyP//rdMkTmpskqZdGXJOO2mnS3ZX9/EAAAAAAAAAAAAAAAAAAAAAAAAAAAAAAAAAAAAAAAAAAAAAAAAAAAAAAAAAAAAAAAAAAAAAAAAAAAAAAAAAAAAAAAAAAAAAAAAAAAAAAAAAAADeNzkCAAAAPiIAz84AAACATzDogAEAAPgAUx4dAgAAAJ8QgAeHAAAAQP/mnN0CBgAA4CMCsAoYAACA/v3LOaqAAQAA6N74FYBVwAAAAHxEAI5eQgIAAKB3Q845eAkJAACAjwjA0TkAAADwAQE4BWuwAAAA6Nv0lX9zTNZgAQAA8BEBWAUMAABA3+ZLAM4pqIABAADo2rg2wFEFDAAAQM+GtQFOXkICAACgZ3kNwCFMDgMAAIBuTbcAHEIKKmAAAAD6Na4BOIUQVcAAAAB063YFOMfgFjAAAAAduz2CdGuAvYQEAABAt9YJ6Osa6OAWMAAAAL1aJ6AvDwF/JWAVMAAAAH2actEAh9mRAAAA0KN7Abw2wCpgAAAAuvRdAF8b4KQCBgAAoEvDdwAOtwCsAgYAAKA/mwI4BxUwAAAAvdoUwOsItEXQAAAA9Gdes++ybsGyCBoAAIAubQvg6x1gFTAAAAAdmrf5N8dwH4JWAQMAANCTqci/+ZF/VcAAAAB0ZdhcAC4ScFIBAwAA0I8x7xpgFTAAAAAd2g1Ab95B8hYwAAAAHeXfYZ9/Y3p0wFEFDAAAQCeK/LtsGuDrU8BhdEIAAAD0YCyz7xqA7w1wisPkjAAAAGjfnCs2W7BUwAAAAPRgquXfTQN8ycAqYAAAAJrPv0M1AMe0DcD2YAEAANC6Q/5dNiPQjwisAgYAAKCb/LtUG+DbDxUwAAAAveTf3RKsVHyF2VkBAADQrvFZ/s1xm37dAgYAAKCv/LtUnkG6fUVPIQEAANCquV7+Lus7SLsEbA8WAAAAbXo+//y9BGuTgA1BAwAA0KLi/d/lmID3DXBSAQMAANB6/q03wMUSLE8hAQAA0KI5/+TQAIdkDxYAAACN+fcq+t6XYIXdNeAwGIIGAACgKUPOf2mA7cECAACgJbvrv8uTAHzMvyHMTg8AAIBWzMPr2efnDXAyBA0AAEA7+Te/pzIBbQgaAACAZow/5N7l/hFS9csQNAAAAC0Y8rtCOfx8/f76Fw1BAwAA0G7+XZ6PQN++H//zGDAAAACnN73f/z6WYO1K4BCCChgAAIBzm3+Tf3O8p9/Nz+uHPVgAAACc2vTW5PNmBDqVl4DtwQIAAKAFc/6duN1+tfm2BwsAAIAzG3+RfZe1AS5i76YLNgQNAABAD/m33IIVyib4+mETNAAAAKc0je+1vuUIdK38vf0WXQMGAADgjIZfRd/dO0iVMegwuAYMAABAY/n3xyVYj/C7+ZaAAQAAOJ1peLv4Lf6WasPPj18swgIAAKCJ/PtWA1yuvirfA5aAAQAAaD7/LvcGeL8Da5uJrYIGAADgRPk3/1U8PoBUBmKroAEAADiNefhzAM6V3VflfeAgAQMAAHAOf+9/788gla8f7brgLAEDAABwBvObt33rO6ErTyDtPlLwGBIAAABN5N9XDyOlw96rYxiOEjAAAACt5d/qCPThCeBiI3RKgwQMAABA2/k3p3S8A1y+hxQuzwFLwAAAADSdf3Moe9+0vwm8/kkCBgAAoNH8u94Frl7+DbsMrAMGAACg1fz7aIAPoTfs9mKtPwfnDQAAwLnz7/I6ANea38Nd4MsUtBMHAADgzPn3dSSOuzd/Kw8i3X+RgAEAADh//l2eN8CHtVdPxqAlYAAAAE6ff5+Kx4Hn5zFYAgYAAKDR/JtDffD5kIODTVgAAAA0k39rc9C1zVeVNnj9GJ09/GfvjnbbxoEogC4gA4YfCApC/v9bt0kti0NSipNSQQufs922SdO+5OnicmYAAICfc12WcQ1wWwDvHkVKKUvAAAAA/Fz+ncYF4KXz4rk6jRQSsA4YAACAfyf/vlVboOPOq4+g29sM/f6BDhgAAIB/Jv/WDXD98Lk+jBQ+1gEDAADwM4bl37d1C3T/BFLqbII2BwwAAMAPGdz/Fg1w2quAH3PB9590wAAAAJxvdP7Nc/P2uW1957l8ED2nfPONAAAA4J/Kv+Ud4F4Qrq8irYPAEjAAAABnuoxY/Fw3wKmTcmPtuybhx28kYAAAAP7O/Lsfg+vZ33j6d4u8c7UKSwIGAADgLLdxD5/fOg1wMeTbrsEqi+GPn8wBAwAA8Pfn384McBFvw8ftB/efJgkYAACAfyf/5vus79MN8LYIa7r6pgAAADDcdVrObYDLZVfxvXP8zOOzEjAAAADj3U7Kv0u34W0+6r2CniVgAAAARjur//1ogHtDv9UvVRJe/5eAAQAAGOuM/Pv2aQPci73xc5NvDQAAAH95/n08ga7me3thuD4DvH1OAgYAAGCcy3JiAN7fAN3fgFWlYwkYAACAUT4OIOWR754LKSbd5uzRzue2MCwBAwAAMMZ1Pdl7SgPcWW2VDl5Ft1E5X3yLAAAAGJF/ywHgfEIAro8bzU81wNuPJAEDAAAwKP/mEdH3bXcG+OgC0k4rXObjfPNtAgAA4E9NJ7S/ZRTOe03vQeRt9mFJwAAAAIzIv/msAeD1CXS116rz0fFmLB0wAAAAf+ZSNL/nZOA8d4aAnxj9jS3wdPW9AgAA4Ptuj+ibz4rA4QLwZ++e+6eA3xdhScAAAAB837Xz/DkPHgTO8azRlyKwBAwAAMCQ/Dttife0MeDQAKfjF88HXzLPk28YAAAA33M/gPTr/3zeFHCnAT7ee7XzJUkCBgAA4HsuMfWetAc6PdEAx3C8VxLni+8ZAAAA38u/6/PnfN4SrLy2uk3WPb581PtzCRgAAIAveyyAHrwC6625A7w2wDvB97OdWMUiLOeAAQAA+E7+zUUDXGzByuMb4J2C9zD7diOwBAwAAMDXTDmUvicNAD8a4L3FVodboXsJ2DEkAAAAvph/82P293EI6YwcnA8K3i/cAV5/OAcMAADAF9yKtBuePw+MwG91A/xs+3u8KFoCBgAA4Pn8uxW+xdzvSc+gD24ePfEnbTh2DhgAAIAnXaf19XPeFkHnk44BPx1/07O7oB1DAgAA4DlTUf42DfDwCDwfvW/ufPDpNWAJGAAAgKdc1vY3Nw3wCYeQ8sHeq+4fHa/Fev/AOWAAAACecCsu//ZmgPOg7VdbA7y73Wr/o+7O6PsXOQcMAADAE67lAqyiCD6h/L03wJ329+iXpvEt4u/9Z6ugAQAA+DT/TkXq3dJu3Al9whbop6rfWPreG99761smZaugAQAA+MxUPIDOWwdcZN98WgOcdrrg7tjvPfJWDfDjNxIwAAAARy7l2+ci8ObzbgHX7W5b9taPnmMD/IjIczkGPFsFDQAAwL5r8d45l3ug6zVYA4LwW2iAj/vebcZ3631TkXzT9h56/QcswgIAAGA//05LzuXaq1w3wCdUwM20bzf5pmrXc7H2Kj6IfnxJsggLAACAHVNeljj922mAR0fguVfzlh+n3q7n8u1zik+j1w+tggYAAKDvfQA41r9tAzx+D1ZsgKvrRimO+qbOcaS9NVgWYQEAANB3Dbd/yx9lDh7+BnruL7kqh32LU8FV7m0OIZV/I1uEBQAAQCf/TjkcQAppt2yA8wlPoJslzmHYt4rAIfdWDXAqRoItwgIAAKDjfQFWufs5x1XQ9wZ4/DngOu1Wz5/r+NsG39RMBz/+PEvAAAAAVG7x4XP5+rmeAc4nN8CpjrL9Bri6EJzmanXW+38WYQEAABBdy7q3iMBhF1YOi7F+pgFOew1waH07K7Bmq6ABAABo8++UmwQcXz8PLn7fjmaAUxVkqyO/4QBwPQ68bcS6d8C+uQAAAGwuZf7Nof8tfjmh//0IwHOn2p2LIFsl27ITbhZCN7WwMWAAAAAebmXs7UwC13PAI2Nw6t08Csug67fNqWmA63+gHAyWgAEAAFjFB9C5uQccbgGfcAZp7uTaKt+2U7+pfgu9fmHVAydjwAAAANxNnQfQS4zB5RqssSk4tUucU9EEN6O9ZUEcVmPVW6AfnzUGDAAAwIdbPPm7Vb65eO582iGkXrWbqsfMTzfAzR+9/+V08T0GAADg4wJSbivgbQt0Xsrh3zz6DXSz0Lld81wM9TbngasGOFTJ679lDBgAAID/tgfQnUNI4Q10Dsk3DwzAafcUUv20uToPXO6NTnWFXHw2GwMGAADg/QJSPup/dxvgPOQScL8B7r55rp46N1uy6o1Z29cbAwYAAHh51yXvrcAKNXAVhfOZM8CPy0jp4Bpw+Si6NzkcDyhJwAAAAK+ef6ffj59j+VvXwKel3/d/rMy1oQCOj5/bBnhbkZXKzje1f/HXD2PAAAAAr21ax3/DGHDZ/8bbR3kZfQipiaxp+1FdQYpJuX0u3UTlYmY4GQMGAAB4Zbe87G+A7izFWqp7SEMa4FRfMKrWO6dOA1wN/TZPnpuN0h5BAwAAvLLrvQDOuXoGHe4fbY+f8xZ/86gWOI7+dtY79xvg5r10E6PDJy3CAgAAeGlTc/8obyG37H7z0nn6nEfNAB9sf95rgEPA7ayBbl9EGwMGAAB4XbelGP4NETgXlW+ofUMrPGoGuLPRaqcBTmFgOGx87jTCVS1sDBgAAOBFXcsNWM0McLkNK54CHrsEK1e9bXjn3Am6dQMcPtFmaLeQAAAA+LiAFHdA9xdhLf2bSGOkubphFCveFAvdtP0mfH1cGl1m4zIGX3zTAQAAXtBtW3h1T8I7q6Bj3M1jR4B/N8C9vrZeZNVpgNPca4BDSo6/GgMGAAB4PdffBXDvAXRewrbnXiwedw047fa1c6cBbkeAq0p4JxzfX1UbAwYAAHg9U3z5/EkDXAXdPHgLdNXXVkm2Gemt/izFj1OcDQ7/mDFgAACAV3Pbcu8jCfd2YeUlngTOYyeAYwN8sM8qxdfQVeOb+k+nm23SxoABAABezXXKOefdLdDFMeDOu+clPJIeNwPcPm/uTfqmed4Nvo/UnOKL6iI7ewQNAADwUqZ1A9ZBAs5LPISUtxb4tAa4jaypHeWN+6Lnoy3QzRvoeZKAAQAAXsjt9wKsEH//Z+9edttIkiiALkiA4CKQRP7/xw5aLZH5rKLJ6jGrdE43JMiS7Y03gRt5Y/78N3WvfocPg1/UnzgqhtvoC7KiGYijGp/raXcUInsGDAAA8Hv8uwCdx/8vzsFlS/Q2PdDTBLjqhI7+IlJ0CfAo/u3/ZLeQAAAAfo9zs/48D4GL6qs8OAictkyAy6g3+ki3PYg0vhpcpr0xjoKTJWgAAIBf4pJ/1p9/qqCr+bcZgpt3wFsXQY/e+LYTbNTPfqMdcGP42rf70XALCQAA4Hc5fU+9xfnfcQ90aoqvUh0Ab/wGeNjs3L3qjYVJt3o0vMASNAAAwK9wvQ++6Z7/ttlv9wq4v4y0yQvgrzNIfag7OIw0KHpuxt0Yfye6u8DhGTAAAMBvcMmpTYCbB8Hd6FsmwKlrv0rvJsBNsXP75e22dBb4Np2Bb5MZ2BI0AADA71AtQD9G35Ue6Poa0k8EvMESdBoWO0eTAN+eO/LbHxAe/1w6+3cAAABwdOUCdLH2PHoFXL8BTsMEOG3wBrgaWOcHjYavgdtheeF5cDUdW4IGAAA4ulNqE+ByEbodgdvRt06At2jBSsObRjG7YzRsf14YkWPyxcktJAAAgGM7F91X9QWkWQ1W8Qo4bfj0t02AY2mojelj32HjcywvQH+xBA0AAHBol1yVX9XXf+tDwINLwKM3wO+eQ0qTpea1mbb8snz1G8t/2s/PRbIEDQAAcGSnR+/VoAYrp9E74PIVcHECabsEeNRaFW0J1m166Hfh7G8s/D5L0AAAAAd2bbaeqwbocQ1WPQiXwe/b4W+XAK9uL6+88S0+xG3tjFJYggYAADisfxegv+X7GvR94J01YbW3gMvZN23xBviJUHc06S6Lle9oggYAADisczv5plROwX0DVtcDXebAW90BnlRaLee4t1HBcyzsSPe90nHyLwIAAOCYro/Xv2ncfTWegdMoAX6MwWmLBHh6x3cUDce8GmveID1YlTYBAwAAHNOpS32bY0i5vAlcHj/q3wDnRyX0ezNwmjc+x3DnORYXm2M8Go9/kyVoAACAQ7qW3c/Fw99H/DvJf5sEOFU1WFvdAX7iXW+M66/i9sywW/zYY1LWBA0AAHBAl1Pdf1UFwGUbdPsYOOdJC/Qmr4DT5GpvVHPu4k3fvuF5dCB49MxYEzQAAMABnZu158ctpFzWQOf5M+BiIbrfh377DfA8CY7lQ0nDXui4rRZJ/yNZggYAADiaS+7D3/vz38cZ4DoAfmw9t6d/m4/pvQR4fNkoVubeJ8fcWLqspAcLAADgaE79CeDcNGBNY+D6EvDGz4AX09zZUByj8TaGO9Dj2uj7NyxBAwAAHMs1jeTBOnQ3BHeL0G+nvk0CHMMQeH7rKJ7IgRfz4rJNK/RgAQAAHMppXHj1qIQejb7tJvQj+811FLxhArw0zy5NvjHuip7eF77/giVoAACAIzk3pc/V09/cFGKtVmA1q9Fv5cGpHm+jrcOaFl7FdGV62g7d/jXhGDAAAMDBXHLqy68mCfB0AbqfczdZgp5uL08f8q6fCV67CVyzBA0AAHAYp9n736b8eVKG9Vh/fnwum7DSm3eAY31ejSbujds4OR5N0F1W3GTNlqABAACO4prbyfe7/Sq3R4GnVdDFh0f0u2ECHNPbRfF84huDWTqe6MmyBA0AAHAQpzrsrdeg8yAI7h4AN1eBc9mM9WYT1rTHKoYNWKOTwTG8/7seI/98PlmCBgAAOIQ6AG7aoFOT+Y4PARdr0MXIm7aIgZdn11i5fxSLb4JjqQy6mIEdAwYAADiE0+wGcG7eAj9zDSnViW+xDJ3eS4Cjj3tj6e7vcMc5Zg1ai9vTjgEDAAAcwnkc/j4+Fwnwz0p0O/o2p5B+VqFTfrsEK89e6sboCnAMJ9j2d49z5Fi4LawHCwAAYP8up7b4+f4pp/4QUhr3X7X5b9rsEtLKmvMk/12/chTTnelRL5YeLAAAgN07pzw/gpSLwbfYe14swioS4HfXn4cr0P0O9HDujb7tOcbzc0xqs0p6sAAAAPbuMn4BPFqEbq4iVZeAizn4sRa9SRS89Np30g+98qY3pjvP87g49GABAADsXB0A56YCq2zCmt4ALl8B17Nv8esvz8DT57rRFD3H8AeennNjZWNaBAwAALBrlzxrf26LoOuRePQOeJAAb/AI+LlJdi0bjuaFbzk+x1NDsh4sAACAXTs9vf/c7D0PS7C6N8DtUeCXE+Bonv/GQv9VvDotL9ODBQAAsGPXtKi4fJSLSqy+BquYf+vl53crsHKO1c3l+cLzsxPxUyvSerAAAAB27LSU/ub6Fx6L0MP/+gS4HH/T22eQYvVs73DijZXLR38wAevBAgAA2K1rmr8Arnuv6g6s8TXgaQL81jmk6F/szvPfjbeemyZoS9AAAAB7dUprcvMQuBmER8+AUxP8pvdWoOfzbMzT3/LjBrOvHiwAAIB9uz4z/uY0SoD7VeicmyQ4FZnvGyVY8USa29wBjtu2g+/9TxcBAwAA7NM/k2yM597c3gTO1Xfy+A5SuQj9ztpzMwDHY9e5H3Xj9h+NuyJgAACAozgvnj8qeqC7TuhRBtxcBE5lApzeGIX/4F1v/NeTsB4sAACAPbqcxvnv4BJwOfVWo29bg9VWPpdjb3pvBbr4HJsXXD3dg+UUEgAAwP6c0xNyfwzpsSA9XINuEuCyFfqlMTia6befh/+PU7AIGAAAYH8uXxXQ8yfAbQJ8n34XHwI/suD77JvzWxFwTJPe/1/yW/ydImAAAIC9OX9Pv/F0ApxTlQDn0f5zlf9WDdCvPgIedj7/jdlXDxYAAMAuXU5PXUAqZ946AR73YBVj8CMBTtu0QN/+5uB75xQSAADAvny/AI7VMThXr3+76qvxM+Dy9G/K7WL0OyvQf30EFgEDAADsylcAHOMZOI++zs2F4Jy6aTj3D4FT/fj3lTj4A0Lfmh4sAACAPTmn9Q3o+vJRSlUD1jT77UbgOg/e4A3w3xUnPVgAAAD78RMAx8ISdG5G4LYAergLXc7BfQL8yhScPi0BdgoJAABgR6oAONaz4HIBeukUUhn3puoN8MttWLeP4xQSAADAbhQvgOf7z/UppO4ocN+GlesEOFUt0C83QafPm4D1YAEAAOzFuQh/Y+URcE7V6NuUQ08eA6euBfrVDqzPK8G63cIpJAAAgH245CoAjpUguJh8U5n/1sNvGQK3n0avgXecAIuAAQAAduL8PfTG9BLSYB263HuuLwKvFEKXTdAvTMEfOP+KgAEAAPbh6wXwM1eQUmr2oPP9y+kz4LYCa/xp5wmwCBgAAGAXzt+Zbyy+As5NB3RunwVPiqBTLk8AFwnwi6eAQwQMAADAa07V+PvUDnQu1qDrIuh+8O0S4Gr/+Y+H4I9MgEXAAAAAO3Bdv/3btWAVCXCxB12Nw90UXGxFP2bgdIwE+BZn/5AAAAA+3anafY6VYTinYQJcLED3bdBlApzqNqw/D4E/MwG+nS7+JQEAAHy269fU2w69sdCDlatTSIMRuGrBqlqgB+3Pf5oBf+b8KwIGAAD4eKfy+e9KBpz7r/NC+1Uqe68e83CuK6IP8QZYBAwAAPDprqmvwFp/CVxsOz9+pfxOcQA4N2XQbf9VOsIb4FuIgAEAAD7bKZVHkJ4Lf3NViJWrHujlDPgeA6eXHwF/agJ8SyJgAAD+x969LMeNw1AYXqirunpBUMX3f9jJxW7iRopKTSw59X+ZxK2O7czCGxSAAwA39vxYAC7mBFI+Bd10+pUJglbPMQTLbgH7DnD9N1Kg2QIGAAAAgJvbdNu3LE1B2+LXnAAe9X/1H3YH+HwJfNsO8F5oAQMAAADAbfUGsAuCLksHgU0H2J4CzktfdQ+pmZf/QAd43zd+oAAAAADgrjbX911OgX6fQVIdYLsPbA4BjzvA9ewo9H07wLvQAgYAAACAm3r2cjf0gCdNYBOApc8hNTcS7crgmnaA/40U6F1oAQMAAADAfT3eTd/iyt4y3v0Nw8/NfIiLwFkMlp1+/t4p0PK7+qUFDAAAAAC39dz0BaTeCz6Owmom8zl2gJMErPclpHe5q2aiv28HWNgCBgAAAID7e3zOPn+0gA9jsFo4CWwTsAYD0NkhpL4C/E1ToMVWv7/bwBstYAAAAAC4o60XvkX1getaC7jnXukOsL8CnGwA60HodroOLvfr+6pHWsAAAAAAcEOvPu8cS+BREWwvILXqV4GbLodN+WurXBcC/U06wKI3fmMp/OOBFjAAAAAA3M+m137dNvA4BcvPQjfXBZ5kQPcWsOsFf48dYBlkX4l6KA9+rgAAAADgbp6fnd+iS+C1Q0hq9deMRE+PAdsbSO0Pxp8v6QBLrH3Td34rtIABAAAA4G629+1fm4NVZknQTZe+zSwD90Hod93rA6Bra8l+8LlDSOWiylfc76QQFraAAQAAAOCGnk1v/i5mX026wG0ShZV3gGtcB75LB1jOfJZdDCYIGgAAAABu5vHZ+NVtYFcNl0kMVlPlb5vcQAr3gKuqhOv5GKzy1wtf94ePvVKbv2lIFi1gAAAAALiX7T36nFS/ZaHzqyphWxC3Gi8Bq3pXP7XzI9D1L/d8Zfy+6KZvmgFNCxgAAAAAbudVXQdYvZpkYDX/2Pz486gHbGehkxr4wg6wHFz3PXcbiRYwAAAAANzJZsKuij59VA52gpvd/o23gP0xJD/zrOKwegm8Ogpd/++QK1m4d+TCsNRgtCSlMD9dAAAAAHAfz/qRAV16A9gWvWUtA0vfAm6+F9ySIjgUu/WSO8CjsldcdSv558hgdZhbwAAAAABwM5uOgB7VwFkV3OyL1t8xnd/jECx1Bal+4Q6wZF1f8TXsMBtr9K3MEDVbwAAAAABwG79uIJWqO8DqBPBxFJbPv2ouAyucQjL/DTrA9a93gGWhGM7LYPEz0zLJz6IFDAAAAAC38fgsfHsMVih5y0r123QslsrAGvR+/SB0PbX++4cd4MGurxzf9s1XhJMQaLFtYmKwAAAAAOAmnpvLgO4T0MUeAC7H15BM1VvrLAba3f2trbXTh4Dr6co3e0sW87AG/d/ZPeAfb5QXP2MAAAAAcAuvagKwil4D1pVvWZh+tsnQZhp6VAG768DnLiLVPw25WiyRbX9Xsg1gOfwcWsAAAAAAcA9b8VeAfQt4IQba1Lm1PwxSoJsbhm7qFtKZHeC6UPiKf3I3i5LebfYleepV9uC/jhYwAAAAANzCs3d/+wJwSWeey2QJOOsA25NIsQPcslno/yUFWlwU86AJLNnHyXWjweDzrIkstIABAAAA4CYeave3jz6rgWgdCF3qcRa0HoBOe8AuDsuXv2fuAZczV333rHSVxVtJsyZx9r1UKSy0gAEAAADgDrbSy1+3CHw4+Bw6vy3UwvkWcCh9+wD0qRK4zmaVZX3T185FS/x+Erd87T8laYCWsAUMAAAAAHfx0glYxV4A1mVwmcdguRduF/hd+cZzSDUZgK7LQ9D16DiRTGea079Z7w2728GSd5t/fnzygwYAAAAAV9tKtb/MNSS/C3x0COmde6We8x3g2vwasK96Vy4i1bRulflU9OBBYvEqoRss08p40C/e5cEPGgAAAABc7FmLq37tHrCueY8XgOM94EHx6zaA9RB0PXMMuM67toMjv6P4Kjf+nNfM0meeJSRLu+r3rdACBgAAAICLPUzys76FZJOvysICsDmGZIKwWo2ngGMC1skArHcBLGmVOgtodj1dmd9QklnYVf4gPlWaFjAAAAAAXOznBHQcgdYR0EX1f8vxELSKwOr/1YP+r94Brsvzz6MzSDK72LtPFn7D8aSDWep4L9imP6tPKfyoAQAAAMClXrb21UeA1dmjshQC3UwElimC2/AScG3NnkUKB5FWR6Ala8cmh4nE16YuvGryVe4N2ffxYrB/5hISAAAAAFwqRGCZEKzeCzbB0OMiuIWDwONFYF8K9xDoZt9YHoHOm7ejZq7M7wQn53/lOBk6lMPvBy4hAQAAAMCVnj7/yl4CTsvd4xnorAMcU7DM9d+q2791fRW47gdlrG8PS6xo/YqvJGvFktS0EgaeZ/1nWsAAAAAAcKXHxwJwySeh3wFZB/3fFtvA9gBSegrJBEBXvQC8ngRdXYdX8jnl/WAreJb3HL/rfMlYYneZFjAAAAAAXG18BHjSAj5eBG763ZZ2gE0RrG4B9yL4xBkkmeze7nm/Ng14nrSAD2edk6+zZbZwCQkAAAAALvNKjgDbcWh9IEm9mp4Abir02VxEGl5Cqn73d/kacJ3c8p3FU82CoLP6OPl+k7ZwGMH++atwCQkAAAAALrMl889q/7est4FbdghJZ0JnW8A6AMskQp/gm635cHMyES2hxs3rY5mMScs+rq2ll74fT5UfOAAAAAC4Sq96/Qh0EoRVDo8iNVMC9wvAqhfc62C9/us7wKYBXE/fAd6zo7z7vlLUDs78qgbwpP8rpuf7Wft+vhBisAAAAADgKq94A6mXweYscFmLgNbtXxMArdKh8z1gXRGvnkBSHWAJic67O/gr8W2JzeP0XvDgwu8gXcs0fdWDEIMFAAAAAJfZRsWvDsNK5qDLvO5VZ5CSDnB2CinsAC8PQtdJPtVRyHN8lrAI7KtmHzkttgB3LWPZzfuFFjAAAAAAXOJZ8xXg4tZ/TQm8vA/8jsEyk8+x+q1JCrS/CDztANtOrUyv/0oaWyX5Nq/sWTqWTNeLpfeAxf0lLWAAAAAAuMpma1/f/k0GoI9rYB35/K6Dexp0C0vAtZe6VadAq1cnziDJ+JbvOKJ5Fm01uSIsWfkbym07n80lJAAAAAC4pgD2EVhuDLqaQOg6mYFWQ9Ct2gwsnYbVJknQZiLaRWLNd4Cz8lWmEdCSH+21I9D+8JGE72oavWbbV/RH9a9zCQkAAAAALvD7CHC6BKyjoIsqhcu5GWg39zy/BKx7wcsRWL86wP6Ykfg2bdIRlqN94WHyVY+5smWy6Lxn///w8W5hBhoAAAAALvAopaY94KTmPWoAj0tgk4uVd4BtCrRKwFpZAp7fMcoGm4eTzpKsA9s+seh/x3V5zV/bCCzVEyYGCwAAAAC+3HMbB2D9fFFC+FU5PgLcR5+bfcPcBv4shdUEtDqHVF0M9NEdYMnO97piVmywlSTpVpInW+nGr2rxSpicFnf/N90OpgUMAAAAAF/v9S5/QxVszyGpFCwdDL3aAW5uGHpwB8kGX62PQY9K1uMcqzzgWUJvWPT4s62B44vdLwLbD7SAAQAAAODrbW4DuOdAFxMEnU9Bj6veUP7qRKw2i8Kq+gZS69XxrBCuw+6tbfaGejTJtPIlsqt9QwdYQivYdYDdEaRfn0ELGAAAAAC+WksTsHQKlm/4Fvd7UAT3AehmTgKPNoCbv4FkyuCjLrAZYZZ0eTdtAccbv+6Sr+0AS9wB3vdhMeze0t9/4xISAAAAAHytV1Ed4HwI+h2HVRY6wG30jtr/bXXcBY4d4KUMrJqUsTH0WfwasL9vtNucK10Hi820ElUTixt4HkVj6fcKl5AAAAAA4Gv9isAaNoGLi4BWR4EP+r8h7KonQB/3gGvsANeFHWCZ7v3KdBk4jDvbM0eqjZscP3IHj3w3WbJPZgYaAAAAAL7Ucytp79eNQpvf5cQpJLcGPAjBSg8Cqw5wPS6C3aCz+BLUjzr7+GbVvtWbvuGQsCSVbi9zbSCWv41k/xlmoAEAAADgKz1+NYDNEHQx+VdmGbi3fSf9317ztlACN9cZdinQ/QhwDTvAdSUFWoaHgNMjSf+xdwa7bSQxED3IgOFDdw/6/z92F4mtIYtk9yjw6PSegtiWJScHXwpVrArBZvV5uxZY5a9O546yGi4rnrGAAQAAAAAA3ok1gDcJ6MT+vbaDNPVvMwosGvgUvtM7wLsk9MhOfpM9o+7WjsIJcDf9V6EUy5m6uQN82K5nfzgcbOKD3z4AAAAAAID38Tl+ToCXCehzAMkWYp1e8CL4rH9PNYCrHaSsBXpsd4D7uub5iEHmtMkqyFgZM4qF0D1eBx8+Ax0OhZkCBgAAAAAAeB8frbnks7RBm/izd4D3Y8DSAK2p6DQDbY6AdQd4WwMtG7xpzXPl0x4Sbg5v7UdmFsfz3tCZJeu//giYDDQAAAAAAMD7eMgJcFGB9a1+neNbXgFPN4c07fmvc4BT59fVQPvk87hwA7xe+u2y2KuTRTb/3HMV3DULbVeVRPqmP8M6xljAAAAAAAAA7+LTOL+nBm7afeVj0G4KuC3d4Gk1sJXA+RxS5gBfLcLKUsbm6rZnErRLaFmjzrEGK181qqze7P3m5UwBAwAAAAAAvI2PtnaAh/nMhZ/buCB8JQTtNoHTEizrAHvP14Sgx9YB7tp41bX1ucuhrmjaUrJK+7M4x1kAOnn/+V96sIQEAAAAAADwJh7iAIcrYLN/JG1YlzugjeoN/c8jGQC2NrD75qUdYH/rG7qXo0Tttvq5ut9NzoKzOLRTwq5PWj3iv180MtAAAAAAAADv4XNccoCtBdxE+pYR6FmXQk+3CxwdYH8I7NeOljfAssxrJbGq1VjXrM6tr3pOznsPrXgW6Vz8M/ad1GABAAAAAAC8h4+2vAE+HeAmK0hSBd1y7TvjAfAsw88jc4CTaaS1A9yPWGvVk8Hfnkwg2fvhsgYrd5fzEHQSlNaFYDLQAAAAAAAAb+Fhws+pC5xWYI2hF8HXWrDEAX7K4zIGndi+YzmDZNRukmpOOql60Ls9vD7moZM1pF67wD07PP55FRYwAAAAAADAO/h8OAc4WL9/PugUkrWAF4fAswxA6wpwUQStA8GyiZQ7wF2ngNcTRouCq0Q56xsK9zcbCs5/OFPAAAAAAAAAb+LLu7/1JbC3gf31784DTnzgmbdg5Wp3+gKssZ5Bip1W/SgOcnXPSEaUagnsfqy6zGnVVnY4/G1VU4MFAAAAAADwBh7i/sYTYFHB5gbY6d5W6t4ZL4GnuweW/PMsstBjvwMcN49iKDm5+O2xyapnxrDUSecjSH1Zp9WD+4wFDAAAAAAA8A4+/xRAuw2kWINl3d8mnc9t5f+mU8CnCE6y0D+SeOoSsL8KHnUJVhCpQZNmnc9HLH5OjeFeBKpVLvekLyuq5O9vMAUMAAAAAABwP1/WAB51E5aVvuYGuC108Ezjz0bl5gfAUv2cjP+OrQOc6c1YSyWlz71a8y3kbww5h2vfVAbHVDZTwAAAAAAAAPfz+DGA0y3gxAQ+b37bNv7s1PCMyehpPw0lWDOpw1qvIM20zjnRtH4ruBdjR11Xk/LGLNHUbolYMtKZFU0GGgAAAAAA4B18Pk6h67eAF0VYsgi8k79TRe85iDSrEiwvff35rzxXtkBnSWe9D+5H7fn2OP8rA0oibcMqcI+N1OYr+6+QgQYAAAAAALiZr6fxW6SfrfL1H4fOILVa+7qP04thXwutQ0hWBo+ZBaLTHWDXNhVs3J5VPRetV1p9lUwiZRavFl9l6ti86oNfRQAAAAAAgHt5nMp37IaQnr7v8whYN5DahRD0HL75Ku2Btn9U/o5lBLonW0e5WWsc2nTpKNRgeQs4zTRXVc95Pvo0jRsZaAAAAAAAgPsFsL//LZeQRpDArgFrl3+e4gCL/K1S0O7w95S/1TFwWtDc022juFvUq43g4AD3mHjuV4aG4/DS8zvUYAEAAAAAANzK198RJGmCrgzgNkQImy3g1SlwCEBPE3+eaQuWOsB2EGnVAp1lk2tR2qv+57icFKquetU43Y9yIinUaf2I504NFgAAAAAAwL18PN1eawQvPeDEAL4agc4c4DILXTrAKxG8uMrtaQ45XwA+grUrmWixgpM66HAD3DUJ3U/1+/+DKWAAAAAAAIA7+Xy0pwNsiqATEaxJaJ+Krv3fKZ/Ms/JqEX8ORVjODNYP4gAvrnITHSwrRnlddPaTkm6tqhL6COtLPTzIQAMAAAAAANwqgM/aK1sEPTYlWE8buF0xgKdOAc8h178jOwG2QWjvAi9asKwezbZ9+xHOeI/cnw0N0qWXrMZwX+StjeDtzl8mAw0AAAAAAHArX83MH9ki6FbLX1W/zWnfjQa2SWhpwRpi/Z4O8DjF79i0YFkDOMrfoFB7ctPrSp+9cC285GAQJ3tLPdO+/kky0AAAAAAAAPfxOAPQtghaV4DTAqxhMtHb+19TfuWPgesSaCN3x3n6u+7Amt4AToZ886Szizwn979WQmcOsGjsnk4wBQ0sT5KBBgAAAAAAuA8fgB4uEG3Ub9IE7bTvxv/Nu7BmLIHe7CCFiuiohY+ky1lPccUPVju4J2VYx5EVXPXk2De2XPXj2oMMNAAAAAAAwH18Ne8A+z+5B6xjwM2r35ann03zldZBp1fARgH7+qudAxzMV3/hG9usktGiUGzVw2bwz4/v2pQVW67U+a01MBloAAAAAACAu3hY9zeVv3oBbAufm6vBamvPV4uw1AbOpoCtCLYXwYkmdg6wE7rJ5W4WUS5OhlX1dglIZynrzbFvPP79fl374DcSAAAAAADgPgFs7n+9EF61YPmjYCeJV0p4GhHsF4AXd8A+6rzzgZNJX7V0NbC8yEz3XPyWu8KV7hV1nOllMtAAAAAAAAA38jnOAHRzI8CifGMM+gxAi+BtG/UbHOCnHPbnwEkMejwLoEc5BHxEiRsNYDkMjvXNqnX9rlHWePXn1rdUv0v7lww0AAAAAADA7Xy08wbYFWE5LzjLQZsGrCYf1+o3c4CHKl/fgjXs5NHYeMBHjDFLdXOP8jcUWNU9V8FEtlo2xpqrtHPxIAMNAAAAAABwD49z9dfMIJky6FHkoJ/yt12ZQJrFl2EEKa2Anl4Jz2m/FVRw7Kvq1TCResUxOl2UYdnnQ4y5v/ww0Wky0AAAAAAAALfwaVaARzPKd9MCbY+BTQ9W29nAYvWeT0yJQydt0OIAj/UOcPervT2M8eqorzd2i0Xfv590O230gsKtviQDDQAAAAAAcDvPESTvAI+sBSsxgv0cUtufAc/w9fSXwCsbWC9/nQtcOMBS1Zz1PutEsBZH6zOl5o2fJkJ3mYf+/w890AAAAAAAALfw0dylr5O+VQr6zD+32Pp8pf/ZKN3hSrDyHmiNP19zgA9fcNW1oTlWOHedDPZHwV7CFhnmV/ePEmlMBhoAAAAAAOAOHrkDHOWvriCdvq95eoxlFdYsCqFND1a6g+QOgYdo4DHrFmi57lWf190Gh5PhIyjfvle9F7XvshiLDDQAAAAAAMDv89lk/FcasNYlWPYIWJXv2gmeYQxpEX/2H33z1UhkcOx27tbXlYEkXURyovgf3NzqqXIimB5oAAAAAACANyAnwDYJfX5Ih5D0BrhtYtAz1j/bNSSRwFkHlnGARQrHCHSQtHoXrKVX/bjk+r5g99ZZ6U0PFhloAAAAAACAG3jYBuhhg9BR+mob9JAQ9FkCvcGmn10Oen8BPHz/1VxFoLXOWa3fngwebQqrFt1V6wGk17aQyEADAAAAAAD8Np+P4AAPVwIdmqCtAdykB8uXQLfFDfDP0e85hmSLsEamf6c4wLYOS3eAo/ztmQMsUehNcPmqIRz2jl5ZAf7zoAcaAAAAAADg1/kaPvycbiGN1SGwXQOOldBjvwc87ApSuQOcOMCjtICjuK1Eb2L61ke8WYg52z0q3nxNUpOBBgAAAAAAuIWHa3/2g0g6CTy0B9p1P2sf1nIIWAXvMIe/2oUlW8DeATbidyQOcLB4U2f4hSKrlc59Mfkcr4DpgQYAAAAAALhZADvj1/w97C1wdIOfp8DNBqF3FdCVETxHIn5DDNpe/vqFpOIGOIjeRHTm077X5ew/m8b1m7741QQAAAAAAPhV7AnwsOnn0aohpNwGTpeQWp15tiI3UcHVEPA448/e9x3LFmiZ+N1v8m53fpcCNvyMl7TvQQYaAAAAAADg9/k6i5/t7a+sIK2WgG0SejeEFKqwbBn0TK3g1AEe6gBXN8CVBF6L1wv6tKf55b1jXLwy+efIQAMAAAAAAPwqH63FHWB39LvXv82uH/n733Yh+DylBWvutpDsDbAvgR42Aq1HtsdFn3Y7f/Qvj0snwPZTeqABAAAAAAB+l8eyArqVLrBbA25uC7hdOgM27c+nBF4o4GkboP3pb7KD9D36e877fh/6Xj/g3fq05SvlqZcD0PRAAwAAAAAA3MEI9u8IVdDDrgP7I+Cfg1+/B6yFWNUZ8Cl/Qwg6mr92C2mo/B0xAn0lZnxJjL7kAi+Lo/tLk8BkoAHgP/bOZbeRXAmiCxswvGCR4P9/7LTHrarMZCTJktS7c9oPSX7cO4A3gYiMAAAAAIA38u0WkIQDfFZi5UPAxeeffRN0WXjAiQMslLC5/jWub80c4OwC1536bnrBWZ/VxDveHT6a6GQy0AAAAAAAAG/kU93/hgasWowHrPSvDUCXlQGcaGC3Bqx2kIIHHK5/ow38xE3vfO53w7G9fyCsotJkoAEAAAAAAP4JH9H4NQ9qkMF5B1axpVc7PdCu98oWYXXzQrKEZJ4r79c6wPNe5/Wx70I77+SYl65v/u+DDDQAAAAAAMD7qLIE+nH4axqwzD3wjhAeJ4GV+o3i170y+r+m//l0fKt/6SGG77QxP3EavCunX/s/8c3fJwAAAAAAwLv4rsL7rVYET2aQYguWm0Xay0AH7dtt/DlbArbXwJforUMEOr3WbXfroCdbvveU7apvOljWHAEDAAAAAAC8jc8x/1xKsICrdYVrMIFlDdbmAbC3grvYQFL6t4dEdJS+qxKs7G5XC+ZEmt6QvTunw/pf4QgYAAAAAADgbXxkAejMAs58YPvAxqAnGWjbgtX9RlK+hRQKsPwqsBHCe2buazno6YtKUqfP9O9gCAkAAAAAAOBtfH0UUYI11EAvUtDFVEEPV8AL+zf0X13KV/dAu7PfGleR0gj0q0p49uIsbH2nMkssJRUy0AAAAAAAAG9CrABXLYGVAvYXwPEQeC6Cu+/Bqt4BVjZw7gDXNAI9yTwvD3unB77bE0nHRht13qtFBhoAAAAAAOBNfJaUoH1dE3ReBe0iz0X3QPfwuNvZo8kQcE0d4OrC0HXaAv3qDe+mxF36u9qZDhnogww0AAAAAADAe/hQurdePdBOAtfJ/W+UwHslWKIMq5sVpEQBjzfA7vnlAK/U7CyvnG/6PhNrni8i6a8cP+8MIQEAAAAAALwFdwJci+qBDjno2SGwSj8nndAu8xzlr70CDilom4S+1HAQwy4CnYaZn+i2yjPT+e++2bQVHpCBBgAAAAAAeJMA1uK32h7olQnsRpB8CLrMroC7uwHuthUrK8EyHvAlfi8H2GnhdcfyPKR8r/Q5PeK9NQh8Gb+/T/68f5CBBgAAAAAAeAefagOpXg+k/E3Ub7gBNrq33AlA93QJyUpc96yOFVgmAv2s97ujfW8YxjpzbZ+ED78SuJGBBgAAAAAAeAcf8w4sVYZVjS52GriIG+Cy1sA++WyfZE1YsQwrVEHXMQKd27az5d55rnm2hrR1/mtU7uX52pd//zGEBAAAAAAA8A5qKTMJXOMZcHIAXP0OsJ9AKusVJJGF7rWqQuhxDymEn6u6AZ5OGt0e6VWx5y31m/RcWdl7Ob9/v8YRMAAAAAAAwDv4qqPjewne2At95Z/nh8ClmhrosspAdxN+7toBlvZv9eHnGj82eZu7YdDeOByeiuXJDx+nyh09X/u1/z9wBAwAAAAAAPA633MD2OjdywW2/7wNbLaQBsVbsstf/6RX6wAbYWwlsLOBQzG0KcG6O/q789JKEy9eGl3epp65540MNAAAAAAAwOv8nAA3tYNUjQTWR8DS/7X9zyUGotcHwE779rQFulrVW6P9GyPQc7G6IW13zoUXvdFW9o5fCW9RBJOBBgAAAAAAeI8AnvVfiQ6ssQzait1H+lno3lUV9DAN3K+LYBuANitI1zSw7YZ+RKCP3T3epNFqL+6cxqu9xI1y12WdR0PYBaH5OwUAAAAAAPhXAvh0f+UYUnoE7GTvefs78YC7mQO2StdIYGkExwC0E8JXC/SsuOpWFnpxQTypuYrCNzQ8KxPY3wT/vDGEBAAAAAAA8CqPDqxmbN+qwtD1VgZaWcBlfgIcK6Hd9W+qf40rHDugey+7071z5bu/GRz8XtflPCScr1D07BiYDDQAAAAAAMB7+Fx2YJkTYLkFHAzgEk3fspN9Pguvut0/MvZw1MBD4VWQwFcEeiV9B6G7K47Tb02c3OYDzq4Py+aijQ4+HyGAAQAAAAAA3iKAW3L7G0+Aa3FTwIP/66SvW0KaTiF1FYj2878TB/gsxaqDA9xuqN/jee/XvX6MPnBTPq/Xu842Ds///8AQEgAAAAAAwIt8zPaPbAm0vQXWM0jGCL4exJPgVPz62SM3BSx3gOMMsHeAazqDtNVwJfRtXvh8jP6tl7ijs+svfJ1GbuOP/3zgCBgAAAAAAOA1vh4CuM2roB+2r/eD9R2wOf8tJga90/7cs16s4RTYdT5HT/ihhcvu2W679Y3jua8UtfGL/iz4GILOl/8bf7xxBAwAAAAAAPCyAF4tID183tgGvVC/ugGrrDWwdIDPSaQ+GMGX3Tt+7skFsOqD1oNGu21XUueKAqwYinYnwfb1oSIaAQwAAAAAAPAa3/MKrFMMXw6wPQjWHdA1tEFbF7jM7d8of40R7C3gMIVUTRLajAGXLR07t4ET31flnDOdG71i1YqllpJcDxYZaAAAAAAAgJcwHVgtKcGqogDaXwDb1aNiLOB197NSw924wfMaLKODjfg1z3P390bZ8+MF2e3sToF9y/MQbg4iObQ/x6Ek6yb/fEIAAwAAAAAAvETegeUWgL0ETkPQpZoq6EsQj9NI0f41Zq+RvsEX7vkQkr0LNiK4aWG7e/PbRgt3lK6mtrmp8SM/e3T4DPUle8MA8PiryEADAAAAAAC8RNnqwBIzwHMFXGp9wgDu1/ivlcF9cIDFDtJYAV3PHeDZku94Cqy+8/A/ZQVvunSk9LBbOYqR6qbrpB9v/LECAAAAAAC8wFdZUbX8HfPP7uo3JqJlL9Y4A+xc37P5ygSjexaE7t2NAP/9VHYmj7QN7LTo6pV4+Zv9iL8Njm3P4ZvibjAZaAAAAAAAgBf4VvZvlcfA6hRYOcBm+mhogV7vINnw81AEPSSggwdczSFwPVug788Aj+NGwthN7Nrg9Mpy6HgiPHjESj+3T/5cAQAAAAAAnsedALe0CLqKALRRvXEJ6WrCMo9mHrA79q3O8R3fRhlsYtE+C12kzPUPpf5tuqhZ6tU4Y6QcYCuUfz8nl8VSgv9eBXMEDAAAAAAA8C4BvMxC79wAS+27OAnusgTajQEr7SsOgLvrwOorqet1btbX7NTrMHwkxK4Ut+IauCUesTShj+OLv1cAAAAAAIBn+foII0hD/VVYAK7jHFLSAG3mf538LVtVWOZjpn+rzUBXG3+upxguadHzUPAsFW8Qo2rtSB786tC0+LW6MVoI5z/vhQw0AAAAAADA03zv9F+Zm2Dzird8dRt0OAM+FXHeAG1s4DEGLTWw74O2DnDSAh3XiqbtWONb6HzW+tlJ2xbVbDuS+HR2fswQEgAAAAAAwKt8Vn/921T7VZS/1ejg2Q5wFUXQqxboawapG1Xc67iGZFuvrukj/8TdAI+LRiqsfPVTRa/XqVVVYKX0q9sNbtJCdq+N8tm8gAAGAAAAAAB4mlUHVjEecOoAJzvARvXWzdiz/xRvgNMVpGqS0EYF/3lP1G8Qm9rjDbXMM8P3SJuivcyNbu+hc9imKdp/mSEkAAAAAACAlwTwRPg699dVQrsp4JomoEMr1qoNy4ShvQM8XQEO4tdMAZ83wL7hykSSz0LmLOk8GrEziZt0RWs9O7ZMh5at5g+HWQIGAAAAAAB4TQBP7F+rgydDSCIDXcLmUVnuAV9x59EBtl8JLVheA1cvguWtr3eF9ZsuuhKt0E3XWMkpYBG9Pg4fvB7yz04dk4EGAAAAAAB4kq9B+TYre2tswzLaN5q/xeeejf6Na0hLC9j0P/dq67Bk+ZUPP4cdpOKs1DZc5uYSeNC5yiGOZ76Hjln7sLUc/XXDwOZ/21Zo0YIFAAAAAADwNN9z99d7wDVcAs/jz8MRcKmLCuhqbd+wDNxjGlqXQJttpP63BVoZsnqVqKW6tWUTSTGonFU5y4h0OClWojxOJTWWgAEAAAAAAF4SwKsYtJHBego4yl9j+tpnZSME7aLP/RxEmkwB11j9bKaAixS2h7zSlQJUZqI3FoN9mVU7sumlQxZSJ3fEB0fAAAAAAAAAT/J5qd62nAOupgBaOMDSAC7+EHgmgXt87EaBrRiOZq9fAh4dYN1MJeWrF7uyG1qZtINje33UkrmNuemWrypd30wGGgAAAAAA4Dk+RrXbxADSIIYnLVjWBI5jwHv3v6IB62zGWjrAfgepl4XIFFfATcaeL82cmb9hwGjweVXHVjv8cXDUxoPKRgADAAAAAAA8R83M3zo8M1I3NYG9Azw2QdetDqx65Z791W+MQbsPp+Y9S6F/HWAvX2O91aiADzn1eySnwIMxPPuNIiTtZHIbKqDjRlI7OAIGAAAAAAB4hqsEum2UYY3OcF6D9XCCvSFsSrGK3kAaD4HtAlIowKpG9IYy6Mc5cDnC0a8UpIec9JWKVZz7yq4suSgsfzB2YIne6Hb9V3AEDAAAAAAA8Azfe5o37h65Pmj/qu/B0uVXK//XqV979xs18OAA9zAL7B3gFpqnYgHWKHSzHmflF3vLduy0kqFqEbuexbQ5AgYAAAAAAHiSz6Ls3+aTz2oPqfzH3pkoNY4EQXRsCDsmglZX6P8/dn1KdXVLxgwL1nt4YMw1BmlZUlmV6SOg8xno2QJWqdDLOdBm9lkbwWPNoqBNJ7Cegj49L0MIc24UI4XKocTOlWwoOWkF9hI6K13y91JL2gRXX0AAAwAAAAAAfIa34ABLvwVJO8BaBmsV7MKwZg2ctQIvFCLlDnBeBGw7gG8vZBa9Nxna17bKv22K5CQputERLPm2byt6K20QdiqZJWAAAAAAAIBPCuCb5pUVW79JFXB7Cdi9MAPQZUH1zobvqKOhR7sMbEqPqs5+Vp1IJe7zDnkjUeggiiZvuyvYz1n7MqMQqiXDkJYjhb5ibf9e3oElYAAAANgUh/1Bczwcz/zAB3p6TMcrh/PtcLstsLfP9Ff6M7/MH/CNVt8hvhvwGLVn/9Y8+apqCdyOgTaRV8VNQC/NQM/1R3ruOZl+9g6wK0Maa2kEKqdrv2EIehgy3ewFdePj/a5x+BzpTrGadtbD0bMcfue0BQAAgC3p393Hnd3H7s5+t78zCcebND6JovPTl2na89MkbLVw3VvOj2kX+JifHmD+Oq9fImJPs1ffI3sSfPXxX3l6qFPkepYc42WO21Ofg/pC/nC8/8kxq2fRK4tz0DUJw1qqQ5onoGfta1qRSnPqOVQCa/07q+DcCJ7l790BNl27WS1v6ghnTcDpnHOIdJZ8+bexW9xqCDbGr5biLAEDAADAllgnHM/a+EMLz/3O6+OrRs5vXqrMojbRtDv9z34Xd7WHFL7p3/x79JEc/+Csr7vlEjZe89i7Cx7meeNkXXf9g8P9D3hXUlf6LnB1ncBGAteQhKWisErmAJel/V9lBM9h0GNuBY86CMulYBWX+DwkLUhL2cut/t8orTuRV+Z+aAAeVFuTNYBno/gO/wkAAAAAamdJDycK+aqRG7dv1LLPS+G7MtrkGXH45MlwM+J3/fNgOhs+4dtzuH8Bbw90/6pQaLMAvLgEXP0cdFkVfjUvACsR3ByCtinQcyHS1QEWl4EVCnyTzGW/7tvoTLIflawTNw1lnXJl5a8YtT64WWyWgAEAAAC1A2dpdBZGW9NFx922Dzc/E54WwDJLYOnlX00rwMEBrh0F7OqAtf9bekPQo1a+JhJrrDWJgB7Vy+lFnVOgbdmQreWNTb5p4LNtObI5VrI0Dy2+VdhmXPmwLGtU+9eyBAwAAACoHVAG4ZZk8H7zhxsz+EkB7CagRf3xKVjeBZ6qkFw5UjU3YwD3IqBT8etDscbq+pCCAzyPP6se4Cy/SkISc6MeyQlbsUPUyT5xHjktYbfXTjbb5uAhvGl6MCwBAwAAwFbAAH5IF3FGbMYMxgv+5CW1tzwDqy17zQ7wchWSC4VW2nelCh5dDnRWAuy3gK0DXBoZU3kGswxpiVHW2Dv9XRKF3e5Osg8gpEwHOZwtAXPmAgAAwEZ+W8UAZkbWsuc4I4Kf4G8/+zmawNU6wE4LWyEcPODiLOFlM9g6wFEIpx5w3wFuZF0FiSxZca/ExKs07zmpCw7Lvq7cKPYLJzHQ94fEEjAAAABsA9QOusiCARwONj8mHhTAcvOA15nApaF6W0HQZgt4bf6z1732r2N1Mlhr3xUOcHBWG7lUaYnR0DF40wVi8RPMYSM5FbxDiOTSa8IsAQMAAMA2QO0ggh2MBISDvd9jBK/nfRK+tg3JCeLa2P9dGYRVqsqALioDa80c9Lzwq4qQsjHovgNsBWsrpDmGVPnBaDuOrFOwZEgqgF2Lrycp+7UxWkkT8EATMAAAAGwEBqAxB7kksgY08EMCWEldWVeEVIpvQWotAvsS4CXBa0zf0e0DjyYKK2rgngPsLdq+/M2agV0CtJa92hnO1nvDRLTNwpIs9crmQ4vTwAhgAAAA2AKoHcxBLomsv96BBl7B3IIkKyTwLH61A9woAp7kbwkZ0GW9Bzwq21frXad+5xSszg5wkK+57HWzyYNPjFZzzfmrxJu7MrQsYAmvDNvIg9n+vT0iBDAAAABsANQOwohLIo8dan5qrBDAs+iVxRJg9Tfn+ha9Auwd4DD5vJLRD0PrLKwYCB2bkC7PSr6vm6te23s0+LfY5qQhjlUP1sq1JcLZdvDQ6EeKctgMQ3N5BwAAAF4fErC+zAh+lWFoLoksHml0Qv+q2l322iIkCa+5al6pWv76aqSGCzy/0PK3YwCPoQp4nDuRRr8T3EmBvrnAJSzz+hCr6e0uBlqyICyjgcXVE2n5K273V4K+TT9amrHRWn8TAw0AAACv/6sqagdlZMEAXnWk+dnRE8Cr4p9jFVIsPuq2AdshaCt6y6L/q6qA1Th0XAH2O8CTA+y2fb0PLG6BN1QdSRaFJb7W1w49mzlo6Vq6dtPXSeQ0IHoYiIEGAACAlwcDGA3MKYEN/LX8nexeafq+nYHoqqqBa8cELiEGq78BPKaDz0r+jm0HWIlg7QBLvsrrYrHEj0UPeRR0HEnO1noll7LqzYnslfQNPrWrIIABAADg1cEARho5MIAfSIXmJ0hDAK9zgJ0E9vu/Wv/GFeC5ArioWei6rgTJOcCjuSULwNoDviVBF5sfpeeYwyy0VbjB+1Xj0qGhV5LcqzgjLW3NnFjA7rXKSCYFCwAAAF4d3D40MKfEE8cZFzhD1wCLTcOalXHNS5CKqQF2xm/bAY7qt6wagLY9SGPtO8BzCVJwgENnr4SEK9ty5MaisyRn/zLKXLNdnGvmTgi0hKFqBDAAAAC8OBjA/y4s+JdKYE4JJPDTvN2GnqUsNQHXElKgXQ1wSTuAnfZVkniNB+w3fuMt1b+2GKkk/btulTeEOYsXqkMuXcXZyn4JOI9w9iPS4kaeJZmb9h4wpzMAAAC8Nrh92MAOJqAfPczsAmcCWClfWZOEVf0qcC29ECxfCaxl730nuKSy15UB5yZw0//VkdDWwBVnx2pjVvy2bawzGtoW8OASsNKgK2MPJwPSxoVupEsTAw0AAACvD27fv94S/XXiiGsiSOCnqRf3N3YgLRjC0w7w7AK3p6BNH1IYhF7aAB6zNOjEBFbZz2Yj+OoAJ1PHptPXTjxbtSvBvZVOo3CyBCzZ5wg5WtIU13r5eH4nBDAAAAC8NLh932ED/6pTggloJPDzWK2rhbAJx6pJCZIpAq5qBDruAJdqK4FVI/AKHTwXHplC4NYasDF/L89Ko75I9AizUZjRqI3Zzw33N1sC1p1KQ8zgskrYGNTtz04MNAAAALw2iB0kMNdEvkgC8+NkvopSbg5wxwNubwJ7B7iWpflnu//bHIFO/N8xdYBjG5Idf76lYYUQLBsJLS7UWZpGbdaY5FaHZQhLwEOa45y3A0dxLYOvJ76+ghQsAAAAeGUQO981Cf17DEImoEnDepq/Jve5rOxEqrENuM4iuHb2gKubg64r/d/RaOBZAgcLuOEAR9HrO31lSAKofPRyutubWbTivF8vq8Ur8Nj36zaFE3uZ0xcAAABeGMQOM7IehgIwgZ/mvcwR0KsSsFptwNb9DfLXjD7rJeDWGPTY8oNrS/qa9Ge/Axymnq0ZPPi5Y6eIJQm4knSnOFsCjhI4sYOzqWexz8U1LnH6AgAAAAIYtiOBWQHGBH6et5vulbv3K5MUlmgI12QLuNpbGgRtRp9LugRc2jFYYyJ/jQdsJ6Hd7ZoCnaY/NxzWzGwNqrhvASfyV3vCQXjHTydpX5KYB8U5DAAAAK/LEcmCPuKcwAT+FwJ4krjLo8+tLeCGCWy1bwkW8JoM6KrHnm0A1pSMZaVvXXCAXdNQGEvOjNz0nusTdrXCfgnY6+nB2bmZhWzGsyV8DAIYAAAAXhdWgHGBEcBfve6Nfrg7wDI5wMYDbiBVrwHXlgLWmtf0IKk0aBMM3ZPBo9oGHo30DXPQSQxWyVKklpKck/eXbFO47wBb37clqRfM5yiFL3fpQQIAAAAEMGxIAjMCjQn89FWUt7Im+jnNv3JD0GYAuhWC5TuB12ZgxTrgfAs49CBdBXFx67OtNGjrAyfFRC4rOgmWljhlbaKbvQUsYSza/PN5ODQx0AAAAPD6v6fu97sTaBYksLoqcjkpOExPsHkFrFqQph1gVYgkegs4VAHP9b9K9ZbW/q9dAzZWcKqFRx+FlQ09t4XwpIPPf0pYn82ahlILVlY4xT0LONO+8rgFnA5JI4ABAADgxX9XPR4OJ82zR/PgEd5PiT/Xc4JTgjHoz/G3tBxgWbMKXO0mcFC/QQinZcDLS8GjS8PKPGA9BD1L37sDHKeRbetvSIeOg9A++9kZvrFbScU+S8MBTkOoJVXBiXBHAAMAAMCWdDDeHwqJcwIF/CTvYhzgou3fXv5VDTlY8+xz6VQh+TJg7f+WRgjW6AKhnQds7V/74m4El7TvNzQNDWHsWR5wgKVp4ErrbssClljElAVII4ABAABgWzr4iPdHIDQ6mEXgpwSwNX3F2L+ydh242jCsXg2wq0B6aAtYOcCj9YCz6efpz+wAB3np05WlIZGVGO4V/6YpztLuNmo4wEOjHDgGSBPjBgAAAMjgHyUtPnaej9+ozX6bREIHo4AfEMDWAVYqeNbC0jWBlfdb2zXAZgraLwS3U6DHKH9HI3wbSVjaBa6mB1jSPV3fxSvd/Kncs+1u8DaHn1u7v7K8mUwMNAAAAGyXs+L5EXpnt9ufOOwPZ47n2+npxuWO4vyeF5n244Xa/ldqJPaDicJa4k2JWzP9LGvKgKta/9WFwHEJeJ529jnQZd0e8BiKgRsz0Hf3t04lwJMDLOlWrzTXfWNklRhL1r93ywCW9j8gQ747nHnKSS8SAhgAAAA2zcUM/t/kzknInlXvSeeufbjXx3y8q+L9j/Ysf+2q6PF2Wuy+91zYXa+ETNdCrof4/LS/X/f4QUd7u4vAb5Prq1eA8wnoZAE4cYAbSrgGA1jJ35b/O6Zj0KPPxAohWFMG1nRvMBlWqQEcveFcJK9zhDPhm2RrdcOfF6Opyzv/2wMAAIDNi+A//4sIPomdw/FpEXG8DXT/SCH8ywdlj2cv+FtOhNtlkOOfzglxeetlUvuHHO7NKuC39uyz0cDS9IDtQnC9LQE3qpCKtoHXbQGPJg5Le8CjSsNqNgHfQ7CSRiIbfyVD6ur+x97ZLjltBFEU21tS+cd4evX+D5uExVL3fEkm1lgzOqeAhYVKYO3gnL3dt+MYWOyM8qzOsmEHOP4VEuz5psag8+PYtGABAAAA/MjOcL3UtN+3n8t9HnwiBH6zBF8O+UmCAzzcl3Ma8Hiz8itzGizJi0g+Owe9JMA2+02XYdnV33IM7AP5nYwIr8xAPy3YHjsK7VSK27iSi2JXM2Ep7hOnaq2Ke8cxCDAAAABANdmp4IVHK/jqoC1p12fF//z4fPbhPmcGPC7Tz/ObwHuleA/Jh2eBfbIFKxEEG9916w3QSoInkwAnDXi+AvxjwFECnJgzzlzyzQe1qTLoUJmlOMKc2zqO42UEGAAAAOAgDry7FP43KXuYoegOLGkcdvtIDu95vD9kwafMgO+B5kqi9nnlFrCJegMNjmegs+3PmcNIU8qCfVAAHUiwaYH+8zboew5S13ToOg88x73R8kIAnJ5hLh5c2hoBf9+4gwQAAABgbWJ3Ba4Vio7HqLnu4WTOcN3pswPv/D0O9Qeiryf8C+L+HHp29hJSfhk47cLmFHD2EpLuwXr5ErCJfINLwIkZaCPBvwU43ruV3Lxz/hyvpN+XO9crj3I3lh58ltcmrH9AgAEAAADqKnBVaTiEBPcwKrtLCPzuBHWs/mCf0IDv0aSztmApRsHedF+Z0Dd3Ccnp9uewDqugxFOqFUslwFOxBiufAEfCu+1S7/p14ECIX6y+2g6HgAEAAABSCtzV2OjHJbiLEPjShj5WDoLPZ8B3U3u1VGFJMf31+ZHouAUrfQj4xRbo5ebRpDuhSyXQKgH2UQIs6e3cVNgrmSrmdAC87rCyejLpFRBgAAAAgEq688Nn0tBKJ316NuDx0srnQsaaDjyc7a+Gr8Txo0zoK7H8ersHHHzjc7PQZhfY2R1gt27Ds+56ewZp/gk7AR3dAZZs01RyKXfb1d98hVV0zugv931JgAEAAABeMOBrd4nZOAyfc+AeurAuzTwXxnu1h/pyNgO+qctHMmfAst6ElSuEzibA5hKwiw8ibRJfOw2dS4DNALRNgMWOPq+5az7oTb9fHqVsef3f/TpfvLoBAAAAJB1iFwP+cG/u+Llh6A5E6d0GPOz9UFMFvYsAx3u+wSEkSafCPiqCtl3QPnMLWG36zhPR5QXgwHn1JeAp7MIKC7DiBDj4jr5ClD5G9JYEOL529B4FdggwAAAAQIZrXwHwk+FDs9CX5tdFx6EtcxyHa5UH9lx/LZj1X3MSWDZGv9EGsGnFCiqwvP1BpLyJGegpar+aEkVYUf6bTICVjspjwwqwvCsC/pt+521wCBgAAAAg5w876MMh0rLxQw7c/Bj0eyPga41HusYDfa4iLJeoes6prwRVV0qEfXz/Nz0ErTd9dTP0+lGkKfx2MhvBqS4smwDr+edH7kCvPN4UAYf/9KjwGQEGAAAAaMp3fnOYP9tHHLj5admhPW+socCnWgOejx0FCbBZA5bV9V/diGVVOL4CrBPgVAS8qRR60qeBvc9dQZoTYGcSYMlc6JV0C/TTX3NDzakI+O2mm4NXNgAAAIBq8nCkadFP5MDNLwJfGwxO9x+EPtMa8PicgNY578buKyu+wQ3gQv+zU9u/5iJwwX7V6q9XBdBKgwMFVieAf0LgZIC7FgHL/wiA39HxvIWRVzYAAACArDv0PSz6AQUeeEJUfzLsvwt8oiHouwt3gBcJFj34LCsbwD5zCDi0YV0B7VUHVjECnlYS4Pwx4HkN2Juktii3QV2VDY0lvPcr6Sz4US0CRoABAAAA8upw6VwUxuqXkRpfBL40+bmAce/PdJxnCPr+Z85ZMglwph/aZxuhlfLmloBdeAJYCbHLj0FPxntt+3PuIJIags4EuOHcsmR/mfkpyby/PhwCBgAAACgw9J+U1Y6B2zbgodEnw84h8HmGoL/msDdIgMvXkeLNX9WCVbRfmwCbsef19d+lBFo3QaeTX68asJ4j0Ho/N6uutq3KzDDHHdDh+z8gwwgwAAAAQIFr/6OitZeBm5alsdnUdN+s/zRD0Ldg3llZsISngDddRVKrwHETlil8Tg9El0V48rlDSOkZaHUbKX3iN1wC1smuzoPlqAHwQzgEDAAAAFDShlNowlB1ErrpKqxrs2PD464h8FmGoG/P8Nec/pW18me9ALzkv6oMqzj/7PQV4OD+UWH8OXqPrX9Ot2A9M2Cf6nd+ZJU4GQGnAuCPKzACDAAAAFC0hss5LKHqMnDLBnxt+Mmw52N8OclfCLfg0pEdg9YSLOnbR/YYsB2IXiw4zIGt+kbT0OUl4Mnqb2INOLZg70tnehNWLFHUK69VQFcTYA4BAwAAANQRnoMPitZU4IYNeGj5syF7bgKfJAK+/SivRMXP4oIa6FwkrNZ+44tI8S2kcBja2Qg4fwtpir+vE+DcGvAfEZ588uZR8XCRFBLgAykwAgwAAABQR3gOLwkVFbhdA37fSMAnPgQ7jkGfpAfrpmVXovnnhPFKdiBaubB3uUPAbj4BrJqwXGi+xYPAtvsqyIQj831GwIUAOLbi0HPlWKkvAgwAAACwncuJUrKxXh1WqwbctgD/GofdHtFz9GDdnNn/NQVYUuzA8nYWWg89hylwHAGbL35zD/SUXAm2g8/pKqzJFVaAY/HVRVjHUd/Mb4QXNQAAAIAS11NZ387ncjrwpWvjT4bdYv5zRMA35b9iIuA4AZZiIZauv7IGrExYT0GrMui5FSs/BD0lmqCTGXDiCtLPHWApJMDBpHNYhHVoSIABAAAAysJwstiz2hx0owbcugDv9wCfIQIeb8HVI8nlvpKTYJ/cB/bxMWDbgqWbsFT+6zZFwVPci1U+BuzLLdCSDYBbgBc1AAAAgOL/8p5t7rfaKnCbwtS8AL+52Vxxggh49Ev1czAHLUsblrii9prrR1Z/k2PQgQYHCfC6904qAU4WQk+pIuhHOQKWhow3YORVDQAAAKDE5WQCXG0O+tKkAQ/tPxn2MuATRMD/CvDcAB2cQyqfAU6fQ/LrK8Cm/dklzh+5Yv47bUiAkyHwkgCnMmA5XteVbM6hEWAAAAAABDi0vAsZcL8CvJcBn2AL+O6WA0hLF7Sag5Z4AFpyfVg+MQdtriFt1OD0EPSU3AHWFVhBPbReA060QKe2gI9Wb7XpV8udFzUAAACAEtcTCvCe93IaN+AeBHgvA+7/FvB9mXK2t39nCV7PgV1YBa27r3x6CFpVQBv9dT7aDF7ZAY4y4MwItMuePDrSwu9f/TYQYAAAAIA6xtPWkmSdELg9Ax67sMV9Ht3+I+AvteUr+jtqAzhjwj56Y44BRz1YhUNIy0HgjVvAOvG1W8DlEehQMVvd+jW4L17UAAAAACoJcFMJWZUQuL094LeFp599MuxjwN1HwF+6/so2XqUvIEl2F9g7fQXJr24BOzX2vIS+8/dcoQJrsvd/vb2HFIjv85uHPXgk7Sa+3EECAAAAeM14TluTWyUEbs2AOxHgfR7c7muwbkvflV74lfidyXvAPunByxJwdArJuu8f0zUpsN8WBZs6rGANeEqcA/a+o8wXAQYAAAD4iPE0eCemRgg8nPTp8Oknw7DHg9n7DPTXc/9XdBVW2AMtbmUd2Jsd4GAR2LtoCNp0YKnIV6//urL8TlqBJ2/y3+Qa8KNbEGAAAAAABDhrSRcMeJ+nw+Xjf+wrEfDL3FzY/2xqoBNF0Os3kVQHVm4KWgXBSymWVl5XiH0n/cMpVOBE+ptrgUaAAQAAAM7BmQW4xibwpa3V6G4EeI8q6Ev3AmwTYKdOIJnx57Xwd754ZI4hZcJf580wdFiD5dYasOaB560J8PS7BfowCAIMAAAAgABXY/8QuCkDfpsAj10+sp3XYN1M/hvcPhKXWgJW7/EucxLYJMC5S8B22Dluv3Jb9oBNAqxPAUca3G0A/I0AAwAAAJS5nnxDsoIBt/SBufRj/QMz0C8LsMp/RR9BEpc4gCSuVALt4yqsXA+0vY0Unf51azGwioAn+zXbBv3xwFcYgQYAAABoXIBbPZO6/xh0Sx+ZfhLgPR7Yzk8B38wdYFOCFSbAazvAOhQu90C7cO/X3gN2m48B2xvAk22D/nwJlrADDAAAANCXALfbkXvdOwS+tvOh6UiAd1gDvnQ9Az3elvJnsR1YRoXX7dfbReBUBJzNghPa60qXgHXTlTp8lJXfqgnwB+4s3UZe1AAAAACqCHDD6djuY9DtjM72JMA7DEH3LsA2/428V6It4GU22ts9YG87sbw5hxTPPDsV/c5VWM5s/7pt14AnfRspNQHdeQv0AwEGAAAAqCPALV9J3X0MuhkD7kqAf13O+5mMv/mvYIl/VeibioDNXeBiELxUYNkvPn8PKWrEysvvlLgEHLRepWugfX/J71yCdedFDQAAAKCKADe9H7m7AbcSHfYlwO+PgHuO1+7LvSPTgBV0Pm85AexNKbRPhsDpY8BRArx1CXhSTdDhQaRoDNo3L7oZ/f33t4QAAwAAACDAH3GlJrdH+xLgX1dmoF8SYNV0VdgC1p3QJR8294+WLz53B3i2XRe2QG+sw5rCBNjuAysH7kh6lfz+BgEGAAAAQIA3GfC+i8CNfHg6E+CBGegXBFjmBNi+tUd/E8abPwXsEzvAyRQ4eOOXSHjLyu8UJcCTWgPW/rtPCZZ8Wo6/n998kwADAAAAVFKE5k/E7GzAbahTZwL89gj40rMAm7RX3/9VabAxXimv/+qJaG3BvnAOeE6A58zXbeq/8nYH2GevIP1tAiwHDX2/l+z3530IMAAAAEAdQ2j/RioG3J8AD+cM8v9OgEWFvHEELPYUsJSP/7qM/hZPILlU+/MyCO1KOfC0DD+HCXBiF7iHuufvpA3LFy9qAAAAAFUMoQM12LkKq4X90d4E+O0RcMdLwHetveEWcC7ylbUMOJx8TnVghReQ/kiwe+UE0t4J8JG89/spv0sEvNgwCTAAAAAAAnwMA26hCKs7AR5ZAt4uwMp/RfRN4NCGJafBPl8JnToFnIyDvYmAnarGyktvegd4CrLhxhPgbxP7fscx8H8/IAEGAAAAQIAPY8DH/xB1J8DvjoC7FmBzBckeBY7yXslvAnv9xptC6OwdYB98dcHMs1vvwopaoDN3kF5LgP9h72x340ZyKDrdNmLkR7WKev+H3XVmLJEssiQnbUUunbM7TvsrRjoGguNLXtaTZL6N+rpfl3cjwAAAAAAI8N/zpe9mT+MJ8I/L/RDj9wW4FjMFXU3tlXvHnu3fZQo6XgM2CuzOASsTnrJJ6HnayIRtDPxNE2CJM2Bpg+BfL0iAAQAAABDg8xjw6YegxxPgtxsCvFeA18FnG//WdOm3cwVYVWA1PdBxAqwLsIr33bK1+LtEwPYAcJgBT2dvenb9zhI7sUSfhgADAAAAIMAY8MF/+DN9M9wv9jOM3+bVdF/Z4eeqjyFFOXC7BaweTO0x4Ml3YbnpZ9OF1V0DVp6rHNgfAP7sDnD9ywPP/jVxk9D+0fJ6QYABAAAAEODzGPD95M/SsxLgEb/Dxxfg/xLg0ubA2nTrdhH05M8BTzYE9nvAUwkSYHcNqeytgZ7NcaR5amT4rC3QWn0lCnib3FeCdyLAAAAAAMfowf2N5+T7rwEPKMBP/oHGuC1Yr6vw2lvATQKc1l8lO8HGe9NDwNqDJ3sHqXQUeLYvG/3dkQDXc+36mn5nMS8k3AXW7yYBBgAAADhI9m4DPSn3yw5B3wf8ZviBAO8U4HXqOZyDNu3PG/LrI+DlKLC5BOzst6hTwJ+JfmMFtv8/7xkka7MS9ztLP/9VD1/4Rw0AAADgGAEeqR3oCw343M/TbUBLfG4N1rgtWK++96pq3dXRsNbfam4iTXb+edkBNgGw78Eyp5BWBbYz0cticBr/ukosp7+/ewbp2H3ftP/54VNhCUaluQMMAAAAcKQAD/W03C86BD1iAvzcv8xxBfhFHzvyk9DR0m/dkf8aHV7/y2egi7JgR9lKgNeBZ3v+aDrfGaR831eaKFjaRmgJHgoJMAAAAMCRAjzYaOj9mkPQIybAT56BHjwBNtu/uvjZrAHvct8S9EDnNdCTy4EnHwz3q6/iWmg7AH2OBFiSfd9g3rkddN6YgBYEGAAAAOAoObgN9sTcLzkEPWQCjADv4sVYbt4DrRR4S4ZVBDwta8B5FdZy+shMPBcdAedFWLrvar0LPJvzwIsJ/3HtVf09740PHEUzz9Lc+5V9W8AIMAAAAMAxcjBaOdDb/YpD0EMmwM9dAh72DtKrznhNDFx0P3QmvTU6gmSXgKMEuBl+XqS32C6sz5RhzeYoUlCCVf9G05X2Xul+RBMR+0+wI9F6CloQYAAAAIBjBHi0BPjJ2vRNHGrIBPi5af6wAvxS3PmjamuwvOrW7ingZhJaNUC7Y8DF2q8S31WHy777v7NVYJ0BmxKsemjBs3S1OJLZ4L5RK88S6jECDAAAAHCMAI93HubH7XpD0EMmwM+dgb5EAlztOSRbBa1z4cZ9p0CCzdBzugPc7gE3539L1gPtVn/DPWBtwfWoTV9JY9v24lFyCThvgo4uCJMAAwAAABzkBjeemwF+WnBHgC97CPjFbv66Fug9ea/TYLsBrN+QVEHrNWAVBru7wN0mrKUBummCfu4O8N7TRkGJs2xs8srDHwaWIBxOLgiTAAMAAAAc5QZ3npwBYsQxR6D/uSHAewW4ugNIrgyrrmHw9lmkOhkddlXQ+SmktQpLSfDmJLQ5Cuyar/wUdP3iXd9k01fCj3pka8G5XEuu0AgwAAAAwDGOdxvx2fmyIqzb2H/g+8B/j8MLsPXeZQk42gGu3VB4stnvOgztnFdvAK+3j/QUtDLf0juENKveK12FNatA+CsSYElXfSV9t6RnjsQ9lqgTuvm6H48RYAAAAIBjBHhIL/i6KuiTRsBj7gA/Ncq/QAK8rP9aJXb3kXL1ndwDlQCv+8DJMaQ1A552NWA1TVizX//92gRYohFmSbZ1V2MVu+sbrgcHSp3cTNLj0QgwAAAAQF/x8ILu0/NlRVjn7MEaNAF+u0B4/0QBVtobBMCJ+daeBK9jz4v3TkETlruIZAuhd45AmwasWW0F6xro+uzQNyi8SrZ7M4XtlV1Js/cr6ddEgAEAAAC6kAD/JQM+5/OFAF84Afbrv83yr1XjXXVYfgxaVUKnK8A2+G2ct2yo76zboD/CX+fA9Q/XfKUXzMojjXd9xttsAUvcovXo10KLEmUEGAAAAOAYNRjVC35cagh6UAF+ZgvWBRLgxoDDsHd9aVuwpnQoekmAmwi4dwmp6BbonRGwHnvWQ9EfBlz+aNpZgmxWtkxV0nIsSWadXcIsTS10+HUQYAAAAIBj/G7YYOyr1oBPeQx40B3gZ/4lDivAry7mjbLf+onwtzRD0LoGWr8xWgBWe8ClF/6q7V+T+Op3mwtIv5sAR2u5km8Eb20DBy4s4QHgfkG0+NNJJMAAAAAAGwJ8Q4CPkcJvEQHfEeDrCnDTeZW0QLeXgZMN4MmWQFv1/TfgjZaAXerrtn/3NGJ55dXHkT4nwNImtNIs5Up4pleibWB5PPqOK3ksrFLgVouX9yDAAAAAAF3eEODDfkbwDSLgUQX4BwK8Q4CjK8DRHnByC2krAFYD0FkBtP9FHULqrQWb+0dxAmyceC77J54lHVXuZbOSqvD7r0l3VjNMLYFfS1ySxQg0AAAAwMF2dx/4ObpODxYCTALsrgCrzqtipNe9tU2FAxOe7CJwvALsVn7LvtC3SYBVAGwWgt9boMv+y0aPft3zw8SyEjvtw2W3O37T0K0lcmAnywgwAAAAQBcS4OO08BtEwKPuAL8hwJ8RYHcIyUXAWStWycegJ38TuExb/zNHkJb0Nz+FpI7/zm412IfA3QRY8vy36aSSKIKNdFU2v1742/rG6Dj/5Q4wAAAAwCcgAT7ypwSnf85GTYCf+Dd4jQS4sd9gC7j21TeIfyffgdXOQpsCaD8GXXZeALZ3gGcrx2ECLEkbc7iJuzH0LGHtlelv9vYswdVgU23Vfv1Wr7kDDAAAAHCkGYwswF+1Bnw7XQ/WDQG+7Df6aw3vIGVbwDU6itS/BLy+YWpjYLX+W9Qx4MV6yzTt7cFS+hu1Yr3vAMvmrm97rVceQQtVk8t2Vnq3CqS7cbG0x4OjRmoSYAAAAAAE+BkGfJEI+E60fV0Bdglwb+i5Rs5bE+9VF49MBLyxA1zcQ70b3MmB9fyzbYNW49DlQ3Kls/wrfWsNU9zIYkN5TlNnCQLj7lKwPb1EAgwAAACwYXYI8K6fE3zRGvDZIuAbAnzZb/Sf0QC0M2GXALdqvKMSeirt5HOgwGYUWhOvAc/BJrAZhDZN0EXSNmfpTC7vbX/2UW1PjR9+NPoR1mxJPEfdTkYjwAAAAAB9s0OAj/1BwbmfNRLgCwtwa7rrAnANDgHvlV5bhOVeyfuwlsC36AqsPQ3QOgF2q8BagCW/zOtP+8ZXff0Gr0S9VBJny53SZ0k/rzcY/fGxCDAAAAAAAvwUA75EBEwCTAJsDyG5Yuiq5NfkvzVtwZrc8u8UrgCvr7pbSG4ZuOxU4I8dYB0Ary5cwktC7Tpwdssoa2Vut3XzFWFfiPWIerOSHLqpi6YFGgAAAGCv1yHAx7rhuTuFSYC/3dT68wS4jX/rOuhcXQBstoBrtBk8hZPPPQX2BlxMH3RvBNqoblOD5eaf31ugJV/blWCIWZLKqTC73XHMNzmbJOGJYNl/H/j/D175Rw0AAACgBwnw7h8VXCECHjYB/oEAbwtwbL/tKeBAe/d2QLdz0BsD0MX0PpddRdBND5ZKgP8bgU7GkeNgOG2MluChuAFqiReJ44tInWXkpIV6eZNwBgkAAAAAAX4qX9ODda7nDQHe5G1cAQ7Xf5UH2wC47ln/dWeAi22BbkTYxL7uIvDmNWCTBs+r+k5m/ffXw5JHtY0DNxGwBCntxpHg+NSRZI1XwcKwJEmyG4sWEmAAAAAABPhsT9WJE8U7AnxdAa5RCVbVxlvtLHQ1V4DNAPQUbwRPaya8UQRt7h4VOwGd30DKLyPNei76lwCLC2bzEua+4coja4mWYM9Xdh00Sm4kuSRZllNO65+lIMAAAAAACPDpJOq0TxwJ8ObS9kUS4Gqnn4uefA48OB1/tjXQHxeB4wloZ8DFXP4t01YGrPPeeZ16thXQHyPQstGqLMlwtPFdydqvPhEGS9RA3XVj5bxuwvr9FQQYAAAAAAF+FvfhI2AE+Lrf5z9j/41uAKsW6NZ+a3cSenJGHK//rrGvleF2K3hjE3hqwt/J7gBLb+U3OsKbyWxUCi3xf73LS83HiavJEvPlxN8GJgEGAAAAQIDP92Sd9plDgK/7ff6WnAFem6BNAOxS4UR9J78DvK4Aq3XgyIBd//OuE8CuAeu/4De6A+wNUzJhla0IOLhdFPi05FLdO/YrxnslSIAbBUaAAQAAABDgp/ElEfCZhmpv44XaCPBvCnCz+luba0g7aqDbLeCprcRqLXidf9Y7wCU/hNQq8Dy5G0jqXcEIdD6GLP3jv9K5jSRBU7Q8ok+XTL3FqLLY0WfRGv/rlYoAAwAAACDApxPE0z51JMCXvYIUJcDuEHB1AbDrhi7pGeBo/rmJf+MNYOfApdeCNcdvareB/x2BFueaG01Y8e1fiQLdPMyNG6ezwWsxN46M+DaG/fE6AgwAAACAAJ/Qo04aAdMCfdkOrH/eXtoaaK2+agy6mXuunSXgSf8y6d3fcAra7/4uddDOfEtv8Ve1YJlrwMkOcO8mktvHlWbBN/2s4MpvuE7c2KxYDzdXjtTlI7MBvCTAP/lHDQAAAAABPt/TddJUkRHoLQEe+Hv7JWuBfv+lmpNINfDeVH2dA+tbSN1LSKv4FqvAe0agJ23CswqIfz0owdpuc61INiqc86noLECW/C3SCrdJgB9595W9VEwCDAAAAIAAn1CkTmpVjEBf+Nv8pabxb21Ln9WMdN2xCNzeQIoOIeWN0Ost4LK3C2s2RdBqALoZgU4uFEVHfd1Cr5VPm/dGa8DJ72MGmxsLXt9izh/pj1tekAADAAAAIMBP5T50BEwCfNkV4HcBTnqgq5qDNlVYmfXWRIHdDaTuJSR3CLjZAC55//PsurBmnwTPU+8qb2DC0v243pnfTpeWVWfrsokJ2wS4SYHf34MAAwAAACDAZzSpcz55w+4A3xHgHQKcrf/W4u8A6yno2ruFNPlKLC2+pgV6mYKe9At7EnjXCLS7hjRHufD/2LsS7VZ1LXaakml1Gdv8/8eejOA9GacBQo3UvtvpNM1zgFiRtmQKtq2ZhBXNjmBFLFbKffkNxYTsCo1ZY8Fty2eA+QQwZoABAAAAAABAgFdLpQjWEq1UrQK8q82sPgsB1ouQ0kJg6oMOrrgJKZWAqQXadD8P5mfvPaXAlhW6U9lvRwTgy3+EAszKiAzqG2VilUmZFTU5kmLflvFbnmYVNYYr0q+EE7sFAQYAAAAAAAABnnbFavZAf0EB3u5R3jjbA53MAqcK8MCHM/KvZynQ3lEFODP96zxrRXIKEy6RgQfxd1CAo+VLVkOc43glklmhlFb6RmJjVv5G5Llc/BtRC+563h4UYAAAAAAAABDgdXKpVSqLUIC364D+1wQXNPrLPw0jgm8o1YJFDLSZgKVwXpcnvZ1QgNMyYG+alqPNbvWgaDEoHPVs6djSFGd+KzTzSlJgQoajwZEvOOJJDQAAAAAAAAR4nUu2QmYFArzVFuB/agiWEoWVKsBEFg5FtNdz87P4dJj9dWQG2IkgaJcrQBJR0E9SfPumEf4crS+La5Gi9quRzPxGJgBHESEdBbNmUq/Gj+8/+wYBBgAAAAAAAAFeJZla5fKBAG/4IG+CxX1tBVg4ny0rtFe+4Z3L9iDxEeD0G+NFwIL6CgVYDa+KisOZhzYb/mnuko5Eq225HKy1KEWWDK1MAmsp0AMnBgEGAAAAAAAAAZ4acwRBr0RbrJUAT3SYV+2A/nd2YawGKQwEN6RfZLp/PfuGaEDKzwCnI8CuYPa3Ex/ZDPBDAY6tXQUcTRFYl32j9EhHhTSzGV499SpbhUQDtCLPhr5+9Y3nNAAAAAAAABDgqVGvBAwCvF0H9JUAUwrck9zghOM5qUMa2pDCiAN6GP3tXc8DD/bpBz4BTD+6ojIkyn2lAhwzxb1R8z8Le3NkeVktNyULessUYJl6JUaAGTGOYgaY3jMQYAAAAAAAABDgyTGLBAwCvPpHrPJj/MgN0FQJFkVIgTUAl6VgJYSXFCIZEdCJ9EskYFeW/ZyanxUFWLBenvccrUgsLfEqSs02yrIju/ZIqQGO2TxoeVsRBBgAAAAAAAAEeHrMIQGvgjSCAG/XAf3v6E3ay7+TJl+FoiRo79IWYNoFLMRfEoTFi49cJgi64wlY9Iuu58E8n0ry3GjYn3lydGShzjFLgWXmVcJqdfezOgestyK1IMAAAAAAAAAgwOvlUytcwFoJ8A4O6AJ8h3wOtOGJdhoz1ueA0+QrYoD2Cgmm6m8ajTVqf+48yb/q0ingXgGOWlOvFvYsXc4tKfal1maloihyvzLPszI7gFXBN0OqQYABAAAAAABAgFdMFFfngQYB3vIh/p3hvkkdMOO447W/qfCrKsAmB3aeyMAFGnCagtXxeeDeAe2DnvCsUN6ox2NFor1G3d7cCh2XjQ1HSwG2BV+9Fqn/tyDAAAAAAAAACxHgw6aW7VCpB7pWAvwFAbiEABfx3+Ac/ReDKlzCi4UCTBqANQWYisEqEc7mYHXPqeDEBJ3GNAv9N7ZqMjRt82WGZ0FqSV+RWWQko6+UQiSjQ4nfOhRgAAAAAACAJQnwDstWwQpWSoAnebjqP8K/7xPAGR90UIZ+x0qARR2wF1/5TBMSU4FLLNCdLETqWCFwYJW/0vfcqlO8lLRqYq0lzfIfmBIwpdVR0urcr7UNntMAAAAAAABAgGfArk4PdK0EGB6HMgKcnQAOzlCAs/KvZ13ALlWApfpryr+U/loiMKsB7sXf4f2hADOvszVe24q6YJWeanRU+J/FrVjG51b2JkkurCrHbQABBgAAAAAAWIgAHza2bnV6oCslwIdKXp+YGc2YAzqpBk7JbiL8BldUgeRS9Tf1Qpt1SJQCF7QAcy5MWXAwNF9miaaTvrLR1yoziqlXWjVCK+VHUjmm7JeSbUNpPuM5DQAAAAAAYBkCvDEFeA4JeAVLWCkB3uEVnhKcZQEwsT8P7JcpwFoZUjBDsJLqXyYA6x5o3oY0MgXceZl91REP9OWNWZz54O3QbmR1G2lir1p+pGdjReGJlglZjDDzPy3p8+U9gAADAAAAAACAAM+CGWKwVpCyVCkB/qriwVmGAOsaMLM/60w3jKZCe06ElTFgTQGm48CFQVgdV4C7YRY4tEoIFpvvTSVghSArNUdSItYc0VH9RSkYRy16K0q1mNzeEc9pAAAAAAAAyxDgw9ZW7qtGD3SdBPiA47vsYjASgMU/htT+HFw+9pmHQJMxYCb90iTotP13ILw5D3Tn09lf9rFLapCk3TlhsrFV6Sn9WVS9yLlEaMZtldlfk13nM7du/wMBBgAAAAAAWIgAb00BrtMDDQK83QngGwHORWAxKsxGgFP115KCfeqF9okC3HNebfx34MCOlwKPFyGpVPimAHN5VRYesZIjxQitcFQ7+JnT4Gg4oUX/r+XTVtgxWpAAAAAAAACWIsAHrFwFNts6CfAOh3cZ+gng8Sxo52gIdBgLwJJ9SJ5HYdk9wKkOrH/QZoA7WoKU5mAF3mzEJOAoRVmVj6rdRwpRVuKqLAId9UTqqOViiZuJeEoDAAAAAABYiMZtTgE+ziABgwCv9Bj/2sYx7S3iy5zPqe7LmG+wMrCoFdorZUiZLuDeA+1M3muqv13ifH6+d4GlU6m9Q9zDrOq0eYuzIvSKHiQrZ5q3LokblIw7QgEGAAAAAABYigBvTgGeIwbr44tYJQE+4OguxLc1AszTsJIoaJqPNTYC7IYiJM9ysLzGhYkU7Pj0rz0HnORdqXQ4xJzMqgUsx1abuhWEVHJfSXhlqxHNyqL3RNGgRY1S/w4CDAAAAAAAsBQB3mHpKljEKgnwDgd3IRqrAskx7Teoqq8p/vLYZ6EACw+005gv+dz2QA+ktxuqjwYv9O3rkB20VZuO8lO7SjOS/CWFvmolwVyLNm9RBFNDAQYAAAAAAFiMxW1PAZ4hBuvjQ8BVEuCvv29NX5AA56aAFUYckoFgwX5DPhg65b6WBXqY/02yoF2xB5p0IQ1WaKoAa6O6SsAyDcNSm37NmeGMtbptWz1W2qhHkr3Cw39Cg6c0AAAAAACAhQjw9hTgGj3QNRLgI47tUpyDC1YVkmxCEjnQtBE4jMRgEeOzNQpMp4Ado76uhAd3SRrW8+uHApztFopGHFU2HUvvNIpayS9RfJW/pP4tlaAnPzzjKQ0AgJqelRbYIxzP5+aK/eXthvMFR3TKAQAIMBTgWeniiqhWjQR49+d1+YUJsDn9y/jvK0XAJO156D7qp4GpCpxLwnKC+LoM7+1oGHSfhBWintmsdBVpJumoxGBFbWZY/rb8NTLwq83/5nRqdhc3TICbhf6/XzfL57+6S77e93N/3y93Hnv8eY6R21HSr/VztbEyrx+w+9OstpbrQ7Tfn04/HKfTaX9hw2c8aJNdeB6XzQanwwcvRvfFx+pPTIA3qADPIAF/Om24QgL8/hG+ndd2jtn8K1mHJLhvcRkSVYAt8kvKf5NErIH3uozt2cs+pDQEy6j7VaZrrVoj3lxk1v/qU8at4pKOiq5r3BSzVt8/bPVZ7djsf07zM9/7Xvm2WT7d3u/b5Ns+ed1Lf5W4bvf9sdM/Xe/59c5fd/nYDk2yxM8j5L7Op4RUPY6U66FyO1iw3uWn9QXNXOfE9ZT4GcHtBMHD9ftXC5t9euG5X3t++mvP7dKJ5Z2B9d5f2nlei/rr/u39eTG6X4s2vPxQgNdFgD+8jBUS4ANe2im/GnwHewY4iXsmErBznBOH3BSwT+nvoAX3Y8EKDR4YMPk043/u0k+JAuxtBVhJq9KGgLWIZiMvy/h5VIXdyNVns5GY3Eb66xslwFeVaMZ98mOv3GgyUaIXrXaffNuDnrIbfYhdb6/w4+WFUT7103Ph694Ta5fBuXnu2o9znND7sgfrcX7g7PjdZef0wtmAFZ72YlR6cJ/uRBgEGDThI3xxPdSxQgL8BQN0ObI9SGFQgZMZ374TSSRBh6wC7FkotM+/kfCrlPi6Ah7cEfY7pEArzUVCe43az1PFNgopVvNVK4qvkpWVhGwpo8eiB6kl5PfyFjf4JHa+q0Tz7JP7vfLP6W/uk4tErvTuYwf5+ja/eIWVBQexMha2P62nf2nr2DS/eMQuDxYeqmleLsy9Coflm/OlzjwN3h4LhgL8DqbPgf7w6wj1EeADDuyXCHDWA03nf3n8VcjSXs8FYNb/24vBagQ0p8BUCbbZb8cN0A8PdFBGb5WhW1v6jcyvHMdk31ylktmspNNneh/I2wa3ycnz/XmWP/Aivdnv17KLuDP3V3f52ObPus0HCy5aWnbgHue6ZIADz3HReeOkgOP818s+0cVoU6sPAvxRdrU2vfGrCiP3lK9RbOu4bhL/syr+CgU4jPBewn6VGWDRA6xlYAkvNJOAS7qQnlXAfQ+wMXorgqqs4V/N2qxovXozsDpjrGY9a7qyTn4vb9uqARbb5P3nCeRjF/H5TcR1cU6/3wRhSznrNh/b/uzaipVt5rpk/ObcxkM081kBx/mHL0bbWX1YoFexemupnK1OAX73Edpt6zLchNEULOcIGU5HfYeGYHMG2Id03pcmQDvDB01jsGgIlhWF1bESJD4GHGhBkT6GqxqaJT01/MritqLd9yvt0rG1KofvXmedAW+IAGvb5EljsM7NO3vlz0pF7+/zIXVN/roI9p2/X9zTKs4KnBuzXS9XdDr8qUcXF6OVULhNKsAzeKA/u47VKcC7Py3IL/8k1nPe7AjwwHPDQIrD6AywVyeBRQlSogOT6GfHFWBXIPx6mn5FFWBR+au1D7Gh27ycG62y3tjqE77ZpCyuEcch9mp4S/99s5Hj1NrKrmk39zmpaKJ9PmRg9cCYZ8OZ7Du3TaKMdXl/VY7Wbf/q3AAFnpX99uMkyy908/NXnkXnIr/Di7j1c2AowG9heg/0Z9fxqwYZe8LDe2sv6xx9MMgvGQG+vhOKS0eBCyqQ/FMBJgPAZgLW0wJN64B9GRHuRBLWEIKlDPKancBRCMBRrUhS2ouo3mxoyqqcTNiu/JQKwGETm+ezTfCmufAcJ9pXfIQCnyfc50PqEi+7zLnh3LYBPb+db95/6KZ9mPDy0DI8bGkpcj/5JM1Mq94scDH6Oe0r58BQgNexfCtpAq7NAr3DqzqvIY2BNgRgpgLzkeBXkGZBe4sBeyIF8xRoiwKnvucxBVipQBIpVTrF1QOb6Qgxs0Ibcc6aDzoz7Kv+qI31b8rym63jJH/hNOX+YXGKNvE+HxS43+Y/qp9/sO2cZTufXZLmzVuf4UHCqfE4LU6znw6LceDjfr42gTVf5zd7MQIB/ijDWpt6WpkCfAD/fZkAmwlYafIzGQlO7dBy8jdw/3OfA50qwIwFKyQ4CX9OfdEFIViMC6cp0NSDnCrAvH1XTbnS6a/UjLmeLKOvRPRWfIX59j+omwCPSw1vX3gm3yqf9stdDLHPr2HDuTkOXKQgvqHKTfmKFk6ND50Wy9gizvu52gSWfLFoelNKvXYHEOCPUqy1LWRdCvDxvZcndv/ZOxPFRnEgiMYOWGgnGJn//9j1jY4WCJ3dQmQ3x2Q3E2OE+6mqqw/48va7OQRY/qg2AeuBWBuDgNXYZ2AKkhEC/U1/dgh+NpzP82KAvn8QN3hWEeBZXkloBjp/jXgsQE8GBiDJoAwS7xb7vt4qvmKdki5Z6N8x0C2Tk9X5RzdC56ffT9l5gPPOHf2z3gCc9Mk7ciJ07mWRIXuMD0nGTpOm38qD3y4NgHGcv5oAGEsIVtjuxOmIZd/vov/ac6C1acAS74otD/Qy/kiaBjzJ84At7b+S4KsFYq0NBJ6BP/lYoK2WYygK+roxshe2NOuzfiHVWfc6u7IulIL1W+kl69xlFrj9n0op4hnOUNJopuPW+Vn6fvHlqOFa1v4AnBzSjorAvASIJcaw7w4i1ibgQvRbswzcFGAUyIjFd1uVBTrs2j4d8oq2zUFSRWBJ+N0YBCyAEGjZDD05xWBJTcAfQdhNBZZdz4sArFugbyDmmr2/9s5dy7Akg4ftfcc3ZQqTM/PWPwVpT5U8hPw1fcLqIfH2eRLvc6vzE6rqh3dC701O8mIS3md4hg7ojygIYukYWLpYcAIw78vfjBoANwBWj+hNwEWFx6os0Od2Qe+/ycryr0UDlphXKPnPizBszv81v4bwFzBAKyA8ST5oOQZrtFCvIQXPZgiWJYJ5fU7vbS0RC5CBjcm/y1+pwa1twpGLDbo6AOb7oi69ATg5QabUUFkWSjtenc+KV5yVEha7L7e9p7bD+/QdbHOIld4VGpJEYskPakB41jsUN6O+tkGLDYADj7qagGtSgC/teva4H4z2MUhAErQ0AdhwP0OJWJZWYNUEDSvAGgOrvujtUcBfIp7lMUgGZ4ImaIhh1wb6GslXOjl/MRfg2Y2Yq1VluKpXJ77fZee5c5+FIFOFYbFc5ejBfNAcR8VZHQJzvxO7+9aWMye3a8siN4dFvhmpXgF0MdDFnSjVJkI0AMZyAmsC4Av5J+aol/OPhX+FGYAlDPgVuvgr1rFXagP+qMCg/KtjsJsGPKmir4y/sgX6er0CgVa2rGdjCDAQf6UJx+aMpBtEvS625623ahRgzyrZC4BzEWQSoYhlrIwOVOcjEX9rQ2Duj087r70c5ucMu1vonkA8m0IxGdh4WKj2+liH62ZUVVdGA2AkzIiiCZhVpACf29Xsc3xHAEMWaCn7Sm4H1t/bwHdSvdCTNAkYkn4hAl4mAe9qA5bk4Nc7fd4QnG9lyXpWe3vNvmFFNzabhbV0aQviOuKx8r0aCIXxzvsF3wOAMxJkfAmVZRYGDmL2TN9SfUAE5mHaYYd5XRxjZWADsVgMDMiriJ5NZFtxtRmhWwp0UdCqFIARXAyXdjF7Hb8K+VqM0Br+ClUNtqZgGU3BX813XMnBUrOvtNjntRzoWZr9q8xBUhVgw54MsS04uVeGUEMsvl03/czeWi/wkx/vBPUqjO3s+Q32SWaulOOGq+Qv8w8hAiOyG9biPQzY0/JAElbiCay+QYBhXBYPBmaBLznQlYnmNocRf6va8GkKcFHSQpaCVY8CHPKsnM4/xz06qwcaImABK8Aq9wrLMCR5LJLcCzwZHyT6VYYf+RzfHuAb0KELOJdvQHLVknulzUm6mm3EAex73WmVJj0FKRR+PeqWAkJRvGeoUEFau9kTK/5SrTofyzpGEe/+0Es9gV1bFuQY2OZKQPJcYsXfihC4AXDwGWwAjO9iCHogB9Z/7/dcISzqr1gafOUvdPFX2IzQcBC0pgDbBiHJJLx8GOUG4HHd9zx/BiE93wm7tVmb/2ukXoEC8A3q93VJbr7un/tr/VFkW4BZF8ddt69uKWF0jcWPjJcqjaomYMwVJ72qk0fY09orsPJy7vV6VwbmXaHHxfGA4N0UvDaICwUAI2zEqKopowFwnKOiFKxaFODGv/6nbl0Bfn931BOxRtD/PNq03wlQgNcJeJJTn80O4NEtClqeA2wEXIGisFUS1hVhy2jeq2Ws0X4PtP1LwlOQWCyFaHfrVqFKOY5VsmCZjy8i9TD4S6fqjLus3S+6sj7dSgmYwLL4UDBzfAa27EblAZjxHv8pr0AEbgAcfJwbACO7GFjAU3I6Nv/+sF8pAEuDYUn1BSYhCXUGsCwDCwsDT6b/eVyszyvjkBbitZuhZxV9Z1kG/oxBulrzr8zpwBr53lZ7gp1E3XXkhWcB2/5PggD8iruKWVy5vyCzYkVdhKqhcEVaabsjjTof/9mPv6z/uU5m5UN7bg6m/hoU3Hcdvx8wCjN2/5bD5VkcgLuexPmm74NuIVjhp7CeFKw6FODGvyHHr8MYpIWFhTr/V+wYAQymQFu5d1R03wWEd2nAXx6e4TFGEBQDKrGOxU5yrmsDsLswbHyfzqsR412KSFHX+05RoSi0Si6fRlNlnd9TqfMHvELjS/dNcSIHGk9hdSuDUcJfiYMfJHxn4TsNL8fjTxwvzq7wSe/JnGnqne9NAW4AXJkCHMS/7OfoRyfrv+O6G1oi3eUrseV/lq3PciA0HAKtqb+yI3pybwKWBwHP01cBvukx0JAPWtODzf/q5hJndQuNxIJisNRvUai+nuibpkh2NucWLurCqmQMFWl1YdCsJ1Xfc4TLOhn7OgIwDlSri4Bp4m+Eo+j9jZO6GREXgRsAhx+xm4BPTQEuxL/nxr8/fGMMkpp/ZSjAiwYsRgcdeJLt0PI4YHg28DL9yHEM8GxORXq+EzdA+7XJvjAfS+Drhrpw8BWo/PphMuarl7HUNbIrAJevLwKqZCTFUV0ETK/OR9MJ/FzViZf1s8ymQg01EfBR8bfoHGA6VpQqXguaBTr8iN4EXOzVLRIAl/QRN/4NBmCxGgKtoq+Q9V835/OTeMUEjUBabNEWG7SqAMvCMITDM/Dp/J0DDLCvGQJtZjur6LvlUd4/49eRfqE/xAsYzxI5+Qu7CwCjgB3fKhmRUFkRAVOs8zHoLsk3tNwBmHV4eKCWIoKWEFkJAFPU3AfK4W9NAUYIwBfqV0O5BRGwodPaf1/XwDMFy6oBKzysCL0j/LWKxBPoiTaF3wkUf8ev1xlC3nFdBn5PQXr9C04BNjt9TR+0rVt3hXt3+ZttEVgOPwRnBhbrsm1p99u/DcdRX/gRMKbiqBqli2idX1p3ybist5c2Kmqog4DZceXfcjc3qiedsA26AXAE6GoAjAWAG/+GH79r9Ct7oIWahKVZoy3TgLVRSJOqAEt/ptOv9Inc8juuJkGbEvAbgcUNsDVbkrDs03r9uns3/dHbM4NB6MYoymV9SSfjk/QqsZCRWh0ETM5wiEN3yR7T09PwRVSzMmI8v8M/smuLFboZkd0xIGsIahZohABcLAWLOgA3+3MUAJYVYJCCzSnApui755hUFXglCnqUI6BHZRjSlgv62wT8ngNsMi7Y6etpUXZG191WaPA7SEOg8+5o96h+m43fdef9Bp84UEGdT1vmKqe75PdRdOhNHTVpwCFbCs/85UfoMn9OHHqlLw+01tlQZFGRtpxTtUE3BRjROawFgAtlKV/8+fd0/mnHBxPePcAuk5DURGjYFr18qadAG8wLKcD2KcCjywAkeSDwvDihtR5gw+p83ZxKBCCpg5QLoKxnp7BJxfiAJHNnXk+pwNhXMXCEFST5Op+6y7OU7lLgvHVY7jFHWBneN5vhMYQXeuyMpxgOXc5K1PbiarFBNwU4wlFNDDRpBfjs/8ufm/1ZevlzS4HWk6+MScBiQxee1M/lJGiwCRiaCaxowOvB0LNihBZg5NWCpbdrjDcNb3fKxHvDoNG9AvVoqmSMBcaOKgupONCTrvPjOWeH91v+o0QadBHHcddWRj4U84VfvvEK9BgTTQKC828scfo3I5o26KYAx0CvBsDFAThkJ6fZn5Xjpf+upl8JpdNXo2ElDlqsgq+EuosSDM0/UrDXHPs7usxB+iRA23qAd03g3UeygU3CTj/wF9tV3CGqWzAWyq4FA15xoCd8lwvX1IeX25M/zZ787fjss+Sdl9RdiqwkTkzDpxuS7nenHGDl1wLB2AE4+6LqItyMns7zsjcjgnV0U4BjnMTYAFzqQiILwJdzS7+KdrxSsEax3gGsvHNpAd5A4Y/wa1F+tQysjxvaaSDwbEZhCXD0r82MbPl6T3Mv7JfeToR252ZsIdAMUaMgzkLZrUrG3BtGts4PnZtjNXvef/SjyH8MCMqju+Qu1jkeJGFtZaDYF7ovhn39HB3ydtfM9Wvoddy/bkag9/wzp7sRcFOAyQDwH3EAzg3w7Nzk37gAbJ2ENMoqsPhirTEqWNZ+hcG802jMP4LVX7UH2PBAqxrwuKEEz9Inag9wPLtzpExojzeBreTq0BSdWBHSBV6Q94YRDcIKuiIeZk+HFw2eSevK+xSwAQ2ScMwrg2hEnMfdZvBwITCO+baWOQMr5Doe3G5Gzy259Gf8P3rN700BjvGiUMscJJIK8CUIf5v8a74Ibo3/legX6AIGRd81+Xf6eqHlf2AFWJ4B7Kb/QjnQ7xCsG9ju69ywuz3YaD8HBxAxNgBGk5SDt9barhewR4PSjPsJuCIeBeeuQj953Zm3965Q5hSLruG3lRFHivQ14SNG4KydHQHXseNOXNabEbV9n6YAxzhODYALKcAsCH9Plyb/Ai9N4ut+tqCwRL9ADvQ6FJvTj4xUaCsByxgsg6/TMGA5DHoWbtALuqB9teGtKcKBCjC2lx4ktkPUCNmTln+zF4vlynw/r+e77kxdduYk4EKriVHbGaK4MjzOaUgPOtq7G8d9zgOU98cA77QnnRoBNwU4xhE7BavUUB5iCnAY/f6dmvsZPq32IUj6GCSxMvRIOA8BniAFWPJGK/CrjUTSmHd0CcKapkmswe+aSLsFqm7BzylM0NguZhwKMHKE7CjLv9npK07J6T3kpfMt7lI7PjOyFhI5lQ9tZZRfGKHmA5wInFO7976Oe+8A+MQMTIyAGwA3AI4PwBkuBnYJo9/mfrYfRvwVyMHCngO9tAaPUqOw1f1szALemID0Rt1R037HFfadFwP0MwdauLiNt77laVmO1fWLOwOrgFbURRT7chVbK+UCjcmQ1Lb8fUvOIWzkUNqyM9s4JIaCSbDbn0kS8P7bTYQIcowI3GM+51HOfFIvNK1xSA2Ao5zFBsAZ5zixJ/wG/qoNf+3Hr1gxQCsjkMwU6NHifxbwFKTPBGDFEK2mYIHDkMZJysRymIakEfG8YwCRx8DfWxBc+72hA+D8RSqPtr+OoNpi/T8aBy2rp2fJOURAzJQycK78VRQATGVpUGoD9jincXZd8NlcOsTn/IO/oac+aV8GJQJmfw2A8QFwqUHA0TrCE5mLH+gbzr6t+XerSFTgd2MYsNkDPIJcrOvAk5oGPY2q6Xlc6QEeDQVYEoDHbQP0KwXaxqOG09k2uyi8CzjiGz4FOL8EzClKqF1cobIJXQlKziESXybUu3IRcJnLcqC5NPqKF0Y0oQ+bCJxt28IT/WOd+IT7cYReES4NgDFtIxQeBBwNgP9O5zuqXtiF3Y/g7ao7+D7J93yOFNLV1N/1W6PYyoHWBiHZJgG7RmFN5scJFIEX4B0n0Pg8bo1Bml82aGEmURU1MIdPYcL3opN9YgonKaFyyvKv9RHgvLH5ndY+3gNkyUag9nmehb44SRLaGiKzMjz4lxdflsR3Lfyu4yHiTlc6BKYzELgpwLjAsRYAfj6K93F+vL2Oy3Kw15v1uLDnf/b4v54/JZ6/vKm/W5fBrxwDbRsFrEY+qz3AYlQ+EdYRSFIX8Id11U9N9fdje9byoNdSoGfjowgk2dV8q8AeYb83hLVWbozjJHUiQHGgVOP/yz43M3fJGXlrKVXVmUe54oWhhEj7Ly0T9P6tyrgPDNV+X6YXUr/rOHLiQjL1nYz3oSnADYDTPQ7bw3uw8ZeP/6TPlT/5S/HbNPx1OH6VHGibBqwFYaktwMJxDJLcBjwt/1o0YPmD3ATs0Pz7Qd+nBDzH0l01d3QZ+ff5DuVlndfd1hX7m+Maxjpa/EvF8ubHv/GV1VRVZxbZpQyr9DStEURWxv6FEf1Sw7OtkQndvB7wED/sLlUvMBUXdFOAoxyxY6ALnc1MAFzsOLXoK7e7s1jt/pXafkdNCjZCoGU3tLAwsBJ9BQ9BkiFYe6/5n91Y2NIDbLqiQc0Xk/n59vwXYQvwu9jvhwK1C2ULMbUan4rQ5YWdQ5J85UTewyy1exF3Qk/TGkFjZbDy/IvomUXcSZAmcD+RAZ0IATcFGCMAnxoApzja3F/Xe+JbAf5AMEC/8vgjdfqvUGBXWHTfCZgFvKi/4CAk1fks+Z4XELaOAf6fvXNRbxyFofC2gdp8u8Qk7/+wm7u52yECJCJP09u0M7YDRD9HOno+7rXA52cf4EQj4HRfYBTlwI+3x+OuAB+wjqVrD9RWwY34LJqa51leDyGEFNdPLt+YW0fJ5GJ8ItGOwBNyVos6hyVgSTQ1gkIu6PsbblVSDZCsexLnLa+a4VHn1tOof2cFmBXgbwHg33/42HksWzZYxsl/NsZrgGT2OmC5VcB++W8AwTruA+0YYOl8E6Q7BpsPPK66a77W24uDMb/cTKqVDnzLVy1IMb2SrxBqutrtWed9OXN1geHqJy8+5LT+B/atxbLS0YpJxXXyoJtsRHRAlZnu3MDOAQX+V5VafMzf8nQV8W/N9rpTjVc4Gg3iWQHGdRsZgCsmQLMAvPc4+PJvCL2WwZXlheW0PzLbXtDLqv/a6m9cAg5coJ2C4HdaAZ8hqn8jpcAtsp1tAn4pwCfkrzatGPgq4c7v/soNfbMnX/vs1UfSgKNhP1Tsu3zdLKbELnRhCzlricBNloH2SfpX5iJYGjDkzKgGNhgIuMUOUtEGUmWcrLEYkSiMYQWYAfhbAPhaAswMvBOAHRNo94/X+dcxwbK8n41XDWypwktgBm2V/y4brZD0mvms7crfjBnW2X1E+gDvc3veROEG3BtVgI9H/AO7ZS70G/Cr1LT39OtB8CO8KdfWbtx7uZbL1dxE7JuRvnoK2A1uO+oNmDLJpfolVRCBG8kuzRvXSCUolgbgLw+QiGZ6fwJuwWxl/DthXCIHIGBWgGFu488Q2bqjm2Bd7yxD8J5FOl796/Y/cp2gnQ7Be8TfaEXw4rOw5wG9OEnQESOsfS5YZ+PybcC5SQ7Op0PD5zr7zGt9aX/vQGRcYQpjZ6mmt9aCqd7pz+JKq6Wlyxf0zVzJdGX32vo7ZqELKf9WSSZuRMBT65lMFX+RS8DvZ5XX5PnuBIx1zrcweK8woQm0A2YFGCU5MgBX1IF/fv/YDHpjINz1X7sdcBKDjV/8uz/32YPgJdkIKRCALSMsVwfeVQX8MsE6FfLs612sIRFsre/RFXwfTGyJwrcPgszIUhJFLHuBxqJX52oycFm+8i1/e9d9n4SQxGPHdipXje5HjXSXdrKLkDSo9Gltt5rbyaapKIhnxvtdnevifGcnrAavomj5t0paB34LOFaAYQ4GYGJC8B8LwbnjsN0FySXgQAFO20BnqoCjjZBc+rWU4MWzh86w7/n17tUGacva+f1SYCgF2Kv1dUt+bdBef0AQGluqe+R81X4/iBOwxP1X5fdd2a7auaONdYogs5l2Aa+7NJRdMFY1eOQrxK0qwNsMamRuh50C3qex2tsrXQlYYrzjVy5vNKMrEDD6uIQVYAbgbwTguxDMDJyMy4x5VfymEThSBexYYIUFwCYpA2u//terAY77QK+9kDIp0OdQAgZUaUETno+naJ3v0UXfOwxbv2NojeSuMnCp9msj1YwhuC+B+Ip3HqvQJXFDJHzIL9tOZZzFubeS+I0Kh1ttQAOCxzozCjKOVfXhNDT/FuV4N4RI+LmMnYBZAYY5fhmA6SEwFwSnw7J7BvRGIfBL6/V9oPe2QIoYQW8pwE4/YKcGWG+aP68sbHLybcYGq1ZLJLe0N3B69suA/dToA70B1ilunkFyW5XsHd6XX8VU6c4jFbqK6n9bvirAj6XWQadClgt9q4l/YyX61vp4ifFKBPNvx9ED/tqAvRkSK8AoAfiHAbhdLjTjbmQkBNibqP81LvJan6xeWVHmjRcBa+0RsO+CZflgrQKw9/kGCl9rgANXq0KghVR+Q5urgIwjPtC3XzlQHGIdEFiCZZOpnhK2+vAqqlQD4wx10PNvaY9iVM/EhIaB51m8PzsqMzBSCBAoJ0anbldzi/pfiZ1/K9x+5FbQrAAzAH81AHNzpPhxcKyvMg5YgQK8KsFa7zfDWhw5OKEAa0/3dUB4W/61jvdKe+EV4KC8N60AH30wjijCguQYa4zAn4MjgkDt3zfrfpPA8h1ClyDBK2KAoFMh8MR6T/r1Tr/i2aOUgAuSjZu8zHTZWmzheTchL8ao9LqG2wiLFWCUAMwp0K0ZmJHXB+Cn+3NMAzY+/Fo1wCa0g7Zqgk0agpe1CVKMgD361U7ms5MbnbXC2tUHuK4CfMqKuqHG64FxqAAbRXWYCdkQf+lHaoAMDx/wI9zrp8G/8ATcJejsLQN/ujVUby3CqIIVpONKmpNhj/zb4gkiwb/wBDyj3p1nBRjZfXwQWZ8V81sBmGXgMLqPNz9KNUEyYR600QkSjnhgLVZD4EgH4KAM2O4JvPZD2tkEeLmnQAcybn0FOGjs6zFv7N0uBZju2J3aIPBcY4u/tQg8CwV656FxBV2ko8hcBXTQ32lHrJ8jFsgEr1baj5ABJN5BJQkOnXE24+AJGHN0wgDMAMwAzDJwOBR8/o1CsPWZ54Dl9kLadsGya4OtbsCpXsC2zBvTfXU6Dfr8SIEGsbF6U/GN6rdrc19fBt6rAB9Ij7T6QXOtEKcpAYPLFOB50NgiHTXTYRUxyFMxdfGHg9oaqnX2M7pVt2C8NUsrmGaCQ6fKBO+zjwX9soY5CZpToBmAGYAZgcPjWQScqAS2XKBDwyuXe00Wei0JeNFOHyT7XdAL2DXD0iv36m369RXgin8iUm6MgP3aYFspPib7IRE2gW6JwDV3+JspXlWy9KBvPC6hq4h/ZS9yFKMEnc0zoUFr+ytlpGCrUSlhzHbXoGCGxXan51m26rErZkrrKfAcQJwEzQowAzADMCNwBIB1JgPauNxrvGRo7fyQh8BGR/yfPRS2E6IjNcDaMXzW+cLf6AHYwWin8rvKvGkROPjOMfUL7teK+mCrKRvVTXBTdPG3GBJpbPUX6RgdDXvFOEFnUxUYen5PNWpQsYlgEvclAIyf+06WUlcKnlP022y209qMgyZgxL2QGICBVk0G4GH6InEx8C0ee+ZA51oBeypwzvU5NMBa3C8WrwvwkqoCdpRgp/WR0wspYwh91iANjDZbG4Uab0oBPj2zsR2pOGqJ5WvJl4eiv37WklKrW3A0sMKq6dECyyqYBqKkdgFioKCzlQpcJbujAr8jqw5QyKeGglyKpumCwTcOvpDw7c88y3K/8KKXt5nYmAHOgsZbBswAzADMAOzdfEbgf25FwG4ZcMQFy7fDskuAbUDOp0M7LZAcDXjRuQpgbWU8a7/6V8fJd2cbpE8k31SO8ynzV7H859PplMmYtkuCjyOM1yrCSwt7z9pZ0JWvAfS+I8p1K7osSe+UkdadtqkFrpTdUcHLC9UeZQmPtR1OEvyGT9MVhC8ofH03Ne70LektprDTF20ZMAMwSnRkAGYE7n0cjMkZYaVdoI3v/Gz0phvWYsvA4ZsrAzsQvFYE73WBvlLw6QSv+OZpNazyjeVHO1LxMcvT6/97GGPAwUedbew9FcUYvw534TH7KXpSegsVsATceTeivrkdpdp+VAQg0Y+mz32wMN1wgptxwBow2iRoBmCggwGYa4HHOsSLf9P9kJwsaLved/WCNhvWz64HtM++Ue3XKwLWi5v5nE2BPtdQgGMi7jFt9pzlWcf1eZcCfBSDjDjgbGLZ6r5UbFzZ5Brgon00cU5ZAN397GFll96XUxeB62ZGjOyQPhE4/4/XVETG2yQ344C9uLEmQTMAowTg/xiA+9cCf/mIVi8FeIcTlpsOnen9m/WEXgIUTnQCdlshabsTcLIR0tn6DKIGOJLYnFB090rE7/30+tdqmCEH+Zor2q2hgmSMX+O+I9mLKZMvJNHzxssAFfOga2dGQPeCQbRISwpzYx5kKSpdXQXR8yaWBM0AjBKAWQFmFbh7MHYwlgIcc8JyeiH5aq9TA2zi8Lt43s9B/yOdMsKy64C11w94Tx70RwDssG6iT1FcAd4Hv8c8/Fqu0fdPx8nXhyPJtlpknTi/nQsomFQ3Ex5HGEQK2KBTjHZB1tYQtW0tPACgSPC7GOaGS6pnDzoBkCZBMwCjBGBWgHEg8FeXAh+CGmD7C98MK1CD7XxoF35NrhD49c7KgY5VAVsVwI4pdK4U+NkF+KoAf0C/Sa12U9Tdp/1uIPD6f96/Pgw05qBIUjR2OakQ5s/EbFcRCV1UNRdoYMSA9JMkuzUECwAT5TW2/dl/vKTOhG83knVUjLkDxACMHoBZAcbihvXFQ1q5TZA8/dfq8xvphKR98VfvcsGykTfpA+3LvxYJ2/Cb0YEL2iD59Bl27P3AAyteKrzTNNqIkcYcSPw/C5rn3Uf+BY11MAzGstgZCaEMF3TCE3Cz6Q1aw4xlmVZETv7TiYBEclSUaRF06qKMUxiAGYAZgHOlwN8rAk/LPf95hd909a+JCMIx/DVRwVcvxkbeRC/gkIQXuxWwdhg4qwG/owBHevoWSbeZHOhox+Djtk78+GE10qCT9NgRnlt6IDzQBcxkxxCW+AxyJOGAAGg/qXYXBUnAkvIK22EcTZ/ecBRjv3AzTlEeLJR8sBiAgY5fBmAWgQc7Dpb4G7Bu4P9sdKwIWAcVwiad+ezgr9UaKVEBfPuuVfar88Lv+X0FeEdhr1eXm25d9OrsG6/nDZKc9/plHYbaolEE2RE+ypcdAiAg8OofugnSfAI7klBcFbCbzkRqOcKWkqvInPun80DQncxoxNJpxBwIBuAKByvA7Ac92iHS/Y9sx+fE3+uXTdY+K+i19Ne1wop4Qee6IQWp0DEO1nuNro6nXSJvrCI4SrpR7XcvZcffDkONuc9LvxTREx8E4QXREaTGmQIj1xK2nhuAp45jo5KOJZMaYPOnbPgg0kpBN68QbtUzAAMdrACzGdZox6Q9G+g4DscFYOcbZk8JcOSxuNnQYQq0tvKfYxQc14DPesPf2VV0g3Lf4ylTxZsk58hPvt0cKfwvj2KsQfchhvWLHcBCZUka4WeaAwiTRQug7IgklibcaBpOjxd0x5bil4KWSyqml3TIigyEPlgMwAzA1mhgAI4/HT/fScB2+nOsDVIgAfsacJD6bOJdkEIU9sTgaC9gqxWw2w1psw+STnT1dT9GCDUm2UZ1Xl8HjvQKPmVaKO33ij4NNjQFsQAZPFTuFyWoEYhL/Es+5gQNOsVIF9Rjesuhwn9JaE4L8gAsCW9aPRkesCIDYSskBmAGYGuwMwBzJbB1rJ2A03nQnhG08W2gTT7/eQlLgRfHBStjgxVPhrYwNyUCn/Upyr+nRPveU8Tx2S38tVOh3YzoYxaXo1nUe/sE3z8ZbMwpsuE+jHDXM/oR9ImrUHPBZdACGnRO5Cd13wAaLCMdRZ9pSuj+6Z1XRIc9LqFUDWgExwCMHYA7rTg/sLrpz8/v8/j7+3Mel+/8rsfP6/gPK4N/Yxq0eqU/Z3OgvcJfi43jydG5/Gc3+Tk0g3a7AK/Oz44b1qYKrB2jq0j6chJbfTHX/fn7h2NMS46rzJG2Rju13+evHAYbcxPdGJM+P0ryACwpnnTVoBPFpcFcj6L9ZCDQv2jVB0jaI790Mw6ZTgqZj4JOAmYARgnAv51GAxx9Xih3mqZ/1oB08h6v79+O+4fLr/zd6fiOxCwCd17BH9BrsvRrNQE2btWv7/ts9FZNsJsA7SvAofxr9wXO1/96APyUamNImtB6N1v4OsibUoDdf/0UIeTtdsI2BKvRBt1MNuSB0Ir6ltAq6rv8iuJdrxt0opCAJWWUH6dHNjGDOEH7fkuCC2i1yYv02hiAGYCt9fEHCyxOVzK+szAaDv5CAj7YJcAJ9nWrgVcINloHRLzjWJsfWcpwPgd67YC0pQGf74+bCZbb6TdsRRQv3D3m7a/Wf8YRdiM/FSk+3iX/+lL1cIkJM91YX5CPEARx4JqpokmFvRRMFydIk7wcJfovNCVWNGdB5/tdmjmAbksb0pQP28VNDMAMwOAADFnC/OBgFHrw16VBCzsDOiEDe28r95q44pv0wVqCbsCxVkheI2BXBt5TBbyhAKerfbNE6qm9XvHwMVH3G6Y17y4AfvzeYbgxN9ONMAGwRZC/gp4xTiln4VvXAZOgMUjAgjTIAz0Z/Z8I+VU7DzPFm40vGwU0HwWbBMwKMAOwNRp+0A6GOwf3puBvc4NWzwToZA60bf28vtm0a4JMaO+LxUbh5Um/Th2w0wrYT4K2JeB9PtBnczqFCnA2vTnJwfHqXldDPvnO0rEK4P/ZOxvtVnEdCjeNKXi1GGfe/2Hv6W0TLFk2NHawJMzMOtOTdlb5MeDPW9o76ZWVFJn1pQAXAnBzrctIB+Aaq/3tDuFZfGcYz1Fz0mlUHI14d7j28pc4UyYrGICt3Ls1eq5WLIJmJgF3AO4AHAz0C3NM/IfB7++XXgZ92IC4JjOQQO4RWQ3tQxr2ewqhAQQDI+iwBxj8sWAX6LATeE5FAdMK8CaA7v2xWPaNsoVROzDR5pvo/kW/Vl0LcAEAt1dYygXU5tOfQfAi/6Bnzllz0slAArayMb7SxehNqcc+T5u+HCexNytx+9arR2G22NhLoDsAVwfgr5few99acDsp+GQEfP31gY4KoYMq56j/1+PUI5/JQUKl0MD9mUoDBgrw/JCAw0zgTResbQU4Y0C158fyrb+ovzjOYiK7gmkraX0lCZPkd6sRPz+ogCqtxqTVNOes2XlnFBxM24tkNVyHUV6H/CAWgI0OQKz1XmvfUE5vXQHuACwMgFcI7gT8+hf/vGGD5XH/b+iNhXg4B75RJnDaC5pOAl5jkOaoJjrSgPcowG4PGOerpVPmz440yqIqopOG02oroGUDcPFSefsOsHKxywrbc55zzjdNEnA5QA4KLsYg8yIIbOpvTu5Pa9c8S7oqmvLxKrfpANwBWCAA/+xtIwY+1VC//hZAh03ACRE4zAKGcm9ghxVaRCfAd4Ff/x+DqSAk4AMdOkDn8Hd/D/COymgqHTgnDZNycCIfeHWKzv3mDsDMXq1DZ5VW18F+qppzliViMztCK33eXEUCbry6ZeTttZW64GDEPv9fsRLB9wh7CXQH4OoAfKBVVJNi6PcTjevrpgJMOGJBBRiQ8HYH8MP1KqyFJi2gCQfoeU8K8P8BeEMB3pdJFNpeESlIG/8j5TMNuoPpHw05WV8LsHAAtuJZpVzsGmTt98T1TqgnASsorLcaLsYo8cna8v4oUx4bundNUu/U+q9l1hJwV4BZAnCjsylLAb4P4eOF4BMR8BhZYGVLoCkfaE+Dr09A8ILl4GWO5d/ABWtF4YcIHBZEp2KQdrhA/y2SKFc57TYVYCp92CXMo1eb6ZvCETcJZscKEwUG/Zoyy7jtp7Y5Z726w0mo/zAj3ciKn/tbiffHIO9B9L0Z0e+wqkfEe8GxA3Cl7aIBgD/EKcA/E4Xx49IJ+EXn9i4B+5QVNMo/irKR8hlIAe96Cn3XduDYBSuqgsY10BQC/1dJAXak5LstFseW0Lt6ionUYZUpwOIB2MhfH5dZxj2om3NWnHSKT9caxN8VzS+DSFsmI3LV5Omlq4mtqWVFV3pOD9xeAl1p6wpwKwX4l92PlYHPQ8CGSEFKc7DHTb5BELBP5yBh+ytU/ZyA3wXowPDrvBm0L1aAExZW+bhgrPISxLvRQvzA9p8fMwoHnHAAtuJn+uXcZSWdd75zzorpI60PUgEA15CARYqpRuxZb1b4YAQ//V+/GsfpILsCXGm7dABuCsD/dv5QBD4NAVvcBEyzb+SLhaqf/XYKcBgEjHOAE13AtBP0dg/wXKIAg65fOuYoG4uUlXbTgUsB+D5+dFQ44IQDcKlSNIi+BO2mzIPCOaceCdgK3/+3OgXpIttpjdxnkZU2VDivaFeTgDklIXUFmCMAXzoAP7X7B8rAl9MQ8HV1gc50APt5RuXQPh0EnDfEAuG/DwV4SccgobbfUBJOAHGJAgzDjOJuXQJeUwXOudpnnAsc/ILHRxoroJ9/zzJ5rxq5c+Ra3NVgGmeFL5u8DrpYYL4Cb7gaqxGTxEQhK/N10HDXnz7VE+cVbatlNS7cugLMEoBbEeRF9O6/HVoJfZYRb+70mw4CTpRBhwJxFISUqH9G+LsEkcDB31H777zi7qYCXNIDHGq/cRMvpdyGcq67RXJvJjj4QbtIAQ5/ncYKaPEKcCG0cJgDjfJoa1A556wnATdeHdIAwDViqRoexnBCADbC3gCcq1FqSsCMlhg7DnQArg3AXy3nFMdVQp9kyNu7A1aiCDr+d62IBszrN1RfQgUOaXhJ2mAFGUhLpP7O9RRgqP1GOjAh/4YKLuEUDV2xHEm7EfYG37Iax9sgHIBL5wlW/iEcP8GxnzrnnPUk4LaLZaUAzGKZYhB9FZ4eSW1PvZF3uo3Qm3TzJq72MOIzcekKMEsAbvW6VQDAByLwScb8lSh/Tmm/K/3OQASGvcBbXcALouBEFlLkhLV+sWR9sP6uACcIF5GriwysYgWYsrjCScKAd9MKsMoKaPkAbORPDow0XBmUAnBFCbjtO7l095Vci3aE8zy9CK4daHNzTwrA8FUrQNxAvyvAHYC1AfA3Ah/TB3yOQW8C+TdR+LzGIAXAG4jAe3qAw/rnH9QFDlh0A3BoghUqvnOegf+qAEfar4tKn5ONvQiEKeB2EH7dDcA5rQD/+4tOAH56+sDFW8PKnxyUrvUffSVGtXPOUYfqYkXje71rMQi8Ao3lDHGn+/kzPTE3tazWBcznQLsCzBGAWxksye8BXhH4CBX4Mp5haI9rCHDGCCvUfykLLKoA2pPlz5EZdBQEnDDDimKB50wM0h8U4BVcKV+rDEPHtdB0UNK6N6jmGX2Imo9VVkDLV4ALTZSN7IvQ5EoYtXPOehJwU6l7VAHAg+CLINaYaZJ2utVWo1SUgNlMXboCzAoddQDwFwMAfvs4QgW+nGJwX2PxN5GEBJuCPURfv9EHDBE4UIAX6H9Fsu8ddudt+Xf5728KcOTGvDPZyEGCDn4ZcnTGKUgAh11CAP636Rxt8gF4kA/AhdhlxJzxifvtUK3xrumRloqnPC5T+WJEO5oU6xI3CAPgghuWvamljtW4cOsKMLOFhKYA/HFRJIyOHweIwKcIQ/r2gfarFVZa/wVCMPJ89nsCgIPwo/t/NhTgNSCJCERKQvBfFWCg9u4rm3a4kxeVPOMiZ+R85SD+Rg3AWkOQ5McglVaKDfIP4ehjsJ9655w6VBerAoCtYACeOgCzh0T2JV3VGjLYFN50BZgjALc6mXoU4J/DOUAEPsO4H6HoS8cfhWZXPi6J3hMDvCABGCvAaRNo0A0cEG+qBtr9QQFGuUSo6TffNUxXScchv5iMXYKHwWc6K6AVKMBl0wQei+OTJAAeNAOw1aC66FCA3yaxqxCjWFYpUR2NqDEy8e+oqyYBc3nudgWY2XnUAMB8WmNfLwKfwgjr+tv7m8dgZAQNe4CDfKQtKXgBXy7QDhoycOSBFSDwWhM9UwC8SwEG/lRQBSaifCORN+HkTAYdRc2/RIcw5GalDejyAfhNAQAPgnilhK6s5huCz/xaCQAPYgFYrjOTlYVZVvwgzx7dpGA1DjyYOgB3AK4NwF98puavF4HPYIRlPHKBJiVg5IEVlkLT1Ou3e4CJ/t9kDlIc/5s0wdqpABNKcMrzOZOd5EJ6JWOOcL10zMUuZmilFdAaANjInxoYQaxlVM8566kuDe8PJQBcfimMuD3vAHzUGskg4GGkYTXuJeDWAbji1mpwqFOAj+gEPkEb8Aj8n+lGYI+7gUEOsA8qoT3pA71EtdBLKALPD1esmH9n5AA9p8n3zwow9m12yAOaZGVEzGQBM270vcUfki3Dj+8rrYA+PQDzmBpYQdObSfecs1rjnZF7DEwA2HYAPv6cT5LO9ijz/jzwDuD1sq6GBx2AOwAzVIC/L82rReATDP1rKv/IY99nUgBeUddvab9B8C+g4FwMEp0BHGQhzc8pwCgDmLCABjKvS8T1EuXL8Q/RPs83aAcNvq218kABAI/yAbiQWI48Bqt8zllNAh7EDicuAFy+FjGIe6q2fh6NogDYyGfCVw0klk/eXgJdZ6sKWc3CdRQqwPVXJ85YBG0fQcCr3AvE30jn9aEA7MFnyQLoJSLhBenAO0KAozro5xXgUOUl+35TYUgYWR10cqZbevFnyaBgp7oCWgMAFzUBMykOm8Ss7xvtAFyr8a6hTboSAH4TC8BTB2D2fChiHllrNY7JHd0V4A7A1QH4i9ud/OIy6BMUQWf6f6EMjD5DvLvDBQsGICEExp3A0Ad6gTFIVC7w73arowC7nOrrEO+6OM8oFnhdUgDG3zVah5r8GKSyaRATAB7EAPCgXXRRoLpoAeBB6rx/kstlkgC4ZK1qEvEsqtaQweM1N3YA5gfA78JHAz9J9MUErH/wGx/YQOdroFG/b1IBThZDQ/ydQy/ojShg1AKcFIDnbQXYUY2+SZssF9Uxu1uU4HsLYTqO9aUl4BiKf7+jtuxAgwJs5AOwkYJaRXNOGXdRrca7djXQWgDYCAXgUTCpSAo5MyLvzmNvAVbFN10B7gBcfzmE37TitW7Q+ougxw0baBCDRDYBe9gIDIl4QV8swR/LnK+ADgywcBoSkQx8L4F2eQUY1Te7dI00ZdvsoA7soirmNNemeoCxIZbaCmgVCrCVD8BWyuxGwWLDUapLQ4xUAsBW6CWwHYC576sUAJa/GgcAuItg/AC42blUqwC/moD1F0FffxTgyPc5CkMK+oGBBhxBb7YDeKMAGmUBgybgRPQvVoADHk3E/27l/eIGXwi27oZDfMlSaZf+1KWo+PsjtRXQKhTgIgC24g/hyNnNeII5Z7Ua6GZDa+wA3BQnrcRBUz74j971om59Ia90Batx9ZHn9AB86QDMWgGuvUZxOgnYbicBR9XQsQK8pwE4NICOPLAA+uIkpAWlAacroV2o7JJ1zS4ZiASJ1kWaL5HnC7TbPPWmu4Ch6Kx3wGkA4KJJgpV/CAeSZRGSSFlGqqW6tDteJQBcPvvvAPzXrSDByYrZVTF+BApW48Ktl0DzWkdoy4+KFeC315pBX9SP8KvfCAK+C8AeNAGDb3uiHjrRBXyveKbwN2bfH+h9oG+AvGFh9PohZFeqAThT7RwhbYS/uO/3RldKJ9t8yWZjoDLrrYDuANwB+LA5pxQArqW6DFIPQA8At7m7TQdg7mw4SQFg+atxHYBZA3A7fvzQrAC/loDVj/97FPCmGTSyhEZuV34m0oFTOUiP/8ZBSNADC2UggS+p7YGsFOw61HProA8zrQG78G+IomPTLCr9KKsB44/1VkCr6AHW4Ew8yACW4QyiSy3VpV3PsxIALr8Q8gC49bvGiBnuo4L4uxOsxr2E3M4NwFVdht+ljwa2BcEfvQj6+bERGkATEAypd4VfIBD7zbrnyP0ZtwEvFAQDFyxEvwQJz0H5M3Z8djeUARw7OqMm37QEHMu+6czf27YPdIDlikebBgW4A7CMOacYAK5lvdrsgDsAN70CQwfgAzarYojrX417BbmdHIC/OgDzV4BfSsBnkYA3/glRl+gB3tUKvPhkFPCWEXTIwWkzrBnpt47UalPNvQ6kGTnC6TkCWyI2iax6zicBr5viCujn5ztdAT4hANvPM4gu1VSXZjDTAbjpFTipAixpmUqKIV+1GmgW7+uuAPMDqw/po4GxGvreJeCnn+6/UcDpCKRYBMYu0AiINxyhMy5YySCkmah/jjTgOYhAAuXODpo6wzgjtwmmjmzzTQnAbqcEHOzm/QOreJypUICNfAA2IoDFnEN0qaW6NJtlawFgIxOAJVulWzGjZjgHAItfjQvJrQNwB+DqyyGMWfC9S8DPDg5Q+uzDimiyDdgj2ytP9QCHfyNykIgspKAqGtBvYIYV0W/cAwzx1GF2pe2tUDgwicZujwBMwrRLYzYurr5qXmxRoQB3AO5zTl7g1QG4A/DZAPjgPS8DQ0G2HoMeAO4KMD+sGqWPBtZi6HuXgJ/crlnq9ajy2c+gCXjOlD77dARSJP9mFOC17Hn9YE1CmrcUYIizDinAsXoLmNml6pdTH6ZzhVO5S8F3NVdAdwVYBQAf9DC000kAuJLq0qzouwNw0zHXAZj92BAEwFb4alywdQWYHVVdxAMwZwX4bXzvEvCTj715FwHHycAhBft5yw4rVIIXkIuEe4ARBOMW4LQGPBN46hJJRrnW3mSyUUIBTrb4ZnE5LsPWXAGtQwG28gFYRHet/TwJANdSXVoNLi0AbM8HwJPYU34wUxqRd+YJV+NegDwdgDsAC9FCX0bA6rOAgyjgvB/WHNU/U42/mS7gJegDXlD1M50HHHwVF0RjDp4DE+ioAtpF3bwOt/LiKGCXLGB2pCm0o52eXaoD2J1IAC6YRnQA5jPVH7kPFmGiS60a6FaH3AFYLAB/jlJPuZU0xiWtaldajWPACV0BrrLpSEE6hQJcObT5TPeAgb2/BAWHvlcoAslveT9TGLzgKOD/sXcG3G2rShCOY8myTi6I/P8/+17T2mJhQYqMBcsOJ/c2TdPUsgHrY2ZnWfWXRGCZOPw5/kJOZOUQOK/ufkdJ0YkSYJ6Q02pyAqaHvmcZFOA2LkFCU8tRDQALtx0CgOUC8Cz1KZ/lbJiCWrLJP417BwyoBuAJACypGvZdzZA+e5/mbtsDHZqhje97Nr5CHNYALyn3sxd8lSwCJs2AaQkwk4LlfDE2ANMos9luBFcFrXo3FWBLPdFh/FVeHf75jr6LzbtQgF8xic3yL+Gsi5j0iC5TGdWlFkl2A8B3fQBcmVPm1k/hipyN3CW9q893ADAA+E0AfBN/Hc3HQX1CAj40rtnsZ2J+9jF4X/dfvg/SwvVDimXg9cODXpNSgd039UDThkVc8pRHqWF3ou9UU2HLtPi1bJxWCp95+blvB3QfCrB2AD7ptXhRjxNVS18IgCu9N/cCwBMAWA4ASzm5bWqGn7Gc28lgKGaB7l39yj+L/wGA5Vig32eC7n0RzC7qgJQH4VX7dX78lZ+E5ZIhWCQBa2EJmPFB02bAXCiWpwBHwMtmPeejqajQa7cUYFLoy6VPJz8eP6BvBzQUYCjAJ91zygLgQrbDStcMAK560z8I5pRZyOMeFQGwbDvKO1BAtQJcEoBryqdaFOBy5z7qOiHl4Dcs/g0UYJeWgF2+CngxbCvghWsH7BcBm0QKtAtTrIKmvzadZ2Ujhdhyf5/+CMu1Av6O64i3FWDbeRPgj04U4A/5APwhAIBfvA8TtZIK2Q4BwBoBWHK77EHG435xZsgC4EKncfU3YIRglRifnaiIagD4XWXA3XdCcrv03zX4ykV5zy4b/+xVAS9BJHROAPZs0IECbDgPtItqfRnPcz68KgBXy6dmZf+qZVO0LOkBzPz7nTug+1CAAcAA4MYYsq6ftRcAfvlVuAvbVOs/+YOMqf4iAI+i9qJCkXz13+qgAAOANQLwm3ohdR+DdY3gN3Y/OxN3Q6JAnJB/F64EmCRAsyLwisCGFAE/TNBxCrSLrc9B01+bqcG1TAckxjLNK8Dcv2iDfsP5EOi58zkGBRgADNGlPO3XvdEGAAsG4Lo70iBjI52/FAHwRy8pWKgBLjE6ycBSUwP88a4y4O490MNfCTjTBdj/cCaWgPmvbkjBBH83EqB9KTjRCNiG8VY2bPrLtevNFQHvUHqTZcfc99sENf//l9430z4U4FHyXUEB4DrltZi/NAHwAADu4BhCIAB/yQTgk/PeBlUAPHYCwFCAWwPgSf5sEIGBN3igj8yQJdMFyZkQgp2ffkVbAbt9WdALaYZkTLYD0mp7XquBg4bATwCO4dTmG/Jalol5qTcbA512WedrgTU0Af7oRQEev8RzfPsAPKgC4DK2w0oXDQVYMADXfc85+tjHSc52KQ6ARZ/G+RgAAC5ABSU1xA6OQ2TooBd4oA+MKw2CTkVhEQXYEfx1LPy6XAq0l4S1RM2Bw0ZIvhS8tgUmLBxoqsTR7Ffz2nQkVqJg+HclwBuFxRFu2+6bAH9AAQYA457zPexVc3pBAa56JbPghTLIeNQvznBhB9uiT+PKI49uAL71QlA3TQD8Hgm4dz6ZzHYvYCYHy3G6r4u/tiQ04CWdgRX7oA3f/GghFuhsyyKb/GM2Bdpmvyf+qv1FtHQwrt3vplCAAcDn3HNKA+ARAAwArsEr90niM35yBtaXKgCeipzG3avfLqMGuDGUqnqQoEoB/viEB/rAuDqXQ2Av5NlFjYCDFklpI/TChGIFpcAM+/q1v+YpAz9ZeJWBLdt2N1nZu6MEeOc37akOtrkMatu9A7oTBXiQfysEAO5mZdSfXgBgyQA8S3zGRWVgSQPgMqdx9c+soQA3RlJTB7NBCADf4IE+stF7+JvpgkQ1YZKAtbMP8OK8HGia/ZwsAA6gN8rB+jdYNrU0jnm7DXCmBjj8YWkROB0azQvA3TugO1GAhy/xHD+0DsCTMgCeAcAA4INDMJ0dnDqyMrDEAXCZ07h+AFizAlwQgOuyoyoL9Hsk4O5zoP9IwB76RhhMNWAiAwetgPdkYEVB0Jl2wEH4s+FCoM3DAk0A1sYsHGdXbai7e+qEd0jANv/z+ndAQwEe5F/COa/Fq0AoDYDL2A4BwFVv/EWGkA0CZ/1d1ryQBsBzHwCMEKwC49KLgKhLAS43+VUthOEv9aajoP0qYGKHpujr+6M9EXiJa4AXGgRN4DeSgSMF2Dy514QKMCcBfyc68oY9gO13kJpFkTnXBdgSyE78AT/6F4ChAEMBPumeUxoAl7Ed1rlqALBkAK759M93EUQ5KgNgyadx5ZFHtQI8AYCFqqCfAOADk+Sap19HYp99B7QLa4M3xN/F/72HvhvNgA2tAWZs0ERhtUz+VboIly3XTQi2lrNShxrzr4YCARgADAUYAAwABgC3NHUq3tHNDe9AAGAAMBTgbjKwtFmgix5d6DkJGtxTA04ZoOlvnW+AdntrgEMJePG4mKi/cQC08f3OxvdAm38AzMU9e0jM4OxGwHMOmbNRzzaf+kzHrGA77cMCPX+Jv4zmAXjUBsBF6u7qJK8CgEUD8CBuJz17mt+VAbDk07h3IIBiBfjWTQVpKQVYzEv3Bgm4/yLgKcq/YkRgUgNMM7Ac64jeUwWcUYCDWuCFyMFhDFbseKY25n0KcGig5tsA56OeIQCXu8O8A4ABwF0D8AwABgBXWSujuCf85Ef8siAq7my7DwBGDXBTFHXpYjbIYcB3SMD9r4QrFX+zOdC+79lRsddx7YCXqAnSYlIKcDoGy0S5V8bDYBNiL0lr3vAzEyYOMp35BOifTy3XM/i3Y9CwnapXgAf5l3DOa6FOdJlL2A7rnBMBgOteySDx1OQV0BqELU1xm9HQBQBDAX59dFMCrK4GuOhrpweAp92NgGkO9H7lN24HvBimBjgOwSK/mrUUeHVB//ncq/7NScBbbYC3455/1xl4c0watlMowD3c4ZxwES+LLuIU4AkADACucJpVdVMaRTzgl80Z4hTgMnaUbgBYrwJcUkWs/CyqU4Df0QtYwVHQNewEnA6BJmXBG/W+GQReUinQCwvBCQnYU4Bjzdev/Y2ZN5B88z2BrWd+tt/B3zw+VDigoQDP8i8BANwkRlacX90A8Czzln+SulYOrvKzJeuX9VBxCvBUBIBrowIU4JYY6tLHbLgIWsXlJeBL/1N+zkvALmwCvJqdHfFDu8gHzRb/MoXAqRhoX/UN1N/1dyZsOGR5hXb1Mu8Ibba5jr5lxqxiP1WvAMMCvfPx6QPgEQAMAK5yWjTWIpVJxiaqD4CLnMYBgAHADT2JpSrCBb16b4jBUmBUvXoE7Niq30D5pT5oPgLaJVXgp9S7VQRsgvZHhgrC/77mviMJ2HLhzmzfIq4W2DJVwq+EXWkWgDsB4EkYoEgE4C91ADwAgAHAdc5OZllTfpa2MuUB8AgAhgW6LELd+pgNkjTQCUXAR+4CNgVg6oF+JkE7Uhy8Ef28UP2XOqGXqAz4QbqEfokD2gQhWKywy0ZabdIs3zWp5LA6BOBOLNAAYABwg5dc7VYbACwcgAdRbweng9UIAIYCrHNc+tEOb/oA+A0SsIazIBIEzdJv+BHGPfvtkbbqglcSXhXgZBXwmoAVZGA9Gdgxwm7c3zdhivZDntlE6NLg+xxK9lP1CjAs0CeJLgBgALAaAB6EosooY44rBGC5dpTyyKMYgKd+HNAaFeA3xGBpWAphFXBK/XVBFrTzheCIfV2qCHhJCcCZImBPAQ7aADvap8gyPX0DS3PUNfj8YQclGyos0ADgc27A7vIWxx0ADACus1rqbEsHa5dPf7AKAXjuAYChADcEUNWfQ40KcPkYLBVL4ZqSf0P114Vu59/EQS/U/hz8l4TgkIGDJGjHCcChnGsTAnDU7Pftyq+mHkgAYAAwAPiN99kA4HoLu+qVCC0YmIU8yXeZT2/NldAXAKutAe6oBFilAlzeA33RMO1nF5QB5zoCe52RnmZoFwq/LuN+XsIQaJ5+Hx9+EpbxaoI9C3TS7RwX8trCYc6IwAIAS9ACpsZvbEYAMAAYALz3cb+KaHU80IOMKT4pBOAidhRYoAHA7bTP1dcH+OMNHuiLBq1uumbQ1w9+9rmXup9dBnrDBkgrAgdtkDg7NCkCXpawDfBi9zT3DSRg/vtOHLOWDRUKcCtnXADgfhYHAFg5AAs16Y4yWB0ADAu0zlHQQVv/Kbz9BwBGH6Sdt8c/CrDL6L9r/tXa+9cZr0Owp/+6rU5IDxN0VgGmPZAiCfjBwZZJabZsqnNMuhYCMAD4vXdErVwGFOA+AbjKrTYAuPaViMyMO7aNDpK2e7kAPHYAwFCA28Gn+i7ySaUEWrwIWEU5wHR1SQ3Ya/4bScAuhN59rZAWvxHSqgRv9AMO2NcECnDc5sgm4q5s7RisQc2OCgDu4Fb/DgBuFoChAKsE4FkirMxCHugMAEYNsMrx2ZNwqFIBLl8ErGMtDEEQdKoXEm0C7Hz8JSZotyMSa9mhAEcNgY0fBG1+ADhSdm2iBriG2Zl9JHp2VABwD7f677+I6fX7L3mLo0TyKhRglVciUqQchDxOlQrwAABWrwBPnx05oIspwLJew+IeaCVr4Zrqg+RVAIeicND/dwf5esAbhGLFjYApAft2aNIIyaaEXRt2+W1m6BGAOwHgDwBw4yQiEoAnAHDtIdZ28PJ6OX+DleKA1qkA9wDAsEA3coDQhG5460bLroD96tbCsKsC2Pk1v86XhB2Hvo7vgsQYoIOKYN4AvVAINisAE8K1SSG4DQq+Tnq2VCjAAOBdD+91BVjeqpruAGCxJ1uVr2SQN3MObUE14qpfP5gSWI9Rwo5S+2QfCnAbyNiGb1hnDXBxD7SWtXDNNULyDc/Oczs7qgLzEVhLXAacioGmGrDx9F+TSoMmrY2Cz5rTfrUJwFCAUQN8CokAgIGNR8aXXgA+HS0HKUw1A4ChAGscXTmgldYAA4CPvj25FXwzOVj+h/NVYKYZ8GYJMK0BThQBP2uAaRr047c2kn2bI95AhlYkAAOAm7mM7i3QAluLAYCFvwL1rqTA4cnZbDlKoHS9AHyXD8BQgFthpxaSk5QqwDcA8LHpcl37IKVisGhdMNP5aLsEOAiDXkw6BZr731oEbDwADm3Qj8LfJocmARgWaFigz7qfFwjABZJXkQKt9Epenzsnw+UsZlHP0p7aRnZgKMDCEeDSkwNaqwI8FW6EdNEy/Yc0/ZImwM7QzkjG/9IOIXghv4alwDEJkzSssBfSHwC2+cJfCMAA4Hr3yT0owDIs0AIPlgDAAODTd9Zac+fIAx6rvFkWAGB5p3ETFGDtAHzrSzVUCsClOwFf1ADL4rVCSsq/lHqNCfXgLRc0lX4T2VdRFvTjP7N+8oDgFXubZ9+/EViq9lQAcAcALEMBHhStDgCw+ispsGJO1SkPPd46a3qWj4J1TuOgAIsefTmg1QLwJwD44O0YyYFmVGAiA/uq76r9Oh5+lzgFes2+Cj5CE7QJ64D9LsA/ACyDfP8NVQIwALgZC/S9aT0DAAwAxpX8asUUAJYzC8jnxh8fABgKsG4ALuiAbuN6VLZBAgAfH8blHdBRJpYJWiKZPTrwYvwU6FQVME2BXgmYwrBZ3LesoUsABgBDAT6FRL5E9t6cAcAA4IqnJ2dusqOczVPqslQPwFCAX3r2OstN0qoA3wDARzd+l0Vg51f7EuezY/Vflyz/NSZwOmdbAJMkrIW1QMsZs65NFQDcwa3+HQCMO20AcGNXUqJvzXlr5kjI8IhlKetABQqw5NGZAxoADAD+7bh6/udMEHSYfeUY6nWZJOiFrwnONUR6up9N4IV2EIABwA2fjvdggZahAOvsvQkAVnslBSS786bPgTeCalHK85fG07gOABgK8CujMwd0MRCUBoClY6AVAfDsXEIE5poBJyXgTPQzweBQAM4pwF4TpIf7+WfIAmCrTACGAgwFeN+mLa6rS5H99g4ABgBXJJbzFs1dyNQutCx1AnDtHRgA3AAvtiIAa+0DXBqALzdFi+C60Qpp1X/D9kd886P/sXcuSo6yWhhtEwla/dtSU+f9n/UknY4CgjGKsDf7s6Y7mUtNByOGxdqX9bbAg53+67dAWpTCGt0c4JEjAEsTwADgGgA4x8IGAAwAxkg+W+gkaFyT6/ppOTGkBgDzvAOnKnsEAK5BGUoNgf6CAd6/IhuMWcsBtn6FDPBqL2Cn+NVsgGf7O4Sin5004DnyeeJggwxgADBhPEMV6GwAzG9yJQDgIoMGAJMYSYoY6DwEvOPuU3A6pzDA/FaNFQAwDDAFbKJy8qSGQCcuA92I6ltztVKAQ0HQi6fW325rBOxFQwfsbzQGmr0BFieAYYBhgLMt5vkBsAYAA4APgFoKAM5yo22Jgvlp07IDADNGHokArGuLgJZrgAHAB6aBWQ2B9jywjbnGbhO84Xhh71QVa+oLPEYLQtsG+O83BhnAAGDCeFZFESwAMNWVdgcAljsSnUQBZ5CVO65zxXpasszHQAi0ZACub/NArAG+AYAPEItZSwOela9xWgCbYTP4eoWgrRbAHuwuFPAr8tkhYQMBDAAmvE6uoggWDwDm13oEAAwALnJ3zTxvWl4slSK5mmE+Bv/EZxjg/UdTmwCWa4ABwEdu/uMrCDoUA23n/k70uywE7RbJCteBdqpA219jLA14Sb/34wcCGABMGM9ggAHAZwJwkU8nADCNkSQpg3X+PWrHy+y5n1YAcIk3DgBcHJro8BIMMAB4D7K8iDdWAnpwfHCgFfC7is+BPGC3E1K0ENb0beqIxAmABQpgGGAY4JMvFM6VVwHAAODS20YZLiLFbC8rBQDz242DAZYMwJfqBDAMcKK5IAyA9XW9D5LNwX7hZ7MtDnp0JfDoV4Ze0u9cCNpi399nPxDAAGDCC00UwQIAn8ZfpQisHgBWvEeSSAGfmwbcs5vJCgAMAJa16m/q84ViDbBOa4DFMcuWTsBO6Wc3B9iOf46Xg7bygMeFAvZo2C6B5Sng4QcCGABMeMUPA5wNgPkVnjnOL4rbtQQDTG3anE3An1/kxSdyJ3E37njzp+LQDwDGmUs+pkY4AMuLhriaYCckJ/vXLLKAvZTgd82Q3ErQMQO86ITkVIDmBcASBTAMMHKA863k+c0wBQBm/QYUH0nfJSJgQqe4/K0/gQHu2N2LAMCCF/2pIqAbOhHQMMCYCzvvhOt1oJ06WMZSwGbBvSbS/9dNBvbLYI3RSOhxdMKhHw8QwABgyit+GGAA8GkkCQAWP5JECvi8C6lnOI1TALDAcBQAMNcjWQQ0pRMn1gB/AYCPHVcTbwPsZv8aJwDaOFS8mgDs1MIaF12BVypBT32AnwYYAhgATHlFBAA+a51cQ96d4jlkGGAyI0mUBXzalfT56yMwi0Xuxh03wMWHDAAufeJuFQ4KACzt6JdFoI0LuMbL9DXLgGcTeDYuSNimXqcEdKwW1hwEPbACYJkCGAYYAJwPgPnl3QGA+c4KIiNR36QJWHHcxWol7sYd3krpAMBcj2QlsCqkeoYGuEkJwLcvecekgKO1sAY7KdhuELypDPTCBo9zL6RoBvDgBED/FcQaIIABwJRXmQDgXP5BJAD33K4lGGBq3HJqJSzFcg4DgHlGfQOAC5+3W42jAgCLO3QYf30LPBeCdgywXR76XSekcXAKQMcygOf0X7ceFhsAFiqAYYBrKIKVY2WTYh3Pr/AMABgAfHjr6JsuAbc897BEhqMcB+B6QE4YAF9qFMAAYADw/g+u7a2QYgbYfjRR72ulAc+dkZYO+O/pZICnL8MEgPWXzKMOANYwwNShimfeneIpXQDAlEai0hFwX/juT4Qae4m7cYcBuPybBwDe9843VbJSqhBofgSYFIBloss1GAPtdUKKtPw177SvXw56tEXwGKqDZcOvg8BMDHD7JfRQVQAwcoB5LOPlATC7awkATBLXTrnrfs6/RBZbSQCY28IRACwVgJMJYFqXPAyw0BToJB8BsQxg2wIby+9uzAEew+WgnVDoWBskG39fjwYCmPSBEGgAcD4AZrfPpHiuOQHApEbSfqcj4LbgyyITNawlhqMcHnT5uy8AeNcbX6cAhgGuMKw933FdCX+ewNd+4ucAm/cpwH4s9LieBuwlA/8+NRDAda7wAcB0ljdsAFiJmR4AYBoATGJnU6cLgk4YBs3W/36lycfg9qEPABYKwLdKUQkGGAB84Hb4J4DXKkC7ZbCCBtgEs4Dvv3erYLnFsOy838GLfrZKYT2+DAQw6UO6Ae6qMMCkrxTOeXeK5ZpTA4BpxbkmDIJOJYE/h/JW1zMvRQJw+Y+6G1b9BXGJmimFAcZe0JEF6Xr4s5MMvDEH2On/u6wF7fUCDgVBO82Q2IRAyxXAMMAA4JwArKVMj7KL7K6at0nVgfIJg6Dvg0qgYrVizYsSw1EOA3D5WQ0DXPCkNbUOjJ+++g8AnOB+eF1LAXbioX0DbMLW910FrNe3NyHQUw/gx7cfCGAAMOEVf1dFCHSOF5ikm0svZXoUHa8GAFNz2SmDoBNI4LbL/RPpnU5uu3EVxHXAAO84LpUK4GRXAz8DjC5ISVakzwDotVZIbgMkxwVvLAO99MIL+esaYNsD379+IIABwJTXBjDAOQG4lTI9ykoXADC1keguKQF/qyMByb365s2/aYw6s924o3H0BIw3DPCOO0dT656BWAOsAcBJjpgCdlv/zvWvJgp2/O8cKh2F3tEzwGH69ZogPZ8wAOCrYP5FCDQAONP6i2XYIU/pAgNMbyR9YgLej8D9x/o3ef9hGgDMbDcOACzSAFcrgOUa4KQALDh8VQ/xIOhlKPSwBF0TD3x2ne+wzAEOtQJ2o6AfjxwMcP8l+AAAA4DzUBXHsEPNc80JACY4kvY79dHtQWD9Of5SKv/8gsEkWwjMAJg/78MAFztlTb1DEw3AUotA/x7XcCFo45aAtsOfN3RAitfEep8D7Cjg3wcIYAAw5RU/coBzsQjHsMOjJNnyfNnfAGCq88dH4A/n0w77S9KUStyN6/nfemGAPz7qFcByq0DfEgKw2BpYfwTs469X/Nm4fYCNLX7fV4QeHQQerRzgKP/O+Ps0wKiABQDOcMAAM1nA8wo7PLrO7nm+bBjgU96VEwj4u1Ntv3WMulXdHsimODOTBJTz2o3r+U8FAPDHN42mXk4Sa4BTArDgFOCvRyukFfvr5APbj/FuwDEGHudewPMfuAWiF3nAzzBo6vj704q+gGCAYYA332zkhR0eTLvrmAIwDDBhaluOsdvCwH2vOvb3edG7cS3/Oy8A+NMjkQBudL1jAwDLPf5aIa33QbI7IJkhKoQXxZ69ytCj3xhppRPwXw7wQB+Ar7IFMAwwDHAmA1G0LFQhAC50c4EBpgnA+hwCftCNavs4Beu+VTt/tCL6+ShwNw4ATBzoCJ+wS82DkwzAjXB+6UMZwMtoaDvk2axVwPLtr1Xz2a5+FY1/HlwBTB+AhQtgGGAY4M2vMMlSnVXY4UEAVgyvJRhgutfTOxOs2rbXj2O6EPSDfVW398d2ZD8eBe7GHQRgCm8lAPjDo2YBLBeAL+kAWHYK8OOuGK9+5fGwXQ7rAwoOIPG4wsB2GvD9u0EFLAAw6RU/mY8G8gCcJoKT1Y5Tz3OsMMBU6xydSsBPCr5z8ONof793h35e19c6MznuxrX8xwoABiKm50AAcNbFhb7Nh76Vnoj6upb965bAsmtBhzoimVXktapgDR7/BgpB/xlg6gAsugUSABgGOCOMMAw7ZArAPQww1UK/7dkEnLK+FmHK0PJ24xT/mQAALkJKRDWhWAPcpAPgrGO/o+/l0txf/TyAprlcHiBccI02hCpBe9m/1t8tDhMu/fx8bvxq0BbvBtKAPQQeqAOweAEMA4wc4FwKgmHY4bERF5sihw1wz//+RBSAz3fAyfiX9uawvN04xf++ewEAFyBEqifrAgDmM3b9YN/oFfag4FJXWVwBuxWwXAVs7C5IIQaeoHdcxj6vNkKySJi8ARaeQQ4AhgHODcCswg5bnmtOGGC6AMyFgBXxz8YkAMxqN07xZ30Y4BKgRDVPVKoB1ukAONM8uNPv29fcNKUQ+BpLAnainW0F/GHmr1Me2o2JjhPw8+EHFbAAwBkmaAWeg/46Lk3eHadJ1/Jccx4tVwYDLJ2Au7buqcnDcqecCiTeUBjgAoBI9lxJNcAJi0Dn2NvYQr+vl1OCgXVv1vjXeNm+JlAKK54EPIY0sO2A7VDomYInCCYNwFcI4FraIPFfAjEwwGny7pSE2VF2zXl4pwIATH8enap/6YOhvN24Y1cNiYkAA/zJbaKpnA8BwAyGrgP02zyOy+/3ZTB0gZl5NaFmSHb+78IAm+F9Gegx0gZ4TQLPGPysg4UKWLV+qsIAU2H4fJF8acIOGa1dFM8151E4gAE++XalSOMvCy/aS9uNO7ZtQmOgMMD5TxbdRjk3ADD1aeDh76vk1U0/j9tUFstG4Ozvhx5jAjhggK283y0UPNhJv7b+9YpDLzD4+fCDCliVLvErAeBvAHBmAOZkXRTPNScMMMFsZud+1RLG35YHXKTR6HxAqgYAhgH+4P2u/kxJNcAXLhHQDv7e4Tda6MotkJUfgdt4K2BX/85WOF4F2quB5f3hOAzhAtB+IeiBvAFGAPQXDDCdEGgGAJxm2a4EzA7eAAwDfP5UohoGrbjERUnbjTumvGm8qzDA2c/VrfoRCgbgU0euby7U6jf/2mLg3PWw/GbATqnnoAIO/flKK2DH/o6DXQZ6pQvSSBmAf1ABCwBMaYXMAIDT5N3xiYHWTNecMMD0DV9PMgxa8flUlLYb11dwzwUAbz5utQdAiwXghEWgz5wFFv4224pb2Qzc5H1T9Fr+bygL2Edd8yYT2MkIHlc7Ic2VsEgbYARAA4BhgHMCIT/rcmi8BdecAGAGmy0EE4G5RD+L3I3rK+B8AHBmSiJ9ni7/1Q/5pwLwiQPXlz0610bgvNWwWhOJgI7UgTZDvAtwLAfYKv3sB0BPv3cSgO+/UAELAAwArgWAE4UdsrEuh9oJFewxWhEA19PROPChTSsMulO8qELYblxbwSgvLNxXRWfqJmCM3AzwjUEE9K3ZG8085w1nlcBuEPSiB5JlgK0uSKv0OzoZwHbos/3kTT/gEQIYAEwbgDX7IWRkrVaWdemZrjlhgHkUNKYUBt213LaEhe3GtRVMaBjgvJBE240KNcD0U4Dn7N89ybwTAmfNBO5DnZAGtyS0J32NT7/zPxv9GGjPAI/2YzD2+QnB/1ABCwBMesUPAM5KVrysC9c1JwCYBwDTkcCd4hcRJWw3TlUwSBjgjYuBRsI2gVAAJh8BPYU/723qO/FzzjDoa6AO9FL/WnnBAe5dSwMeF79WqkD/FsC6f/+HAGgAMAC4GgBOFHbIxbq0TNecAGCCI4m8VRQkMD/7K3A3TlVwwwUA5zxPzU3CKLkBsKYugPXxGOZJITflCNgrfGWc7F9HDg+bM4FdDvYZ2I1+/n32DwHQAGAA8NkAnG99o0RZF65rzhYAzMQAfxGQwDzxN1lJPi67cV0FkA8A3nTcZIChTACm3gtbJ9G3BQi49+2v8RoeOVHQUd41fv3n0S8BHTDAEQlMNgQaAdAAYBjgEmjFw8sloK+e5XSAAS4w84sisGrZRkOJ2o3TNQwRAPwRghwEJOrjlAnAF9oR0BO5HvTLrzjqjGEIbSAI+iV5nfhnE/DBYQs8+rWgR6cJ0hCgX6cGFk0ARgtgADAMcPZXyc+6dBz2JM7YpoABzjv3VSEE7lTPmCQS7cbxWA30NdxuAcD5zhL9OmEyAbghPQUSmttb9iLdV78FsJsMbLzE37XY5zFaENpJCA474BmB/yEAmvhRh1upAICPLHDy0VaisEMe1oXtmhMAzC3WoC+BwF3LuxRGL2k3rq0B8RsA8HZwqL45kEgATtYF+JRRv/g3SfWqv/8snwPWM/WaWf267Y8Cdnj4oBuwWwc6WAPahuB/P6iARfuAAaZyY+SxhFOCrEvPFbwAwLwM8BOBc8vfljtEJNqN47FJcmBO0/mMo98BphpCYnCCRALwjfIM0Cn5twABt4ssYDsC2nPAQfg1a/2Ax2VJ6Egl6GcZ6GH83//ZO8PtRnEYCgeCbTgDC6fJ+z/rpmlabGOwQ2SQZNE53en+6MRgQJ/ulYQRgMUADYFdAsB4aOtAAAayHbYUbg6yMacAMDUF+AeB2wPpl0MWGChnoJivFc/6RAE+6hxRgMIiARhq0Tkc7r/8CwasvwR82N16DVUA2xOBHRF4CPeBnsIu6NEtBF6Kv0sQ/kIJwNIBix0ANwyy4zQiOCDbIQkwIRtzCgBTBODHzXVIOywm9AuYjaMQEXywM/Bk/CtRgI8BpMoUs1QC3b4CjImR+n8NGotfrbU2gT/GRHfZ0QRsxmAPLEcJtoA3aoAeQz8tZgEvS4Bf/0UJwGKAhsEuAWA0ZHkgbkHZDimoLorqzSEATBOAD0Dgb/plkwGGysYR8IR98NzFw/dGADhKDEVMAIZNh9TFXd88SLnKv9Xz6Bffq6quHyRs4gR82CXqnOm/y4nAtgacWPvrcLAj/271gH5+wwjA0gELBoBFAS4SgMFUF/xkQjfmbPgQQWEA/Nh1+ZzQLSv6/T6AzhQBCbjjkGsUAD7oDNE4OyUqwIht33rtN0egvaq0if7Ww3bkdQrOAA5JwFZjrCgMz5KvY4de6wT9+nbv0QHwVQzQQO9VAWAkqYhjQ5xyVJeupbo4UYDpAvA3AjcZGJgd/AJm4wjskobD4gSAj+EjGpIo2G4gBMBQa84gAL8+WqD/VVy1rmqNhYDNdQjPAp4sz7PdF3paoO80xDl43BKAh1cPrAkhAIsBGghnRAHGA5ZHArApRnWhmxwSBZgyAF+gZeCWJfxCZuPwF2QoDg9aAeBD+Lcicq8XCMAarwBcr+6dlA9d1Tt+cZ7gZwi0gp67YE2rrOuR8LjsAD3/OP8U6ob1pwjjA2AxQHMJ8gWAT4rfoMa1oJeAG7LxtAAwcQD+hgWQauAn+3Z8XU9Q2Tj020RxeM4KAB+BR1T4F04BpvN8q9GuWK8Xj6dty9XRSa/eWofZEq726N9p2JgFPPl9oKNFwOPgUa9lgl52wcKnAIsBWgBYAPi8D0pKdaEbcyoBYPIA/HiotR+Rb6tU03TMX3hNIdm4D3w3iHYAIADXDDezBjk9FZncQHkADHUD1Lk+Wf1BXmb1Mrx+92GdoK++Ahy0QW9W/06rDOyXATvyrzcLGJ8CLAZoMJoRC3ShAAzlgcbOJvvXefqeYqQAt+UC8C74b/+9yLcrItcLlY1r2a4TU55R96IA5+ZfOmemQAVYo13wlkqrP/1Y+lineucXAbvTgL1RwA4RTxEZ2LY9uwpwqBH0A4AnMUBzDSAwhZZKAJjCySYlARu6+CgKMAsA7tKZ94d6H9jbFUK+0Nk45BJww+IGML0owLl5sC5twZQAuMa6+V+Ma7YBuFocaZ/rZYI+LDXThBtBuyjsA29YDB79acDjHwqPQ6ANlkvB99skBmgBYAFgVgAMprrghhPCMacAMKFm45/caL9irzGXQt9tUB5o5D35FIt1aQHgdRysSzsvcIZ4Ks8+vAJwtUWoOlDm+3jhPA6t6yrFfaAPTlRc/RHADgc7o4CnjSrgMaD++h2w1rpAPzVgZAAsBmgBYAHgz19cUKoLbglY0V0WIwAu2QIdeyS0jbzRoLJxyDMlLYtlCQCvH8XxL6ACrIu6xtkE4DVA1Zt8q+uEftwH98GyyoAnZ+zRhgKc0AtrgcBrDPyyQH/1qAC4ucgBmEAXAMZyJY5GLijVBTedKLqrEgWYhQLcRPBXDE0XuIIM1BKw4bEqQAt0xWwb14WZgSEBmErZs0ErANcJ+u0qwBqreF1vXuvjtmc3+IOQfK135mCnODgwFjhcCzx3gZ7Nzz4F4wJgKQAWABYABnm6QAEwZgl4f8zJAAr4KMCEAbhrRf09MBvXcFwkrkVpAeCsZ4YU/5YHwDVWvVtv67M66nCuouK0PtigcHWdz54jerKbYb09Acn7ebUPNDIAloBBAFgAGAWVUJCAG8JrEgWYgQV6k3+VvM0+TVRRagS9+y7ARUSAANyzsj/osqzAPjaVAcB4u5xFelTp6D9dJ45COjBDcx38YUh+te/CCT3FrNB/k5BGSwUeAi2gXzboBwCPYoAWABYAZgbAYKoLYglYEY6jRQGmrwBvTgEW9zPgZiewVVoez1cB4JwoSIx/AQ3xNBaO1uVuImAdVYAtttc7IRt+UaNT9zsEPNGDPRc4bH0eA92w7Cpg60+AgB8A/CUGaAFgzGGyAPCeh0sBEnBLOIwWBZg6ABtFt336wQdYQQbeKuC9S8S2USABmNEg4CL1X8jdQGLlBu2Y5xibxhXgGe4jjHxg5UK3bAG9aAM9zBjsH9N6Cyy7CniNf5/fvm54AFhiBmjswhRaCgATIyz0EnDXEt5PLZ/LUqYC3An/npCNQ7tXGiZPVwHg4FkpUv+F3A0kel/jbfNdRX5xXAFOZ+QDd+nVVXy9H4bBH4yU1g96tMcg2fzr9MZ61QDf+rsYoLkCsCjA5QIwmOqCNuhsKK9H8QHgIhXgTfuz8C/gk5OGBKwYvKLhGIDZHCRdFZoQKAuAYQTgHEW0OrZ/Euj2b3XrEq85/FJdB6/21wbevwFJlgg8BeF3dNHXaoC16YB+fN3RALAYoOHjS1GAywVg/hKworydRAGmDMCb8q/w7/J8cZeA92rc6J6tkAowlzbQpeq/pQEwXgG4jpF1ggKcAMCXoz3Ql27mWnsI8KLsN9oI2q4CHq120EsEdgkYDQBfpWcIPHYJABcMwGCqC9Kgc2/M2VD+8KIAo3gQtFznOqHPxiGVgPf6bdClSiAV4IpHTFcu/wICMIG9oNHyr4k5oIEU4LjSDP8qXfKvPRbJloFXioDHNQpOUYAfAHy7SwEw19gBUSRmBIDJMRbuoLOhvBgjCjBZXuwU2b7p5ACRytlVXBYDCcA8ioCL9T+DAjD+luBAHbBMtsugUy6Ujt/aG7mI4z3QrzLgZfvnYOPnaa0VtF8B7NUAr3fB6pEowJI0FwAWAEazcSgEnYryPSEKMFUANhH5VwzQWbIkuLfL3tsZHxWAAjCHIuCC9V9QAEZ/Amq8y6yjzuQEBfhSJYjx9dEe6Iu5WvW/Xj9oSwGO2aDHlYbQ46IdtKsH97dbLwXAAsACwPwAGK7wDuMopJ0bqiV/O4gCfObRKZLZItLPTvx+lI7NzgcFYAZFwLpoLbwgAMZrgL6YOvqrUxTgZAA+Vq3vRlcDXna78th32moDPfr+5w0F+Purv/UYAFgKgAWABYAR7Rz8QWdDGuU7UYApAnBU/v2HeW426TQJ6gyDYoPysABMPq4rdP5vht2A3A0AY4CuTb7PppP26Wc1wCcUAc/TgB0P9EsRnuHX+n8LGB4XvaBnEg6ovrYLGocCLDEDewD+IOJH4ylUxKL8jrPvUJEOngWAKQJwylUTARg+e4g9xbAzu4tx41eQAEy+CLgum38hARh5MqRGvEYdl2WBukAntNvK8WqwOz/bf5kLfj3Vd4qZoUe7GbTjh8aoAEsBcKbUOSYAZiA/UlOAASVgdEHnzpgTyzI6sUCTQ8ZO8cJ5YtsEsXK678XQYrxKsABMuwjYlM6/oH4A1GdBY15iQmFuggKskwoTDh+E9H1cB3cEkj0OePKmAqfPQgoLwO6PX31/vgIsBcACwCTiHUUtyu/4+g4b2qvo/gkA00LGFPezOKAzpQ+R7xjFIqf43OWwANxT9kBD8S/hc1AVkgwBMkDnTEPUaQCsP2HkS8LE4Syn/+qIv944JJd9VxpBj8u/O07oGYjtr+H+rQBPUgAsACwAnBeAG3KfGHXQuU8AxiMdCQATU4A7RRhrCN+yFE5yx2fbG1j+pSwBA40/qimHt5AAXHFfZ7YrHS8BTqHbOkmn1qeo9Z2LvpPDudYc4GlRADytCcFu66u1Jlj37xrgLykAFgDGHPFLDfB5nIV0uktD/H4QACYFwEbRvE0u9O/Z8JZBRRWK/vM0FwDT7QMt/AvtB8Drga5xK/39GwCs43d2QjGxPnrXNn8DgAMKcHT077IDtFcM/CsBWy7oFwDfTh8ELAbofIlzRADcMEAvRS/KB5SAUXGKIr6CzwEYTwUhewBOdT+LApztTYbZj7JvXTiN/xoYgMm2wQI6EaT5FzgdUrO+1vn41/QQCnCdlpMy5wDw5fpHvJP1t2HwvdBB4XfcmAHsjgD2hGAEACz8KwAsCnC+3fOPZdDZkd5HAsCUANi8V0kvAJzlHYD4NO9aVouTjMABmKYHGqj8l3gTMODdgLUYGkTrz9jpTCecvKgCrFNTUj9toI/PW10t67PX+Mr3Qr9zjLYIPIPv759vAL7dxQAtAIw5+JEa4HM+M96gU1HXXBoBYCIA3CmyZIbuAJSA8QDkvhc00m0CDsAkJWBdfPvnLLsBZzoAxuetM1+FDwG4Tk5D1CcBsBntacBbCnC4CngcgjOPbAP0shB46M8GYAkXogGYALBYoM/Jn6D1one0iREGgNEQAGcAfsv9LGOQcty32MuAG+rJuHCgXLAEDFT+S55/oQEYZUE4ev5NaQK9bYE2dkJHJ/1rJ2zd7o96YzXA7yjBNgIv+fcJwGdaoCVaEAAWCzRy1MIXdCrymosAMAkAblpWOE/6CYr0RO/KMLZYS0PhAZieBAx0DujzL/huQHhGcA9Aeh+AH6fYzH+MMVrX1TtJiJ85SGekrRqbeueWz3P/52nZCHrL9+xwb7gJ1tfJCrAUAOfNmiMKxpQAMKEADfeG2pUTwgUmAsAEkLFTnNiG+ssMaXqXlQB8qeABmFgjaLDyXwbPgZr9ViDAv+8BcFU7X4/jzazMz792im/jOjgdsCbPB+1Zn5csPIbbQnsYbH+dDMBXiRUEgAWA0bMWtsiNAZcIAKMHYKNa0k8rlAekBIyjIqPllPLJAcC0JGAg+zML/oXfDdi2gqkIXOu3APjjC6BPU4BfBDwboQe7E5Y/H9iD4QD5jvNE4HEYBm8a8PP/PccA33opABYAFgDOG+k3NE89xmuxRwDGNnVTCQDjLM6eUxQtL55HEnG2zAi4oZ+My4B/7kGHBY3Yn7MCMLKCcAr6LygAJ2zLMwHYXAevF/TkMvDimHz196nyTn/IO3oKsFsGPN1v/YN/+/+Ef/EejQCwAPDhwIg56FS0Tn8uAEbz+GzZoLx1zygGF4bb6wxhTwLTstogOgf/0umDBcX/TPhXM3cD0OBfOABO2pZnAvClGy38XcwDnpx20FOk9ZWvAAeGAT8A+KkAj9IASwBYAJgrAMNKwKcHnR0HVY4TAP9jB8CmaXk8dREeLejDiOLbGXHgkweAiRAwlPzLw/6cZzdgmgVMhH+hALhK25anAvBPK2jnT0AAnt4YAhxsivVLwT8K8K3/kgZYAsCI4x4B4A+f9KyCzpYDYgkAI746zYf3i0jAwPmr9a3T0FsM5vxInQeASZQBg9m/NZdbVbPOhWgi/AsDwFXqZKMTm2A93712DfAUrwBe80GPXtvnIAQP96cAfPuSBlgCwALAWTmyobqHsO2qhgWRAIjyWBZlmAFw9/G1UfJuy7v10RCw4pCMs46qL5WANRT7V2z4N0s6BMvpMZoMz38OwA/6Ne/9a+ddpUAjLKsUeDEKeEpQgMdhAb+vb/fbaW2gJUt+QLyAB4CNADCboPPUbbXnIuDzHBoBYKxI0LTUU0TID1g/yqkEvCMZh7pC3GQDYORYaMDk35pP8ivPbsBxgoDs7ofs6v1jkPaMnzobgL8bYVmTgBd9sFarf8fgf0cXfwd/CtJZCrDw7xHsgie05ADAHV0Ahg06zwzwFQscgbgeWB6hH3taMTFBp8iniNAfoCboM5+sPJJxoTA6AwFjrgOGa36tGd2neVqCozBBAy1NH3dXVol3bn0xf196zwc9G4C/Cdg1Qc+NsKbk8t9xMQfYbgbtjAE+RQGWAuDCALjjAMD/yAIwsAn6vACfieYiAIzzAjXt/+ydiXajOgyGAzUYbpKBk+T9n/WG3RDALJItCzkz005PTxtjG/Tp1xK+i4j3I43SrTXhti/iB+IgS8Bg0c+cwp/x3CEELhIM/7qaSLqhelg6i7rxAQk48g3AVSGsURR0OUn1LX904PJHBja+MEQ+m2nB9atTgD/Cv3RHxgOAA4ZHFnNIWBDwAT8KyZhDHbTyBQzAdIK5AQ9JIjFOqO4fAlHQB5xxtLPD8SKgH96tagf4yyn8GdMd4rsSNFD4szOQ3wXA8bwLY/t7re8Bqdclyp9GCSxTAp6GP68kARtBz2ZBrHFA9KtuA/yF4H9SAIulsSAA7NngoTOHPGNAwGxiDjkBsOICwMDJqULAiFuGwFHg4oybs5cvkwis40jkX9fuEL8EDBT+7G4SegPCzivAQ1G7eOcv8wsOylCApyWwSnsbpOLnf4XRG9hUgN/vRgMuhX+pjlPkSAeAFQNTPwl6DtBGZxLGCih+p1oAGMfOSKBPiCAwyq2Uhgas2fHvLXpgD2IaaQqY5hoz419Md4jHaHgowd/lTo52AHC8sIbpnlX33q35byL4lkPZ522tgM2c31Hy76QLUpME/HhKASyezvKcxTSIJE4lYc8hCZ6AVbBbB8MbQWVqCRMAhvYQVVwmjzoweqTmDUoCfho7Jx6SCAyo/nrXzBAGZkJ4HPqSO51AdFgB1rslYBoAfPszymAZ9Z9HhaHLSTB0MZcDbH7ZDH822wA/3oVL/lU3Ga7My5zFNGiY+ueMtsz/BKCNTtcJbTn9t+jSGcEHgEk8EfQdYWRJLuFOs2c5dAJmE4zihnjMSGEaJyKFxF9u4c+3LhaWV01wMME/dX8w4yMAbDi19I7fFfnffV0p6JEEXM5xb2nRgEcJwGYj4E4BdgzAwr8OqUWxmAYNU/+kzaZDn4DvkL4jOXdU6YMTAGc8AFjdcUamhIFdXG63vi7Fj3+dCMBEEFinMVNZOxR3iIdLBrbmrt0dG/ogLYRA75eAIyIF2/O/57QJ0hh3y20ZwEb3XzMTuH4VbQC00z5IUgB63z7gYSSflFdIPF9U8FY+uNHpkoBZ1ZyBcEUQoXuAaFYSd6nkjjaSRCAY/3q7JGA+yRgzpjJ7BE5hO9wylH8duENcEzCcy8M5u6d2CXdJATb8GHr7XYDChs6nPZDKHoF/2LdckYCf87Wg61er/7rsgyQFsJwyS0ZkGjkDiSgJn1fAjU531WdY8W8OcvFp3EoB4goyBsfbNsUsUV8K1vL4A3SceDvv7Bog3VwFQA8xsL6uhwaNfWYq/97SyIEXJEj89eDu2EClSwrwXgmYSApwQ8B9FLRRA8usCF0uMnAx7gP80w24eb0eXQj0Q/iX6DhrJRBhgCR8iei0wUaA4jW8le/IsOPVcwRmGfjUjsrZrIkVg78crPJqXJ6F8yxUdxxD/dcx/zZlk92fAHD65Sn/OgoHcOU6gAx497Le9iTgRQV4ONibsJZICnBzm33+hDz/NAMuV+Kfi4VGSL0C/OpDoB9SAJqokcAkUTALXyI6vRQUJGB4o9NNsxdmPTdhVoHG2eaSzuwCgE0U/rJwTcPqsjSMkHXtxB0n+m+YDAxPvx6FbNwr5Wg7OAmFB111P+sdWwF2UQE2Ytm3SMBUUoBbAi4HFdisg/V8bsoGHqHvUAWr//z1dq0AC/+6tsoyDumzJNRTHsVucwRbHn9e6gAxEr7XAC0CjfwGkHTmnME96hwNdzzc4PA1gBjhkuPvpCNRNNT5V/vh35ogHTFwRb8RPMCxPJdp5HD9Nfqyh7/eqbX09LICvEsCtv8ip+NvArd9USxrH+BBAC4mGcFGTPSnSwF+P15SAJqkpcykwioDjoeAFgpMhmF0Itt3WoWJVIi+FDr7CQbmEy4TAaHhRh4e1GG2NIygumcK92rlSYhPLzLAM8tA2BCsUeiXq/zrrhw4tgsEWvL35u/QVmF2WQE2ltP+9ilFQDcEPJcHPBcAXc4Uvxo+FE9DBjbaAPdJwB/hX6YGAonA23v4HJ8EIU/4IWBcEfhQ4jJl/gVDrYTPdiKwXneaY0TDzFhYY8Sdo+ZkHHFJJ8QD3+KH/xGnWBiUpnGM9JZ54m/MY/VT6ID3KPZ9RPUGAE5XzreVbDWpCOhb2w7YgFwzB7i0BkAPpZ9HfZBGCnCNv+/HR/iX4AAxLllED3u3kGHsfBKhcCjJjngzO2JyktZ/4RaAwDShavkSYPnsTnxkQ+IwFxTWGBcdUQRW7G5G2q/8O1GCYTlIV/CLND2mxa/S2NvqAy6+Rlh3rwuubQruigK8QwImFgF9q9sBzxeCLq1tkGZKQU9qQn/J12EjYGkA7ML0p0jAKnxjH6p4FAUCRpFd0KxOfiYnoASf8JlMwmld3MRJ9ygcMAvnKG6HBOeZdyQXg3b+b0oGf1vKaCj49CXTDfuiTc5zI2Oc3Y1QJGzn4kfnF79eeYRpeF7wyJLEu6YA36KNErC2F9ty/4AojFbAk15IdgoufpOADQZu4dcNAEsDJF+2QcZCPPU6DTihgi8Bo8RBH3qrtPkX1ORXfCajfK9afg9xZG1vpSo+WggYNez4SPovaf71DDwWMfgQC1X8g4q+TFv/ImHjgaVvF/+AWw9R8Pce7m7TZtcU4M0ScLq9X7DDnfl89gJwuaAA/+i+xfRrhvo7UoC7RkiPf8K/bC0DHuKpsy6PuEZaRiAkPUdq+QJudR6Rf4mn3MEa/J5ZHzSCNUsYTcZfrnBoHIxEwBm0Q+WQ/Eu4/2+axg/ao1IEGxK24JCusfdLPxX54mMcu+TflKAnpFn8fvW11ecRI87B/4I32bmRHYBn32q0rROSNdPYzwOiGCm8YwQubUHQxU8odF8G69VlAL/xy0Bnwr8ubH+C0AU4D18WsoJllkT5L2mNRMCwK3TsXdJuOaKAzX2vBAwdSvDdPj4XL7kzGG1sdEBJwgrJ8QCLwOrQ7iBa9+SLDFH0CGZE9Yj7kcZp92lUvSKXk+EV/YxUIBt88et1Ntc/7dcfffVJODzidRJfVYA3SsAkBeDKDnwOGcCzCnC5ngHcZ/9OakF/HoMAjBwD/U8aAPslFF/MBWwiZx7mgRAwnHkP98RTu8AQWB8zjBPKxxoj+NyfjY2h3fk8Gvmd0egwOISHHdo1AHtcHHweE+TfWi4LCH6p4Rgb/NWyE0KqdpauJ/GuK8B6kwRMUwCunI8D/O4oAD3C4OJXAS4/QwowdhKw8O/Oxy24aZn4eBZreOe+awTWOPqE73BPRAKGmdrR606Zf5H2kqethBVF8L1V+Tob2Z3b+GJwAEHReOXHYPwpB5/HGSn+7bJjBWmujr9NhTDZCWGt+LoEvK4AGxKwrY5WTPIBMY1/LmeDn8up+FuM2wAXIzG4BmA3CrDw7y4zOUHpDZG5toPw2NHZRHKFx4mZX8MUM+PxdJD34a1Dt9WazhNE1V3zuEkNWQJeHhnqznJUFEwbgvMMcS+dnbo+uNVp1OLTXYpkFAnxnC3NFS7+Vmm0w0aQnRBetbOmE9JSieZ1BXiTBByR64E00oDbQljliHnL9UZIJgSPFeCmDfB7yALGrIIlDYC3W8mYhqVD5NKY9r4jgw51LTo7398NNk9Qp3ZiZofdDlTLP9fHGnUvOfWmaES/kN+zkd3ZDtoQjLqhzsz8+HOMRC2+VHBH8Pe7DZpdIBsh5Gpn8RrAWhTgW1/wbrHJUUxXAP6Ov6nOW26IgC7KYlQZeqwAPz9dE+D6QyH869tHp7CJqzKU8bWVr33sYCK4Bp3O8afg2y7VuEV/kmMMfMJzQrL8c+5yJ+FfAGcHw8vZUHfWg0L9Pfca8Imweq0O3yNJWD2pQIzgr6n/yQgu+XeyigvvyqIA2yXg1NZp2DsBl5NuSM/nT1/g2QpYEx24b5P0asTfR1sH+iX861cicmVX1sVRkEqEanyt68dC1hiL4VIKyjK8BfFJwM3Edl/640auvvCpxj/bzeF2O5+2lJOzhdWMJeD+SNK0cZAJ+IA35cxjIBP+Ffwlph3KCDzdO16RcG0KsFUCpi0Afx/Nf5No53IqAnf/LX47IRWjXsDtP68u/feNmgT8J3hLiRk7OyiD7pShcw/zaGx+wFqn2s8kkNHFFwG3DLxteU76HUhVnGlZMfPDOPBn29fhHm0iF4eDuQTcXE1FMlPAgfNhu6fx7M2IRvqvCH9S+kr8IHw8HtEypNoU4DaFePE74gdtAbjWgI1K0OXm+s8/mcDFoAB3GnD15yP8614hchEsbJNXTtOj72l0FvJpDaI2erzOw3nnEuVmWmp9WgB8RSX9tz0MmX/MSZL6sp8Cx3o2FKbTHg7808GiF7D9UlJEYJ0QuRmdfpoRiUUR4U/wV/wgjAT/dJlgrQqwIQHv+8nkNODSSAO2NkMqJjWhuzJY34+vEf++H8K/bhUi5+GEaxh8MMyQ0DRO0aOH4E5b1KejW7Byu81qJe87brquS5nXuAhw6UlY9Mqb6ruuB1djt+qX1+tCLSS44Xq8xdasegFTPzDevA+Nd+jnZqRgTjCRIHMR/kDqIAXf+Ej8IGzi3Zd1WqsCbNwO0iUfSUx7I+u/Ift3Ar+lRQwuBvG3Z+LPeyiCVf3BKAP9x6VrOOQy1pIKRctyZ76mImogqxuHebhqBZO7TuqsRpJ1A+aHkgh/zmknkO483ZQng9ns+RISMFUEVpn7exH0zYjMdRXh7zwKMej7q2Udd645eWfGDAHbFeCVLOCWfyPqm73VgPtA6BH2lrOdgMcUPPRBKpo2wGYU9Ef4l5fmtt8g2LVcCRNTX13Szje4zcNC/sfRlCeOTorRZBCfKzn3OlikEVhlgd+MMjKl+EQAvnrsswjA7KqdpUuougGAFyVgHZOser2qAW9uADxXE6tB4E8b+tx9gAHgu/BvuNLKHoNIi6nPA4Ad5d7huW2UHGzw3aQ5qdlcHJQIR4fcEzpw/wOhUnwCPmeFQBbmq2QA88HfgWJ/3mjd6bkaKxQbd98Tz94p0gB2c/43UnttWcDFuBT0kAA8KgKNlQQs/BuafZXzmMc+cMyYzCMw3QXM5MzlYG+7ULseNJzUbF5KPncEDvnyE+rEJgIw2zhY8YNcWPGPF4Re3Y41X4ie/abYJh0T04DnO/8uc/CCBPx6mArw4wQA3+e/nOU3GWE93xWPeXDRupwBcMC6Cx0DnhUAE58M6snQ1wmCvlOMgw7WHUeqE5uAz2EQYhL7LAIwy4D3eEEDPrpBguLfVgMuzT7AW0Kii+ckA/j7t6uB1RPwC1b/Ff5lDcAZE1M/FwC+BRsGTcl6J38FNZ/J4J6M/FIETArbmusf5M0oSyhZ0AI+R8s+8xF/JRCAY7FvDUrA3U+Lgpl/XtjLPpuqbzH+rEfgV6f/1n+r8Tmr+Ur8c+Dywg5TSFM2RXadp6ua+eHrLqTiN+nrhjmfySCfjAulARML3A3XHUdMSRfwuWzZ59EQPwi7gHdIZg2Pf7/v+V/fB7hcjof+geDC+OT7p2y7ILUIXL8k/9eB/4IJAFNOEhQAvoLuQix9UQCY0cm4GAHTy1YKTYQnJ6ML+Aj9ih+Emfg7ie44X7a5/0lBXYL876cH0qgm1pSBi18FuKjaAPcZwK0E/ChOqr7Cv2GD4x4ApmwicgFg10ZVSCJwRi13MRcAJnrCLyJB8gqD1klINyNypcSk+avQbzUkE5xjtbNetz25Z9Mg+bevBT3LvPNycPGjABemAtx++hL9VwD4agCsWCzH1URgeqV7cvLXLOczGfzYiIsR8F3Re1KGQsAEK2mL8if0ayp8MpiIvxMCPpUIDPJDfGrAfTUsW0ZwT8GFgcCPXv3tJeDPKdVX+Dd0cOQCwLvMY1GAgxOBs4RggT0BYFYAfDUNmF4i8E2HcTNSBG9GAj5Cv+IH4Sj+TuH1uAjcyb8B8m+nAa/Jv8VzJgXYUINfffkroxeS6L8CwFcDYMWCWODuLPStzoRkfXn6AKz5TMZFdvzVCDij99imH5FCEn8lAnozBHGm3//ZOxMlR0EoimYBwWp7TKXz/986cQejEbMoyznJZLoy011NUOBy33sciICOeNfjNNjY7ynoU5DNz8fnAS8WwqoN4N4ErgSweQpSo4X/fUL/avRvqEvLFZM5DvD3F1f7rK38XnVqmXNjI4C3EBEoYA/2ixmMcP6+JoLiVr8EAkTt+fcO7nG9hatO/TeHaoMbecBj9XtZEsJNDawh/be3gm/4v0k7wCkKYH8boveaNv2VwN6uOEMQwBE1RjJWJxJa4XEctI+5vzh/rumfsYtf9kFi7/jexF0bzT3I3yDDn7tWnMfq9zKtestfu/xVdwpS8ffgABfoXxzg8BeHIo4OkfuNLX6uOj2WvwGoJR3LKLXdrRHg2dghxpwsOfF+DkbC45UOzt9S3HMSy1T2QcY9H1XHq94EXiOBs0H+HrOQm197wBeHItCX8vfxIKTbnyl9uz8X9G/C6+Q1MXA+t2PVMg4BHIgElsLrscV7BzgmAbxVebg8NQXs5S3mX10C7fdgROjrE/F7yg6pwGUQebGz7LSypLUy5G8R+p0wVMJ6XgjaNn/brwzz15DAN/RvwuvkWASwiqND9j2ZxC8JrGWuuLE3209RCOC2VxNLBJZ+3mW5b4OR5+ti5M5Mzm+W0gKVUmiG+I2057Oju8S31G/g9m/ToPOk4L3MJP+a0dDXTvkWQwD0+zHQZwRuyJ7CmiWyx+v9dTaG8rZD9l5l+SOBPa21GrEA9tz5zDe8CVDASOCAIlEQwDNRz4mEPXMZTHV9xLscpgSeDe9XKrPU7yuVszxVwJen4c9j/dsFQV8nHODqr/Id/SsOEPLSMhIBLOPoEB/CEb0owhrAijMEASwiGaV+Ns5VTSwMWnp7g/kggb03f1E+U0HP6UQ9cxkkJH6nJHBxbEId7g2/S2FVfZGdTsfjyBGPpRDY+dcIg14s/dy/felTgG0H+K0YaPSvCzqOJfIhmvhIbwWwFwNMvnMJmjBWnCEI4DWfo+8CeNPpO7HzkPydxpXYdzDSIUSiVFD8yIh5Tjcr70TnJ+KqZY/Z3ncd3PL4TxF9LuMo6MuCBdw5wLde/w4ucPGeAEb/OiEjWfroKFb6HjfEl/tpR+dFh2H+hqAZV4pGvzXf1i5lUiaw9ljk7bkfd1e/oQxGp+Sdv/qMX5V4RZpT0p2fVFfb6b1J1QI7/z49Cbg0ij8bGvj292dI4MEBfj0G+oS2DXxpuW7lI+NY6fvbEI/Wobs4LyGp3xAEcCzbdHvsDXl6FE8M/vp6G1jvMhjlAQ1Gp7SVb6aoxVqRpdf9Kfd+djoeHQ4Ai67d519HE9g4DelaDPK3MHOAX7aA8X9d3YRIlsjeFodZaw8JlqEuNvC2EuCufvPAbmzPA2VlHHf3XntDKZWDlr5PoRuXJghsKy5J5XOXPlXiI8o3ycug3fhIvfvrSlfH5Cphi174LpyF1Pi/XRFowwDuHODqr9f0b85w82GnSFePHinvzxrRPC26N9v/ouXwjfWP+ca6530hr6ee26+OhXsvWB0xfOgP/dH3i9Er1Xeu6RLfVqEq3856kSIPb6j2XCGJje9ub3bqPia70jGBvd/NVtvlZQS4FXdQx1mK5tE+w1Y9dZZjW/AH03dKAR9P3cPgeOrfXbpEArgC2o0Pun8QwXXRq74jE9gcEEuW78P7VyP/15LAr1nAZ/TvGwvlTmJ10qqSTnmNylXF4f6oXh4v9qm3VPtUqvr++uf0KtkUxw8i7DO5syPJKOtmDerdkIfVL9b8et1r9abxtOV9LyMtgf/QitWr4/bMU211Qv8bNr2Qt71waD/dyZ9jv0z3i7K6RFj7FXZTfLyltvCBdZDq13vTdGVAgddqb6+9IZGKC6wDmM+rdOBvX6Q6OO/XnG8OzYTTkDV/suZhcWoeNoNEeq6SdpC8tZprVS+6x+UqGD2GL+evEvPqGF8UD9fB5nZvdw1wBcx1vGp7USXxEQmHo4BL43kXwIb2bYOgOyX8gv7lIlyzthzEoBxk1qTA/d7d0YswKTpxKV5sR2tzDrpW9OLdpU1qTsovLoDUIJuNhqxeuynRbzkMv/C2ZWYP6mGjwlcT5rsaWMo82LHE7zLQa0WjzwJ4N3mmUgmEloHcct8cjILdifvmolq1J6uMNPSsjrZcx/p57J9P6f5X9wOyWvJW6r2ZnOkZDy4G4zoY931jMxsy+TP7Hu3OB58/2DNB2anepbOAGwl8M/J/jfDn+uWK/k1lexDgFRnwlXVn6AvOt6pg6TZ0ogmfsP8Yj9eTBNaKRvmRpjxtyKtt2TM7fvdjwQiCHq18vmMEo34/vJYY4tJcyNq/DwccvkCvB2Xsl6jRTklW72hYatl86em/RSXiZMJbCnghA7gc7GAz/9f6ck0M9A/6FyDJ+a0WwR9beFahhnnwaRRyIZncTAswEgLyLmaiipqowxpU+4UyXtrI+TrmQeRDpICV8T+vKVcnBuSLMvehNVZbVG43wmyHWm7Jsyz5ncXZjseCEQQ90yOf3JHTiF+A7ZYS7caI8eK+rwLwoIAvT7OA6ypYxaMDPGjgdSchST57gBSnrrsIfn/hGc96U2lDF0oz671XherjIfZdRKBqEwL6zHJpZpa/oGf0KKHfUu1Ng5rmqM+1pNtcGSXJ9+Xj6rbI3S8WlUAycGDTuvrQYCQRvwAAwSngs6l9L9MucCuIrzMOcOFoAf9w/BEA1AvP173gu/aNab05OLlKqd13r1WX6l/p4ldUXt+cPN85AK1Pkn+xLZ8nfhc4wIAMlb8xGOl6MGJEBwAIcPg/u9SCnksBNrkuyl6OPwIAa+VZ+3SOi80m6BmzBQJFYgF7OhYNg5Gr8q19X8YiAIDoFPCDFr7cRkWgOzHcOcJO2pfjjwDAXnz2ZztNJHK2scGC1SaETh59EHTYsV2q25WzcwFGm3D1YERxHQCA4DnP1YEuB/lbvd5GoneQvk8tYMo/A4CTFLYPqeoO+2LEgCgQP1jA4QxGZsk1BiMAgAiXnWLIAL5MVsEqH4pATwVB3xa9X/QvAKwZnPgIIBoSqARNeQ8AAAgG8esQBn0txmHPhfNRSIMgFqxoAQAgMfL4y0DHZAEDAEACU3P5pApWOaQAzxwC3L35bzH+mf1hAABIjRROAg6zEDQAACTLdCks4wykSgAXMzWgi2ULmPJXAACQ6Awrf9IACxgAAAIiP88eBWzWwBpZwGMj+Er5KwAAAIOX7d/gbGPNLA8AAAExfxxS4wFfi79ZC/hv/igkA8nMCAAAiU2u6+zf9qidqvDwUINYCNke0FMf0tMeGUYZLAAAgPc4T2YAd1xbs9c8/OhpJWjSfwEAIHHyFUL1rnyXD7xW1Ylh9TE9tT5uj631xQKmwwEAIChEOV0Gq+xSgCcs4MJRAWvSfwEAILV51VWa6rv4fS1MqjtBW9RKWFMGCwAAwJ0qEfgyJYLLKgXYVruTBvBsGjDpvwAAkNqkKl3Vb/6RSVId7lpY1J4wZbAAAABcFfBMIrBh/hYPUtiknDj/l/RfAABIDEf7V4pPT5GVJ1w7wpTBAgAAWJo1ZxWwKXufnwb8S/ovAACkPp9KR/P3e79BLYO3dYOJgQYAgPAVcNlFQJvpv3MB0A8eMKf/AgBAejhVv/qm/O1mdbWpCiYGGgAAApy0J0tB36Yc4DmupP8CAEDCCCe1uN3+cL5RRDR1oAEAIEQFPBUG3crfzgIunsvgG+HPAACQKk7hz3rj+VHdRfD3NTB73gAAEODEPZEIfO3Ur136ajYS+vaP8GcAAEgSp+pXcpf58esimF1vAAAIUgKfR1HQl1undAtbBi+YwIQ/AwBAYlOo8ND+tX6/b2pgkoABACBM8tJ2gG+29i2WYqCrf72UGR8kAACkNX/6a/9uoYFJAgYAgFBn8PMoAtq1AJbBiY8RAACSwiX8WYv9w6NyoUkCBgAAMLASga+9AVw4+r93jnyIAACQ1NTpVP3Kk+oYQnISMAAAgDGNi9I+BOnRAn6ug/kIAQAgJUIIf7YlsKYKFgAAwDCTdyZwWVgOsFsoNAnAAACQEk5RxcKrGOFcUgULAACgpwuDvtrK16kONAnAAACQ0pQZUvjz9yQwVbAAACBoRF8DeuwAL5nAlMEAAIB0cAp/1j5myH42F1gz/QMAQNgz+vVSRUCPY58JgAYAABhUpFP6r5/iUH2yIrSmChYAAIRNdrvcxsHPyxqYAGgAAEgGp/Bnz9J/TT4ZB40ABgCAwPm72cHPTkHQfGwAAJAKbvrR6/rInzOBKQMNAACBc6pkbmE6wMunABMADQAAyehfp/RfEUEjEMAAAJAA6q9RwM7lrzCAAQAgHUQcqbFKIoABAAAqTr3iLf56N/ipCsYABgCANHDTjUGUhpIcBAwAAHAna2OeHQ7/xQAGAICUyGVEpZEFAhgAAOBwUMeh+nMxtoExgAEAIF39q6M6GihHAAMAADQx0GscYD4xAABIAaEjOxpXIIABAADqGOgVScAYwAAAkACuZaNCOhlXIIABAAAOx7EFXGAAAwBA2uQyxrLIbytgzZUBAAARCGDbAn4qgU98XgAAEL/+1XEeC/RuLWipuDYAACB0MqfDf1uY+QAAIHqEjjUiWBICDQAAqaNaB7hwKAGNAQwAAPHr33j9UFdrGwEMAADxcnR3gCmBBQAAkeNa/iqkAtDrxT0CGAAAoiXr5W9hfkUJLAAAQP/GUQB6QCKAAQAAAexYBZoIaAAAiFz/6sjFoNIIYAAASJzj2P8lAvo/e3e3G7cNBGAUK5ASWeXO7/+u9Top4qa1V39rSzPnFCjQu2RrYPNlyCEAKS2/I9uuuhayCGAAkhvet+8PAQyA/o14AfjNnhFw8SMCQADjy4L4fXXzUQGgfy8+Cy0CGIDkbn8cf/7hCjAA6ZTl/XvZA9B3TQADkD2AXxaswHICGoDI/ZulBIsABiC38dcGLDuwANC/0ZdBbb8F3P2YABAkgJfcAvZBAaB/rz8J3ToCbgIYgBge7r9yBRgA/RvkNaC+cQR86ZvPAPDb8P4V4B8CGIBk/dsyXYWdqmeAAcgewI/PQAtgAGJaNxK9/iC0CGAAUhuXvANsBxYA+jfCLuSNZ6AtgQYgiGnJJWAfEwAhvwRbulVQAhiA3G4vjxPYpwRARDXfQeDqFSQAUhu8ggRATiXhHLRbAg2AAPYKEgDp9IyP4U6bAtgPCwBRjA8fQRLAAETs35ZyFXJzBRiA1G4PT0BbAg1APDXnW0DVFWAABLBXkADIpSfNwC0vAbsCDEAcjy8B+94DIJqpCWA7sABIaHz4DJLvPQCiKVk3QW1YA139uAAQx/TwHSQBDEAwvQlgO7AASOnhEWgfEQDB1LRz0LRnvwHgp5tngAHIped9C2h9ALsCDEAogwAGIJcqgF0BBiCp8cE7wAIYgFg23ACOcxC4OgENQPoA9gwwAHlsGQBH6cDVE2AnoAGIZRLAAKT64muzCbAT0AAIYAEMQHxbVmDlDWCPIAEQzCCAAUikZg7gqToBDYAAFsAAJLHtBHTWAHYCGgABDACXVebZEiwnoAFIaxTAAOSx7QR00neAnYAGIFsA++oDIJImgJ2ABiCx6fZpAPuAAIj0rZc7gHtLufsaAH4TwACksfEKcJgJsAEwANkNAhgAAZyiBbsVWAAI4E8MPh8AAtm4A2tuCfvfCiwA0gWwCTAAkbStARwjBqsBMADZjSbAAGQxbxVjH1S1AgsAAWwCDEAOPXcAr9qBbQUWACFNJsAACOAM54HXLIFuBsAAxCSAAUiibA7gmu23bwAMQFA3AQyAAE6wBasaAAOAAAZAAGe4BNwMgAFgEMAACOD4l4C7ATAAfLoGWgADEMj2JVgRRqLFABgABDAAAvix618CrgbAACCAAchimhOfgV7xCrABMACB/zQggAEQwOGjsORaeQ0AAhiA3HYE8OX3QNdMC78AQAADkF3LOwLuDkADwJ0ABkAARz8YXFI9eQwAH7oJYAByqHPWNVjLV2AZAAMQ2yCAAcihzFlHwMUGLAAQwABksuch4EuPgKdqAxYAvBkFMAA5TC3pCHjxALgaAAOQN4BHnw4AAvj612OX/r6bDVgAJA5gE2AAQtm1Beu6eVgcgAaAxwFsAgxAKLu2YF12BLx48G0DNACpA9gEGAABfPk3cosN0ADwj8kEGIAs33ltZwFfMRF7C533ALDuDwM3E2AAkqhzvkPQ1QFoAPjNBBiALPaegb7gmqjiBSQAeGcwAQYgiWlvAF/unHD3AhIACGAAUtp7Bvpym6KqF5AAQAADkNLuM9AXOypc9C8ACGAAcuq7A/ivKxXw0g3QFmABIIAFMADh7D4DfaVaXNq/XgAGQAALYADi2X8G+jrnhZc+e2wBFgACWAADENDSoWiAAp6q/gUAAQxAYgecgb5IAVsADQACGIDU+pykgMtsARYA/McogAFIpB5TwCffGzXpXwAQwABkVw4J4JO/B7z0/u/FnjUGAAEMAGu0BAWsfwFAAAPAUSPguZ52e7L5LwB8+C0pgAHIpB80Aj7t+0GL+7fpXwAEsAAGILSjRsAnXYXV6+wBYAAQwABw/+ZrhxXwCc8Ql6Z/AWBDAL/4cACI6LgR8OkqcvHzR/oXgKRMgAHI5cAR8MmOQS8+/qx/ARDAJsAApHDgCPhU26CX7/fSvwAIYBNgAFJYvCd54RD4HDW5fPx74iecAOC7AtgEGICg+qEBPLcTnIOeSrvy7i4AEMAA8BzHjoBPMFJdMf7VvwAIYAEMQCKH7sH6/qqcatO/ALAvgH1BAhBVOTqA5/ZtV4F7abP+BYCdAeyzASCsOh+fwN9yEHpd/rbifz0AAtgEGIBcjj8E/S0J3Gub9S8ALHYTwAAkVOb5OQn8hV+fK/PX878A8PEEePThABBXnZ+jlq9p4Kms/R00f7UNgAAWwAAo4GPHwE9fiDWtHf5afwUAAhiAvHqb5yc28BNzc93iq19c/wUAAQxAWmV+pvt14CdE8NRL3ZC/rv8CgAAGQAE/US39yAvBG+P3/gvRvwAggAFIrc5P1+pBi6Ff47duPbRdXP8FAAEMgAKevySC76PgrRU69VJq235j2eu/ACCAAWBq85dZn8FT73vmvrY/A8DyAB58OABE17+wgN8quL12cC3lNYXvLfw/bTq9eu3eci/fdsCvzvgXAAQwAHxHAb8r4dcW/vnPPYnv//r5n+2Q7rX9GQAEMACco4C/hO1XAPAvw8cF7MMBQAFfmMePAOBP4ziYAAOggI1/ASCFabyZAAOggI1/ASCHYRDAACQ1hSvgZvwLAJ9/+/95FtpHAkCW78Bq/AsAuRvY3x0DoICNfwEg8J8AhpsABiCfIn8BIKVfc2DfnwDk8Td7d5CbMAwEUFSiHjyh979vHdLuqqpAQuzkPYQECHVRNnzNONSDXArL9jMAPPwtYG5gAQzAmUxxhPGvzxEAnnEVwACcq4CL7WcAAADOkcA5dP7afgYAAOCfxr0adDr8CwAAwCNKyl8AAADOYMRrYclfAAAAHldHGwLLXwAAAJ4z1BBY/gIAAPBCAqezvwAAAJzCCHvQ8hcAAIDXdX8UOEv1KQEAALCCro8Ch/wFAADg8Als9xkAAIB11Smyw+Gv/AUAAGB1nSVwql8AAAC2SuBuLoeVTv4CAACwpVrC6jMAAACnSOCdN6Ezy2T4CwAAwFsauOzVwGn2CwAAwOEbWP0CAABw+Aae49fiMwAAADs2cL4hfqPFr/wFAABgV1PZchKcUew9AwAA0Im6SQRnRJnsPQMAANBZBLcKjshVNqLbX3HkFwAAgK5NcwY/PQ1u4RvzzrP2BQAAYAS1ZXDzPRC+fd7+skx88x6+Np4BAAAYNIVri+F7Dc89vMjIn4dlid6pvc3/CgAAgJEDeEngewBf2u0jLjHf2609u7ZXr61+/cQRAAAAx6jg318QvgAAAAAAAAAAAAAAAAAAAAAAAAAAAAAAAAAAAAAAAAAAAAAAAAAAAAAAAAAAAAAAAAAAAAAAAAAAAAAAAAAAAAAAAAAAAAAAAAAAAAAAAAAAAAAAAAAAAAAAAAAAAAAAAAAAAAAAAAAAAAAAAAAAAAAAAAAAAAAAAAAAAAAAAAAAAAAAAAAAAAAAAAAAAAAAAAAAAAAAAAAAAAAAAAAAAAAAAAAAAAAAAAAAAAAAAAAAAAAAAAAAAAAAAAAAAAAAAAAAAAAAAAAAAAAAAAAAAAAAAAAAAAAAAAAAAAAAAAAAAAAAAAAAAAAAAAAAAAAAAAAAAAAAAAAAAAAAAAAAAAAAAAAAAAAAAAAAAAAAAAAAAAAAAAAAAAAAAAAAAAAAAAAAAAAAAAAAAAAAAAAAAAAAAAAAAAAAAAAAAAAAAAAAAAAAAAAAAAAAAAAAAAAAAAAAAAAAAAAAAAAAAAAAAAAAAAAAAAAAAAAAAAAAAAAAAABf7MGBAAAAAACQ/2sjqKqqqqqqqqqqqqqqqqqqqqqqqqqqqqqqqqqqqqqqqqqqqqqqqqqqqqqqqqqqqqqqqqqqqqqqqqqqqqqqqqqqqqqqqqqqqqqqqqqqqqqqqqqqqqqqqqqqqqqqqqqqqqqqqqqqqqqqqqqqqqqqqqqqqqqqqqqqqqqqqqqqqqqqqqqqqqqqqqqqqqqqqqqqqqqqqqqqqqqqqqqqqqqqqqqqqqqqqqqqqqqqqqqqqqqqqqqqqqqqqqqqqqqqqqqqqqqqqqqqqqqqqqqqqqqqqqqqqqqqqqqqqqqqqqqqqqqqqqqqqqqqqqqqqqqqqqqqqqqqqqqqqqqqqqqqqqqqqqqqqqqqqqqqqqqqqqqqqqqqqqqqqqqqqqqqqqqqqqqqqqqqqqqqqqqqqqqqqqqqqqqqqqqqqqqqqqqqqqqqqqqqqqqqqqqqqqqqqqqqqqqqqqqqqqqqqqqqqqqqqqqqqqqqqqqqqqqqqqqqqqqqqqqqqqqqqqqqqqqqqqqqqqqqqqqqqqqqqqqqqqqqqqqqqqqqqqqqqqqqqqqqqqqqqqqqqqqqqqqqqqqqqqqqqqqqqqqqqqqqqqqqqqqqqqqqqqqqqqqqqqqqqqqqqqqqqqqqqqqqqqqqqqqqqqqqqqqqqqqqqqqqqqqqqqqqqqqqqqqqqqqqqqqqqqqqqqqqqqqqqqqwBwcCAAAAAED+r42gqqqqqqqqqqqqqqqqqqqqqqqqqqqqqqqqqqqqqqqqqqqqqqqqqqqqqqqqqqqqqqqqqqqqqqqqqqqqqqqqqqqqqqqqqqqqqqqqqqqqqqqqqqqqqqqqqqqqqqqqqqqqqqqqqqqqqqqqqqqqqqqqqqqqqqqqqqqqqqqqqqqqqqqqqqqqqqqqqqqqqqqqqqqqqqqqqqqqqqqqqqqqqqqqqqqqqqqqqqqqqqqqqqqqqqqqqqqqqqqqqqqqqqqqqqqqqqqqqqqqqqqqqqqqqqqqqqqqqqqqqqqqqqqqqqqqqqqqqqqqqqqqqqqqqqqqqqqqqqqqqqqqqqqqqqqqqqqqqqqqqqqqqqqqqqqqqqqqqqqqqqqqqqqqqqqqqqqqqqqqqqqqqqqqqqqqqqqqqqqqqqqqqqqqqqqqqqqqqqqqqqqqqqqqqqqqqqqqqqqqqqqqqqqqqqqqqqqqqqqqqqqqqqqqqqqqqqqqqqqqqqqqqqqqqqqqqqqqqqqqqqqqqqqqqqqqqqqqqqqqqqqqqqqqqqqqqqqqqqqqqqqqqqqqqqqqqqqqqqqqqqqqqqqqqqqqqqqqqqqqqqqqqqqqqqqqqqqqqqqqqqqqqqqqqqqqqqqqqqqqqqqqqqqqqqqqqqqqqqqqqqqqqqqqqqqqqqqqqqqqqqqqqqqqqqqqqqqqqqqqqsIeHAgAAAAAAPm/NoKqqqqqqqqqqqqqqqqqqqqqqqqqqqqqqqqqqqqqqqqqqqqqqqqqqqqqqqqqqqqqqqqqqqqqqqqqqqqqqqqqqqqqqqqqqqqqqqqqqqqqqqqqqqqqqqqqqqqqqqqqqqqqqqqqqqqqqqqqqqqqqqqqqqqqqqqqqqqqqqqqqqqqqqqqqqqqqqqqqqqqqqqqqqqqqqqqqqqqqqqqqqqqqqqqqqqqqqqqqqqqqqqqqqqqqqqqqqqqqqqqqqqqqqqqqqqqqqqqqqqqqqqqqqqqqqqqqqqqqqqqqqqqqqqqqqqqqqqqqqqqqqqqqqqqqqqqqqqqqqqqqqqqqqqqqqqqqqqqqqqqqqqqqqqqqqqqqqqqqqqqqqqqqqqqqqqqqqqqqqqqqqqqqqqqqqqqqqqqqqqqqqqqqqqqqqqqqqqqqqqqqqqqqqqqqqqqqqqqqqqqqqqqqqqqqqqqqqqqqqqqqqqqqqqqqqqqqqqqqqqqqqqqqqqqqqqqqqqqqqqqqqqqqqqqqqqqqqqqqqqqqqqqqqqqqqqqqqqqqqqqqqqqqqqqqqqqqqqqqqqqqqqqqqqqqqqqqqqqqqqqqqqqqqqqqqqqqqqqqqqqqqqqqqqqqqqqqqqqqqqqqqqqqqqqqqqqqqqqqqqqqqqqqqqqqqqqqqqqqqqqqqqqqqqqqqqqqqqqqqqqSntwQAAAAAAg5P/rhgQAAAAAAAAAAAAAAAAAAAAAAAAAAAAAAAAAAAAAAAAAAAAAAAAAAAAAAAAAAAAAAAAAAAAAAAAAAAAAAAAAAAAAAAAAAAAAAAAAAAAAAAAAAAAAAAAAAAAAAAAAAAAAAAAAAAAAAAAAAAAAAAAAAAAAAAAAAAAAAAAAAAAAAAAAAAAAAAAAAAAAAAAAAAAAAAAAAAAAAAAAAAAAAAAAAAAAAAAAAAAAAAAAAAAAAAAAAAAAAAAAAAAAAAAAAAAAAAAAAAAAAAAAAAAAAAAAAAAAAAAAAAAAAAAAAAAAAAAAAAAAAAAAAAAAAAAAAAAAAAAAAAAAAAAAAAAAAAAAAAAAAAAAAAAAAAAAAAAAAAAAAAAAAAAAAAAAAAAAAAAAAAAAAAAAAAAAAAAAAAAAAAAAAAAAAAAAAAAAAAAAAAAAAAAAAAAAAAAAAAAAAAAAAAAAAAAAAAAAAAAAAAAAAAAAAAAAAAAAAAAAAAAAAAAAAAAAAAAAAAAAAAAAAAAAAAAAAAAAAAAAAAAAAAAAAAAAAAAAAAAAAAAAAAAAAAAAAAAAAAAAAAAAAAAAAAAAAAAAAAAAAAAAAAAAAAAAAAAAAAAAAAAAAAAAAAAAAAAAAAAAAAAAAAAAAAAAAAAAAAAAAAAAAAAAAAAAAAAAAAAAAAAAAN4Ch5MJPFDLy6YAAAAASUVORK5CYII=;" parent="1" vertex="1">
          <mxGeometry x="690.71" y="117.5" width="100" height="62.5" as="geometry" />
        </mxCell>
        <mxCell id="TsEhPajcDDmh2en5Xbsn-1" value="&lt;div&gt;&lt;br&gt;&lt;/div&gt;&lt;div&gt;&lt;br&gt;&lt;/div&gt;" style="rounded=0;whiteSpace=wrap;html=1;" vertex="1" parent="1">
          <mxGeometry x="830" y="118.75" width="120" height="60" as="geometry" />
        </mxCell>
        <mxCell id="TsEhPajcDDmh2en5Xbsn-3" value="" style="shape=image;verticalLabelPosition=bottom;labelBackgroundColor=default;verticalAlign=top;aspect=fixed;imageAspect=0;image=data:image/png,iVBORw0KGgoAAAANSUhEUgAAAgAAAAEACAYAAADFkM5nAAA7t0lEQVR42u3deZhT1fkH8O97kswCM8O+ioqCgOCOG7LdZBDLz6VuuGBtq3XfrbbWVuu0tVrrVjfqbt1AGduqWKmUmQTEpbbYurGJiBuyKTD7TJL7/v4AKiqTZCa5OcnM9/M8+UNzc857TsKcc889C0BERERERERERERERERERERERERERERERERERERERERERERERERERERERERERERERERERERERERERERERERERERERERERERERERERERERERERERERERERERERERERERERERERERERERERERERERERERERERERERERERERERERERERERERERERERERERERERERERERERERERERERERERERERERERERERERERERERERERERERERERERJkntgOg1OlU+GoL9rxCgeNVcU33GUvm2Y6JiIjyEzsAeWLjKSMGGyMzAIzZ7n8/JRq/uGzm8g224yMiovzCDkAe2DxtxBGAzADQcwdvr1WR07o/ubjKdpxERJQ/jO0AKLHN00ZcBMiL2HHjDwD9RPXvNdNGXqns0BERUYrYYOSwmtNG3qiqP0v1egUe7DZsyblSAdd27ERElNvYAchRNdNG/FYhP2/HR58qW93vdIlEYrbLQEREuYuPAHLQpml7XtXOxh8ATqkZuPZxreB3S0RErWMjkWM2nzrqOwL8Ns1kTql5f+R1tstCRES5i48AckjNqcNGqPheB9AtA8mpCk7t/uSSp22Xi4iIcg87ADlizen7dC2OR/8DYI8MJltnxBxS+uR7i22Xj4iIcgsfAeSI4nj0N8hs4w8AJa66T+g5owO2y0dERLmFHYAcsHnaqIMBXOJR8vvX1DdcaLuMRESUW9gBsGzL5j3uvQB8HmZy7eapo3qmnxAREXUU7ABYtnnayBMB7O9xNj3Fr1faLisREeUOTgK0SKfCV1Ow5ztQ7JmF7Da2FLm79nl4Wa3tchMRkX0cAbCotmDElCw1/gDQo6DRnG67zERElBvYAbBIIedlNUMBOwBERASAjwCs2TRt7x6C2DoA/ixmq1CtEJ/vv9GY/KfXU+9+4mlmU+Grx6g+Lf5YXyPyv6WITb6Cpf0ff7s+i+UmIqJvyGbjQ9sRjX4HItmuf4HIr9R14TfA5ml7rgfwHwH+A2NebWpGdd/K9+ram3jtaaNGKuJTVOUgAPvVAHsArvF9Y6CpOB67DcAVWS47ERFthyMAWfbFaUPLfCicLOpeAeBQ2/F8Q1QUr7jQl1TNS92fWvxfATRheU7Za2e/iZ0JmO8DunuK+TT7DXbr+sSSz20XmIios2IHIAvWnL5P1+JYyzEAToHIEQAKbceUog8BPCFxfaLs6aXLt39j4ykjBhuRCghOQztGkkTlxrKZi9t74iEREaWJHQAPbZw2aj8D91wApwEotR1PWgT/BPC4+PQpxOVHqrgOQJc00ltT9lm/nSUSidkuGhFRZ8QOQIZpBUzt8pFHK/RKAONsx+MBF5laPaJmSreZ7/3ddoGIiDojTgLMEK2AqVk2clrNcr0G0OG24/FQ5paOinsMAHYAiIgsYAcgA2pOHXH05mVyg4juZTuWPBOyHQARUWfVIR8BaAXMpuV77ixqhsDEh8CVoSLoL0CJAmXbXdqk0PVQWS+C1YAudSFLu89Y8nGy2e8AsHHanrsa4G4AR9kuc77yRc2Aksr31tiOg4ios+kQHYCNP9yvu2lqHisG41UwHorRSG+mfQ2AhQosEFciZU8tfmP7DoE6jr92wJpLVORXAEpslz+fGVWndObS+bbjICLqbPK2A1A3dVT/uN89XoCpKhgPL4/TBT4B8AwEs1Q1KpD7ARxguw46AgHOKpux5CHbcRARdTZ5NQdAAdl82siQqF4ch3sUAF/ScfrM2BnA5VBcLhBFHnecco1CdrYdAxFRZ5RXHYCaU0dcK6q/shwGG/+MUh5IRURkQX798TXobTsEIiKijiCvOgCqnHDX4Yhk6SkOERFtL686AAIpth0DZZYCPBCIiMiCvOoAAOLajoAyTHWF7RCIiDqjvJoECCgPjvk6FehnClkFwSpVXQPIBkA3AmajCOpUNbrtYgPpCkEvuNrLNegjwAAAe0AxDEAPGwWQqHnTdiUSEXVGedUBUCDaiafgtwBYBOANAG+6rrzTPV6zVCo/bcxE4jWnDuvtGv++ojoGgkOhOBRAL68LpX73KgBXeZ0PERF9XV61p5tOHXmLiF5hO45sUeAdA7zoAvMaSrq8OvD+RQ1Zy7sCpub9UaMBPQqqRwHYH979Xq7vNmPJtdkqGxER5VsH4LQRV4vKDbbj8NhHEDwh4j5e9sSyZbaD2WbruQffx5bX0EynL4qfls1ccrPtchIRdRb51gE4W1Tutx2HB1oArTSKB0pmLl2QykFEtiggtd8bOQ4uLlXoscjcFswK1dO6zVw603YZiYg6g3zrAEwWlZdsx5FB9apyb8Cnt3Z9YkneLYfbdPJeQ8QXv1yBMwXIxBLNZgNMLp2xZIHtshERdXT51QHY0uB0hGVjrigeEn/gmtLH315nO5h0NXx/2E6xqO86FZyB9CeWro1J4MBeT779qe1yERF1ZHnVAVDH8dcMXFuH9I76te01hV7cfcbSRbYDybSak0cMU5+5BdCj00pI8M+yL6MTZc6KZttlIiLqqPKqAwAAm6ft+RqAQ23H0Q71Cv1xtxlLH8jlZ/yZUDNt5HcVeieAXdJI5o/dZiy5wHZZiIg6qjzbCRCA4nXbIbTDf0TjB3afsfT+jt74A0DZjMXPNfoCIwG5G+0v7/mbT9nzSNtlISLqqPKuA6CQ12zH0EZ3lG2MjimbuXyp7UCyqf/jb9d3m7H4YkCnoL37/fvwYM2pw3gCJBGRB/KuA+AGJF9GAOIKXNBtxpLLOvOz7G4zlr4kGt8HwNw2f1jRH+KbbrsMREQdUd7NAQCAmmkjPlHIINtxtEaBRqOYVjZzybO2Y8kVOhW+2oKR16vqVWj77+7IbjOWvGi7DEREHUnejQAAgEKesx1DArXG1Uls/L9OKhEve3Lx1Qo5WYE2nl8gd+nUQTwKmogog/KyA+AafcZ2DK1ocuF+t+yppa/aDiRXdZ+xuNKomQxgY+qf0t1rAmU8MIiIKIPy8hGAToWvJrDnZwD62Y5lOzGBnFg2Y3Euj07kjLrTRuwdh8yFon+KH6n3Rc3Qksr31tiOnYioI8jLEQCpRByCv0KAXHmJkXPY+Keu5Mml74i4DgSrU6zjrvFC95e24yYi6ijysgMAAFDziO1Gf7vX9LInFj9iu0ryTdkTy5aJGy+H6LqU6hk4a9MP9hpiO24ioo4gbzsA3Wa89wZEX4UobL5E9K2y5torbddHviqbuXyp+vB/EK1Lob4D4sZZ10REGZCXcwC22fSD4SeJytMWQ9ioqqO7P77sQ9t1ke82/WDEZFG8ACCQ5NImX9Q/uGTmu2ttx+wlx3H8AIYaNXu6gmEG6OEC3URQCFeiIrpRVb9QMUuM0SXV1dUf2I6ZiPJLXncA1HH8NbusWQHBrnYC0NO7PbbsCdv10FFs+uHw80Tlj8mvlOu7PbrkWtvxZprjOINFfMdDEQJ0IoCSNnx8jQDzVHROSUnJs7Nnz26wXR4iym153QEAgJozhp8BxcNZz1gQLn1kWXln2Ns/mzb/YPh0EZyf5LI1pQUlu8j9i6K2403Xljt938mA/kgUEyEZeCynqBHBrJhr7lywYN47tstIRLkp7zsAOhW+2pJhbwEyKovZNrpufO/uj67gsGuG6TmjA7XRulcBHJjoOhE5sfThpX+2HW97jR49OlBa2v1MgXsVILt5lI0q8KyI/iocDr9lu8z0dY7jFAHo7ff7C5JdG4vFPo5EIjHbMVPHkvcdAADY/KM9jhQ1L2QtQ5Gflz209Ebb5U6m7oej+qvERkJkqEJ3B7QfYLopUCqqjRA0CTQGlXUqukZVPlXB0qZo4ZL+j79dbyvumjOHDxfgTQW6JLjs72UPL5tiK8Z0lE8sH++KTgewV1YyVLgweNIYubyqquoL2+XvrILB4HDAfFdVJ4niEAjKUvmcAO9PiEwYUYEK13YZqGPpEB0AAKg5c3glBCdmIatPS+PNe8ifVjXZLvM3bTp/7x6mJXoMoOUAxgFo752lAlgB6CsQWRAz/qqe97/3cTbLUnvW8PNVkeggoJi48YGlj6xYn8240rHljs/cLsC5sPNvb60ozqieXz3Hdl10Jo7j7CfwXQPV49rziEchl0UiVXfYLgd1PB2mA1B/zp4D4m78XQA9vcxHIBeUPrgshYlq2aEVjr/uk8+PU9EzAZQj+Sz6dpYbixT4iwuZ2f1B71c9KCC1Zw+bDcWRrcYken7pA+/f63UsmVBeXj7MjessAPtaDkWhenvvvr2vrqysbLFdLx2cOE75JQK9Ge3/d1nn85tB8+bN22y7MNTxdJgOAADUnjX8RBWt9DCLVaWbAsOl8j3rfzjXnL5P1y7FzRcq9CJR7JzFrF0o5gJyb+mgZbOlAp4NS9adtVs/VwLvAui9o/cVmNftgeWHZ7Hs7VI+sXyMC30BkpHOaT2ArhlIZ35BYeD4l1566UvL1dMhVaDCzHfmzwDk5LQSUpkenl91oe3yUMfUoToANWfvcRREZnuWgchZZfcte8hmGbXC8dd9vvpMVVQAGGAzFgBLVeS3ZV8umymViHuRQe25e5ynrS8NbGmOSe8+Dy+rtVwPrQoGg0dA5c9oe6P9AaDzFOZlEXdpNBpduXDhwv8doOQ4Tm9jzDDEsa8CkwBMSvWZ8naW+fxm8rx587L6eKczcJzQ7QJclm46CnfvSCTyru3yUMfUsToA5w57FMD3PUp+XWmBu4vctaLZVvnqzhmxtyvuw0gyQ96CZap6Rbf73/9bphPWqfDV9hj2JgT77PgCHFd2//JnbVfAjjjOpHECdy6AVI8ybgL0UTHycHV19Rtty8spEpHjoXIOgImpfEaAJYXFhYfOmTOnxnZddSTBYPAkZGSDMp0XjoRzfoSL8leH6QDo1FEFtT1b1kLQ3aMcbii7d8UvrJQNkNpzh/0MohUAki4ZskbxN1f10u73Z3Z5ZO15w0MKt2pH74niD6X3vX+57aJ/UzAYHAWVlwH0SOHyGAR/VHVviEQiaZ926DiTxgHurwUIJrhsY9z1HbJgwT/et11XHcnUqVMLNqz/YjGA9M+sEP1uOBx+3naZqOPqMB2ATRcMnWxUXvIo+XjcxIb0uOfDj7Jdri/P2b2b3+d7DMAx2c67nepFcUXJve/fn8lNkmou2OMvUBz3rTcEr5VNf/8w24Xe3tixY0sL/IX/hmBYCpe/FXfNGQsWzPtPpuMITQxNVcHtAHb6xltxiB4ZDoe9+vfSaTlO+bkCTTYxtUmBewH3ydLS0sXctZFsydvDgL5dECn37LQ/g7/ZaPwbLhiys9/vex2CY3LgxMNUX13V4N7aC/aYXXPhiF6ZqguNx6+CILaDEwL316mjcmpUpMBfeG9Kjb/gAYV7qBeNPwBUz6+uND7ZF4oXv54tfsbG3xsCnZrwAsXHCvegSKT68kgk8m82/mRThxkBqL1o6L+hGO1F2ip6XNndHzybzfLUnD98uJj4XAC7ZDPfDFsp4h5bcvfKjGxHW3vh0CcAnPbN/2/UPbjr9JX/sl1YAHCc8hMFyVeiCHBTdaT6Z1kKa7vlaDorHAl/z24tdUyTJk3qFo+569H6kr+muGsO5vbMlCs6xAjA1jvN/T26o60rDTRn9W5p42UjBosvXg3BLjlwR5/Oa3eFebXm4qFHZ6hqboRAv5mP65NDsvn9tMZxnBKBe1vSC0WuymLjDwAaiVTdAdHxTc1NZ9uroY4tHo8fiATr/QW4j40/5ZIO0QEQEwtCYDxqxF6U2z9tzFZZai8e2scfj70EwcAcaMAz8SoR4C91Fw/91p17W5Xes+I9EX3x248BZGS2vp9EDMzPAEm4J4MAd4TDVb+3EV84HP7na6+9lrXfcmejavonfF90pu0YibbXIToAEPXu+b8gawfOaIXjh6ASgmE50HBn8uVXwWM1lw5J/+5TcPc301dp95bHGTNp0qRuCiTesEXxxubazT+xHSt5QwT9Er2vqstsx0i0Pb/tADJCxPHoVN7mxmjRi+knk5r6TZ/8FpLaGu42qAHwEYAaKBoBFALohy2NpifbBrfCCHBv7SVDakvv/OCp9ibStecHc+s2DvkE+Gr3Q2n/mQcZE4u5FwkSLEFVNMTVf8qiRfl/hDHtmKiWJfor1KdPH074o5yS9x0APWdglzrRVJZbtccbfae/V5eNctReNiSkwE8yMC2zVoG/iurzPuN/vcvtyz/b0UV6zuhAbcnG3RDHMBE5GIqjINgP3k4MNRA8Wnfpbl+U3PHhP9qTgFTArb0MfwJw7VeFwa4expxUBSrMfMw/N2HVGfntgvBcz89Q6MwmT57cNRqN7qVq9hJ1B8KYUlEtUJEGVXzmUyyPS/xfkUhkk+1Ys8FxnP4+9e0dF4wEtLcBSl0gaoB6F/KhT7E4LvH/5NIxw5MnT+4bjUbHiSs7uYK+BigFUOcCq4zB267rvmkzXsdxSnzq21uhe6mRAapaCsAvqg0C+VSNLi8qKvpXvmyulferAOov3f0g10ibdk1rg+tLb//g2vSTSUzPGdilrkvx25C0Ng95VVSnd21o+qvcv7pddxoNFw8dFPe7RwE4F5D9PCxyrZr4wWW3rlrang9vunL4br54bAW2e4RVEpMiW7s0Os6kSQI3UYdmbVNz424d5fn7uHHjegT8BTs8Q8D4ZFRVVdXiLfXi+AG/Y+A6uuV0yn7Ycq5DL7T2t0fhig/DqqurU9pMauzYsaWFgcLTXOB4ASZgywhXInEoFolgpr/AP2Pu3LnrvnlBcGLoPQi+Na9EgdmRSHWr+3GEnFCFAtclyHsj2kDhjmzrxlATJhy+h8/nngFXj0Rru2d+Xa0C84zi8c11m1/45ghVcMuGVjveilj0B+Fw+LHWEg4GgydA5ZkdvBUNR6r/t3R3ypQpZY2NzecL5ESoHoBEJyYqagB5Fsa9PxwOv9KWumkvx3G6i8j34cp3AYyDJN2MLQbFGyKYGSgMzNjReRtBJ/QJgEE7KOCT2Vylk/cjAHFj9hHxZPgfIu6CbJShrqT452jnzmECrFKVq0puX1EpaT4H6XLXik8B3Avg3rrLh05W0Z9iywmDmVYq6vvzugtGHdKeEZbutyz7sPbHQ17FlkYFALA+XhgAYKUDIOJOS1TzCtzeURr/VDiOU2RgzlLgCsAd3KYfpejc6upw0sbfcZzeIubnUJylQGkb7mR8EByswMHRltgNwWDowUDAf/2OOgIe6NGWiwOBQMpztBzHOVAgvwHiR0Ahbbi1KxXgOBUcV1babZXjlP+uT5+eD1ZWVnpytsf2pkyZUtjU0PTTpobmy0TQc8uep0k+JCgD9PtQ+X5wYqg6ruYyr1ZWOI7TXyDXQOUMAF3aUKd+CA5T4LCW5uiNjhO6t7AwcGMuHryV95MARdy9IAoPXtE6aXjV6/jrL9t1AKCXtyM+FehNXcvie5bevmJWuo3/N5XcvmJu6W0fTFLR8RBd6kH9jiwubnygvfGpYPb26fUpqLfXmVUk2q895vPJn6zFlu2qUB0kMBEF7gIwuK2fF5XpyS5xnPILBWYFFJdjyxBxexVDcXG0JbbUccp/ZK/W2m/cuHE9gsHQYwLzBiDfQXqjuoMFeu+GdV+8EQwGPT22esKEw/doamh+FSK/RntPyRSEfMZdFAwGL8lkbBWoMCEndKXArADkQgi6pJFciQBXtjRHlwaDwWmZjDMT8n4EAD7s7c38P323/y1r670O3/X7rgHa/ANrgMiZJTd/kIEDRxIru3XlQq0YvH99rblOBVcis7+ZU2qvHPJc6S1tnxQokBcgetO2/671FVj5LU+YcPgeQHxQa+8L8Peqqqq1NmKzQV08B6ConR//qFffXq1Oui0vL+/lxvEkoEdkOOweAn0wODEUamppPCtrlZWmrYdNzYRiUPqpbUdwAFReDwaDFwL4pweh+30mvgjpdd62CUDljmAwNELVvSTd+QHl5eX95scXPI0UD9Rqgz5QeTLkhIK9+vS6cMP6LzKcfPvk/QgAgH28WLqmIu95HXjN1SN6QfDDNsa21rhmXGkWGv9tpGJVU8mtK682isMgsjqzda131l49tE9bYyq9dcViCD7Ylo5I3Mpv2Rg34TkEKjrHRlwWtbfxB1Tva23oORQKDXFj+qoHjf9XBNMKC4tfgrT56OasC00MnSpw5wEZbvy/UgSVh6C42oO0BZlp/L+iOF/UPIo0RkDKy8tHunF9HZlv/LcLE2dtWPfFbCSfq5IVed0B2HjZ4O4i2kdEkemXESz2On7jtpwtol1Sj0nrjOCorret8GTv+GS63rryX37XPUygSzNY130kFvtDe+IRwext6dijIxK9G4/7whaDyx+KFuM3D+/oLcdxBqmLKqR2uFJaBBgP2F1VkkwwGDxeBY8jK42IpL2BV9YIpgWD5e3aZ8NxnKFuXKvQjsdW7YhzMoA23/R4Ia87AIUF4tmGOSKu5x0AQNty9x9Vo1O7/n7lv23WefGtH37k+lvGieirGatvI6c2/HS3g9saiyv487Y0oj61MgHQAIk6AM39+vVYbiOuvCNauaNHJZMmTeomMPOQ441yShTVgM5L9eW67rd+06FQKASVpwD4bBcnJ6neEAwG23QH7zhOb4H5B4D+bflcR5CXcwC0YmCXhqbCy13gp17lEYsbTzsA9T/bdX8Fhreh1NeW/G7V372MKVVlN372xbqKUUd0aWqoBnBQBpIUV3Az2jj0VnbTyoX1V+9+NFxoz5tWbrZRFy6wU4IxxxXpzqYOBoNnwpVf2CibCt6KRKqPz1BycUBfE0iVC/nEqH5tnbQruqPDnCQedR+GpPzvpBGQuaL6HHx4D8BnruvWBwKBLvF4fARcHKaQEwDdz0Z99u7ba0plZWVLez9/+OGHD4xF4zOQ6gZeitUqeF5E56jqSgBrYrFY3Jji3n6J76Wi5VCZCkFfG/XRStB/V5hnfD68BmBtS0tLgd/v3wUwR8DVH0Cwe5IEfFBzC4CDkcLE6C17eLz8BKCDUwywHpC/Q9znVXVxIBBYHY1GGwCUiMhwURmvwAkA9rJdk6nIuw5A7c8Gn1zfLLdBMNDLfMpiLZ96mb4r5vg2PKx6q2vh4FuBVV6G1CZ9K96rq7166JGC+D+RmZ34JtT/fNcpXW/4qE3PzLveuPIFm/UgQFlr7ymQgaVlpjtEk/3R86Zsig0ZSunPcddcvWDBP95vy6ccp/z7gCbvgChaYHBfLBb9zcsvv7x+B1dsArAaQDWA6x1nkiNw70Ke/JHeJh6N3wck3m54C/lcVK9zxX2klUlxGwG8D+CvU6ZMuaK5ofkcBa7fssTOEsVy8eGM6urwjlZefQ7gn1OnTv3dF+u/uESBG5CwE6QHhiaGTqyeX530VM4FzoILAKQyr6RJgbtjsZYbFi5cuKP9HDYB+BRAFYCKUCg0WeO4KxuPrdKRNx2A2oohfU2LO12hJ3i07e//CLTO6wOAjGgoxVK4RvV8qcid3bq2Kb1xxfq6q3Y7Dj59DUBxuumpypUA8m3SXElrb4ii1nZwVilcAS6rnl91V1s/uvVo3ZuSXqj4WMX9biQc+W+qaUci8yKjR48+oKys+9Vw9bqEG8/kiNDE0NEKHJW8OjA7Gm067ZVXXknptzdnzpxmAHeFQqG/qCsPeTrJsnWvqLhHhasT79C4dfTklvKJ5Ytc0b8hwd8cFfk5gIQdgPHjx/dR4NfJghPgfRfuMZFIJOWNy6qrq+c6jrMvYK4T4Crk6KZ7Of/DB4C6n+9SLtH4uyp6QjYOr1GR9alH13Z6Zb+uKjgotefjmNXlxo9es/0dtKbkpg/fgug1mZkLgFD9tbuMtl2mNtEE/7Dtzk60z8jV1fOr29z4A1vOVkDSu135r/HLwZFI6o3/NosWLYqGw1W/VpFzoHBtV1USoiJJGyoI7nIiE45NtfHfXnV19Wc1tZuOhuIvWS7bKoV7bFu2Z66aXxVWyBmJr9L9HMdJOMIT8AWuQNLNmeT1QGHg0LY0/ttEIpGmSKT6aoVcDq/vWtsppzsACkjdNYOvgjEvQdAnG43/1penHYDGwuK9IQikEosRvdP295BM1+Uf3aGC1zPS+VKT0U09sqD1nQy37BOez9I5B2N+e489dhynSICLk1y2Ju76jkl3j4VIpOohFcnp31woFDo86bwFxfMTwxMuq0BFuzszixYtitbUbT4FkJeyVjjRKyORSJsfNUUiVU9DkeSgNl+roxljx44tVeC8JNl8FCjwfTfdHfwikao7oGplHk8yOdsB0ArHX3/t4Ach+B0Eviw2/oDA010a1Cd7p3hH/EaX3+Tu3f82Uom4T+VSyNb74bRWX+jxemW/nF+HvZ1EjWRv28GlxaDdjatRSeMMDd93kOzuX/R7CxbM/SQTxYxEqqZvmXmfmzSOHyS55LOWWPP30mn8t1m0aFFUET9ry5773hLg/XA43P4RB6M3JEl/TGvvFfoLjwXQLcHHVQxOytQW0RPnT7wJkNczkVYm5WQHQCsGF9XFV/0Zomd6tM1vwpfC2yVlCh2SYhyPpZ9bdnT57YdviOCZtOteUFJfXHic7fKkSgWftfrmlsOd0nz2526CYqVHr4R/3ETbPYnxs6r5VQvbW2KBe2LiSseL4XC4Kr16/XqKYuQ8WDpLIpEpU6YUQnB04uqQ69oz7N+aSCTyqQDXZKF4zyONofGJ4YmvAUhwWJK2unpEgYS/MQGerq6uztghcxWocOOunAPA8zMW2iLnJgFqxaiCeq37sxj8n7UgjHo7YUMwIKXr4qi2VgftYfR3UExNOx2RUwE8Ybs4KYWq+j6k1Z9L10mTJu02b968le1NPxwOPwzg4fZ+PpHgxOC1QOvPll1Im2btf1UpeBXpPPNUCSbqNhnI9Zmui+rq6g+CE8ufhuj3M512Opqamg4EJNGjpE/79On5p0zn64r7gMD8Eh6OYrmQtA7xqUCFG9TQYkir6/f7tfI5M18WJFxyrKIZ/40tWDDvnZATmq3AsZlOu71yagRAZ8HXgLqnRPB/IoCtl4F42jES0d4pxPF5yW8+atdxubZ0rfjoTYguyMB3ENSKwe3fUjaLRBI3kvF4fFyqaVmI/tAk77/VrmRd+by9EU2aNGmXJEt8P6uaX+XNUKpxZ3iSbnpBHZL4fX3Oi5P7IpFIE6B/9rJkIm4m5lq1PgKgO97SeX5w/p5IPPy/NBwOe7MVvCKnfmM51QGoX7zLbRA9zsaw//YvMZr2krZERLQwhTgWiuTmzNHEhdM/ZeA7KK5HfILtoqTChZuwMRKVw1NNK5vGjBlTDEmw8ZLCLS4OvN2etEW03Uto4/H4HgnT3rJM1Jvjv1TnA8it5bbqJl5HLskmwrWfqGTyMcuOZKDjIq1/X60s71Q1CX9jEO+WIgeKAl7XaZvkTAeg/tc7nycGl2R5st8OX+rxzlguUlkBoMtsfyft0ayFf4Ygmu53YAxysuH8JifivI0tm4DskCqOGTNmjKcdyvYoLOxyBJDg0BvBv+bMmeP5RLBvZetKwg2+VORDr/LecteLD7Jd5oRUEj4u3LrDnzdZG83CdujZJ+Im/I2JwrM63bKioP0jZJmWEx2Aut8O2gcif7Dd8P/vBezsZXnFoCV5DOYji19Ju/WqWFEjoq+k+x24Ioe0I/usq0CFK0Ck1QsEZYWFXU6wHee3w8JZSd63su20msRLJ1V1tcchZGj3wwwRTbg7n9/v96wxMcbkVl1kiKok/o2Jt78xgeZMvVrvAGjF4CJR8yQEhdYb/q9e3b783e7dksWeRq1vSroczqdZv/vKFBUJp78cEPtqhf3fZ2oFxqxEbwtwhe0Qt1deXj4SqlMSXmTwvI3YRCXJUjaJehxBjh2yIwmHyevr69t9tkAyLS0t+fHvr41ENeFvTFxvf2OquXOQk/UvuL4gdhNE97L93P+br0A86tkogEI/SWEJYEn6OVli3H9n4Dsoay4cZGUP/LbyF/qfB1Df+hW6n+OUn5hygh5zY8m2v5X/VldXv2klOE1Uj4CBenyMqubU3g0KNCR6v2vXrp7VR0FBQU4cWZtxJvFvTI3Xv7Hc2R/Eageg7re7HC6Qi3Pgjv/bz6BFBntVbjFYkXQeQtItKnOXMe67mfgO4iKjbJclFXPnzq2HypOJrhHozUcffXQX27GGQqEQJPFSTVH1ZNlhKgSyKtH7CvXsAJ+tczV2s1X2HdaHJD4BLB6P7+1V3vE4Rtouv0dWJX5bPPuNjR8/vg9y6PRFax0AvW90wBj3TgjEdmO/45fr2Z70LnRx8g5Ibt2JtEVR0+rVEMTSfgzgSv6cAW/c25LsKT+4trb+VpshTpkypUzjeADYOtNlx9a74j5iK0ZTYJJMwpMjp06d6skQanFB8SQgd4ZnAUBVEteHa47xKm9j52CgbEhcpwrP6tTnK5hsu/Dbs9YBaNy0/kIVGWG/oW/tJWPgkZJm9w1IkomABgfb+m7SJRWIQbA27e/A53p65HMmhcPhZRD5a8J6Ac4LBoMnWQpRmpqaH0Sy89RFbolEIumcAZCWf/zjH6uR+A6t/xdffDExxeTaRIFTbJW7NT7FqwkvED1+9OjRgRSTS9nRRx/dRT1sCG0Kh8PLkXiy5xDHcQ70Im8DzanfmJUOQM0tA3sr3F/afs6f5HWwJjrpLQ1SsboBgn8l2RJ3jN45tNDG95ORMhqtTX9LZvSyXY42lvkqJNtOVuVRx5mU9c2BQk7oxqS7NCo+DgR892Q7tm9KuKoCgLry40znOWnSpN0hsNU5a1XPvj3fBLA5wSW9S0u7Z3z3wtrahrMh6Gm7/B5RQOYnukDEZPw3NmHCpL0VONJ24bdnpQPgV/NTCHrYv8tP+OpR9/tdR3hVB2LwlyT5F9c3NubwLnKJKRBP9ztQSFk7sramurr6AwH+kOSyIoH7YvnE8mC24go5oet1y5nkiRm9eO7cufUpJOkpF5JkBzo9MhgMZvTuNB51b0YObo2+ZZc/fTbRNQK9yXGcjD0ynDx5cl9R/bntsntJNMkuh4pTQ6FQKFP5VaDCGOPegcSP37Iu6x2AjbcP7q7AuTa3+k315ZP4JO9qPl4pAjfhlsQiF2X7+8kUERSkvSWzT61PmmurxubGX0GRbAOVUlf0xdDE0BlexuI4TlFwYvmjCiQ/ilRQGQ6HrSz9+6Y+fXrOAfBpwotU7pkwYXJGVuo4TvmFEBxvu9ytFhW+B5Nc0svA/DETcyNGjx4diDbHHs+liWpeKOxS+Bcg8amv6uK+yZMnZ6Qe5gdf/pkAWev0pyrrHYCiWPR8ES3LgSH+5C/jerZ0q8sVqz+B4PnE+esxTb8ftEf6uVkg2i3tLZmhOTUhKxWvvfZaI4xOQ/KT5YpU8HAwGHqsvLw84486JkyYtL+BeQOpHW6zwuczZ1upsB2orKyMQ/XOJJcN8pnYP9L9Ax0MBk8S6B22y5xIJDJvIRQJT6ZT4MQN6zfchzTuMB3H8ZeVdXsIgpyaqOaFOXPmNENkepLLhkZbYnPHjRvXI528HKf8R9DMHy6UCVntAKhC1OC8HBjeT/El4+p+P7i1k6bSJnBvTRKDcY3+Oo0srND7Rgcg6J32IwCBx5u+eCMcDr+lwHlIZc96xeluXJc6TvmFjuOkfQCS4zj9g8HQdJ9x31AglSVi9Qp36rx58zancG3WqOhdgH6S5LLh0ZbYK+UTy9s8YXfq1Km+kBO6Bq7MRI7N/N9xfZjkj3AgPwpODD0zfvz4Nq9jHz9+fB+BzIHidNtlzZaiooJbACQ7kGjfgK9gYSgUOqCt6TuO43ec0I0CTbbyxpqsdgBa7tx5FAS72G/YU34Z8bd4NjRYfOXqhSKYk2Q1wCkNtw06LpvfU7oa6z7vD4HJQP032S5Le0Ui1X+C6m9SvLy3QO8WNR8EJwZ/5TjO0LbkVYEKEwwGxwad4IMC8yEU5yOV59mKFoieEIlE/mu7vr5df5EmRUoTsYa6oi+HnNAtoVBop1TSDgaDEzes/+KfCvwGYn8ztNTqY14E0KeTXig43u8LvOM4oR+m0qF0HKcoNDF0vt8XWAKId488c9CcOXNqRFOYGyMYqS5eDzmh68vLy/ulkLSUTyw/3MC8KcDPkKONP5DlSS/xuDsyd6tixwTmFADJhoraLQbfT7bONUiwlEf/WH/7rq93vfyjnDlEIhFjMNxNPxko0O5T5XJBeH64IhgMlUJxeUofEAwE5JcC+WXQCS2FSjWM+5aqb7nPp+tEpA6APxaLdTFqdnZFhonoIfP1ZSfZoTE7EIXR08Ph8Eu266k1kUjVMyEn9CcFfpjkUp8CV8DFpSEn9IILeVbE/W8sFlutqjFjupQEJD40LjrBACeopjQyknOisej5AX/gMECSzX3oJ8AjUHNryAk9DkVVTH1LXbdxAwD4/f5+IjIKrgkBepJK7uxMl23V86sfCTrlRwKa7LyOgAK/0Lj+NBgMPSsuZsfU/NeY2OexWCxeVFRUGothmIhOENUTXeietsuWiqx2AIpruj/b2G3TfIh6so7XGzq+/vaBB3S9fLUnW6OW/vjj9xr/MPB6BX6V4LJ+BrG5NXfv5JRd9NkXKSduiWuwJzT9E1tFkbfnIWyl4XD1j0NOqEaB69r42REQHQEVCFy4cWDbEwWBgQog0K3/q811XSsGJ1ZXh+farqBkXLgXC8zeAFLZmMuvwLECPRYq8Pu29aljcLHlNiz/ztf+ysKFCzc6jnOSqFRBkHyCrKCnApdCcKlP4vCZgq/eU2yZa0OIxprPDvgLRgBIZefRABRTVTDVJy4Ag4C/APGYu+XeVvPrN5bV4S+peK+l2Nd4DASLcmB4P+WXGGR8Tej2ijatvgEGryV+Hq57+eOYs/m2QXmwNlcOykS9q8GXtkuSCdWR6gqFfA+A9SV2AFYo3AnV1dU53/gDQCQSqQsU+P9PgPdtx5ILIpHI6zB6EpCf82Ny0cKFCzcq3O9A8bHtWLIt68+/5JIva2JRfAeCN2037G14ndRw506DPKuTCsQ0HjgBgtWJ49CDAn53Uf0dAzzbpjgzBdLDMlTvlzfdObBDzEiORKqejLtmDIB3rQUhmFlUXDg6F5/5JzJ37tx10Xh0IoBFWcjuXQGW2C5zIuFw+G8KOQZAreeZJTnpsqOIRCKfig8TALznfW7ybyhW2i4zYGkjoLIrV29oKiwKAViYA417Kq8AjF7iZZ10vfyjz13I/0HwZZJYBouRhQ13D7xKHxmc9qzxTGua3m93CIZkZORFUOYKZjfcPTCnts9srwUL5r2jcPdXyGXI7mjABwo5OhyunjZnzpy8fKzy8ssvf65wHS8bJAXmFBUXjlXoWtvlTSYSqfo7RMd7ODISh8gVMTeat3uRtFV1dfVHPr8Zq8BszzJR/KWktMtECDbaLi9g8SyAnueu3FxciCME+Jv19f6pvKAXNd4xcBcv66Tkks/eUuN+B6JfJImnCNDfNdY3L2u8a+AZetug4rbkowqpn97/yIZ7Bjxef8+AjK7/jrsyJcN1XwDgsfq7+k9JO7gcEIlEYpFI1R0KdwSg9wCernT4VIDLFe5ekUjVC7bLnq5IJFIXnl99siimIfFe7m2jqFHIRU5kwlH51EEKh8NvdS3tuh8EdyU5iKpNBHgHomPD4arbbJcx2+bNm7c5Eqk+BqI/ArApg0lvVMhZ4fnVJ86ePbsh/eQyw+oSGDl3dUNRv9XfhcgtOXCXn+xVrH73917XSdcL1/zLwBwGIx+kENMuavThpkL388bpAx6onz7wmLo/9N3hMhVVSN1d/fZuuLv/TxqnD1gqKi8A+J4A99dPz9wjBTFyYubrXgNi5Ommu3ca5nX9Z0skEvk0HAlf5A/4hghwbcbu5BQuoBEFzujdp9eQ6kj1HyKRSN4up9yR6vnVM4uKC4fIlomzm9NIqgmCB1TcUZFI1T0VqMhYI5ots2fPbgiHqy8xftlbgGeQ1hw0/QSqP95cu3l0OBz+p+2y2RQOhx8uKAwMgciNSGe0TtEA6D0Kd2QkUvUQcmyOoPW9r+UkxIHVP2m8p/87EPkjkMLsVovRNk4fcE/xBZ+/7GUuRRd9tnzj7YMPLC5oflgFxyX/hHYDcJaBnoUCHxqnD/gYwIcCWQdoQIE+zX/ESJ8PPXb46S0r9tPWcM/AnQU6ITOpfUupK/FKfWTwIXLGqg7ToG09/e56AL8NhUIHuS4OB1AuikOQykxvAFCsg8F8cRGOqf+FBfPnJttAJ+9tvVOvmDx58s2x5tgxruBUURwBQUHCDypcFSwC8FxBgf+BuXPnrrNdlkyoqqpaDGDqpEmTdonH9RSoTgOwbwofrYeiCkafrqmpqVy0aBEnF2710ksvfQng52PHjr2xoKDgOChOxZa9EpK1m3EF3hCRZ40PD1VVVefsyi1v/lS3U/M9A/aMG8wUaCo/XCsEeLOw15qDt3RcvNc4fcD3IHor4Mne3C0qcnWX8z7PyFBf4x8H/Bbw/BCR3xSfv+aXHueRCyQUCu0CYLjrygAAJYCWAIABNruQOhH3Q1VdFolEMjccnseOPvroLg01DaMUup+75djjElEpANCkgpVGdaW/0P/PZI3+2LFjS0XkW3/k/X5/NNFRyWPGjCn2+XytzstZuHBhVp/7Tp48uW+8Ob6viu4LoLeqbL0BcDeoyIci+r6q/jPJCJGMGzeu+47eGDBgQH1lZWVLNstk2+TJk7u2tLTsDfj2NdDdFFoCNQEVbTCKlWp05dY6TfhvcsqUKWW1tbXf2oGyS5cuLdk8kCunOgAAoHcOLWwuqLteBZchB0YodkhwXfE5a7K2Re/GRwZ3L2pp+jGASwFk6oS8sIG5oPDc1UszkZje2bOsuTDwkUK6e1wdzSK+fYrO+Wy5x/kQEXVoOdcB2Kb+voEH+MS9X1PbACTbYmqM0+Ws1a9kM1N9rF/XpiaZCuBMAOPQ9u/PVeBF48o9Red9/vdMxtZwf/+rBPhdNupBBJVFZ6/JubPbiYjySc52AABAZ8HXtLnfDwH5NYCBtuP5GsGqJl/R/j3OWLXJRvZND/fbXWMyAYKDBThUFUMg3xodcCH4WFz9L4Bqjcvs4vPXrMp0LPrI4KKmWNOHADw7OOmb5RJjRhb9aPWyLOVHRNTh5HQHYBt9rF/XxhY9XyCXAMjIGeCZIEBl4Y/WniySGzM7tQL+ul369whAS+PReGMXbNgg53q/Y1jjA32vhUh2Ty1UPFR89tqzsponEVEHkhcdgG20AqZ5UL8jVfALAIfYjgcAILix+My1Xk98y1lN9/cepj7fWwCyvSlRbVFpoJ+c9GleHxhERGRLXnUAttf44IAJMO40AMcDaPP515kk0AuKzlz3R9t1km2qkKY/9Y1AZYKV/CFTu5y55hnb9UBElI/ytgOwjc6Cr7muX9A1+K5AHShGWShXXESOL/rh2udt10c2NT3c91wV3GsrfxE8U/TDdVNt1wMRUT7K+w7AN9U8ulOvArflIBgz3HV1mAjOBeBLO+HkGgXu1KIfbvib7TrIhobH+h0irkaQ/aH/7W0o+sG6vrkyB4OIKJ90uA7ANzX9qc/tELksS9nFFXpO8Q/WP2y73F6qf6j3QJ/fvAFgJ9uxwNVhRWes51GxRERtZPUsgGwojOsvIfg0S+cF+ETkwabH+15pu9xe0VmDik1AnoVgpxw4nwHqlzG264SIKB91+A6A/GhDrQCXZvHkQAH05qbH+tyus5LsS55n9LF+XZubm58TwUHWT2fc8moURc4f3UpElIs6/COAbZqe6DMbwFHZzFMhb8CVU4q/v/ZD2+VPuyxPduvRogV/UyA37rgFy42rpxacvuFN26EQEeWjDj8CsI2K/yII6rI5PC2iB4vPfbP5yb7H2y5/Ouof7z2gGQXzVTDG9pA/BDEI7iiMmwPY+BMRtV+nGQEAgOYne5+mIk/YyFuAx6KQn5ZMW5dXQ9YNM/seZtSdAciulkNRKP4uaq4q/N7ad2zXCxFRvutUHQAAaJrZ+34AZ1vKfjMgvyzsv366BBGzXReJ6Cz4Wtzev1DFtbB7KmO9AH8VMbcUnLLuLdv1QkTUUXS6DoDOGlTc7Da9DmAfi2G8BTFXFZ287iXb9bEjTU/22x0m/igE4yxk7wJ4X4FFRuS5gi6BF+To1Q2264SIqKPpdB0AAGia1Xs4FP8GUGI1EMF/RHFzQd8NlbkwIlA7q3+fgBv9BUTOB7xfwaCCfxtXfg+BQN3mOHRtsfG9Kyetr7NdF0REHV2n7AAAQPOsnicrZGZu1IF8CLh3xGL+p2zMEdDnepe2NLmXqciVwLeOFPZKsxj34MITN76d7fISEVFONH72NFf2ukqB39mOYzsuVF4D3MooCmaUnrRmvZeZtczqPdo17jlQmYZsj4ao/LTopA03ZzVPIiL6n07dAQCAlsped6rgYttx7Cg0hb4uIgtVzSuFbuwVOWnj5nQS1DD8sfU9DnXFHAHBqQCG2CiYCuYXvvNFSCrg2sifiIjYAYBWwLTs3WsWgBNsx5KEC2AxgPdFZZUr+iFUVhnBZy58m6KCupKCpigANDcU9PIJBrg+3UnV7W9UdnON7i8q+8PyvAcF1mvcPbD4pI0f265QIqLOrNN3AACg6bk+QyUe54Ey3ou5aiYXn7AhbDsQIqLOzub67tzhut9hV8h7Cvyk+Hg2/kREuYAdAAAGeoyyA+AphUwvOvaLP9iOg4iItuj0HQC9D4EWg7G24+jQVJ8tbPnyEtthEBHRVzp9ByA6oNd+gNvFdhwd2NyCwMZT5FjEbQdCRERf6fQdAMA9iM//PfO3gpJuJ0pwY7PtQIiI6OvYATAYYTuEDknxQoFvIxt/IqIc1ek7AGowDKq2w+hQRHF3oGTT5blwvgEREe1Yp+8AALoTHwFkTFwFPy6csulO24EQEVFinb4DIEAfdgDSJ8BqKKYFpmyabzsWIiJKrtN3AGDAFQDpq/LHA9+TI9evsR0IERGlhh0AUR5Ik6ZAFFPlqPUbbcdBRESpYwdAwBmA6TKbG2yHQEREbcMOgIGyC5CWGvk/cKkfEVGe6fQdAAHqVdDDdhx5S7HOdghERNR2nb4DoKKfABhkO458JSLv2I6BiIjartN3ACD4GMAY22HkL/2v7QiIiKjtOn0HQCEfi2R1EsDTKvqBKI4EZF/b5U+fVtuOgIiI2q7TdwBE3MVZ2gjoS1W9sDBY99TW//5F48Ieu/hi0SMFMkWBwwD0sl0fbbTZr7Wv2w6CiIjartPvgde8oGSkqLznYRYKyKxYLHpFl/LGz1q9SCEtC0pGCOQwQPYHdC8AewPoabuOEhRtRsHEutNsR0FERG3X6TsAqjCxl0s3AijzIPlX4OInAaf2tXbH90pJ32jcDDZwd3FhdhbRvqLopUBPQLptvcoPoBRAEyBNgAYBmCxUXnlgYh0fARAR5aFO3wEAgOjLpc8DODqDSb4iwE3+8bWz7ZSn5DpAKrzMQ4APfeNqh4qAOykSEeWhTj8HAAAUeEFE0+0AfAboDBfyaOG4Oi8fKSTlH1f3m9irXQ+EylFe5eGq3uFn409ElLc4AgBA3+jaPxaVT9D2DtFSAcJq9C/+Q+urc+luWF9FcUxLXgIw3oPkP/W31O0hQTTZLicREbUPOwBbRV8peQ6CY1p521XIJwJdIYrlMPqKL65hGdew2nbciejC3qUx0/RXAOUZTVdwfsGYunttl4+IiNqPHYCtmt8oGSWujAUAKFqMaK2qbnYhnxVsrFuZr/vd64sojHYvfUBET89MgnjP363uABmFFttlIyKi9mMHoJNoea3kfBG9BUCXNJKJqdHDCg5u+Jft8hARUXq8XypGOaFgTN0f/a47DNC/QIB2vQxuZuNPRNQxcASgE4r9q+REuO6NKjI05Q8J3vZ3rz9Y9sjPRyFERPR17AB0Uqow8X91OVIF1wA4OMnlG+ISP7TowOYPbMdNRESZwQ4AoWVR8aFGZRqAkwH0/cbbTWo0FDigsd27GRIRUe5hB4D+R2fBhz26HOC6ElTRQ6DYB9Bf+Ec3zrIdGxERERERERERERERERERERERERERERERERERERERERERERERERERERERERERERERERERERERERERERERERERERERERERERERERERERERERERERERERERERERERERERERERERERERERERERERERERERERERERERERERERERERERERERERERERERERERERERERERERERERERERERERERERERERERERERERERERERERERERERERERERERFR7vt/Zb1Mgb55twcAAAAASUVORK5CYII=;" vertex="1" parent="1">
          <mxGeometry x="835" y="121.25" width="110" height="55" as="geometry" />
        </mxCell>
        <mxCell id="TsEhPajcDDmh2en5Xbsn-16" style="edgeStyle=orthogonalEdgeStyle;rounded=0;orthogonalLoop=1;jettySize=auto;html=1;exitX=1;exitY=0.5;exitDx=0;exitDy=0;entryX=0;entryY=0.52;entryDx=0;entryDy=0;entryPerimeter=0;" edge="1" parent="1" source="-BB69u0BcrIW1WyyOu73-2" target="-BB69u0BcrIW1WyyOu73-4">
          <mxGeometry relative="1" as="geometry" />
        </mxCell>
      </root>
    </mxGraphModel>
  </diagram>
</mxfile>
